<svg width="326" height="60" viewBox="0 0 326 60" fill="none" xmlns="http://www.w3.org/2000/svg">
<path d="M0.000610352 39.0071H7.79918C8.84785 39.0071 9.85344 39.0997 10.8147 39.285C11.7908 39.4556 12.6462 39.7688 13.3785 40.2234C14.1257 40.678 14.714 41.2972 15.1448 42.0797C15.5904 42.8475 15.8131 43.8287 15.8131 45.0231C15.8131 47.1133 15.1448 48.699 13.8093 49.78C12.4874 50.8465 10.5489 51.3803 7.99242 51.3803H2.75768V59.6364H0.000610352V39.0071ZM2.75768 48.9269H8.05765C9.8239 48.9269 11.0806 48.6063 11.8277 47.9665C12.5884 47.312 12.9699 46.3528 12.9699 45.0865C12.9699 44.3186 12.8333 43.6995 12.56 43.2302C12.2868 42.761 11.9212 42.3978 11.4609 42.1418C11.0153 41.8713 10.4849 41.6933 9.86698 41.608C9.26387 41.5081 8.63122 41.4581 7.97149 41.4581H2.75768V48.9269Z" fill="white"/>
<path d="M27.2932 47.1353C26.9055 47.0073 26.3602 46.9427 25.6562 46.9427C24.3059 46.9427 23.128 47.6533 22.1237 49.0756V59.6353H19.4528V44.7026H22.1237V46.7721C23.2585 45.1511 24.573 44.3406 26.066 44.3406C26.4537 44.3406 26.8636 44.3832 27.2944 44.4686L27.2932 47.1353Z" fill="white"/>
<path d="M35.6271 44.3406C34.5784 44.3406 33.6171 44.5258 32.7408 44.8964C31.8792 45.2522 31.1321 45.7642 30.4994 46.4321C29.8815 47.1 29.4015 47.9251 29.0569 48.9062C28.7122 49.8727 28.5399 50.9611 28.5399 52.1701C28.5399 53.4072 28.7184 54.509 29.0778 55.4767C29.4372 56.4432 29.9394 57.2696 30.5856 57.9521C31.2318 58.62 32.0072 59.1319 32.9118 59.4878C33.8165 59.8291 34.8147 59.9997 35.9065 59.9997C36.7533 59.9997 37.5509 59.8924 38.298 59.6792C39.0451 59.4659 39.7048 59.1599 40.2796 58.7614C40.788 58.397 41.2126 57.9558 41.5634 57.4475L39.0463 56.6407C38.8666 56.8491 38.6549 57.0368 38.4063 57.2038C38.0617 57.4317 37.6666 57.6096 37.221 57.7376C36.7902 57.851 36.3533 57.9082 35.9077 57.9082C35.2898 57.9082 34.715 57.8095 34.1833 57.6096C33.6516 57.3963 33.1851 57.0843 32.7838 56.6712C32.3813 56.2446 32.0515 55.7107 31.793 55.0709C31.5493 54.431 31.3979 53.6766 31.3401 52.8088H33.5334H42.7154V52.1689C42.7154 50.9465 42.5505 49.8508 42.2206 48.883C41.8908 47.9165 41.4169 47.0987 40.799 46.4308C40.1811 45.7483 39.4353 45.2291 38.5589 44.8732C37.6813 44.5185 36.704 44.3406 35.6271 44.3406ZM35.6271 46.4321C36.7323 46.4321 37.6592 46.7952 38.4063 47.5204C39.1669 48.231 39.6556 49.2987 39.871 50.7198H31.3831C31.5838 49.2694 32.0724 48.1957 32.8478 47.4985C33.6233 46.7867 34.5501 46.4321 35.6271 46.4321Z" fill="white"/>
<path d="M51.4151 59.9985C47.3078 59.9985 45.1464 58.3909 44.931 55.1769H47.6241C47.6524 56.9978 48.9091 57.907 51.3941 57.907C52.5142 57.907 53.3622 57.6791 53.9358 57.2245C54.5106 56.7699 54.7974 56.2007 54.7974 55.5182C54.7974 55.1623 54.7395 54.8783 54.6251 54.665C54.5106 54.4517 54.2952 54.2592 53.9789 54.0885C53.6626 53.9179 53.2182 53.7546 52.6434 53.5973C52.0834 53.4413 51.3437 53.2415 50.4242 53.0001C49.5343 52.7722 48.7651 52.5516 48.1189 52.3383C47.4727 52.1104 46.941 51.8411 46.525 51.5278C46.1089 51.2146 45.8 50.8307 45.5981 50.3761C45.3975 49.9215 45.2966 49.345 45.2966 48.6478C45.2966 48.036 45.4258 47.4668 45.6843 46.9415C45.9575 46.415 46.3379 45.9604 46.8265 45.5765C47.3152 45.1925 47.9035 44.8939 48.5928 44.6806C49.282 44.4527 50.0575 44.3394 50.919 44.3394C54.8688 44.3394 56.88 45.7337 56.9514 48.5211H54.3014C54.2152 47.1268 53.153 46.4308 51.1135 46.4308C50.2089 46.4308 49.4543 46.6015 48.8512 46.9427C48.2629 47.284 47.9675 47.7752 47.9675 48.415C47.9675 48.699 48.0032 48.9416 48.0758 49.1402C48.1472 49.3255 48.3195 49.4961 48.5928 49.6521C48.8795 49.8081 49.2968 49.9727 49.8421 50.1433C50.3873 50.2993 51.1344 50.4919 52.0822 50.7198C53.0016 50.9331 53.798 51.161 54.4737 51.4023C55.1482 51.6302 55.7094 51.9142 56.1538 52.2555C56.5993 52.5821 56.9292 52.988 57.1446 53.4718C57.36 53.9557 57.4683 54.5529 57.4683 55.2635C57.4683 55.9314 57.3243 56.5578 57.0375 57.1404C56.7643 57.7096 56.363 58.2068 55.8313 58.6334C55.2996 59.06 54.6608 59.3939 53.9137 59.6365C53.1678 59.8778 52.3345 59.9985 51.4151 59.9985Z" fill="white"/>
<path d="M63.5842 59.6364H60.9133V44.7037H63.5842V59.6364ZM63.5842 41.8871H60.9133V39.0071H63.5842V41.8871Z" fill="white"/>
<path d="M77.4337 55.3268V48.2444C76.241 47.0353 74.9129 46.4308 73.4482 46.4308C72.2998 46.4308 71.3804 46.9146 70.6911 47.8812C70.0166 48.8489 69.6782 50.32 69.6782 52.2969C69.6782 54.1311 70.0019 55.5255 70.6481 56.4786C71.2942 57.4317 72.1915 57.9082 73.3411 57.9082C74.8489 57.9082 76.2127 57.0477 77.4337 55.3268ZM77.4337 57.8655C76.2127 59.2879 74.7763 59.9984 73.1245 59.9984C72.1189 59.9984 71.229 59.8132 70.4536 59.4439C69.6782 59.0746 69.0246 58.5554 68.4929 57.8863C67.9759 57.2184 67.5808 56.4067 67.3076 55.4548C67.0343 54.5017 66.8977 53.4498 66.8977 52.2981C66.8977 51.061 67.0626 49.9519 67.3937 48.9708C67.7248 47.9896 68.1692 47.1572 68.7292 46.4747C69.304 45.7921 69.9785 45.2656 70.7539 44.8963C71.5293 44.527 72.37 44.3418 73.2747 44.3418C74.8981 44.3418 76.284 44.8464 77.4324 45.8567V39.0095H80.1033V59.6377H77.4324V57.8655H77.4337Z" fill="white"/>
<path d="M90.5076 44.3406C89.4589 44.3406 88.4964 44.5258 87.62 44.8964C86.7584 45.2522 86.0113 45.7642 85.3799 46.4321C84.762 47.1 84.2808 47.9251 83.9361 48.9062C83.5915 49.8727 83.4192 50.9611 83.4192 52.1701C83.4192 53.4072 83.5989 54.509 83.9583 55.4767C84.3177 56.4432 84.8199 57.2696 85.4673 57.9521C86.1135 58.62 86.8889 59.1319 87.7936 59.4878C88.6982 59.8291 89.6964 59.9997 90.787 59.9997C91.6338 59.9997 92.4313 59.8924 93.1785 59.6792C93.9256 59.4659 94.5865 59.1599 95.1613 58.7614C95.6697 58.397 96.0943 57.9558 96.4451 57.4475L93.9268 56.6407C93.7471 56.8491 93.5366 57.0368 93.288 57.2038C92.9434 57.4317 92.5483 57.6096 92.1027 57.7376C91.6719 57.851 91.2338 57.9082 90.7882 57.9082C90.1703 57.9082 89.5967 57.8095 89.065 57.6096C88.5333 57.3963 88.0668 57.0843 87.6656 56.6712C87.2631 56.2446 86.9332 55.7107 86.6747 55.0709C86.431 54.431 86.2796 53.6766 86.2218 52.8088H88.4139H97.5972V52.1689C97.5972 50.9465 97.4322 49.8508 97.1024 48.883C96.7725 47.9165 96.2986 47.0987 95.6808 46.4308C95.0629 45.7483 94.3158 45.2291 93.4394 44.8732C92.5618 44.5185 91.5858 44.3406 90.5076 44.3406ZM90.5076 46.4321C91.6129 46.4321 92.5397 46.7952 93.2868 47.5204C94.0474 48.231 94.5361 49.2987 94.7515 50.7198H86.2636C86.4643 49.2694 86.9541 48.1957 87.7296 47.4985C88.505 46.7867 89.4306 46.4321 90.5076 46.4321Z" fill="white"/>
<path d="M103.581 46.6027C104.917 45.095 106.419 44.3418 108.084 44.3418C111.487 44.3418 113.189 46.1834 113.189 49.8666V59.6365H110.496V49.9946C110.496 48.7575 110.273 47.8751 109.828 47.3498C109.397 46.8233 108.686 46.56 107.695 46.56C106.33 46.56 104.959 47.3498 103.58 48.9282V59.6377H100.909V44.705H103.58V46.6027H103.581Z" fill="white"/>
<path d="M123.549 59.9985C122.487 59.9985 121.517 59.8278 120.641 59.4866C119.779 59.1307 119.04 58.6188 118.422 57.9509C117.804 57.283 117.323 56.4652 116.978 55.4975C116.633 54.5297 116.461 53.4206 116.461 52.1701C116.461 50.9331 116.626 49.8313 116.957 48.8635C117.302 47.897 117.783 47.0792 118.401 46.4101C119.019 45.7276 119.766 45.2157 120.641 44.8744C121.517 44.5185 122.486 44.3406 123.549 44.3406C124.353 44.3406 125.1 44.4478 125.789 44.6611C126.493 44.8744 127.111 45.1877 127.642 45.5996C128.174 45.9982 128.604 46.5027 128.934 47.1146C129.279 47.7118 129.509 48.4016 129.623 49.1841H126.866C126.823 48.2883 126.486 47.6058 125.853 47.1365C125.222 46.6673 124.453 46.4321 123.548 46.4321C122.902 46.4321 122.312 46.5527 121.782 46.7953C121.265 47.0366 120.812 47.3998 120.424 47.8836C120.051 48.3675 119.756 48.9647 119.54 49.6753C119.34 50.3858 119.239 51.2183 119.239 52.1714C119.239 53.1245 119.34 53.963 119.54 54.6882C119.756 55.3987 120.05 55.9972 120.424 56.4798C120.812 56.9491 121.265 57.3049 121.782 57.5463C122.314 57.7876 122.902 57.9095 123.548 57.9095C123.979 57.9095 124.389 57.8522 124.776 57.7388C125.164 57.6255 125.509 57.4548 125.81 57.2269C126.112 56.999 126.356 56.715 126.543 56.3738C126.73 56.0325 126.837 55.634 126.866 55.1794H129.623C129.509 55.9752 129.279 56.6724 128.934 57.2696C128.59 57.8668 128.151 58.3714 127.62 58.7845C127.088 59.1831 126.477 59.4817 125.788 59.6804C125.1 59.8924 124.353 59.9985 123.549 59.9985Z" fill="white"/>
<path d="M134.986 59.6364H132.315V44.7037H134.986V59.6364ZM134.986 41.8871H132.315V39.0071H134.986V41.8871Z" fill="white"/>
<path d="M148.836 55.7107V52.4042H146.983C143.091 52.4042 141.145 53.4499 141.145 55.5401C141.145 56.308 141.432 56.8979 142.007 57.311C142.582 57.7096 143.35 57.9082 144.312 57.9082C145.202 57.9082 146.058 57.7157 146.876 57.3318C147.693 56.9344 148.347 56.3933 148.836 55.7107ZM148.836 58.1215C147.442 59.3732 145.676 59.9985 143.536 59.9985C142.818 59.9985 142.142 59.8912 141.511 59.6779C140.893 59.4793 140.355 59.1941 139.895 58.8248C139.436 58.4409 139.069 57.9863 138.796 57.4597C138.537 56.9198 138.408 56.3287 138.408 55.6888C138.408 52.1896 141.446 50.4407 147.521 50.4407H148.836C148.836 49.8008 148.815 49.2316 148.77 48.7343C148.727 48.2371 148.591 47.8166 148.36 47.4753C148.145 47.1341 147.793 46.8781 147.304 46.7075C146.816 46.5222 146.119 46.4296 145.214 46.4296C142.83 46.4296 141.595 47.2754 141.508 48.9683H138.815C139.002 45.8824 141.185 44.3394 145.365 44.3394C146.312 44.3394 147.167 44.4247 147.928 44.5953C148.689 44.7513 149.329 45.0438 149.846 45.4704C150.378 45.897 150.786 46.4796 151.074 47.2194C151.361 47.9446 151.505 48.8696 151.505 49.9922V59.6341H148.834L148.836 58.1215Z" fill="white"/>
<path d="M173.75 55.3268V48.2444C172.559 47.0353 171.229 46.4308 169.765 46.4308C168.616 46.4308 167.697 46.9146 167.008 47.8812C166.333 48.8489 165.995 50.32 165.995 52.2969C165.995 54.1311 166.318 55.5255 166.964 56.4786C167.611 57.4317 168.508 57.9082 169.658 57.9082C171.165 57.9082 172.53 57.0477 173.75 55.3268ZM173.75 57.8655C172.529 59.2879 171.093 59.9984 169.441 59.9984C168.435 59.9984 167.545 59.8132 166.77 59.4439C165.995 59.0746 165.341 58.5554 164.809 57.8863C164.292 57.2184 163.897 56.4067 163.624 55.4548C163.351 54.5017 163.214 53.4498 163.214 52.2981C163.214 51.061 163.379 49.9519 163.71 48.9708C164.04 47.9896 164.486 47.1572 165.046 46.4747C165.62 45.7921 166.295 45.2656 167.07 44.8963C167.846 44.527 168.686 44.3418 169.591 44.3418C171.215 44.3418 172.6 44.8464 173.749 45.8567V39.0095H176.42V59.6377H173.749L173.75 57.8655Z" fill="white"/>
<path d="M186.824 44.3406C185.775 44.3406 184.814 44.5258 183.938 44.8964C183.076 45.2522 182.329 45.7642 181.696 46.4321C181.078 47.1 180.598 47.9251 180.254 48.9062C179.909 49.8727 179.737 50.9611 179.737 52.1701C179.737 53.4072 179.915 54.509 180.275 55.4767C180.634 56.4432 181.136 57.2696 181.782 57.9521C182.429 58.62 183.204 59.1319 184.109 59.4878C185.013 59.8291 186.012 59.9997 187.103 59.9997C187.95 59.9997 188.748 59.8924 189.495 59.6792C190.242 59.4659 190.902 59.1599 191.477 58.7614C191.985 58.397 192.409 57.9558 192.76 57.4475L190.243 56.6407C190.064 56.8491 189.852 57.0368 189.603 57.2038C189.259 57.4317 188.863 57.6096 188.418 57.7376C187.987 57.851 187.55 57.9082 187.105 57.9082C186.487 57.9082 185.912 57.8095 185.38 57.6096C184.848 57.3963 184.382 57.0843 183.981 56.6712C183.578 56.2446 183.248 55.7107 182.99 55.0709C182.746 54.431 182.595 53.6766 182.537 52.8088H184.73H193.912V52.1689C193.912 50.9465 193.747 49.8508 193.418 48.883C193.088 47.9165 192.614 47.0987 191.996 46.4308C191.378 45.7483 190.632 45.2291 189.756 44.8732C188.878 44.5185 187.902 44.3406 186.824 44.3406ZM186.824 46.4321C187.929 46.4321 188.856 46.7952 189.603 47.5204C190.364 48.231 190.852 49.2987 191.068 50.7198H182.58C182.781 49.2694 183.269 48.1957 184.045 47.4985C184.821 46.7867 185.747 46.4321 186.824 46.4321Z" fill="white"/>
<path d="M208.292 59.6365H205.621V39.0083H208.292V59.6365Z" fill="white"/>
<path d="M222.141 55.7107V52.4042H220.289C216.397 52.4042 214.451 53.4499 214.451 55.5401C214.451 56.308 214.738 56.8979 215.313 57.311C215.888 57.7096 216.656 57.9082 217.618 57.9082C218.508 57.9082 219.363 57.7157 220.182 57.3318C221.001 56.9344 221.654 56.3933 222.141 55.7107ZM222.141 58.1215C220.748 59.3732 218.982 59.9985 216.842 59.9985C216.124 59.9985 215.448 59.8912 214.817 59.6779C214.199 59.4793 213.661 59.1941 213.201 58.8248C212.742 58.4409 212.375 57.9863 212.102 57.4597C211.843 56.9198 211.714 56.3287 211.714 55.6888C211.714 52.1896 214.752 50.4407 220.827 50.4407H222.141C222.141 49.8008 222.119 49.2316 222.076 48.7343C222.033 48.2371 221.897 47.8166 221.666 47.4753C221.451 47.1341 221.099 46.8781 220.61 46.7075C220.122 46.5222 219.425 46.4296 218.52 46.4296C216.136 46.4296 214.901 47.2754 214.816 48.9683H212.123C212.31 45.8824 214.492 44.3394 218.672 44.3394C219.62 44.3394 220.474 44.4247 221.236 44.5953C221.996 44.7513 222.636 45.0438 223.153 45.4704C223.685 45.897 224.094 46.4796 224.382 47.2194C224.668 47.9446 224.812 48.8696 224.812 49.9922V59.6341H222.141V58.1215V58.1215Z" fill="white"/>
<path d="M254.21 59.6365H251.387L240.443 43.3594V59.6365H237.836V39.0083H240.679L251.581 55.3061V39.0083H254.208V59.6365H254.21Z" fill="white"/>
<path d="M268.404 55.7107V52.4042H266.551C262.659 52.4042 260.713 53.4499 260.713 55.5401C260.713 56.308 261 56.8979 261.575 57.311C262.15 57.7096 262.918 57.9082 263.88 57.9082C264.77 57.9082 265.626 57.7157 266.444 57.3318C267.263 56.9344 267.915 56.3933 268.404 55.7107ZM268.404 58.1215C267.01 59.3732 265.244 59.9985 263.104 59.9985C262.386 59.9985 261.71 59.8912 261.079 59.6779C260.461 59.4793 259.923 59.1941 259.463 58.8248C259.004 58.4409 258.637 57.9863 258.364 57.4597C258.105 56.9198 257.976 56.3287 257.976 55.6888C257.976 52.1896 261.014 50.4407 267.089 50.4407H268.404C268.404 49.8008 268.382 49.2316 268.34 48.7343C268.297 48.2371 268.16 47.8166 267.93 47.4753C267.714 47.1341 267.362 46.8781 266.874 46.7075C266.385 46.5222 265.688 46.4296 264.784 46.4296C262.4 46.4296 261.164 47.2754 261.078 48.9683H258.385C258.572 45.8824 260.754 44.3394 264.934 44.3394C265.882 44.3394 266.736 44.4247 267.498 44.5953C268.258 44.7513 268.899 45.0438 269.415 45.4704C269.947 45.897 270.356 46.4796 270.644 47.2194C270.931 47.9446 271.075 48.8696 271.075 49.9922V59.6341H268.404V58.1215Z" fill="white"/>
<path d="M281.478 59.9985C280.415 59.9985 279.446 59.8278 278.569 59.4866C277.708 59.1307 276.968 58.6188 276.35 57.9509C275.732 57.283 275.251 56.4652 274.906 55.4975C274.562 54.5309 274.389 53.4206 274.389 52.1701C274.389 50.9331 274.554 49.8313 274.885 48.8635C275.23 47.897 275.711 47.0792 276.329 46.4101C276.947 45.7276 277.694 45.2157 278.569 44.8744C279.446 44.5185 280.414 44.3406 281.478 44.3406C282.281 44.3406 283.029 44.4478 283.718 44.6611C284.422 44.8744 285.04 45.1877 285.57 45.5996C286.102 45.9982 286.533 46.5027 286.863 47.1146C287.207 47.7118 287.437 48.4016 287.552 49.1841H284.795C284.752 48.2883 284.414 47.6058 283.782 47.1365C283.15 46.6673 282.381 46.4321 281.476 46.4321C280.83 46.4321 280.241 46.5527 279.71 46.7953C279.193 47.0366 278.74 47.3998 278.353 47.8836C277.98 48.3675 277.684 48.9647 277.469 49.6753C277.268 50.3858 277.167 51.2183 277.167 52.1714C277.167 53.1245 277.268 53.963 277.469 54.6882C277.684 55.3987 277.978 55.9972 278.353 56.4798C278.74 56.9491 279.193 57.3049 279.71 57.5463C280.242 57.7876 280.83 57.9095 281.476 57.9095C281.907 57.9095 282.317 57.8522 282.705 57.7388C283.093 57.6255 283.437 57.4548 283.739 57.2269C284.04 56.999 284.284 56.715 284.471 56.3738C284.658 56.0325 284.765 55.634 284.795 55.1794H287.552C287.437 55.9752 287.207 56.6724 286.863 57.2696C286.518 57.8668 286.08 58.3714 285.548 58.7845C285.016 59.1831 284.406 59.4817 283.717 59.6804C283.029 59.8924 282.283 59.9985 281.478 59.9985Z" fill="white"/>
<path d="M292.915 59.6364H290.244V44.7037H292.915V59.6364ZM292.915 41.8871H290.244V39.0071H292.915V41.8871Z" fill="white"/>
<path d="M303.316 44.3406C304.393 44.3406 305.371 44.5186 306.246 44.8745C307.122 45.2304 307.869 45.7496 308.486 46.4321C309.104 47.1 309.578 47.9178 309.907 48.8855C310.237 49.852 310.403 50.9477 310.403 52.1702C310.403 53.4073 310.231 54.5103 309.886 55.4768C309.557 56.4433 309.083 57.2684 308.465 57.951C307.847 58.6189 307.101 59.1319 306.225 59.4866C305.348 59.8279 304.38 59.9985 303.316 59.9985C302.253 59.9985 301.284 59.8279 300.408 59.4866C299.546 59.1307 298.806 58.6189 298.189 57.951C297.571 57.2831 297.089 56.4652 296.745 55.4975C296.4 54.531 296.228 53.4207 296.228 52.1702C296.228 50.9331 296.393 49.8313 296.724 48.8636C297.069 47.8971 297.55 47.0793 298.168 46.4101C298.786 45.7276 299.533 45.2157 300.408 44.8745C301.284 44.5186 302.254 44.3406 303.316 44.3406ZM303.316 57.9083C303.948 57.9083 304.523 57.7876 305.039 57.5451C305.571 57.3038 306.023 56.9479 306.397 56.4786C306.785 55.9948 307.079 55.3976 307.281 54.687C307.496 53.9618 307.603 53.1221 307.605 52.1702C307.605 51.2171 307.496 50.3859 307.281 49.6741C307.08 48.9635 306.785 48.3651 306.397 47.8825C306.024 47.3986 305.571 47.0366 305.039 46.7941C304.523 46.5528 303.948 46.4309 303.316 46.4309C302.67 46.4309 302.082 46.5515 301.55 46.7941C301.033 47.0354 300.58 47.3986 300.192 47.8825C299.819 48.3663 299.524 48.9635 299.309 49.6741C299.108 50.3846 299.007 51.2171 299.007 52.1702C299.007 53.1233 299.108 53.9618 299.309 54.687C299.524 55.3976 299.818 55.996 300.192 56.4786C300.58 56.9479 301.033 57.3038 301.55 57.5451C302.082 57.7876 302.67 57.9083 303.316 57.9083ZM306.979 38.6025L303.834 42.5709H301.701L303.619 38.6025H306.979Z" fill="white"/>
<path d="M316.39 46.6027C317.726 45.095 319.227 44.3418 320.893 44.3418C324.296 44.3418 325.998 46.1834 325.998 49.8666V59.6365H323.305V49.9946C323.305 48.7575 323.082 47.8751 322.637 47.3498C322.206 46.8233 321.495 46.56 320.504 46.56C319.139 46.56 317.768 47.3498 316.389 48.9282V59.6377H313.718V44.705H316.389L316.39 46.6027Z" fill="white"/>
<path d="M25.3949 26.7561H22.0624V4.51811L14.522 26.7561H11.38L3.83946 4.51811V26.7561H0.533569V0.596924H5.80614L12.9361 22.4006L20.1488 0.596924H25.3949V26.7561Z" fill="white"/>
<path d="M35.3156 26.7561H31.9286V7.81947H35.3156V26.7561ZM35.3156 4.24918H31.9286V0.596924H35.3156V4.24918Z" fill="white"/>
<path d="M44.7464 10.2277C46.4399 8.31578 48.3442 7.3606 50.456 7.3606C54.7718 7.3606 56.9304 9.696 56.9304 14.3668V26.7562H53.5153V14.5291C53.5153 12.9603 53.2328 11.8413 52.6677 11.1751C52.1214 10.5074 51.2193 10.1736 49.9628 10.1736C48.2318 10.1736 46.493 11.1751 44.7448 13.1767V26.7578H41.3578V7.82118H44.7448V10.2277H44.7464Z" fill="white"/>
<path d="M66.3049 26.7561H62.9178V7.81947H66.3049V26.7561ZM66.3049 4.24918H62.9178V0.596924H66.3049V4.24918Z" fill="white"/>
<path d="M79.1774 27.2169C73.9688 27.2169 71.228 25.1783 70.9548 21.1025H74.37C74.4059 23.4116 75.9995 24.5647 79.1509 24.5647C80.5713 24.5647 81.6467 24.2756 82.374 23.6991C83.103 23.1226 83.4666 22.4008 83.4666 21.5353C83.4666 21.084 83.3933 20.7239 83.2481 20.4534C83.103 20.1829 82.8298 19.9387 82.4287 19.7223C82.0275 19.5059 81.4641 19.2988 80.7352 19.0994C80.025 18.9016 79.0869 18.6481 77.9209 18.3421C76.7924 18.0531 75.8169 17.7734 74.9974 17.5029C74.178 17.2138 73.5037 16.8722 72.9761 16.475C72.4486 16.0778 72.0568 15.591 71.8008 15.0145C71.5464 14.4379 71.4184 13.7069 71.4184 12.8228C71.4184 12.0469 71.5823 11.3251 71.9101 10.659C72.2566 9.99129 72.7389 9.41479 73.3585 8.92793C73.9782 8.44107 74.7243 8.06238 75.5984 7.7919C76.4725 7.50288 77.4558 7.35913 78.5484 7.35913C83.5572 7.35913 86.1076 9.1273 86.1981 12.6621H82.8392C82.7299 10.8939 81.3813 10.0114 78.7966 10.0114C77.6493 10.0114 76.6925 10.2278 75.9277 10.6605C75.1816 11.0933 74.807 11.7161 74.807 12.5276C74.807 12.8877 74.8523 13.1953 74.9444 13.4472C75.0349 13.6822 75.2534 13.8985 75.5999 14.0964C75.9636 14.2942 76.4927 14.5029 77.1842 14.7193C77.8757 14.9171 78.8231 15.1613 80.025 15.4503C81.1909 15.7208 82.2008 16.0098 83.0577 16.3158C83.9131 16.6049 84.6248 16.965 85.1883 17.3977C85.7533 17.812 86.1716 18.3266 86.4448 18.9402C86.7179 19.5538 86.8553 20.3112 86.8553 21.2123C86.8553 22.0593 86.6726 22.8537 86.309 23.5925C85.9625 24.3143 85.4536 24.9449 84.7793 25.4858C84.105 26.0268 83.295 26.4503 82.3475 26.7579C81.4001 27.0639 80.3434 27.2169 79.1774 27.2169Z" fill="white"/>
<path d="M99.2623 26.7838C98.5162 26.9461 97.7046 27.0281 96.8305 27.0281C95.8112 27.0281 94.9996 26.9106 94.3987 26.6757C93.8165 26.4237 93.3607 26.0528 93.0329 25.5659C92.7239 25.0791 92.5225 24.4748 92.432 23.753C92.3415 23.0312 92.2946 22.1842 92.2946 21.2105V10.4439H89.9456V7.81944H92.2946V3.11157H95.7098V7.81944H98.8237V10.4439H95.7098V21.3727C95.7098 22.0404 95.7457 22.5721 95.8191 22.9693C95.9096 23.3666 96.0376 23.6726 96.2015 23.889C96.3654 24.0868 96.5573 24.2228 96.7759 24.2955C97.0131 24.3496 97.2769 24.3774 97.5688 24.3774C97.8778 24.3774 98.1697 24.3681 98.4429 24.3495C98.716 24.314 98.9892 24.2769 99.2623 24.2414V26.7838Z" fill="white"/>
<path d="M110.877 7.3606C109.547 7.3606 108.328 7.59399 107.216 8.06385C106.124 8.51516 105.176 9.16432 104.374 10.0113C103.591 10.8583 102.982 11.9046 102.545 13.1488C102.108 14.3745 101.889 15.7547 101.889 17.2879C101.889 18.8567 102.116 20.2555 102.571 21.4827C103.027 22.7099 103.664 23.7547 104.483 24.6202C105.303 25.4672 106.286 26.1179 107.433 26.5677C108.581 27.0004 109.847 27.2168 111.231 27.2168C112.305 27.2168 113.316 27.0808 114.264 26.8103C115.211 26.5399 116.048 26.1519 116.777 25.6465C117.478 25.1442 118.057 24.529 118.522 23.8103L115.344 22.7918C115.091 23.1226 114.779 23.4178 114.4 23.6728C113.962 23.9618 113.461 24.1859 112.896 24.3482C112.35 24.4919 111.796 24.5661 111.231 24.5661C110.447 24.5661 109.719 24.4394 109.044 24.1859C108.37 23.9154 107.778 23.5197 107.27 22.9958C106.759 22.4548 106.341 21.7779 106.013 20.9664C105.704 20.155 105.512 19.1983 105.439 18.0978H108.866H119.864V17.2864C119.864 15.7346 119.655 14.3482 119.237 13.121C118.818 11.8954 118.217 10.8567 117.434 10.0098C116.65 9.14423 115.704 8.4858 114.593 8.03449C113.482 7.58472 112.244 7.3606 110.877 7.3606ZM110.877 10.0113C112.278 10.0113 113.454 10.4719 114.401 11.3915C115.366 12.2926 115.985 13.6465 116.259 15.4487H105.495C105.749 13.6094 106.369 12.2478 107.352 11.3637C108.337 10.4611 109.511 10.0113 110.877 10.0113Z" fill="white"/>
<path d="M134.622 10.9046C134.13 10.7423 133.439 10.6604 132.546 10.6604C130.834 10.6604 129.34 11.5615 128.066 13.3652V26.7562H124.679V7.81963H128.066V10.444C129.505 8.38841 131.172 7.3606 133.066 7.3606C133.557 7.3606 134.077 7.4147 134.624 7.52289L134.622 10.9046Z" fill="white"/>
<path d="M141.429 26.7561H138.042V7.81947H141.429V26.7561ZM141.429 4.24918H138.042V0.596924H141.429V4.24918Z" fill="white"/>
<path d="M155.23 7.3606C156.596 7.3606 157.835 7.58627 158.945 8.03758C160.056 8.4889 161.004 9.14729 161.786 10.0128C162.569 10.8598 163.17 11.8969 163.588 13.1241C164.007 14.3498 164.217 15.7392 164.217 17.2895C164.217 18.8583 163.999 20.257 163.562 21.4827C163.143 22.7099 162.543 23.7547 161.759 24.6202C160.975 25.4672 160.028 26.1179 158.918 26.5677C157.807 27.0004 156.579 27.2168 155.23 27.2168C153.881 27.2168 152.653 27.0004 151.542 26.5677C150.449 26.1164 149.511 25.4672 148.727 24.6202C147.944 23.7732 147.334 22.7362 146.897 21.509C146.459 20.2833 146.241 18.8753 146.241 17.2895C146.241 15.7207 146.45 14.3235 146.87 13.0963C147.307 11.8707 147.917 10.8335 148.701 9.98501C149.484 9.11948 150.432 8.47035 151.542 8.03758C152.653 7.58627 153.883 7.3606 155.23 7.3606ZM155.23 24.5661C156.031 24.5661 156.76 24.4131 157.415 24.1056C158.089 23.7995 158.662 23.3482 159.137 22.7532C159.628 22.1396 160.001 21.3822 160.257 20.4811C160.531 19.5615 160.668 18.4966 160.668 17.2895C160.668 16.0808 160.531 15.0267 160.257 14.1241C160.003 13.223 159.628 12.4657 159.137 11.8521C158.664 11.2385 158.089 10.7795 157.415 10.4719C156.76 10.1659 156.031 10.0113 155.23 10.0113C154.41 10.0113 153.663 10.1643 152.99 10.4719C152.335 10.7779 151.76 11.2385 151.269 11.8521C150.796 12.4657 150.421 13.223 150.148 14.1241C149.893 15.0252 149.765 16.0808 149.765 17.2895C149.765 18.4981 149.893 19.5615 150.148 20.4811C150.421 21.3822 150.794 22.1411 151.269 22.7532C151.76 23.3482 152.335 23.7995 152.99 24.1056C153.664 24.4116 154.41 24.5661 155.23 24.5661Z" fill="white"/>
<path d="M191.197 21.2925V12.3111C189.686 10.7778 188 10.0112 186.143 10.0112C184.685 10.0112 183.52 10.6248 182.646 11.8505C181.791 13.0761 181.362 14.9432 181.362 17.4501C181.362 19.7763 181.772 21.5444 182.592 22.7531C183.411 23.9617 184.549 24.5661 186.007 24.5661C187.919 24.5661 189.648 23.4749 191.197 21.2925ZM191.197 24.5119C189.648 26.3157 187.827 27.2167 185.732 27.2167C184.457 27.2167 183.328 26.9818 182.345 26.5135C181.362 26.0452 180.533 25.3868 179.859 24.5382C179.203 23.6913 178.702 22.6619 178.355 21.4548C178.009 20.2461 177.836 18.9123 177.836 17.4517C177.836 15.8829 178.045 14.4764 178.465 13.2322C178.883 11.988 179.448 10.9324 180.158 10.0668C180.887 9.20132 181.743 8.53363 182.726 8.06531C183.709 7.597 184.775 7.36206 185.922 7.36206C187.981 7.36206 189.739 8.00193 191.195 9.28322V0.600098H194.582V26.7592H191.195L191.197 24.5119Z" fill="white"/>
<path d="M208.386 7.3606C207.057 7.3606 205.836 7.59399 204.725 8.06385C203.632 8.51516 202.685 9.16432 201.884 10.0113C201.1 10.8583 200.49 11.9046 200.053 13.1488C199.616 14.3745 199.397 15.7547 199.397 17.2879C199.397 18.8567 199.625 20.2555 200.081 21.4827C200.537 22.7099 201.174 23.7547 201.995 24.6202C202.814 25.4672 203.798 26.1179 204.945 26.5677C206.092 27.0004 207.358 27.2168 208.741 27.2168C209.815 27.2168 210.826 27.0808 211.773 26.8103C212.721 26.5399 213.559 26.1519 214.288 25.6465C214.989 25.1442 215.568 24.529 216.033 23.8103L212.855 22.7918C212.602 23.1226 212.29 23.4178 211.911 23.6728C211.474 23.9618 210.973 24.1859 210.408 24.3482C209.861 24.4919 209.306 24.5661 208.741 24.5661C207.957 24.5661 207.23 24.4394 206.556 24.1859C205.881 23.9154 205.29 23.5197 204.781 22.9958C204.27 22.4548 203.852 21.7779 203.524 20.9664C203.215 20.155 203.023 19.1983 202.95 18.0978H206.378H217.375V17.2864C217.375 15.7346 217.166 14.3482 216.748 13.121C216.33 11.8938 215.729 10.8567 214.945 10.0098C214.162 9.14423 213.214 8.4858 212.103 8.03449C210.99 7.58472 209.752 7.3606 208.386 7.3606ZM208.386 10.0113C209.788 10.0113 210.963 10.4719 211.911 11.3915C212.875 12.2926 213.495 13.6465 213.768 15.4487H203.005C203.259 13.6094 203.88 12.2478 204.864 11.3637C205.845 10.4611 207.021 10.0113 208.386 10.0113Z" fill="white"/>
<path d="M242.632 27.2166C240.774 27.2166 239.143 27.0003 237.741 26.5675C236.357 26.1347 235.2 25.5304 234.272 24.7545C233.343 23.9616 232.633 23.0235 232.141 21.9415C231.668 20.8411 231.412 19.6417 231.376 18.3434H234.737C234.827 19.3357 235.093 20.1919 235.53 20.9137C235.967 21.6355 236.532 22.2398 237.223 22.7267C237.915 23.195 238.708 23.5474 239.6 23.7823C240.493 23.9987 241.448 24.1069 242.469 24.1069C243.453 24.1069 244.345 24.008 245.146 23.8086C245.947 23.5922 246.63 23.2939 247.195 22.9153C247.778 22.5181 248.224 22.0497 248.535 21.5088C248.862 20.9493 249.026 20.3279 249.026 19.6417C249.026 18.9199 248.881 18.3156 248.589 17.8287C248.316 17.3233 247.851 16.8905 247.195 16.5304C246.54 16.1517 245.683 15.8179 244.628 15.5289C243.59 15.2229 242.305 14.906 240.776 14.5814C239.301 14.2568 238.025 13.8782 236.952 13.4454C235.878 13.0127 234.994 12.5165 234.301 11.957C233.61 11.3805 233.099 10.7221 232.772 9.98173C232.444 9.22439 232.28 8.35885 232.28 7.38512C232.28 6.33876 232.508 5.37431 232.964 4.49023C233.419 3.60615 234.056 2.83956 234.876 2.19041C235.695 1.54126 236.678 1.03585 237.826 0.675723C238.992 0.3156 240.275 0.134766 241.678 0.134766C243.153 0.134766 244.501 0.3156 245.72 0.675723C246.958 1.03585 248.015 1.55982 248.889 2.24452C249.782 2.91222 250.473 3.73292 250.965 4.70664C251.475 5.68036 251.749 6.7808 251.784 8.00646H248.397C248.051 4.85036 245.866 3.27233 241.84 3.27233C239.874 3.27233 238.361 3.63245 237.306 4.35424C236.249 5.07603 235.722 6.04974 235.722 7.27539C235.722 7.81635 235.822 8.28468 236.023 8.6819C236.223 9.07911 236.55 9.42998 237.006 9.73755C237.479 10.0266 238.099 10.2971 238.864 10.549C239.647 10.7839 240.621 11.0173 241.787 11.2522C242.97 11.5041 244.027 11.7669 244.956 12.0374C245.884 12.2893 246.694 12.5428 247.387 12.7947C248.062 13.0466 248.699 13.3635 249.3 13.7422C249.919 14.1208 250.456 14.5814 250.912 15.1224C251.385 15.6448 251.759 16.2584 252.033 16.9616C252.306 17.6649 252.443 18.4578 252.443 19.3418C252.443 20.4964 252.196 21.5598 251.705 22.5335C251.213 23.4887 250.529 24.3186 249.655 25.0219C248.8 25.7066 247.77 26.2475 246.568 26.6448C245.363 27.0265 244.052 27.2166 242.632 27.2166Z" fill="white"/>
<path d="M270.065 21.7795V17.5863H267.716C262.781 17.5863 260.313 18.9125 260.313 21.5631C260.313 22.5369 260.677 23.2849 261.406 23.8089C262.134 24.3143 263.108 24.5662 264.329 24.5662C265.457 24.5662 266.542 24.322 267.58 23.8352C268.617 23.3298 269.445 22.645 270.065 21.7795ZM270.065 24.8367C268.298 26.424 266.058 27.2169 263.344 27.2169C262.434 27.2169 261.577 27.0809 260.776 26.8104C259.993 26.5585 259.311 26.1968 258.727 25.7285C258.145 25.2416 257.68 24.6651 257.333 23.9975C257.005 23.3128 256.842 22.5631 256.842 21.7517C256.842 17.3159 260.694 15.0964 268.398 15.0964H270.065C270.065 14.2849 270.037 13.5631 269.984 12.9325C269.929 12.3019 269.756 11.7687 269.464 11.3359C269.191 10.9032 268.745 10.5786 268.125 10.3622C267.505 10.1273 266.622 10.0098 265.475 10.0098C262.451 10.0098 260.884 11.0825 260.775 13.2293H257.36C257.597 9.31585 260.364 7.35913 265.665 7.35913C266.867 7.35913 267.95 7.46734 268.916 7.68372C269.881 7.88156 270.693 8.25249 271.348 8.79344C272.022 9.3344 272.541 10.0732 272.906 11.0114C273.27 11.931 273.452 13.1041 273.452 14.5276V26.7548H270.065V24.8367V24.8367Z" fill="white"/>
<path d="M282.881 26.7561H279.494V0.596924H282.881V26.7561Z" fill="white"/>
<path d="M301.054 24.3496C299.361 26.2615 297.449 27.2167 295.317 27.2167C291.001 27.2167 288.842 24.8813 288.842 20.2105V7.82104H292.284V20.0482C292.284 21.617 292.557 22.736 293.103 23.4022C293.65 24.0699 294.552 24.4037 295.808 24.4037C297.72 24.4037 299.469 23.3944 301.054 21.3743V7.82104H304.441V26.7576H301.054V24.3496Z" fill="white"/>
<path d="M322.614 21.2925V12.3111C321.102 10.7778 319.418 10.0112 317.56 10.0112C316.104 10.0112 314.938 10.6248 314.064 11.8505C313.209 13.0761 312.78 14.9432 312.78 17.4501C312.78 19.7763 313.19 21.5444 314.009 22.7531C314.829 23.9617 315.967 24.5661 317.425 24.5661C319.335 24.5661 321.066 23.4749 322.614 21.2925ZM322.614 24.5119C321.066 26.3157 319.245 27.2167 317.15 27.2167C315.875 27.2167 314.746 26.9818 313.763 26.5135C312.78 26.0452 311.951 25.3868 311.276 24.5382C310.621 23.6913 310.12 22.6619 309.773 21.4548C309.427 20.2461 309.254 18.9123 309.254 17.4517C309.254 15.8829 309.463 14.4764 309.883 13.2322C310.302 11.988 310.866 10.9324 311.576 10.0668C312.305 9.20132 313.16 8.53363 314.144 8.06531C315.127 7.597 316.193 7.36206 317.34 7.36206C319.399 7.36206 321.157 8.00193 322.613 9.28322V0.600098H326V26.7592H322.613L322.614 24.5119Z" fill="white"/>
</svg>
