<svg width="109" height="109" viewBox="0 0 109 109" fill="none" xmlns="http://www.w3.org/2000/svg">
<circle cx="54.5" cy="54.5" r="54.5" fill="white"/>
<path d="M78.9908 60.3286C78.5137 59.1486 77.1701 58.5781 75.9901 59.0552C74.8101 59.5323 74.2396 60.8759 74.7167 62.0559L77.4316 68.7695L69.3698 65.2156C68.7868 64.9587 68.1219 64.9541 67.5353 65.2041C64.7801 66.3795 61.8289 66.9753 58.7637 66.9753C46.4255 66.9753 38.1367 57.3152 38.1367 48.2912C38.1367 37.9904 47.39 29.6094 58.7637 29.6094C70.1373 29.6094 79.3906 37.9904 79.3906 48.2935C79.3906 49.0978 79.3157 50.06 79.1855 50.9335C78.9977 52.193 79.8654 53.3649 81.1249 53.5528C82.3844 53.7406 83.5563 52.8729 83.7442 51.6134C83.909 50.5083 84 49.3294 84 48.2923C84 42.0316 81.3485 36.157 76.5351 31.7516C71.7782 27.398 65.4669 25 58.7637 25C52.0605 25 45.7503 27.398 40.9922 31.7516C36.6905 35.6891 34.1173 40.7998 33.6184 46.3103C28.2081 49.8929 25 55.6351 25 61.8197C25 65.6835 26.2169 69.3491 28.5342 72.5042L25.1682 80.8311C24.8168 81.7011 25.0277 82.6967 25.7006 83.3501C26.1397 83.7753 26.7181 84 27.3047 84C27.6181 84 27.935 83.9355 28.2335 83.8041L37.9397 79.5255C40.3815 80.4346 42.9616 80.8944 45.6258 80.8944C45.6834 80.8944 45.7399 80.8898 45.7963 80.8852C49.6498 80.8564 53.3949 79.8423 56.6399 77.9456C59.5461 76.247 61.9361 73.9124 63.6127 71.156C65.2491 70.8621 66.8485 70.4185 68.4007 69.825L80.7654 75.2756C81.065 75.407 81.3807 75.4715 81.6942 75.4715C82.2819 75.4715 82.8603 75.2468 83.2994 74.8216C83.9735 74.1682 84.1832 73.1726 83.8318 72.3026L78.9908 60.3286ZM45.627 76.2793C45.5958 76.2793 45.5647 76.2828 45.5336 76.2839C43.1805 76.2724 40.915 75.8091 38.8005 74.9069C38.2139 74.6568 37.5502 74.6603 36.9659 74.9184L31.5684 77.2968L33.3096 72.9894C33.6311 72.1931 33.4836 71.2839 32.927 70.6305C30.7571 68.085 29.6094 65.0382 29.6094 61.8197C29.6094 58.1368 31.1581 54.6475 33.8696 52.0006C34.7131 56.6007 37.095 61.0027 40.6869 64.4597C45.1568 68.7614 51.0695 71.2539 57.4546 71.5547C54.4574 74.5058 50.1672 76.2793 45.627 76.2793Z" fill="black"/>
<path d="M58.6484 50.6973C59.9213 50.6973 60.9531 49.6654 60.9531 48.3926C60.9531 47.1197 59.9213 46.0879 58.6484 46.0879C57.3756 46.0879 56.3438 47.1197 56.3438 48.3926C56.3438 49.6654 57.3756 50.6973 58.6484 50.6973Z" fill="black"/>
<path d="M67.8672 50.6973C69.14 50.6973 70.1719 49.6654 70.1719 48.3926C70.1719 47.1197 69.14 46.0879 67.8672 46.0879C66.5943 46.0879 65.5625 47.1197 65.5625 48.3926C65.5625 49.6654 66.5943 50.6973 67.8672 50.6973Z" fill="black"/>
<path d="M49.4297 50.6973C50.7025 50.6973 51.7344 49.6654 51.7344 48.3926C51.7344 47.1197 50.7025 46.0879 49.4297 46.0879C48.1568 46.0879 47.125 47.1197 47.125 48.3926C47.125 49.6654 48.1568 50.6973 49.4297 50.6973Z" fill="black"/>
</svg>
