<svg width="141" height="107" viewBox="0 0 141 107" fill="none" xmlns="http://www.w3.org/2000/svg">
<rect x="38.782" width="63.513" height="63.513" rx="9" fill="#896CC0"/>
<path d="M61.1829 21.6722H64.5066V14.2483H67.3721V11.6265H58.3317V14.2483H61.1829V21.6722Z" fill="white"/>
<path d="M71.8416 11.6265H68.5179V21.6722H71.8416V11.6265Z" fill="white"/>
<path d="M75.7162 21.2214C76.5233 21.6747 77.4321 21.9026 78.4452 21.9026C79.2189 21.9026 80.0002 21.7185 80.788 21.3502C81.5758 20.9832 82.2516 20.4887 82.8154 19.8667L80.8961 17.8179C80.5705 18.1707 80.201 18.4553 79.7852 18.6704C79.3695 18.8854 78.9807 18.9923 78.6177 18.9923C78.2264 18.9923 77.8698 18.8867 77.5506 18.6768C77.23 18.4669 76.9816 18.1772 76.8052 17.8102C76.6289 17.4419 76.5401 17.0285 76.5401 16.5701C76.5401 16.1116 76.6276 15.7009 76.8052 15.3377C76.9816 14.9746 77.23 14.69 77.5506 14.4852C77.8698 14.2805 78.2264 14.1775 78.6177 14.1775C79.009 14.1775 79.4132 14.3037 79.8277 14.5573C80.2435 14.811 80.5988 15.1433 80.8949 15.554L82.8142 13.2747C82.298 12.712 81.6543 12.26 80.8807 11.92C80.1071 11.5814 79.3386 11.4114 78.5739 11.4114C77.5325 11.4114 76.5993 11.6354 75.7729 12.0849C74.9464 12.5343 74.299 13.1524 73.8317 13.9405C73.3631 14.7286 73.1301 15.6197 73.1301 16.6139C73.1301 17.617 73.3593 18.5223 73.8175 19.3297C74.2758 20.1371 74.9091 20.7668 75.7162 21.2214Z" fill="white"/>
<path d="M57.4293 24.0376V34.1734H64.6792V32.1182H59.7696V24.0376H57.4293Z" fill="white"/>
<path d="M68.5319 24.0376L64.8362 34.1734H67.2343L68.0054 31.9031H71.1592L71.9444 34.1734H74.3413L70.6456 24.0376H68.5319ZM68.3749 30.2896L69.5874 26.7058L70.7717 30.2896H68.3749Z" fill="white"/>
<path d="M82.9249 28.0066C83.1669 27.5778 83.2892 27.1219 83.2892 26.6364C83.2892 26.3132 83.2339 25.9964 83.1257 25.6874C83.0163 25.3783 82.8618 25.1015 82.6623 24.8594C82.4628 24.6173 82.2195 24.4189 81.935 24.267C81.6492 24.115 81.3313 24.0391 80.9786 24.0391H75.3417V34.1749H80.2796C80.7456 34.1749 81.1884 34.1208 81.6068 34.0113C82.0251 33.9019 82.392 33.7396 82.7061 33.5259C83.0202 33.3121 83.2673 33.043 83.4488 32.7197C83.629 32.3965 83.7204 32.0153 83.7204 31.5775C83.7204 30.8924 83.5518 30.331 83.2133 29.8931C82.876 29.4553 82.4164 29.1501 81.8359 28.9788C82.3186 28.7586 82.6816 28.4341 82.9249 28.0066ZM77.6806 26.0364H80.0633C80.3105 26.0364 80.5216 26.1265 80.698 26.3081C80.8743 26.4884 80.9618 26.7459 80.9618 27.0794C80.9618 27.4413 80.8614 27.7078 80.6619 27.8791C80.4624 28.0504 80.2333 28.1367 79.9771 28.1367H77.6793V26.0364H77.6806ZM81.0339 31.8891C80.8344 32.0887 80.5821 32.1892 80.277 32.1892H77.6793V29.9768H80.3761C80.6516 29.9768 80.8807 30.0863 81.061 30.3052C81.2412 30.5241 81.3326 30.7907 81.3326 31.1049C81.3339 31.4281 81.2335 31.6895 81.0339 31.8891Z" fill="white"/>
<path d="M85.2212 17.3892H83.2234V18.722H85.2212C86.3231 18.7258 87.2152 19.6182 87.2191 20.7206V37.3724H53.928V20.7193C53.9319 19.617 54.8239 18.7246 55.9258 18.7207H57.9237V17.3892H55.9246C54.0863 17.3892 52.5957 18.8804 52.5957 20.7193V40.7025C52.5957 42.5414 54.0863 44.0326 55.9246 44.0326H65.1593L64.6599 48.0297H63.9146C62.8114 48.0297 61.9167 48.9247 61.9167 50.0283C61.9167 51.1319 62.8114 52.0269 63.9146 52.0269H77.2312C78.3344 52.0269 79.2291 51.1319 79.2291 50.0283C79.2291 48.9247 78.3344 48.0297 77.2312 48.0297H76.4859L75.9865 44.0326H85.2212C87.0594 44.0326 88.5501 42.5414 88.5501 40.7025V20.7193C88.5514 18.8804 87.0607 17.3892 85.2212 17.3892ZM77.2312 49.3613C77.5994 49.3613 77.8967 49.66 77.8967 50.027C77.8967 50.394 77.5981 50.6928 77.2312 50.6928H63.9146C63.5464 50.6928 63.249 50.394 63.249 50.027C63.249 49.66 63.5477 49.3613 63.9146 49.3613H77.2312ZM65.9986 48.0284L66.4981 44.0313H74.6477L75.1472 48.0284H65.9986ZM87.2191 40.7012C87.2152 41.8035 86.3231 42.6959 85.2212 42.6998H55.9246C54.8227 42.6959 53.9306 41.8035 53.9267 40.7012V38.7026H87.2191V40.7012Z" fill="white"/>
<path d="M16.4106 101.287V82H12.9451V90.0193H3.479V82H0V101.287H3.479V92.9197H12.9451V101.287H16.4106Z" fill="white"/>
<path d="M26.9374 101.581C31.3468 101.581 34.0302 98.7203 34.0302 93.9756C34.0302 89.2575 31.3333 86.3973 26.9374 86.3973C22.5549 86.3973 19.8445 89.2709 19.8445 93.9756C19.8445 98.7203 22.5145 101.581 26.9374 101.581ZM26.9374 98.8673C24.6046 98.8673 23.2696 97.0764 23.2696 93.9889C23.2696 90.9015 24.6046 89.1105 26.9374 89.1105C29.2567 89.1105 30.5917 90.9015 30.5917 93.9889C30.5917 97.0764 29.2702 98.8673 26.9374 98.8673Z" fill="white"/>
<path d="M37.1001 101.287H40.4442V92.3984C40.4442 90.5807 41.6713 89.204 43.3299 89.204C44.975 89.204 45.9998 90.1931 45.9998 91.8103V101.287H49.2496V92.1578C49.2496 90.4871 50.3958 89.204 52.1353 89.204C53.9287 89.204 54.8322 90.153 54.8322 92.0509V101.287H58.1628V91.2356C58.1628 88.2016 56.3829 86.3973 53.4298 86.3973C51.3801 86.3973 49.6811 87.4398 48.9529 89.0303H48.7237C48.1034 87.4131 46.6875 86.3973 44.6514 86.3973C42.6961 86.3973 41.1859 87.3863 40.5521 89.0303H40.3229V86.678H37.1001V101.287Z" fill="white"/>
<path d="M71.4404 97.2902C70.955 98.3862 69.8088 99.001 68.1502 99.001C65.9523 99.001 64.5364 97.4506 64.4555 94.978V94.8042H74.7576V93.7483C74.7576 89.1639 72.236 86.3973 68.0289 86.3973C63.7543 86.3973 61.0979 89.3511 61.0979 94.0424C61.0979 98.7203 63.7138 101.581 68.0558 101.581C71.5348 101.581 74.0025 99.9232 74.6093 97.2902H71.4404ZM68.0154 88.9768C70.0246 88.9768 71.3461 90.3802 71.4135 92.5989H64.469C64.6173 90.4069 66.0197 88.9768 68.0154 88.9768Z" fill="white"/>
<path d="M85.8508 86.4374C83.8281 86.4374 82.1156 87.4398 81.266 89.0971H81.0368V86.678H77.814V106.138H81.1582V99.0678H81.3874C82.1425 100.618 83.7741 101.527 85.8912 101.527C89.6129 101.527 91.9323 98.6268 91.9323 93.9889C91.9323 89.311 89.586 86.4374 85.8508 86.4374ZM84.799 98.7738C82.5201 98.7738 81.1042 96.9427 81.0907 93.9889C81.1042 91.0351 82.5336 89.204 84.8124 89.204C87.1048 89.204 88.4937 90.995 88.4937 93.9889C88.4937 96.9828 87.1183 98.7738 84.799 98.7738Z" fill="white"/>
<path d="M99.0475 101.527C100.976 101.527 102.594 100.698 103.416 99.2817H103.646V101.287H106.868V91.3024C106.868 88.215 104.738 86.3973 100.949 86.3973C97.4428 86.3973 95.0021 88.0279 94.7324 90.5807H97.8878C98.1979 89.5783 99.2497 89.0303 100.787 89.0303C102.594 89.0303 103.565 89.8456 103.565 91.3024V92.5588L99.7621 92.786C96.1753 92.9865 94.1661 94.5235 94.1661 97.1432C94.1661 99.8163 96.2022 101.527 99.0475 101.527ZM100.032 98.9743C98.5485 98.9743 97.4833 98.2392 97.4833 96.9828C97.4833 95.7665 98.3597 95.0849 100.234 94.9646L103.565 94.7374V95.9269C103.565 97.6644 102.054 98.9743 100.032 98.9743Z" fill="white"/>
<path d="M116.937 106.847C121.238 106.847 123.962 104.721 123.962 101.367V86.678H120.739V89.0169H120.51C119.701 87.4264 117.948 86.4374 115.939 86.4374C112.177 86.4374 109.844 89.3511 109.844 93.8285C109.844 98.2124 112.163 101.073 115.885 101.073C117.935 101.073 119.539 100.217 120.389 98.6401H120.618V101.42C120.618 103.278 119.283 104.374 116.991 104.374C115.157 104.374 113.97 103.719 113.754 102.69H110.397C110.666 105.203 113.148 106.847 116.937 106.847ZM116.937 98.4396C114.604 98.4396 113.282 96.6487 113.282 93.8152C113.282 90.995 114.604 89.204 116.937 89.204C119.256 89.204 120.672 90.995 120.672 93.8285C120.672 96.6487 119.27 98.4396 116.937 98.4396Z" fill="white"/>
<path d="M137.388 97.2902C136.903 98.3862 135.756 99.001 134.098 99.001C131.9 99.001 130.484 97.4506 130.403 94.978V94.8042H140.705V93.7483C140.705 89.1639 138.184 86.3973 133.977 86.3973C129.702 86.3973 127.045 89.3511 127.045 94.0424C127.045 98.7203 129.661 101.581 134.003 101.581C137.482 101.581 139.95 99.9232 140.557 97.2902H137.388ZM133.963 88.9768C135.972 88.9768 137.294 90.3802 137.361 92.5989H130.417C130.565 90.4069 131.967 88.9768 133.963 88.9768Z" fill="white"/>
</svg>
