<svg width="209" height="34" viewBox="0 0 209 34" fill="none" xmlns="http://www.w3.org/2000/svg">
<path d="M209 1.26329C209 0.48336 208.792 0.223382 208.012 0.223382C206.244 0.275378 204.476 0.223382 202.709 0.171387C202.345 0.535356 202.553 1.05531 202.553 1.47128C202.553 5.11097 202.553 8.75066 202.501 12.3904C202.501 12.7543 202.709 13.1703 202.241 13.4823C201.669 11.8184 200.421 10.4145 198.757 9.79057C194.909 8.23071 190.49 9.79057 188.514 13.4303C187.734 14.9381 187.266 16.55 187.058 18.2139C186.642 22.1135 186.642 26.0132 188.566 29.6009C190.854 33.9685 196.989 35.2164 200.525 32.0447C201.305 31.2648 201.929 30.3288 202.345 29.2889C202.657 30.6928 202.241 31.9407 202.657 33.0846C204.424 33.0846 206.192 33.0326 207.96 33.0326C208.74 33.0326 209 32.7726 208.948 32.0447C208.948 21.8016 208.948 11.5064 209 1.26329ZM202.501 24.1934C202.501 27.0531 200.837 28.561 197.925 28.353C195.897 28.301 194.181 26.7931 193.921 24.7653C193.557 22.6335 193.557 20.4497 193.869 18.2659C194.389 14.7822 198.289 13.2743 201.149 15.4061C201.981 15.9261 202.449 16.862 202.449 17.7979C202.449 18.9938 202.449 20.2417 202.449 21.4376C202.501 22.3735 202.501 23.3094 202.501 24.1934Z" fill="white"/>
<path d="M99.3933 17.6939C99.4453 19.0978 99.2893 20.6057 99.6013 22.1655C100.173 25.2333 101.941 27.1051 104.853 27.6251C107.765 28.145 110.364 26.9491 111.768 24.2454C112.288 23.2574 112.6 23.1535 113.484 23.7254C114.68 24.5053 115.876 25.1813 117.124 25.8052C117.748 26.1172 117.748 26.4292 117.436 27.0531C114.836 32.0967 109.48 34.5925 103.293 33.6046C98.3014 32.7726 94.9217 30.0689 93.3098 25.2853C91.49 19.7217 91.49 14.1062 93.9338 8.75067C96.2216 3.81109 100.953 1.21131 106.361 1.41929C111.144 1.57528 114.836 3.39513 117.176 7.71076C117.592 8.4387 117.696 8.90666 116.708 9.32262C115.304 9.94657 114.004 10.7265 112.6 11.4544C112.184 11.6624 111.82 11.9224 111.56 11.2465C110.364 7.71076 106.881 7.08681 103.969 7.81475C101.057 8.54269 99.3413 11.0905 99.2893 14.5222C99.3413 15.4581 99.3933 16.498 99.3933 17.6939Z" fill="white"/>
<path d="M72.9275 6.98277C69.8078 13.2742 66.3241 19.3577 62.8404 25.7012C59.4087 19.3577 55.925 13.2742 52.4933 7.03476V8.59463C52.4933 16.342 52.4933 24.0893 52.4933 31.8367C52.4933 32.8246 52.3893 33.2925 51.1934 33.2405C48.7496 33.1366 48.7496 33.2405 48.7496 30.7448C48.7496 21.5415 48.7496 12.3383 48.7496 3.13509C48.7496 2.14718 48.9576 1.8352 49.9975 1.8352C53.6892 1.8872 53.6892 1.8352 55.457 5.11093L62.6324 18.5258C62.6844 18.5778 62.6844 18.5778 62.7364 18.6298C63.2044 18.6298 63.2044 18.1618 63.3603 17.9018C66.0121 12.9623 68.6639 8.02268 71.3157 3.0831C71.7836 2.25117 72.2516 1.73121 73.2915 1.8872C74.4354 2.04318 75.9433 1.41924 76.6712 2.14718C77.3992 2.87511 76.8792 4.38299 76.8792 5.52689C76.8792 14.2622 76.8792 22.9974 76.9312 31.7847C76.9312 32.9286 76.7232 33.3445 75.4753 33.2925C73.1875 33.1886 73.1875 33.2925 73.1875 31.0047V7.13875L72.9275 6.98277Z" fill="white"/>
<path d="M36.7905 17.0702C36.6865 16.8102 36.0626 17.1222 36.2706 16.5502C37.4665 16.1862 38.5064 15.5103 39.2863 14.5744C41.7821 11.4546 40.8982 5.63113 37.5705 3.39532C35.9066 2.35541 33.9828 1.83545 32.0069 1.88744C28.2113 1.88744 24.4156 1.93944 20.5679 1.83545C19.58 1.83545 19.372 2.14742 19.372 3.08334C19.424 9.01084 19.372 14.9383 19.372 20.8658C19.372 24.6095 19.372 28.4052 19.372 32.1489C19.372 32.7208 19.268 33.2408 20.1519 33.2408C24.8835 33.1888 29.6671 33.2928 34.3987 33.0848C38.1424 32.9288 41.0022 29.8091 41.5741 25.7534C42.2501 21.5418 40.6382 18.578 36.7905 17.0702ZM23.2197 6.04709C23.2197 5.47514 23.4277 5.26716 23.9996 5.26716C26.9114 5.31915 29.7711 5.21516 32.6829 5.31915C34.9707 5.42315 36.3226 6.72304 36.6345 9.01084C36.7385 9.89477 36.7385 10.8307 36.6865 11.7146C36.4266 13.8464 34.9707 15.1983 32.7869 15.3543C31.279 15.4583 29.8231 15.3543 28.3152 15.3543V15.4063C26.9114 15.4063 25.5075 15.4063 24.1036 15.4063C23.4797 15.4063 23.2197 15.2503 23.2197 14.5744C23.2197 11.7666 23.2197 8.90685 23.2197 6.04709ZM37.7264 25.5974C37.5185 28.0932 36.1146 29.7051 33.6188 29.8091C30.3951 29.9651 27.2233 29.8611 23.9996 29.9131C23.3757 29.9131 23.2197 29.6531 23.2717 29.0811C23.3237 27.4693 23.2717 25.8054 23.2717 24.1936C23.2717 22.6337 23.3237 21.1258 23.2717 19.566C23.2717 18.89 23.4277 18.63 24.1556 18.63C27.0673 18.682 30.0311 18.578 32.9948 18.682C35.9066 18.734 37.5185 20.2939 37.7784 23.2576C37.7784 24.0376 37.7784 24.8175 37.7264 25.5974Z" fill="white"/>
<path d="M155.705 16.2381C154.249 11.8704 150.713 9.32264 145.981 9.16666C140.782 9.01067 137.09 11.2985 135.374 15.7701C134.282 18.7858 134.074 22.0096 134.75 25.1293C135.946 31.0568 141.718 34.9045 147.645 33.7086C149.101 33.3966 150.505 32.8247 151.701 31.9927C155.445 29.4449 156.328 25.6493 156.484 21.4376C156.536 19.6698 156.224 17.9539 155.705 16.2381ZM149.465 25.2333C149.101 27.3651 147.593 28.561 145.357 28.561C143.226 28.561 141.77 27.3651 141.458 25.1813C141.146 22.6855 141.146 20.1897 141.458 17.7459C141.77 15.5621 143.382 14.3662 145.565 14.4182C147.697 14.4702 149.101 15.6661 149.465 17.8499C149.725 19.1498 149.569 20.4497 149.621 22.2176C149.673 23.1535 149.621 24.1934 149.465 25.2333Z" fill="white"/>
<path d="M175.203 29.445C174.111 31.3169 172.863 32.8767 170.679 33.4487C166.208 34.6446 162.568 32.6168 161.424 28.1451C161.112 26.8452 161.008 25.5453 161.008 24.2455C161.008 19.7738 161.008 15.2502 161.008 10.7786C161.008 9.94667 161.112 9.5827 162.1 9.63469C163.608 9.73869 165.064 9.73869 166.572 9.63469C167.456 9.5827 167.715 9.89467 167.663 10.7786C167.611 14.8862 167.663 18.9419 167.663 22.9976C167.663 23.5175 167.663 24.0895 167.715 24.6094C167.819 27.0532 169.067 28.4571 171.251 28.3531C173.487 28.1971 175.359 27.0012 175.307 24.4014C175.203 19.8778 175.307 15.3022 175.255 10.8306C175.255 9.84268 175.515 9.5827 176.451 9.63469C178.011 9.73869 179.518 9.68669 181.078 9.63469C181.754 9.63469 181.91 9.84268 181.91 10.4666C181.91 17.746 181.91 25.0254 181.91 32.3568C181.91 33.0847 181.65 33.2407 180.974 33.2407C179.414 33.1887 177.803 33.1887 176.243 33.2407C175.567 33.2407 175.255 33.0327 175.307 32.3568C175.255 31.3689 175.203 30.4329 175.203 29.445Z" fill="white"/>
<path d="M128.927 14.1063C128.927 18.3699 128.979 22.6336 128.875 26.8972C128.875 27.9371 129.187 28.3011 130.175 28.1451C131.631 27.8851 132.151 28.5091 131.891 29.861C131.891 30.069 131.891 30.3289 131.891 30.5369C131.891 33.3447 131.891 33.3447 129.135 33.2407C128.303 33.2407 127.523 33.1887 126.691 33.0327C124.507 32.6687 122.791 30.9529 122.479 28.7691C122.323 27.8851 122.219 27.0012 122.219 26.0653C122.219 17.85 122.219 9.58269 122.167 1.36738C122.167 0.32747 122.375 -0.088495 123.467 0.0154962C124.871 0.119487 126.275 0.119487 127.679 0.0154962C128.563 -0.0364994 128.927 0.223479 128.875 1.2114C128.927 5.52703 128.927 9.79067 128.927 14.1063Z" fill="white"/>
<path d="M8.19298 17.6419C8.19298 21.4375 8.19298 25.2332 8.19298 29.0289C8.19298 29.8608 8.40096 30.1728 9.28489 30.0688C9.80484 30.0168 10.3768 30.1208 10.8967 30.0688C12.3006 29.8608 12.7166 30.3808 12.6646 31.7847C12.6126 32.9806 12.4046 33.3445 11.1567 33.2925C7.881 33.1885 4.55328 33.2405 1.22557 33.2925C0.341641 33.2925 -0.12632 33.0845 0.029667 32.0966C0.0816626 31.7847 0.0816626 31.4727 0.029667 31.1607C-0.0743242 30.3808 0.133658 30.0168 1.01758 30.0688C1.84951 30.1728 2.62945 30.0168 3.46138 30.1208C4.29331 30.1728 4.44929 29.8608 4.44929 29.0809C4.44929 21.3855 4.44929 13.6902 4.44929 5.99483C4.44929 5.31889 4.29331 5.00692 3.56537 5.05891C2.94142 5.11091 2.26548 5.00692 1.69353 5.05891C0.393636 5.2669 0.029667 4.85093 0.029667 3.49905C0.029667 2.14716 0.341641 1.83519 1.69353 1.88718C4.96925 1.99117 8.19298 1.93918 11.4687 1.88718C12.4046 1.88718 12.8206 2.09516 12.6646 3.08308C12.6126 3.49905 12.6126 3.91501 12.6646 4.33098C12.7166 4.95492 12.4566 5.11091 11.8847 5.11091C11.0527 5.05891 10.1688 5.1629 9.28489 5.05891C8.40096 4.95492 8.19298 5.2669 8.24497 6.09883C8.19298 9.9465 8.19298 13.7942 8.19298 17.6419Z" fill="white"/>
</svg>
