<svg width="260" height="51" viewBox="0 0 260 51" fill="none" xmlns="http://www.w3.org/2000/svg">
<path d="M47.5968 43.0814C47.5968 41.9716 47.5616 39.906 47.2592 39.3698C47.1307 39.1537 46.8096 39.0269 46.3642 38.9916L45.9167 38.9584C45.809 38.8295 45.8463 38.5989 45.9498 38.5261C46.6314 38.5615 47.2923 38.5801 47.9905 38.5801C48.7425 38.5801 49.2231 38.5635 49.8695 38.5261C50.0124 38.6176 49.9938 38.8482 49.9068 38.9584L49.4759 38.9916C49.0284 39.029 48.6907 39.189 48.583 39.4239C48.3344 40.0141 48.3344 42.0756 48.3344 43.0814V45.1117C48.3344 46.6703 48.0837 48.3224 47.081 49.3968C46.3124 50.2405 44.9865 50.7081 43.6648 50.7081C42.4321 50.7081 41.1974 50.4732 40.3231 49.721C39.3764 48.9313 38.9268 47.6241 38.9268 45.4899V41.2547C38.9268 39.3906 38.8916 39.0831 37.8537 38.9937L37.4103 38.9604C37.3026 38.8856 37.3378 38.5801 37.4435 38.5282C38.3364 38.5635 38.9454 38.5822 39.6602 38.5822C40.3956 38.5822 40.984 38.5656 41.8582 38.5282C41.968 38.5822 42.0033 38.8877 41.8955 38.9604L41.4667 38.9937C40.4288 39.0851 40.3956 39.3906 40.3956 41.2547V45.1304C40.3956 48.0169 41.2885 49.9163 44.0232 49.9163C46.6169 49.9163 47.601 47.8735 47.601 45.147V43.0814H47.5968Z" fill="white"/>
<path d="M70.9637 47.3707C70.9637 47.9089 70.9637 50.0431 71.0175 50.5086C70.9823 50.6146 70.8746 50.7081 70.6778 50.7081C70.4644 50.4026 69.9444 49.7729 68.3906 48.0003L64.241 43.2643C63.7583 42.7074 62.5422 41.2361 62.1652 40.8413H62.13C62.0574 41.0574 62.0388 41.4709 62.0388 42.005V45.916C62.0388 46.7597 62.0574 49.0934 62.362 49.6296C62.4697 49.8291 62.826 49.935 63.2756 49.9683L63.8288 50.0244C63.9344 50.1657 63.9178 50.3798 63.7915 50.4712C62.9876 50.4379 62.362 50.4192 61.699 50.4192C60.9491 50.4192 60.4685 50.4379 59.8387 50.4712C59.7144 50.3818 59.6957 50.1345 59.8034 50.0244L60.2862 49.9683C60.6984 49.9143 60.9864 49.8083 61.0734 49.6088C61.3241 48.9687 61.3075 46.7763 61.3075 45.9139V40.7311C61.3075 40.2303 61.2888 39.8542 60.9118 39.4406C60.6611 39.1892 60.2302 39.0645 59.8034 39.0104L59.501 38.9751C59.3912 38.8671 59.3912 38.5969 59.5341 38.5242C60.2862 38.5782 61.235 38.5782 61.554 38.5782C61.8441 38.5782 62.1465 38.5595 62.3786 38.5242C62.737 39.4406 64.848 41.8097 65.4364 42.4726L67.1725 44.4281C68.4072 45.8079 69.2835 46.8158 70.1246 47.6761H70.1578C70.2303 47.5868 70.2303 47.2979 70.2303 46.9218V43.0835C70.2303 42.2398 70.2116 39.9103 69.8719 39.372C69.7642 39.2079 69.4783 39.0977 68.7615 39.0125L68.459 38.9772C68.3347 38.8691 68.3492 38.5803 68.4963 38.5263C69.3167 38.5616 69.9257 38.5803 70.6053 38.5803C71.3739 38.5803 71.8379 38.5616 72.4449 38.5263C72.5879 38.6177 72.5879 38.8691 72.4822 38.9772L72.2315 39.0125C71.6598 39.0977 71.3013 39.2453 71.2309 39.3907C70.9264 40.037 70.9616 42.2585 70.9616 43.0835V47.3707H70.9637Z" fill="white"/>
<path d="M84.2825 41.3067C84.2825 39.4053 84.2473 39.0977 83.1907 39.0104L82.7432 38.9751C82.6334 38.9003 82.6728 38.5782 82.7785 38.5242C83.6714 38.5616 84.2825 38.5782 85.0325 38.5782C85.7472 38.5782 86.3563 38.5637 87.2513 38.5242C87.3569 38.5782 87.3921 38.9024 87.2844 38.9751L86.839 39.0104C85.7845 39.0956 85.7493 39.4032 85.7493 41.3067V47.6928C85.7493 49.5901 85.7866 49.8436 86.839 49.9683L87.2844 50.0244C87.3901 50.095 87.3549 50.4171 87.2513 50.4712C86.3563 50.4379 85.7493 50.4171 85.0325 50.4171C84.2825 50.4171 83.6714 50.4359 82.7785 50.4712C82.6728 50.4171 82.6334 50.1324 82.7432 50.0244L83.1907 49.9683C84.2473 49.8436 84.2825 49.5901 84.2825 47.6928V41.3067Z" fill="white"/>
<path d="M98.764 40.4817C98.3538 39.478 98.0845 39.0977 97.3159 39.0104L96.9927 38.9751C96.8704 38.865 96.8849 38.6156 97.03 38.5242C97.5479 38.5616 98.1197 38.5782 98.8883 38.5782C99.6755 38.5782 100.301 38.5595 101.053 38.5242C101.18 38.599 101.215 38.865 101.09 38.9751L100.823 39.0104C100.144 39.0956 100.001 39.2058 99.9821 39.3492C100.017 39.5279 100.322 40.5004 100.877 41.8616C101.7 43.9418 102.524 46.0032 103.419 48.0502C103.97 46.8677 104.722 45.0203 105.134 44.0665C105.652 42.8487 106.493 40.8225 106.798 40.0495C106.941 39.6734 106.96 39.4759 106.96 39.3492C106.96 39.2245 106.779 39.0811 106.156 39.0104L105.833 38.9751C105.708 38.865 105.744 38.5969 105.87 38.5242C106.371 38.5616 107.051 38.5782 107.73 38.5782C108.323 38.5782 108.876 38.5595 109.464 38.5242C109.591 38.599 109.591 38.8816 109.502 38.9751L108.965 39.0104C108.536 39.0437 108.267 39.264 108.033 39.638C107.533 40.4817 106.837 41.9364 106.031 43.7631L105.066 45.9679C104.351 47.62 103.51 49.6981 103.206 50.652C103.154 50.6852 103.081 50.7018 103.011 50.7018C102.922 50.7018 102.833 50.6831 102.742 50.652C102.543 49.8955 102.224 49.0207 101.919 48.2642L98.764 40.4817Z" fill="white"/>
<path d="M120.291 41.2735C120.291 39.4053 120.256 39.1372 119.202 39.0125L118.914 38.9751C118.806 38.9003 118.843 38.5782 118.949 38.5242C119.717 38.5616 120.324 38.5782 121.058 38.5782H124.42C125.566 38.5782 126.622 38.5782 126.836 38.5242C126.941 38.8317 127.049 40.1202 127.122 40.9119C127.049 41.0221 126.763 41.0553 126.674 40.9473C126.407 40.1056 126.245 39.4759 125.313 39.2411C124.938 39.1518 124.366 39.1331 123.579 39.1331H122.293C121.758 39.1331 121.758 39.1684 121.758 39.85V43.4369C121.758 43.9398 121.812 43.9398 122.344 43.9398H123.384C124.132 43.9398 124.687 43.9044 124.901 43.8317C125.118 43.761 125.243 43.653 125.332 43.2041L125.477 42.4684C125.564 42.3604 125.866 42.3604 125.939 42.4851C125.939 42.9194 125.866 43.6176 125.866 44.2993C125.866 44.9435 125.939 45.6272 125.939 46.0179C125.866 46.1467 125.562 46.1467 125.477 46.0366L125.311 45.3404C125.241 45.0162 125.118 44.7482 124.76 44.6567C124.509 44.5819 124.078 44.5674 123.384 44.5674H122.344C121.81 44.5674 121.758 44.5819 121.758 45.0536V47.5806C121.758 48.5303 121.812 49.1413 122.094 49.4447C122.311 49.6588 122.686 49.8562 124.261 49.8562C125.638 49.8562 126.156 49.7855 126.55 49.586C126.873 49.4094 127.354 48.7818 127.818 47.8466C127.944 47.7593 128.197 47.8113 128.265 47.9734C128.141 48.601 127.693 49.9809 127.459 50.4651C125.852 50.4318 124.261 50.411 122.67 50.411H121.058C120.289 50.411 119.682 50.4297 118.626 50.4651C118.516 50.411 118.485 50.1263 118.59 50.0183L119.179 49.9622C120.198 49.877 120.289 49.6027 120.289 47.724V41.2735H120.291Z" fill="white"/>
<path d="M139.669 41.2901C139.669 39.584 139.616 39.2785 138.884 39.1892L138.31 39.1185C138.186 39.0291 138.186 38.7403 138.331 38.6696C139.33 38.5803 140.566 38.5242 142.317 38.5242C143.43 38.5242 144.48 38.6156 145.304 39.0645C146.162 39.5133 146.788 40.3196 146.788 41.579C146.788 43.2809 145.447 44.214 144.554 44.5735C144.465 44.6795 144.554 44.8624 144.644 45.0058C146.073 47.3187 147.022 48.7547 148.24 49.775C148.545 50.0431 148.992 50.2426 149.473 50.2758C149.564 50.3132 149.578 50.4566 149.489 50.5273C149.33 50.5792 149.042 50.6166 148.704 50.6166C147.183 50.6166 146.272 50.1698 145.004 48.3598C144.538 47.6948 143.805 46.4563 143.249 45.652C142.98 45.2551 142.694 45.0785 141.979 45.0785C141.173 45.0785 141.14 45.0972 141.14 45.4754V47.7322C141.14 49.6108 141.173 49.8311 142.213 49.9703L142.586 50.0264C142.694 50.1158 142.661 50.4192 142.551 50.4732C141.747 50.44 141.138 50.4192 140.424 50.4192C139.671 50.4192 139.027 50.4379 138.188 50.4732C138.082 50.4192 138.045 50.1511 138.153 50.0264L138.598 49.9703C139.636 49.8457 139.671 49.6108 139.671 47.7322V41.2901H139.669ZM141.136 43.8545C141.136 44.1745 141.136 44.374 141.188 44.4488C141.242 44.5008 141.511 44.534 142.423 44.534C143.067 44.534 143.747 44.4634 144.264 44.0685C144.745 43.6924 145.157 43.0648 145.157 41.847C145.157 40.4277 144.285 39.0832 142.296 39.0832C141.188 39.0832 141.136 39.1538 141.136 39.6567V43.8545Z" fill="white"/>
<path d="M161.282 50.7062C159.782 50.7062 158.831 50.2407 158.491 50.0412C158.278 49.6463 158.048 48.3724 158.008 47.5308C158.099 47.402 158.367 47.3687 158.441 47.4768C158.706 48.3912 159.44 50.1472 161.516 50.1472C163.016 50.1472 163.753 49.1642 163.753 48.0857C163.753 47.296 163.589 46.4169 162.286 45.5753L160.59 44.4635C159.693 43.8692 158.655 42.8488 158.655 41.3796C158.655 39.6734 159.981 38.2915 162.303 38.2915C162.856 38.2915 163.498 38.3996 163.966 38.5222C164.199 38.597 164.447 38.6302 164.592 38.6302C164.752 39.0625 164.913 40.0662 164.913 40.8226C164.843 40.9286 164.555 40.9827 164.468 40.8746C164.234 40.0122 163.753 38.8443 162.034 38.8443C160.283 38.8443 159.906 40.0101 159.906 40.8372C159.906 41.8804 160.766 42.6306 161.427 43.04L162.858 43.9398C163.985 44.6381 165.096 45.6771 165.096 47.3812C165.093 49.3596 163.608 50.7062 161.282 50.7062Z" fill="white"/>
<path d="M177.246 41.3067C177.246 39.4053 177.213 39.0977 176.156 39.0104L175.711 38.9751C175.601 38.9003 175.64 38.5782 175.746 38.5242C176.641 38.5616 177.246 38.5782 177.996 38.5782C178.715 38.5782 179.32 38.5637 180.219 38.5242C180.326 38.5782 180.36 38.9024 180.252 38.9751L179.802 39.0104C178.75 39.0956 178.715 39.4032 178.715 41.3067V47.6928C178.715 49.5901 178.75 49.8436 179.802 49.9683L180.252 50.0244C180.36 50.095 180.324 50.4171 180.219 50.4712C179.32 50.4379 178.715 50.4171 177.996 50.4171C177.246 50.4171 176.641 50.4359 175.746 50.4712C175.64 50.4171 175.601 50.1324 175.711 50.0244L176.156 49.9683C177.215 49.8436 177.246 49.5901 177.246 47.6928V41.3067Z" fill="white"/>
<path d="M197.101 47.7305C197.101 49.6092 197.134 49.8814 198.17 49.9687L198.746 50.0248C198.854 50.0954 198.815 50.4196 198.709 50.4737C197.69 50.4383 197.081 50.4196 196.366 50.4196C195.649 50.4196 195.028 50.4383 193.88 50.4737C193.772 50.4196 193.741 50.1141 193.88 50.0248L194.526 49.9687C195.545 49.8814 195.632 49.6092 195.632 47.7305V39.7089C195.632 39.152 195.632 39.1375 195.096 39.1375H194.114C193.345 39.1375 192.363 39.1728 191.912 39.5843C191.485 39.9812 191.305 40.374 191.108 40.8249C190.967 40.9288 190.712 40.8395 190.642 40.6981C190.932 39.8897 191.197 38.7385 191.321 38.0236C191.377 37.9924 191.609 37.9716 191.661 38.0236C191.769 38.5992 192.361 38.5785 193.182 38.5785H200.426C201.392 38.5785 201.551 38.5452 201.819 38.0776C201.91 38.0444 202.107 38.061 202.14 38.1296C201.941 38.8652 201.819 40.3178 201.872 40.8582C201.802 41.0015 201.497 41.0015 201.406 40.8914C201.352 40.4446 201.226 39.7796 200.963 39.5822C200.551 39.2767 199.871 39.1354 198.885 39.1354H197.617C197.081 39.1354 197.101 39.1499 197.101 39.7443V47.7305Z" fill="white"/>
<path d="M217.48 47.6928C217.48 49.6088 217.586 49.8976 218.554 49.9683L219.235 50.0244C219.341 50.1345 219.306 50.4171 219.198 50.4712C218.09 50.4379 217.48 50.4171 216.766 50.4171C216.012 50.4171 215.372 50.4359 214.423 50.4712C214.315 50.4171 214.276 50.1324 214.383 50.0244L214.941 49.9683C215.979 49.8602 216.01 49.6088 216.01 47.6928V46.7763C216.01 45.7913 215.956 45.5586 215.44 44.5548L213.331 40.4256C212.72 39.2432 212.455 39.1538 211.916 39.0645L211.417 38.9751C211.309 38.8463 211.328 38.5969 211.452 38.5242C212.026 38.5595 212.67 38.5782 213.528 38.5782C214.348 38.5782 214.99 38.5595 215.44 38.5242C215.599 38.5782 215.599 38.865 215.494 38.9751L215.264 39.0104C214.636 39.0998 214.508 39.1871 214.508 39.3325C214.508 39.5113 214.974 40.5337 215.063 40.7166C215.724 42.0403 216.387 43.4576 217.085 44.7003C217.636 43.7464 218.228 42.7053 218.765 41.6663C219.266 40.7311 219.925 39.5113 219.925 39.2951C219.925 39.1871 219.606 39.0645 219.177 39.0104L218.854 38.9751C218.73 38.8463 218.75 38.5969 218.891 38.5242C219.534 38.5595 220.054 38.5782 220.609 38.5782C221.162 38.5782 221.663 38.5595 222.27 38.5242C222.415 38.6177 222.432 38.865 222.31 38.9751L221.808 39.0645C220.878 39.2266 220.339 40.3571 219.447 41.9011L218.324 43.8545C217.532 45.2198 217.48 45.3798 217.48 46.7597V47.6928Z" fill="white"/>
<path d="M7.4291 6.38656C7.4291 1.81677 7.01683 1.32009 4.59709 1.11436L3.56953 1.03331C3.32093 0.86914 3.40587 0.129326 3.65033 0.00463867C6.03278 0.0856855 7.42703 0.129327 9.15068 0.129327C10.7935 0.129327 12.1899 0.0856855 13.8306 0.00463867C14.0772 0.129326 14.16 0.86914 13.9114 1.03331L13.2982 1.11436C10.8764 1.44686 10.7915 2.0225 10.7915 6.38656V21.6628C10.7915 24.9151 10.6278 27.7559 9.85091 29.6491C8.49395 32.947 5.57908 35.5821 1.76508 35.5821C1.26995 35.5821 0 35.5405 0 34.7155C0 34.0194 0.613222 32.8224 1.47505 32.8224C1.96811 32.8224 2.46117 32.9034 2.99567 33.0676C3.56953 33.2359 4.14546 33.3585 4.71932 33.3585C5.58115 33.3585 6.07421 32.866 6.36218 32.2883C7.3048 30.3535 7.4291 24.1732 7.4291 21.9538V6.38656Z" fill="white"/>
<path d="M13.8264 16.0826C13.8264 9.13541 19.0243 3.81958 26.1551 3.81958C34.156 3.81958 38.1751 9.62169 38.1751 15.7376C38.1751 22.7533 32.8425 27.8613 26.1551 27.8613C18.4691 27.8613 13.8264 22.3356 13.8264 16.0826ZM34.7112 16.812C34.7112 11.0805 32.1817 4.89812 25.5688 4.89812C21.9661 4.89812 17.2924 7.36485 17.2924 14.9728C17.2924 20.11 19.7846 26.7849 26.6088 26.7849C30.7625 26.7828 34.7112 23.6573 34.7112 16.812Z" fill="white"/>
<path d="M46.0415 16.0846C44.38 16.0846 44.3096 16.1553 44.3096 17.1964V22.0945C44.3096 25.7416 44.4836 26.2279 46.4206 26.4378L47.4254 26.5438C47.6326 26.6789 47.5642 27.3065 47.355 27.4083C45.4842 27.3376 44.3075 27.3065 42.9547 27.3065C41.4672 27.3065 40.2926 27.3771 38.9397 27.4083C38.7305 27.3065 38.6642 26.7474 38.8714 26.5438L39.4577 26.4378C41.3947 26.0908 41.4672 25.7416 41.4672 22.0945V9.58841C41.4672 5.94131 41.2269 5.35112 39.4224 5.21189L38.5212 5.14331C38.3162 5.00408 38.3866 4.37649 38.5917 4.27466C40.2905 4.30791 41.4672 4.37648 42.9526 4.37648C44.3054 4.37648 45.4801 4.34324 46.9696 4.27466C47.1789 4.37649 47.2493 5.00408 47.038 5.14331L46.3833 5.21189C44.3759 5.42178 44.3054 5.94131 44.3054 9.58841V13.5826C44.3054 14.659 44.3759 14.6943 46.0374 14.6943H55.9421C57.6036 14.6943 57.6741 14.659 57.6741 13.5826V9.58841C57.6741 5.94131 57.6037 5.42178 55.563 5.21189L54.9042 5.14331C54.695 5.00408 54.7654 4.37649 54.9747 4.27466C56.5657 4.34531 57.7425 4.37648 59.1657 4.37648C60.5123 4.37648 61.6932 4.34324 63.2511 4.27466C63.4541 4.37649 63.5266 5.00408 63.3215 5.14331L62.5923 5.21189C60.5827 5.42178 60.5123 5.94131 60.5123 9.58841V22.0945C60.5123 25.7416 60.5827 26.1947 62.5923 26.4378L63.421 26.5438C63.6302 26.6789 63.5618 27.3065 63.3547 27.4083C61.6932 27.3376 60.5123 27.3065 59.1657 27.3065C57.7425 27.3065 56.4974 27.3397 54.9747 27.4083C54.7654 27.3065 54.6971 26.7474 54.9042 26.5438L55.563 26.4378C57.6741 26.0908 57.6741 25.7416 57.6741 22.0945V17.1964C57.6741 16.1553 57.6036 16.0846 55.9421 16.0846H46.0415Z" fill="white"/>
<path d="M87.0816 21.3968C87.0816 22.44 87.0816 26.5734 87.1831 27.4774C87.1168 27.6852 86.9096 27.8598 86.5305 27.8598C86.112 27.2717 85.1073 26.0539 82.0929 22.6167L74.061 13.4438C73.1287 12.3674 70.769 9.51826 70.0439 8.75351H69.9735C69.8347 9.17121 69.8016 9.96921 69.8016 11.0104V18.5851C69.8016 20.2144 69.8347 24.7322 70.4251 25.7733C70.6344 26.1557 71.3263 26.3677 72.1923 26.4342L73.2634 26.5402C73.4747 26.8165 73.4374 27.2343 73.195 27.4047C71.6371 27.334 70.4251 27.3008 69.1407 27.3008C67.6905 27.3008 66.7562 27.334 65.538 27.4047C65.2956 27.2322 65.2625 26.7459 65.4717 26.5402L66.4081 26.4342C67.2057 26.3303 67.7568 26.1245 67.9329 25.7401C68.4156 24.489 68.3824 20.2518 68.3824 18.5851V8.54362C68.3824 7.57105 68.3472 6.84163 67.6201 6.04363C67.1353 5.55735 66.3066 5.31422 65.4738 5.20823L64.8875 5.14173C64.6803 4.93184 64.6803 4.41231 64.9559 4.271C66.4102 4.37282 68.2478 4.37283 68.8693 4.37283C69.4245 4.37283 70.0149 4.34165 70.4645 4.271C71.1564 6.04363 75.2439 10.6301 76.3833 11.9123L79.7457 15.6986C82.1344 18.3731 83.8311 20.3203 85.4594 21.987H85.5299C85.6666 21.8145 85.6666 21.2576 85.6666 20.5282V13.0947C85.6666 11.4634 85.6314 6.94762 84.9747 5.90648C84.7675 5.59061 84.2143 5.38487 82.8284 5.21031L82.2421 5.14381C81.9997 4.93392 82.0328 4.3749 82.3084 4.27308C83.9036 4.34165 85.0803 4.3749 86.3958 4.3749C87.8854 4.3749 88.7866 4.34373 89.9633 4.27308C90.2409 4.44556 90.2409 4.93392 90.0337 5.14381L89.5469 5.21031C88.4406 5.38487 87.7466 5.66334 87.6057 5.93973C87.0215 7.19284 87.0899 11.4987 87.0899 13.0968V21.3968H87.0816Z" fill="white"/>
<path d="M96.2368 27.8592C93.3261 27.8592 91.4905 26.9573 90.8317 26.5728C90.4195 25.8081 89.9678 23.3435 89.8974 21.7101C90.0735 21.4648 90.5914 21.3942 90.7302 21.6062C91.2481 23.3767 92.6693 26.7827 96.6863 26.7827C99.5971 26.7827 101.018 24.873 101.018 22.7845C101.018 21.257 100.708 19.5551 98.1759 17.9258L94.884 15.7687C93.152 14.6216 91.1466 12.6412 91.1466 9.79416C91.1466 6.49203 93.7072 3.81958 98.209 3.81958C99.2842 3.81958 100.531 4.02739 101.431 4.27053C101.88 4.40976 102.365 4.48042 102.64 4.48042C102.953 5.31374 103.266 7.25886 103.266 8.7177C103.129 8.92551 102.574 9.02526 102.398 8.8216C101.951 7.15288 101.016 4.89604 97.689 4.89604C94.2977 4.89604 93.5684 7.15287 93.5684 8.75094C93.5684 10.7646 95.2341 12.2235 96.5123 13.0256L99.2843 14.7588C101.468 16.1158 103.614 18.1295 103.614 21.4295C103.61 25.2532 100.737 27.8592 96.2368 27.8592Z" fill="white"/>
<path d="M124.165 14.0044C122.193 14.0044 122.11 14.0855 122.11 15.322V21.1282C122.11 25.4507 122.317 26.0284 124.615 26.2757L125.806 26.3983C126.052 26.5646 125.969 27.3044 125.725 27.427C123.51 27.3439 122.11 27.3023 120.511 27.3023C118.745 27.3023 117.349 27.3854 115.752 27.427C115.503 27.3023 115.42 26.6456 115.669 26.3983L116.367 26.2757C118.665 25.8642 118.748 25.4507 118.748 21.1282V6.30292C118.748 1.97836 118.458 1.28012 116.326 1.11387L115.257 1.03074C115.012 0.866573 115.091 0.124687 115.34 0C117.349 0.0415623 118.748 0.124688 120.513 0.124688C122.112 0.124688 123.51 0.0831246 125.273 0C125.52 0.124687 125.603 0.866573 125.354 1.03074L124.575 1.11387C122.195 1.36324 122.112 1.97629 122.112 6.30292V11.039C122.112 12.3149 122.195 12.3523 124.167 12.3523H135.907C137.88 12.3523 137.958 12.3149 137.958 11.039V6.30292C137.958 1.97836 137.878 1.36324 135.454 1.11387L134.675 1.03074C134.428 0.866573 134.511 0.124687 134.758 0C136.643 0.0831246 138.039 0.124688 139.723 0.124688C141.323 0.124688 142.719 0.0831246 144.567 0C144.812 0.124687 144.894 0.866573 144.646 1.03074L143.786 1.11387C141.406 1.36324 141.323 1.97629 141.323 6.30292V21.1282C141.323 25.4507 141.406 25.9848 143.786 26.2757L144.77 26.3983C145.017 26.5646 144.934 27.3044 144.687 27.427C142.719 27.3439 141.323 27.3023 139.723 27.3023C138.039 27.3023 136.562 27.3439 134.758 27.427C134.509 27.3023 134.428 26.6456 134.675 26.3983L135.454 26.2757C137.958 25.8642 137.958 25.4507 137.958 21.1282V15.322C137.958 14.0876 137.878 14.0044 135.907 14.0044H124.165Z" fill="white"/>
<path d="M144.511 16.0826C144.511 9.13541 149.707 3.81958 156.84 3.81958C164.839 3.81958 168.856 9.62169 168.856 15.7376C168.856 22.7533 163.523 27.8613 156.84 27.8613C149.152 27.8613 144.511 22.3356 144.511 16.0826ZM165.396 16.812C165.396 11.0805 162.869 4.89812 156.254 4.89812C152.653 4.89812 147.977 7.36485 147.977 14.9728C147.977 20.11 150.469 26.7849 157.292 26.7849C161.449 26.7828 165.396 23.6573 165.396 16.812Z" fill="white"/>
<path d="M175.127 22.093C175.127 25.7422 175.197 26.1911 177.41 26.4342L178.348 26.5381C178.555 26.7106 178.487 27.3029 178.278 27.4068C176.303 27.3361 175.162 27.3029 173.774 27.3029C172.319 27.3029 171.074 27.334 169.55 27.4068C169.342 27.3029 169.272 26.7459 169.481 26.5381L170.206 26.4342C172.216 26.1578 172.284 25.7401 172.284 22.093V9.27513C172.284 6.32211 172.216 5.72984 170.658 5.55736L169.411 5.4202C169.168 5.21031 169.204 4.69078 169.481 4.55154C171.315 4.3084 173.463 4.271 176.336 4.271C179.21 4.271 181.358 4.65337 182.985 5.66334C184.576 6.67123 185.754 8.47712 185.754 10.8711C185.754 14.0673 183.782 15.6654 182.293 16.3948C180.768 17.1242 178.934 17.438 177.513 17.438C177.273 17.3341 177.273 16.8125 177.478 16.7439C181.219 16.0477 182.568 13.928 182.568 10.9044C182.568 7.53366 180.596 5.34954 176.995 5.34954C175.162 5.34954 175.125 5.4867 175.125 6.60265V22.093H175.127Z" fill="white"/>
<path d="M189.535 9.58476C189.535 5.93973 189.465 5.3828 187.455 5.21031L186.589 5.14173C186.38 5.00042 186.451 4.37282 186.658 4.271C188.355 4.34165 189.465 4.37283 191.023 4.37283C192.374 4.37283 193.552 4.34165 195.042 4.271C195.249 4.37282 195.318 5.00042 195.11 5.14173L194.456 5.21031C192.444 5.4202 192.376 5.93973 192.376 9.58476V13.5831C192.376 14.2418 192.444 14.9048 192.827 14.9048C193.138 14.9048 193.555 14.6949 193.795 14.5182C194.28 14.1026 195.183 13.1986 195.562 12.8516L199.299 9.13588C199.958 8.51245 201.657 6.73773 202.001 6.24937C202.175 6.00831 202.245 5.83375 202.245 5.69451C202.245 5.55736 202.106 5.45345 201.657 5.34747L200.723 5.14173C200.478 4.89859 200.513 4.44556 200.791 4.271C202.001 4.34165 203.387 4.37283 204.601 4.37283C205.813 4.37283 206.987 4.34165 208.027 4.271C208.27 4.44556 208.303 4.93184 208.098 5.14173C207.197 5.21031 205.848 5.55736 204.876 6.11222C203.909 6.66915 201.968 8.2984 200.029 10.1438L196.911 13.0947C196.426 13.5831 196.115 13.8927 196.115 14.1733C196.115 14.4143 196.324 14.6949 196.774 15.2476C200.064 19.034 202.73 22.1616 205.432 25.0086C206.262 25.844 207.027 26.297 208.203 26.4363L209.136 26.5423C209.38 26.7127 209.31 27.3028 209.065 27.4088C208.166 27.3382 206.813 27.3028 205.187 27.3028C203.768 27.3028 202.554 27.3361 200.961 27.4088C200.721 27.3382 200.615 26.748 200.822 26.5423L201.618 26.3989C202.102 26.3303 202.448 26.2243 202.448 26.056C202.448 25.844 202.206 25.5676 201.964 25.2517C201.305 24.4184 200.406 23.4833 199.09 21.9891L196.32 18.8615C194.346 16.64 193.793 15.9438 192.96 15.9438C192.44 15.9438 192.37 16.3948 192.37 17.6126V22.093C192.37 25.738 192.438 26.2243 194.379 26.4363L195.313 26.5423C195.519 26.6794 195.454 27.3028 195.245 27.4088C193.55 27.3382 192.37 27.3028 191.019 27.3028C189.6 27.3028 188.421 27.3361 187.004 27.4088C186.797 27.3028 186.724 26.7854 186.933 26.5423L187.625 26.4363C189.461 26.1578 189.533 25.7401 189.533 22.093V9.58476H189.535Z" fill="white"/>
<path d="M213.304 9.65542C213.304 5.9709 213.233 5.3828 211.191 5.21031L210.325 5.14173C210.115 5.00042 210.186 4.3749 210.393 4.271C212.125 4.34165 213.302 4.3749 214.756 4.3749C216.14 4.3749 217.319 4.33957 219.051 4.271C219.26 4.3749 219.326 5.0025 219.119 5.14173L218.253 5.21031C216.21 5.38488 216.14 5.9709 216.14 9.65542V22.0203C216.14 25.7048 216.21 26.1911 218.253 26.4342L219.119 26.5381C219.326 26.6774 219.258 27.3008 219.051 27.4068C217.319 27.3361 216.14 27.3008 214.756 27.3008C213.302 27.3008 212.125 27.3361 210.393 27.4068C210.186 27.3008 210.113 26.7459 210.325 26.5381L211.191 26.4342C213.233 26.1911 213.304 25.7048 213.304 22.0203V9.65542Z" fill="white"/>
<path d="M243.26 21.3968C243.26 22.44 243.26 26.5734 243.366 27.4774C243.296 27.6852 243.091 27.8598 242.709 27.8598C242.295 27.2717 241.29 26.0539 238.278 22.6167L230.244 13.4438C229.308 12.3674 226.952 9.51826 226.225 8.75351H226.157C226.018 9.17121 225.98 9.96921 225.98 11.0104V18.5851C225.98 20.2144 226.018 24.7322 226.606 25.7733C226.815 26.1557 227.505 26.3677 228.373 26.4342L229.444 26.5402C229.654 26.8165 229.618 27.2343 229.376 27.4047C227.818 27.334 226.606 27.3008 225.322 27.3008C223.869 27.3008 222.933 27.334 221.721 27.4047C221.481 27.2322 221.446 26.7459 221.651 26.5402L222.587 26.4342C223.383 26.3303 223.936 26.1245 224.11 25.7401C224.595 24.489 224.561 20.2518 224.561 18.5851V8.54362C224.561 7.57105 224.528 6.84163 223.801 6.04363C223.314 5.55735 222.483 5.31422 221.651 5.20823L221.062 5.14173C220.855 4.93184 220.855 4.41231 221.133 4.271C222.587 4.37282 224.42 4.37283 225.046 4.37283C225.599 4.37283 226.188 4.34165 226.637 4.271C227.333 6.04363 231.419 10.6301 232.558 11.9123L235.92 15.6986C238.309 18.3731 240.006 20.3203 241.632 21.987H241.703C241.841 21.8145 241.841 21.2576 241.841 20.5282V13.0947C241.841 11.4634 241.804 6.94762 241.149 5.90648C240.942 5.59061 240.387 5.38487 239.003 5.21031L238.415 5.14381C238.17 4.93392 238.206 4.3749 238.481 4.27308C240.076 4.34165 241.253 4.3749 242.569 4.3749C244.058 4.3749 244.959 4.34373 246.136 4.27308C246.414 4.44556 246.414 4.93392 246.206 5.14381L245.722 5.21031C244.613 5.38487 243.919 5.66334 243.778 5.93973C243.192 7.19284 243.258 11.4987 243.258 13.0968V21.3968H243.26Z" fill="white"/>
<path d="M252.355 27.8589C249.447 27.8589 247.611 26.9569 246.952 26.5725C246.536 25.8078 246.086 23.3431 246.018 21.7097C246.192 21.4645 246.714 21.3938 246.847 21.6058C247.369 23.3764 248.79 26.7824 252.805 26.7824C255.716 26.7824 257.135 24.8726 257.135 22.7841C257.135 21.2567 256.822 19.5547 254.292 17.9255L251.005 15.7705C249.273 14.6233 247.263 12.6429 247.263 9.79587C247.263 6.49375 249.828 3.82129 254.33 3.82129C255.403 3.82129 256.648 4.0291 257.549 4.27224C257.999 4.41147 258.485 4.48213 258.761 4.48213C259.074 5.31545 259.385 7.26057 259.385 8.7194C259.246 8.92722 258.693 9.02696 258.517 8.82331C258.067 7.15458 257.133 4.89775 253.81 4.89775C250.416 4.89775 249.687 7.15458 249.687 8.75265C249.687 10.7663 251.351 12.2252 252.631 13.0273L255.403 14.7605C257.586 16.1175 259.733 18.1312 259.733 21.4312C259.733 25.2529 256.857 27.8589 252.355 27.8589Z" fill="white"/>
</svg>
