<svg width="192" height="34" viewBox="0 0 192 34" fill="none" xmlns="http://www.w3.org/2000/svg">
<path d="M5.65504 9.52711L5.84284 12.2142C7.44267 10.1267 9.60591 9.08295 12.3326 9.08295C15.2401 9.08295 17.2364 10.3044 18.3215 12.7472C19.9074 10.3044 22.168 9.08295 25.1034 9.08295C27.5518 9.08295 29.3742 9.84542 30.5706 11.3703C31.767 12.8805 32.3652 15.1605 32.3652 18.2103V33.5558H26.3137V18.2325C26.3137 16.8705 26.0633 15.8785 25.5624 15.2567C25.0616 14.6201 24.1782 14.3018 22.9123 14.3018C21.1038 14.3018 19.8518 15.2197 19.1562 17.0555L19.177 33.5558H13.1464V18.2547C13.1464 16.8631 12.889 15.8563 12.3743 15.2345C11.8596 14.6127 10.9832 14.3018 9.74503 14.3018C8.03391 14.3018 6.79578 15.0568 6.03065 16.5669V33.5558H0V9.52711H5.65504Z" fill="white"/>
<path d="M54.568 26.8935H43.5918L41.5051 33.5558H34.8484L46.1585 1.22142H51.9596L63.3322 33.5558H56.6756L54.568 26.8935ZM45.282 21.4971H52.8777L49.059 9.39386L45.282 21.4971Z" fill="white"/>
<path d="M72.4304 22.1633V33.5558H66.1702V1.22142H78.0228C80.3043 1.22142 82.3076 1.66558 84.0326 2.55389C85.7715 3.44219 87.1071 4.70803 88.0391 6.3514C88.9712 7.97997 89.4372 9.83801 89.4372 11.9255C89.4372 15.0938 88.4147 17.5959 86.3697 19.4317C84.3387 21.2528 81.5216 22.1633 77.9185 22.1633H72.4304ZM72.4304 16.7668H78.0228C79.6783 16.7668 80.9373 16.3523 81.7998 15.5232C82.6762 14.6941 83.1144 13.5097 83.1144 11.97C83.1144 10.3858 82.6762 9.10516 81.7998 8.12802C80.9234 7.15088 79.7131 6.64751 78.1689 6.6179H72.4304V16.7668Z" fill="white"/>
<path d="M100.413 33.5558H94.1532V1.22142H100.413V33.5558Z" fill="white"/>
<path d="M123.138 28.2038H136.43V33.5558H116.878V1.22142H123.138V28.2038Z" fill="white"/>
<path d="M146.008 33.5558H139.957V9.52711H146.008V33.5558ZM139.602 3.30895C139.602 2.34661 139.901 1.55454 140.5 0.932724C141.112 0.310908 141.939 0 142.983 0C144.012 0 144.833 0.310908 145.445 0.932724C146.057 1.55454 146.363 2.34661 146.363 3.30895C146.363 4.28609 146.05 5.08556 145.424 5.70738C144.812 6.3292 143.998 6.6401 142.983 6.6401C141.967 6.6401 141.146 6.3292 140.52 5.70738C139.908 5.08556 139.602 4.28609 139.602 3.30895Z" fill="white"/>
<path d="M159.447 25.7165L163.641 9.52711H169.943L162.327 33.5558H156.567L148.951 9.52711H155.253L159.447 25.7165Z" fill="white"/>
<path d="M182.714 34C179.403 34 176.704 32.9192 174.618 30.7577C172.545 28.5961 171.508 25.7165 171.508 22.1189V21.4971C171.508 19.0838 171.947 16.9297 172.823 15.0346C173.699 13.1248 174.938 11.659 176.537 10.6375C178.151 9.60113 179.987 9.08295 182.046 9.08295C185.135 9.08295 187.562 10.1193 189.329 12.192C191.11 14.2648 192 17.2036 192 21.0085V23.629H177.622C177.817 25.1983 178.401 26.4568 179.375 27.4043C180.363 28.3518 181.608 28.8256 183.111 28.8256C185.434 28.8256 187.249 27.9299 188.557 26.1385L191.52 29.6695C190.616 31.0316 189.392 32.0975 187.847 32.8674C186.303 33.6225 184.592 34 182.714 34ZM182.025 14.2796C180.829 14.2796 179.855 14.7089 179.104 15.5676C178.367 16.4263 177.894 17.6551 177.685 19.2541H186.074V18.7433C186.046 17.322 185.684 16.2264 184.989 15.4566C184.293 14.6719 183.305 14.2796 182.025 14.2796Z" fill="white"/>
</svg>
