<svg width="224" height="58" viewBox="0 0 224 58" fill="none" xmlns="http://www.w3.org/2000/svg">
<path d="M5.84587 5.34221H0V1.63843H15.488V5.34221H9.74906V22.4366H5.84587V5.34221Z" fill="white"/>
<path d="M17.5912 0H21.4944V8.90336C22.546 7.49663 24.2035 6.67752 25.968 6.71313C29.5325 6.71313 31.9564 9.09923 31.9564 13.1235V22.4186H27.9285V13.7646C28.2136 12.0908 27.073 10.5238 25.3976 10.2389C25.2016 10.2032 24.9877 10.1854 24.7917 10.2032C22.9559 10.2211 21.4766 11.7168 21.4766 13.5509C21.4766 13.6934 21.4944 13.8536 21.5123 13.9961V22.4899H17.5912V0Z" fill="white"/>
<path d="M33.9344 14.7799C33.881 10.3994 37.4099 6.8025 41.7943 6.74908C41.8656 6.74908 41.9369 6.74908 42.0082 6.74908C46.2322 6.57101 49.7967 9.86524 49.975 14.0854C49.975 14.2635 49.975 14.4415 49.975 14.6374V16.1154H37.7307C38.2297 18.1097 40.1011 19.463 42.1507 19.3384C43.7013 19.4274 45.1806 18.6261 45.9826 17.2906L49.2086 19.1781C47.6223 21.5286 44.9133 22.8819 42.0795 22.7394C37.802 22.9531 34.1661 19.6767 33.9344 15.4031C33.9344 15.1894 33.9344 14.9935 33.9344 14.7799ZM37.8376 12.9992H46.0539C45.6084 11.1473 43.8974 9.90085 42.0082 10.0255C40.1368 10.0255 38.4792 11.2542 37.9267 13.0526L37.8376 12.9992Z" fill="white"/>
<path d="M58.9934 12.0553C58.8686 6.26807 63.4669 1.49586 69.2593 1.37121C69.4019 1.37121 69.5444 1.37121 69.687 1.37121C73.4655 1.35341 76.9766 3.31215 78.9192 6.55298L75.3547 8.77882C74.321 6.57078 72.0931 5.18186 69.6692 5.21747C66.0512 5.18186 63.0926 8.10216 63.0569 11.7169C63.0569 11.806 63.0569 11.8772 63.0569 11.9662C62.9678 15.581 65.8195 18.5725 69.4375 18.6616C69.491 18.6616 69.5623 18.6616 69.6157 18.6616C72.1822 18.715 74.517 17.1836 75.5151 14.8153L79.1866 16.774C76.4775 22.0092 70.0257 24.0748 64.7858 21.3682C61.2747 19.5519 59.0646 15.9905 58.9934 12.0553Z" fill="white"/>
<path d="M80.1311 12.0552C80.1311 6.16112 84.9255 1.37109 90.8248 1.37109C96.7242 1.37109 101.518 6.16112 101.518 12.0552C101.518 17.9492 96.7242 22.7392 90.8248 22.7392C84.9255 22.7392 80.1311 17.9492 80.1311 12.0552ZM97.4192 12.0552C97.348 8.40477 94.3359 5.50227 90.6822 5.57349C87.0286 5.64472 84.1234 8.65407 84.1947 12.3045C84.266 15.8836 87.189 18.7683 90.7713 18.7861C94.4607 18.7683 97.4371 15.7946 97.4192 12.1086C97.4192 12.0908 97.4192 12.073 97.4192 12.0552Z" fill="white"/>
<path d="M100.663 1.63843H104.905L110.501 17.0946L116.151 1.63843H120.375L112.497 22.4366H108.523L100.663 1.63843Z" fill="white"/>
<path d="M122.193 1.63843H126.274V22.4544H122.193V1.63843Z" fill="white"/>
<path d="M129.786 1.63844H136.523C142.137 1.2645 147.002 5.50251 147.377 11.1295C147.395 11.4322 147.412 11.7349 147.395 12.0376C147.448 17.7358 142.85 22.4012 137.146 22.4546C136.968 22.4546 136.79 22.4546 136.612 22.4368H129.786C129.786 22.4368 129.786 1.63844 129.786 1.63844ZM133.831 5.37786V18.6795H136.344C139.945 18.911 143.064 16.1866 143.295 12.5896C143.313 12.4115 143.313 12.2157 143.313 12.0376C143.474 8.49405 140.729 5.4847 137.182 5.32444C136.843 5.30664 136.523 5.32444 136.184 5.36006H133.796L133.831 5.37786Z" fill="white"/>
<path d="M5.84587 33.833H0V30.1292H15.488V33.833H9.74906V50.9274H5.84587V33.833Z" fill="white"/>
<path d="M14.5966 35.5427H18.482V37.911C19.1592 36.1837 20.888 35.1153 22.7416 35.2578C23.6506 35.2578 24.5417 35.4537 25.3437 35.8632L23.9179 39.745C23.3119 39.3711 22.5812 39.1752 21.8683 39.2108C20.1751 39.0506 18.6602 40.297 18.5176 41.9887C18.4998 42.2558 18.4998 42.5051 18.5354 42.7722V50.8919H14.5966V35.5427Z" fill="white"/>
<path d="M25.3263 46.6716C25.3263 43.4842 27.9819 41.5077 32.2593 41.5077H36.3051V41.3118C36.3051 39.7448 35.0397 38.4806 33.4713 38.4806C33.2931 38.4806 33.1327 38.4984 32.9723 38.5162C31.493 38.4449 30.1028 39.2462 29.4077 40.5461L25.8432 38.7655C27.5185 36.4506 30.2454 35.1151 33.1148 35.2041C37.6597 35.2041 40.244 37.5724 40.244 41.4365V50.8918H36.3408V48.5769C35.0041 50.322 32.901 51.3191 30.691 51.2479C27.2333 51.2479 25.3263 49.3782 25.3263 46.6716ZM36.3408 45.2115V44.3924H32.7762C30.4414 44.3924 29.4968 45.1402 29.4968 46.3333C29.4968 47.5263 30.2632 48.0071 31.8851 48.0071C33.7743 47.9715 35.4853 46.9031 36.3408 45.2115Z" fill="white"/>
<path d="M42.0977 43.2524C42.1511 38.7651 45.8404 35.1859 50.3318 35.2394C53.5221 35.275 56.3915 37.1981 57.6748 40.1184L54.1102 41.5785C53.5399 39.9403 51.9537 38.8719 50.2249 38.9253C47.8544 39.0856 46.0365 41.1334 46.1969 43.5017C46.3395 45.6563 48.0683 47.3835 50.2249 47.526C51.9358 47.5438 53.4686 46.4754 54.0568 44.855L57.7282 46.3685C56.445 49.3957 53.4508 51.3366 50.1714 51.2654C45.787 51.3366 42.1689 47.8643 42.0977 43.4839C42.0977 43.4126 42.0977 43.3236 42.0977 43.2524Z" fill="white"/>
<path d="M65.7663 44.588L63.3958 47.2412V50.945H59.4926V28.4907H63.3958V42.7361L69.6517 35.6134H74.3569L68.5645 42.1663L74.642 51.0696H70.1329L65.7663 44.588Z" fill="white"/>
<path d="M78.3312 28.6511C79.6857 28.5977 80.8085 29.6483 80.862 31.0016C80.862 31.0728 80.862 31.1441 80.862 31.2153C80.7372 32.6042 79.5253 33.637 78.1351 33.5301C76.9053 33.4233 75.9251 32.4439 75.8181 31.2153C75.7647 29.862 76.8162 28.7045 78.1708 28.6511C78.2242 28.6511 78.2777 28.6511 78.3312 28.6511ZM76.335 35.5423H80.363V50.9273H76.335V35.5423Z" fill="white"/>
<path d="M83.3035 35.5427H87.2423V37.4836C88.2761 36.0235 89.9692 35.1865 91.7515 35.24C95.3161 35.24 97.7222 37.6261 97.7222 41.6504V50.9455H93.6942V42.2558C93.9794 40.582 92.8387 39.015 91.1634 38.7301C90.9673 38.6945 90.7534 38.6767 90.5574 38.6945C88.7216 38.6945 87.2245 40.1902 87.2245 42.0243C87.2245 42.1846 87.2423 42.327 87.2602 42.4873V50.9811H83.3035V35.5427Z" fill="white"/>
<path d="M99.6648 43.2173C99.4331 39.0505 102.641 35.4714 106.812 35.2577C106.919 35.2577 107.026 35.2399 107.133 35.2399C109.022 35.1864 110.804 36.059 111.927 37.5725V35.5426H115.866V49.7879C115.937 53.9903 112.604 57.4448 108.398 57.5338C108.202 57.5338 107.988 57.5338 107.792 57.516C104.958 57.7119 102.196 56.5901 100.306 54.4711L103.55 51.9425C104.477 53.3315 106.081 54.115 107.738 54.0259C109.949 54.1684 111.856 52.4946 111.998 50.2865C111.998 50.1797 112.016 50.055 111.998 49.9304V48.7551C110.875 50.3043 109.057 51.1947 107.15 51.1769C102.962 51.1234 99.5935 47.6867 99.6648 43.5022C99.6648 43.3953 99.6648 43.3063 99.6648 43.2173ZM112.141 43.2173C112.105 40.849 110.18 38.9615 107.81 38.9971C105.439 39.0327 103.55 40.9558 103.586 43.3241C103.621 45.6568 105.528 47.5443 107.863 47.5443C110.216 47.5443 112.123 45.639 112.123 43.2885C112.123 43.2529 112.123 43.2173 112.123 43.1817L112.141 43.2173Z" fill="white"/>
<path d="M125.9 30.1292H134.17C138.358 30.1292 141.745 33.5124 141.745 37.697C141.745 41.8816 138.358 45.2649 134.17 45.2649C134.17 45.2649 134.17 45.2649 134.152 45.2649H130.017V50.9452H125.972V30.1292H125.9ZM129.946 33.7973V41.5255H133.849C135.988 41.5255 137.717 39.7982 137.717 37.6614C137.717 35.5246 135.988 33.7973 133.849 33.7973H129.946Z" fill="white"/>
<path d="M143.491 35.5427H147.376V37.911C148.054 36.1837 149.782 35.1153 151.636 35.2578C152.545 35.2578 153.436 35.4537 154.238 35.8632L152.812 39.745C152.206 39.3711 151.476 39.1752 150.763 39.2108C149.069 39.0506 147.555 40.297 147.412 41.9887C147.394 42.2558 147.394 42.5051 147.43 42.7722V50.8919H143.527V35.5427H143.491Z" fill="white"/>
<path d="M153.33 43.2526C153.258 38.7653 156.859 35.0615 161.35 34.9903C165.841 34.9191 169.548 38.516 169.62 43.0034C169.691 47.4907 166.091 51.1945 161.599 51.2657C161.546 51.2657 161.51 51.2657 161.457 51.2657C157.055 51.3369 153.401 47.829 153.33 43.4307C153.33 43.3773 153.33 43.3061 153.33 43.2526ZM165.716 43.2526C165.663 40.92 163.738 39.0681 161.403 39.1215C159.069 39.1749 157.215 41.098 157.268 43.4307C157.322 45.7278 159.193 47.5619 161.492 47.5619C163.827 47.5441 165.734 45.6566 165.716 43.3061C165.716 43.2704 165.716 43.2526 165.716 43.217V43.2526Z" fill="white"/>
<path d="M168.639 53.4202C171.313 53.4202 171.633 53.0285 171.633 50.4821V35.5423H175.661V50.5356C175.661 55.4858 174.129 57.0884 169.192 57.0884H168.657L168.639 53.4202ZM173.63 28.6511C174.984 28.5977 176.107 29.6483 176.16 31.0016C176.16 31.0728 176.16 31.1441 176.16 31.2153C176.036 32.6042 174.824 33.637 173.434 33.5302C172.204 33.4233 171.224 32.4439 171.117 31.2153C171.063 29.862 172.115 28.7045 173.469 28.6511C173.523 28.6511 173.576 28.6511 173.63 28.6511Z" fill="white"/>
<path d="M177.658 43.2706C177.604 38.8902 181.133 35.2932 185.517 35.2398C185.589 35.2398 185.66 35.2398 185.731 35.2398C189.955 35.0617 193.52 38.356 193.698 42.5762C193.698 42.7542 193.698 42.9323 193.698 43.1282V44.6061H181.454C181.953 46.6005 183.806 47.9538 185.856 47.8291C187.407 47.9182 188.886 47.1169 189.688 45.7814L192.985 47.6867C191.399 50.0372 188.69 51.3905 185.856 51.248C181.579 51.4973 177.907 48.2387 177.675 43.9651C177.658 43.7336 177.658 43.5021 177.658 43.2706ZM181.561 41.4899H189.777C189.332 39.6381 187.621 38.3916 185.731 38.5162C183.824 38.4806 182.113 39.7093 181.561 41.5434V41.4899Z" fill="white"/>
<path d="M195.231 43.2524C195.284 38.7651 198.974 35.1859 203.465 35.2394C206.655 35.275 209.525 37.1981 210.808 40.1184L207.243 41.5786C206.673 39.9404 205.087 38.8719 203.358 38.9254C200.988 39.0856 199.17 41.1334 199.33 43.5017C199.473 45.6563 201.201 47.3836 203.358 47.5261C205.069 47.5439 206.602 46.4755 207.19 44.855L210.808 46.3508C209.525 49.378 206.53 51.3189 203.251 51.2477C198.867 51.3011 195.284 47.7932 195.231 43.4127C195.231 43.3593 195.231 43.3058 195.231 43.2524Z" fill="white"/>
<path d="M211.681 35.5423H214.533V32.2124L218.4 30.0222V35.5423H222.446V39.1037H218.4V45.4251C218.4 47.0455 219.078 47.6153 220.076 47.6153C220.61 47.6153 221.127 47.4194 221.502 47.0455L223.284 50.126C222.215 50.9095 220.931 51.3191 219.612 51.3013C216.386 51.3013 214.497 49.7699 214.497 45.5675V39.0324H211.646V35.4711L211.681 35.5423Z" fill="white"/>
</svg>
