<svg xmlns="http://www.w3.org/2000/svg" width="66.2" height="64.731" viewBox="0 0 66.2 64.731">
  <defs>
    <style>
      .cls-1 {
        fill: #fff;
      }

      .cls-2 {
        fill: #0c043f;
      }
    </style>
  </defs>
  <g id="TIC_X" transform="translate(-1036.8 -945.199)">
    <path id="Path_9" data-name="Path 9" class="cls-1" d="M1069.68,1002.02l7.8,7.91,6.29-6.39-7.79-7.907Z"/>
    <path id="Path_10" data-name="Path 10" class="cls-1" d="M1084.14,987.343l-6.3-6.4-8.16,8.289,6.3,6.4Z"/>
    <path id="Path_11" data-name="Path 11" class="cls-2" d="M1055.57,1003.54l6.3,6.39,14.11-14.3-14.11-14.307-6.3,6.394,7.81,7.913Z"/>
    <path id="Path_12" data-name="Path 12" class="cls-2" d="M1036.8,945.787h24.44v7.194h-7.75v20.357h-8.98V952.981h-7.71Z"/>
    <path id="Path_13" data-name="Path 13" class="cls-2" d="M1073.33,945.787h-8.99v27.551h8.99Z"/>
    <path id="Path_14" data-name="Path 14" class="cls-2" d="M1094.92,953.824a6.214,6.214,0,0,0-3.27-1.041,5.145,5.145,0,0,0-2.88.845,5.607,5.607,0,0,0-2.02,2.339,7.682,7.682,0,0,0-.72,3.379,7.811,7.811,0,0,0,.72,3.4,5.716,5.716,0,0,0,2.02,2.377,5.054,5.054,0,0,0,2.88.864,6.891,6.891,0,0,0,3.16-.883,10.868,10.868,0,0,0,3-2.339l5.19,5.62a17,17,0,0,1-5.48,4.067,14.781,14.781,0,0,1-13.71-.354,13.347,13.347,0,0,1-5.14-5.187,14.979,14.979,0,0,1-1.86-7.449,14.2,14.2,0,0,1,1.9-7.33,13.583,13.583,0,0,1,5.25-5.089,15.449,15.449,0,0,1,7.57-1.843,16.22,16.22,0,0,1,11.47,5.108l-5.19,6.25A9.856,9.856,0,0,0,1094.92,953.824Z"/>
  </g>
</svg>
