<svg width="105" height="114" viewBox="0 0 105 114" fill="none" xmlns="http://www.w3.org/2000/svg">
<path d="M24.9486 28.8H34.6049V7.96267H42.9298V0.603638H16.6648V7.96267H24.9486V28.8Z" fill="white"/>
<path d="M55.9149 0.603638H46.2585V28.8H55.9149V0.603638Z" fill="white"/>
<path d="M67.1719 27.5349C69.5168 28.8072 72.1571 29.447 75.1004 29.447C77.3481 29.447 79.6181 28.9301 81.9069 27.8964C84.1957 26.8663 86.1592 25.4783 87.7972 23.7325L82.2211 17.9819C81.2749 18.9723 80.2016 19.7711 78.9936 20.3747C77.7856 20.9783 76.6562 21.2783 75.6015 21.2783C74.4646 21.2783 73.4287 20.9819 72.5012 20.3928C71.57 19.8036 70.8482 18.9904 70.3358 17.9602C69.8235 16.9265 69.5654 15.7663 69.5654 14.4795C69.5654 13.1928 69.8197 12.0398 70.3358 11.0205C70.8482 10.0012 71.57 9.20241 72.5012 8.62771C73.4287 8.05301 74.4646 7.76385 75.6015 7.76385C76.7385 7.76385 77.9128 8.11807 79.117 8.83012C80.325 9.54217 81.3572 10.4747 82.2174 11.6277L87.7935 5.23012C86.2938 3.6506 84.4239 2.38193 82.1762 1.42771C79.9286 0.477108 77.6959 0 75.4744 0C72.4488 0 69.7374 0.628916 67.3364 1.89036C64.9355 3.15181 63.0543 4.88675 61.6967 7.09879C60.3354 9.31084 59.6585 11.812 59.6585 14.6024C59.6585 17.4181 60.3242 19.959 61.6556 22.2253C62.987 24.4916 64.827 26.259 67.1719 27.5349Z" fill="white"/>
<path d="M14.0434 35.4398V63.8891H35.1063V58.1205H20.8425V35.4398H14.0434Z" fill="white"/>
<path d="M46.2993 35.4398L35.5621 63.8891H42.5295L44.7697 57.5169H53.9323L56.2136 63.8891H63.1773L52.4401 35.4398H46.2993ZM45.843 52.9879L49.366 42.9289L52.8066 52.9879H45.843Z" fill="white"/>
<path d="M88.115 46.5796C88.8181 45.376 89.1734 44.0965 89.1734 42.7338C89.1734 41.8266 89.0126 40.9375 88.6984 40.07C88.3805 39.2025 87.9318 38.4254 87.3521 37.7459C86.7724 37.0664 86.0656 36.5097 85.2391 36.0832C84.4088 35.6567 83.4851 35.4435 82.4603 35.4435H66.0835V63.8929H80.4296C81.7834 63.8929 83.0699 63.7411 84.2854 63.4338C85.5009 63.1266 86.5667 62.6712 87.4792 62.0712C88.3918 61.4712 89.1098 60.7158 89.6371 59.8085C90.1607 58.9013 90.4262 57.8314 90.4262 56.6025C90.4262 54.6796 89.9363 53.1037 88.9527 51.8748C87.9729 50.6459 86.6378 49.7893 84.9511 49.3085C86.3535 48.6905 87.4082 47.7796 88.115 46.5796ZM72.8788 41.0495H79.8013C80.5194 41.0495 81.1327 41.3025 81.6451 41.8122C82.1574 42.3182 82.4117 43.0411 82.4117 43.9772C82.4117 44.9929 82.12 45.7411 81.5403 46.2218C80.9607 46.7025 80.295 46.9447 79.5507 46.9447H72.8751V41.0495H72.8788ZM82.6212 57.4772C82.0415 58.0374 81.3085 58.3194 80.4221 58.3194H72.8751V52.1097H80.7101C81.5104 52.1097 82.1761 52.417 82.6997 53.0314C83.2233 53.6459 83.4888 54.3941 83.4888 55.276C83.4925 56.1832 83.2008 56.917 82.6212 57.4772Z" fill="white"/>
<path d="M94.7868 16.7784H88.9825V20.5193H94.7868C97.9881 20.5302 100.58 23.035 100.591 26.129V72.8675H3.87076V26.1254C3.88198 23.0314 6.4737 20.5266 9.67502 20.5157H15.4793V16.7784H9.67128C4.33076 16.7784 0 20.9639 0 26.1254V82.2145C0 87.3759 4.33076 91.5615 9.67128 91.5615H36.501L35.05 102.781H32.8846C29.6795 102.781 27.0803 105.293 27.0803 108.39C27.0803 111.488 29.6795 114 32.8846 114H71.5735C74.7785 114 77.3777 111.488 77.3777 108.39C77.3777 105.293 74.7785 102.781 71.5735 102.781H69.4081L67.957 91.5615H94.7868C100.127 91.5615 104.458 87.3759 104.458 82.2145V26.1254C104.462 20.9639 100.131 16.7784 94.7868 16.7784ZM71.5735 106.518C72.6431 106.518 73.507 107.357 73.507 108.387C73.507 109.417 72.6393 110.255 71.5735 110.255H32.8846C31.815 110.255 30.9511 109.417 30.9511 108.387C30.9511 107.357 31.8187 106.518 32.8846 106.518H71.5735ZM38.9394 102.777L40.3905 91.5579H64.0676L65.5186 102.777H38.9394ZM100.591 82.2109C100.58 85.3048 97.9881 87.8097 94.7868 87.8205H9.67128C6.46996 87.8097 3.87824 85.3048 3.86702 82.2109V76.6012H100.591V82.2109Z" fill="white"/>
</svg>
