<svg width="52" height="42" viewBox="0 0 52 42" fill="none" xmlns="http://www.w3.org/2000/svg">
<path d="M51.8438 4.97217C49.9361 5.81601 47.8866 6.38529 45.7339 6.64167C47.9291 5.32949 49.6161 3.2522 50.4099 0.775198C48.3544 1.99048 46.0782 2.87267 43.6561 3.3491C41.716 1.28796 38.9537 0 35.8937 0C30.0187 0 25.2576 4.74809 25.2576 10.6025C25.2576 11.4342 25.3528 12.2437 25.533 13.0189C16.6933 12.5768 8.85597 8.35559 3.60881 1.94001C2.69344 3.50656 2.16893 5.32747 2.16893 7.2695C2.16893 10.9477 4.04624 14.1938 6.9017 16.0955C5.15805 16.041 3.51768 15.5625 2.08388 14.7691C2.08388 14.8136 2.08388 14.858 2.08388 14.9024C2.08388 20.0401 5.74939 24.3259 10.6158 25.2989C9.72273 25.5412 8.78306 25.6704 7.81302 25.6704C7.12852 25.6704 6.46224 25.6037 5.81217 25.4806C7.16497 29.6937 11.0938 32.7582 15.7475 32.845C12.1084 35.6894 7.52139 37.3831 2.53751 37.3831C1.67885 37.3831 0.832335 37.3327 0 37.2358C4.70644 40.2437 10.2979 42 16.3045 42C35.8694 42 46.5662 25.844 46.5662 11.8339C46.5662 11.3736 46.5561 10.9174 46.5358 10.4632C48.6136 8.96525 50.418 7.09791 51.8438 4.97217Z" fill="#1DA1F2"/>
</svg>
