<svg width="173" height="51" viewBox="0 0 173 51" fill="none" xmlns="http://www.w3.org/2000/svg">
<path d="M14.091 39.4718C14.091 39.7345 14.2074 39.5448 14.2801 39.4718C15.4291 38.1874 16.3453 37.9393 17.2616 37.9393C17.9161 37.9393 18.5124 38.1728 18.8323 38.5815C19.2686 39.1653 19.3413 40.0848 19.3413 41.1211V43.9525C19.3413 45.4996 19.545 45.5872 20.6067 45.6748C20.7085 45.7915 20.7085 46.1856 20.6067 46.3024C19.7922 46.2878 19.385 46.2732 18.5996 46.2732C17.8433 46.2732 17.4652 46.2878 16.6653 46.3024C16.5635 46.1856 16.5635 45.7915 16.6653 45.6748C17.6543 45.5872 17.8433 45.4996 17.8433 43.9525V41.0627C17.8433 40.4935 17.7997 39.9827 17.6106 39.6032C17.3925 39.1653 16.9998 38.9172 16.6071 38.9172C15.8654 38.9172 15.1382 39.3259 14.411 40.041C14.2656 40.2016 14.091 40.4351 14.091 40.8438V43.9525C14.091 45.5288 14.2656 45.6018 15.2255 45.6748C15.3418 45.7915 15.3418 46.1856 15.2255 46.3024C14.4255 46.2878 14.091 46.2732 13.3639 46.2732C12.5494 46.2732 12.0695 46.2878 11.2841 46.3024C11.1677 46.1856 11.1677 45.7915 11.2841 45.6748C12.3749 45.6018 12.6076 45.5288 12.6076 43.9525V35.6625C12.6076 35.2246 12.6076 34.7868 11.2841 34.7868H8.88436C8.20081 34.7868 8.01174 35.1225 8.01174 35.7792V43.9525C8.01174 45.5288 8.3317 45.631 9.84425 45.6748C9.9606 45.7915 9.9606 46.1856 9.84425 46.3024C8.89891 46.2878 8.22989 46.2732 7.21183 46.2732C6.16468 46.2732 5.49566 46.2878 4.56486 46.3024C4.44851 46.1856 4.44851 45.7915 4.56486 45.6748C6.07741 45.6164 6.39738 45.5288 6.39738 43.9525V35.7209C6.39738 35.137 6.20831 34.7868 5.52475 34.7868H3.95402C2.90687 34.7868 2.67417 35.0057 2.29603 36.5236L1.72882 36.436C1.96152 35.4289 2.06333 34.4365 2.15059 33.517L2.65962 33.59C2.65962 33.7067 2.65962 34.0278 3.05231 34.0278H10.5714C12.1713 34.0278 12.404 33.8819 13.9311 33.0208C14.0765 33.0208 14.1638 33.0791 14.1638 33.2105C14.1638 33.2105 14.1056 33.8819 14.1056 35.1079L14.091 39.4718Z" fill="white"/>
<path d="M28.5039 44.7988C27.7477 45.7913 26.7296 46.4481 25.2897 46.4481C23.9226 46.4481 23.0355 45.9956 22.3955 45.2367C21.7702 44.5215 21.5084 43.4852 21.5084 42.4344C21.5084 39.5445 23.6463 37.9683 25.2897 37.9683C27.9222 37.9683 28.4894 39.6759 28.4894 41.2668C28.4894 41.4711 28.3585 41.5879 28.1258 41.5879L23.0936 41.5587C23.0936 42.6533 23.3263 43.529 23.7045 44.1566C24.2862 45.1199 25.0861 45.5286 25.7697 45.5286C26.8605 45.5286 27.4131 45.2221 28.1112 44.5069C28.3439 44.5215 28.4603 44.6237 28.5039 44.7988ZM26.5841 40.8581C26.7878 40.8581 26.8605 40.7705 26.8605 40.5954C26.8605 39.0045 26.0169 38.6105 25.2897 38.6105C24.8389 38.6105 23.5154 38.7856 23.1518 40.9311L26.5841 40.8581Z" fill="white"/>
<path d="M36.3719 40.1431V43.9525C36.3719 45.5287 36.6919 45.6309 38.0154 45.6747C38.1317 45.7915 38.1317 46.1855 38.0154 46.3023C37.07 46.2877 36.5174 46.2731 35.572 46.2731C34.6121 46.2731 34.0449 46.2877 33.1141 46.3023C32.9978 46.1855 32.9978 45.7915 33.1141 45.6747C34.4376 45.6163 34.7576 45.5287 34.7576 43.9525V36.3484C34.7576 34.7722 34.4376 34.67 33.1141 34.6262C32.9978 34.5094 32.9978 34.1154 33.1141 33.9986C34.0595 34.0132 35.5575 34.0278 35.5575 34.0278H40.386C40.8369 34.0278 40.9387 34.0132 41.2732 33.9548C41.3168 33.9548 41.3459 33.9694 41.3459 34.0132C41.375 34.1592 41.6513 35.9835 41.7531 36.7571L41.1714 36.8593C40.7496 35.5457 40.4587 34.7868 39.0334 34.7868H37.0409C36.5901 34.7868 36.3574 34.9765 36.3574 35.4289V39.4134H38.1172C39.717 39.4134 39.7752 39.1653 39.8333 38.129C39.9497 38.0123 40.3424 38.0123 40.4587 38.129C40.4442 38.6982 40.4151 39.1215 40.4151 39.7637C40.4151 40.4059 40.4296 40.7707 40.4587 41.4275C40.3424 41.5443 39.9497 41.5443 39.8333 41.4275C39.7752 40.5664 39.717 40.1431 38.1172 40.1431H36.3719C36.3719 40.1286 36.3719 40.1431 36.3719 40.1431Z" fill="white"/>
<path d="M42.5384 38.9614C42.4657 38.8446 42.4657 38.5381 42.4948 38.436C43.8037 38.2608 44.56 38.1003 45.0836 37.8813C45.229 37.8813 45.3308 37.9397 45.3308 38.0127C45.3308 38.0127 45.2436 38.9176 45.2436 39.5306C45.2436 39.6182 45.3017 39.7203 45.4181 39.516C45.8544 38.7716 46.6252 37.9397 47.5124 37.9397C48.3123 37.9397 48.6468 38.4943 48.6468 38.8446C48.6468 39.3263 48.2105 39.7933 47.7597 39.7933C47.367 39.7933 47.1779 39.4284 46.9888 39.2387C46.8725 39.1219 46.727 39.1073 46.5961 39.1073C46.3634 39.1073 45.9271 39.7349 45.7235 40.0414C45.4908 40.3771 45.2727 40.815 45.2727 41.3112V43.9529C45.2727 45.5292 45.5054 45.5876 46.8289 45.6752C46.9452 45.7919 46.9452 46.186 46.8289 46.3028C46.0144 46.2882 45.3163 46.2736 44.5455 46.2736C43.7892 46.2736 43.1784 46.2882 42.393 46.3028C42.2766 46.186 42.2766 45.7919 42.393 45.6752C43.571 45.6022 43.7892 45.5292 43.7892 43.9529V40.2604C43.7601 39.2095 43.5565 39.0636 42.5384 38.9614Z" fill="white"/>
<path d="M56.3699 44.7988C55.6136 45.7913 54.5955 46.4481 53.1557 46.4481C51.7886 46.4481 50.9014 45.9956 50.2615 45.2367C49.6361 44.5215 49.3743 43.4852 49.3743 42.4344C49.3743 39.5445 51.5123 37.9683 53.1557 37.9683C55.7881 37.9683 56.3554 39.6759 56.3554 41.2668C56.3554 41.4711 56.2245 41.5879 55.9918 41.5879L50.9596 41.5587C50.9596 42.6533 51.1923 43.529 51.5704 44.1566C52.1522 45.1199 52.9521 45.5286 53.6357 45.5286C54.7264 45.5286 55.2791 45.2221 55.9772 44.5069C56.2099 44.5215 56.3117 44.6237 56.3699 44.7988ZM54.4501 40.8581C54.6537 40.8581 54.7264 40.7705 54.7264 40.5954C54.7264 39.0045 53.8829 38.6105 53.1557 38.6105C52.7049 38.6105 51.3814 38.7856 51.0178 40.9311L54.4501 40.8581Z" fill="white"/>
<path d="M64.8779 44.7988C64.1216 45.7913 63.1036 46.4481 61.6637 46.4481C60.2966 46.4481 59.4094 45.9956 58.7695 45.2367C58.1441 44.5215 57.8823 43.4852 57.8823 42.4344C57.8823 39.5445 60.0203 37.9683 61.6637 37.9683C64.2962 37.9683 64.8634 39.6759 64.8634 41.2668C64.8634 41.4711 64.7325 41.5879 64.4998 41.5879L59.4676 41.5587C59.4676 42.6533 59.7003 43.529 60.0784 44.1566C60.6602 45.1199 61.4601 45.5286 62.1437 45.5286C63.2345 45.5286 63.7871 45.2221 64.4852 44.5069C64.7179 44.5215 64.8197 44.6237 64.8779 44.7988ZM62.9581 40.8581C63.1617 40.8581 63.2345 40.7705 63.2345 40.5954C63.2345 39.0045 62.3909 38.6105 61.6637 38.6105C61.2129 38.6105 59.8894 38.7856 59.5258 40.9311L62.9581 40.8581Z" fill="white"/>
<path d="M76.1929 38.1288C76.3093 38.0121 76.702 38.0121 76.8183 38.1288C76.8038 38.698 76.7747 39.1213 76.7747 39.7635C76.7747 40.4057 76.7892 40.7705 76.8183 41.4419C76.702 41.5587 76.3093 41.5587 76.1929 41.4419C76.1348 40.5808 76.0766 40.1576 74.4768 40.1576H72.7606V44.7258C72.7606 45.2366 73.0224 45.5431 73.4441 45.5431H76.0184C77.4582 45.5431 78.1127 44.4193 78.4909 43.062C78.7381 43.0036 78.9563 43.0474 79.1599 43.1495C79.0144 44.1128 78.7236 45.368 78.4618 46.3167C78.4618 46.3167 76.9492 46.2875 76.0475 46.2875H71.9752C71.9752 46.2875 70.4481 46.3021 69.5173 46.3167C69.401 46.1999 69.401 45.8059 69.5173 45.6891C70.8408 45.6307 71.1608 45.5431 71.1608 43.9669V36.3628C71.1608 34.7866 70.8408 34.6844 69.5173 34.6406C69.401 34.5239 69.401 34.1298 69.5173 34.013C70.4627 34.0276 71.9607 34.0422 71.9607 34.0422H76.7747C77.2255 34.0422 77.3855 34.0276 77.7055 33.9692C77.7637 33.9692 77.7782 33.9838 77.7782 34.0276C77.8218 34.1736 78.0982 35.998 78.2 36.7715C78.0109 36.8591 77.8073 36.9029 77.5746 36.8737C77.1528 35.5601 76.8619 34.8012 75.4366 34.8012H73.4441C72.9933 34.8012 72.7606 35.1806 72.7606 35.6331V39.4278H74.4768C76.0766 39.4132 76.1348 39.1651 76.1929 38.1288Z" fill="white"/>
<path d="M86.0683 37.9397C86.7373 37.9397 87.3191 38.1732 87.6391 38.5819C88.0754 39.1657 88.1481 40.0852 88.1481 41.1215V43.9529C88.1481 45.5 88.3517 45.5876 89.4134 45.6752C89.5007 45.7919 89.5007 46.186 89.4134 46.3028C88.5989 46.2882 88.1772 46.2736 87.4064 46.2736C86.6501 46.2736 86.2719 46.2882 85.472 46.3028C85.3702 46.186 85.3702 45.7919 85.472 45.6752C86.461 45.5876 86.6501 45.5 86.6501 43.9529V41.0631C86.6501 40.4939 86.6064 39.9831 86.4174 39.6036C86.1847 39.1657 85.792 38.9176 85.4139 38.9176C84.6721 38.9176 83.9449 39.3263 83.2177 40.0414C83.0723 40.2166 82.8978 40.4355 82.8978 40.8442V43.9529C82.8978 45.5 83.0723 45.5876 84.0322 45.6752C84.1485 45.7919 84.1485 46.186 84.0322 46.3028C83.2323 46.2882 82.8978 46.2736 82.156 46.2736C81.3416 46.2736 80.8471 46.2882 80.0763 46.3028C79.9599 46.186 79.9599 45.7919 80.0763 45.6752C81.2107 45.5876 81.3998 45.5 81.3998 43.9529V40.2458C81.3998 39.1511 81.1961 39.049 80.1635 38.9614C80.1199 38.8446 80.0908 38.5381 80.1199 38.436C81.4288 38.2608 82.1997 38.1003 82.7232 37.8813C82.8687 37.8813 82.956 37.9397 82.956 38.0273C82.956 38.0273 82.8541 38.903 82.8541 39.4722C82.8541 39.7349 82.985 39.5452 83.0432 39.4722C84.2358 38.1878 85.1521 37.9397 86.0683 37.9397Z" fill="white"/>
<path d="M94.1108 46.4628C91.7256 46.4628 90.373 44.7698 90.373 42.3324C90.373 39.6323 92.3801 37.9539 94.2562 37.9539C96.0742 37.9539 97.1505 38.7128 97.1505 39.7491C97.1505 40.3329 96.6269 40.581 96.2197 40.581C95.8124 40.581 95.5652 40.4058 95.507 39.895C95.4343 39.2236 95.2743 38.5669 94.169 38.5669C92.9182 38.5669 92.0165 39.822 92.0165 41.9092C92.0165 44.1276 93.1655 45.5288 94.5471 45.5288C95.3616 45.5288 96.176 45.1055 96.8159 44.2736C96.9905 44.2882 97.1359 44.3612 97.2086 44.5363C96.2487 46.098 95.2452 46.4628 94.1108 46.4628Z" fill="white"/>
<path d="M99.6958 50.6666C99.1867 50.6666 98.8086 50.3601 98.8086 49.966C98.8086 49.7179 99.0849 49.1487 99.6376 49.1487C99.8412 49.1487 99.9139 49.2071 100.19 49.2071C100.656 49.2071 100.932 49.0319 101.136 48.6524C101.412 48.0686 101.645 47.5432 101.877 46.901C102.066 46.3756 101.776 45.4999 101.616 45.1204L99.4776 40.1289C98.9686 38.9175 98.8086 38.7862 97.9941 38.6986C97.8778 38.5818 97.8778 38.1878 97.9941 38.071C98.3723 38.0856 98.8813 38.1002 99.5212 38.1002C100.205 38.1002 100.961 38.0856 101.659 38.071C101.776 38.1878 101.776 38.5818 101.659 38.6986C100.496 38.7862 100.699 39.1364 101.034 39.9392L102.706 43.8798C102.866 44.2593 103.026 44.2009 103.157 43.8945L105.033 39.5451C105.324 38.8591 104.728 38.7424 104.132 38.684C104.015 38.5672 104.015 38.1732 104.132 38.0564C104.83 38.071 105.193 38.0856 105.848 38.0856C106.371 38.0856 106.72 38.071 107.186 38.0564C107.302 38.1732 107.302 38.5672 107.186 38.684C106.488 38.7424 105.92 39.3554 105.659 39.8954C104.655 42.0263 103.826 43.982 102.314 47.6308C102.081 48.1854 101.834 48.74 101.543 49.2654C100.845 50.5206 100.088 50.6666 99.6958 50.6666Z" fill="white"/>
<path d="M111.622 46.4628C109.236 46.4628 107.884 44.7698 107.884 42.3324C107.884 39.6323 109.891 37.9539 111.753 37.9539C113.571 37.9539 114.647 38.7128 114.647 39.7491C114.647 40.3329 114.123 40.581 113.716 40.581C113.323 40.581 113.061 40.4058 113.003 39.895C112.931 39.2236 112.785 38.5669 111.665 38.5669C110.415 38.5669 109.513 39.822 109.513 41.9092C109.513 44.1276 110.662 45.5288 112.043 45.5288C112.858 45.5288 113.672 45.1055 114.312 44.2736C114.487 44.2882 114.632 44.3612 114.705 44.5363C113.76 46.098 112.756 46.4628 111.622 46.4628Z" fill="white"/>
<path d="M116.901 35.6625C116.901 34.0716 116.668 34.1592 115.694 34.1008C115.577 33.984 115.534 33.6921 115.577 33.5316C116.334 33.4732 117.745 33.2105 118.224 33.0208C118.384 33.0208 118.472 33.0791 118.472 33.2105C118.472 33.2105 118.399 33.9694 118.399 35.21V43.9525C118.399 45.5288 118.603 45.631 119.766 45.6748C119.882 45.7915 119.882 46.1856 119.766 46.3024C118.952 46.2878 118.472 46.2732 117.672 46.2732C116.843 46.2732 116.348 46.2878 115.548 46.3024C115.432 46.1856 115.432 45.7915 115.548 45.6748C116.697 45.6164 116.916 45.5288 116.916 43.9525L116.901 35.6625Z" fill="white"/>
<path d="M124.798 37.9397C127.736 37.9397 128.769 40.2311 128.769 42.2161C128.769 44.1134 127.576 46.4632 124.755 46.4632C122.093 46.4632 120.784 44.3178 120.784 42.3912C120.784 39.9684 122.239 37.9397 124.798 37.9397ZM122.413 41.9387C122.413 43.3983 123.126 45.8357 125.104 45.8357C125.991 45.8357 127.14 45.3248 127.14 42.8145C127.14 40.0268 126.209 38.5673 124.58 38.5673C122.995 38.5673 122.413 40.2895 122.413 41.9387Z" fill="white"/>
<path d="M135.212 37.9395C137.146 37.9395 138.557 39.7931 138.557 41.8072C138.557 43.3397 138.048 44.5219 137.161 45.3976C136.39 46.142 135.444 46.4631 134.383 46.4631C133.786 46.4631 133.205 46.3609 132.739 46.1712C132.55 46.0982 132.478 46.069 132.478 46.3171V48.3604C132.478 49.9367 132.681 50.0096 134.019 50.0826C134.136 50.1994 134.136 50.5935 134.019 50.7102C133.205 50.6956 132.623 50.681 131.736 50.681C130.907 50.681 130.412 50.6956 129.612 50.7102C129.496 50.5935 129.496 50.1994 129.612 50.0826C130.761 50.0242 130.98 49.9367 130.98 48.3604V40.2602C130.98 39.1801 130.776 39.0634 129.743 38.9758C129.7 38.859 129.671 38.5525 129.7 38.4504C131.009 38.2752 131.736 38.1147 132.274 37.8958C132.419 37.8958 132.521 37.9541 132.521 38.0271C132.521 38.0271 132.434 38.5525 132.434 39.2385C132.434 39.3699 132.55 39.3553 132.608 39.2969C133.467 38.4066 134.514 37.9395 135.212 37.9395ZM132.478 40.7418V44.2738C132.478 44.9598 132.55 45.0619 132.928 45.4122C133.263 45.7187 133.932 45.8063 134.266 45.8063C136.39 45.8063 136.928 43.8651 136.928 42.3035C136.928 40.158 135.895 38.8006 134.674 38.8006C134.121 38.8006 133.35 39.2969 132.768 39.8953C132.536 40.158 132.478 40.3477 132.478 40.7418Z" fill="white"/>
<path d="M147.036 44.7988C146.28 45.7913 145.262 46.4481 143.822 46.4481C142.455 46.4481 141.567 45.9956 140.928 45.2367C140.302 44.5215 140.04 43.4852 140.04 42.4344C140.04 39.5445 142.178 37.9683 143.822 37.9683C146.454 37.9683 147.021 39.6759 147.021 41.2668C147.021 41.4711 146.89 41.5879 146.658 41.5879L141.626 41.5587C141.626 42.6533 141.844 43.529 142.236 44.1566C142.818 45.1199 143.618 45.5286 144.302 45.5286C145.392 45.5286 145.945 45.2221 146.643 44.5069C146.861 44.5215 146.978 44.6237 147.036 44.7988ZM145.102 40.8581C145.305 40.8581 145.378 40.7705 145.378 40.5954C145.378 39.0045 144.52 38.6105 143.807 38.6105C143.356 38.6105 142.033 38.7856 141.669 40.9311L145.102 40.8581Z" fill="white"/>
<path d="M151.762 46.4629C149.726 46.4629 148.548 44.7552 148.548 42.42C148.548 41.0189 149.043 39.8951 149.857 39.0777C150.613 38.3626 151.442 37.9393 152.693 37.9393C153.319 37.9393 154.089 38.2604 154.162 38.2604C154.293 38.2604 154.337 38.2166 154.337 38.0853V35.6625C154.337 34.0716 154.104 34.1592 153.13 34.1008C153.013 33.984 152.984 33.6921 153.013 33.5316C153.769 33.4732 155.166 33.2105 155.646 33.0208C155.82 33.0208 155.893 33.0791 155.893 33.2105C155.893 33.2105 155.82 33.9694 155.82 35.21V43.8066C155.82 44.7406 155.995 45.0909 157.202 45.1931C157.318 45.3098 157.318 45.5871 157.202 45.7039C156.053 45.8353 155.195 46.1272 154.787 46.4629C154.642 46.492 154.511 46.5212 154.351 46.4629C154.351 46.4629 154.366 45.5288 154.366 45.339C154.366 45.2077 154.235 45.2369 154.133 45.3099C153.188 46.0834 152.49 46.4629 151.762 46.4629ZM154.322 40.3037C154.322 39.7199 154.264 39.5886 154.002 39.2821C153.624 38.8442 153.144 38.5961 152.46 38.5961C152.082 38.5961 151.282 38.6545 150.701 39.5448C150.424 39.9388 150.148 40.6978 150.148 42.0697C150.148 44.4341 151.21 45.558 152.228 45.558C152.693 45.558 153.304 45.2515 154.002 44.6531C154.264 44.4195 154.308 44.2736 154.308 43.9087V40.3037H154.322Z" fill="white"/>
<path d="M162.06 45.6746C162.176 45.7914 162.176 46.1854 162.06 46.3022C161.245 46.2876 160.765 46.273 159.965 46.273C159.136 46.273 158.642 46.2876 157.842 46.3022C157.74 46.1854 157.74 45.7914 157.842 45.6746C158.991 45.5871 159.209 45.5287 159.209 43.9524V40.2452C159.209 39.1652 159.005 39.0484 157.973 38.9608C157.929 38.8441 157.9 38.5376 157.929 38.4354C159.238 38.2603 159.98 38.0997 160.518 37.8808C160.663 37.8808 160.765 37.9392 160.765 38.0122C160.765 38.0122 160.693 39.2236 160.693 40.1722V43.9524C160.693 45.5287 160.911 45.6017 162.06 45.6746ZM159.965 33.9839C160.474 33.9839 160.867 34.5093 160.867 34.9764C160.867 35.3704 160.416 35.8813 159.878 35.8813C159.427 35.8813 158.976 35.385 158.976 34.8888C158.976 34.4509 159.5 33.9839 159.965 33.9839Z" fill="white"/>
<path d="M167.833 45.3534L167.455 45.6599C166.626 46.3021 166.263 46.4627 165.39 46.4627C164.066 46.4627 163.005 45.9081 163.005 44.4193C163.005 43.135 164.314 42.1279 166.132 41.6754L167.746 41.2814C167.804 41.2668 167.862 41.1938 167.862 41.0624C167.862 38.917 166.975 38.5959 166.321 38.5959C165.608 38.5959 164.75 38.8148 164.75 39.3986C164.75 39.6175 164.765 39.7197 164.794 39.7781C164.837 39.851 164.852 39.9824 164.852 40.1138C164.852 40.3619 164.575 40.7414 164.023 40.7414C163.587 40.7414 163.354 40.537 163.354 40.07C163.354 39.0483 164.925 37.9683 166.481 37.9683C167.862 37.9683 169.331 38.4791 169.331 41.1792V44.0107C169.331 44.8864 169.346 45.6161 170.088 45.6161C170.48 45.6161 170.568 45.3097 170.669 45.3097C170.742 45.3097 170.917 45.4994 170.917 45.6308C170.917 45.7183 170.233 46.4919 169.317 46.4919C168.313 46.4919 167.979 45.7913 167.862 45.3972L167.833 45.3534ZM166.364 42.2447C164.968 42.6095 164.575 43.4852 164.575 44.3318C164.575 44.9156 164.997 45.6745 165.943 45.6745C166.466 45.6745 167.121 45.2513 167.615 44.8572C167.761 44.7404 167.877 44.6091 167.877 44.361V41.836L166.364 42.2447Z" fill="white"/>
<path d="M15.6345 5.26086C15.6345 5.26086 15.0964 4.16621 14.9219 3.81593C13.7147 1.40773 13.7293 1.27637 12.5076 1.11583C12.1585 1.07204 11.984 1.02826 11.984 0.853114V0.0941703L12.0858 0.0211901C14.2965 0.0211901 19.2268 0.0211901 19.2268 0.0211901L19.4159 0.0795721V0.838516C19.4159 1.01366 19.2995 1.10123 19.0377 1.10123L18.5142 1.17421C17.2052 1.27638 17.4234 1.81639 18.2815 3.55322L26.5423 20.5128L26.8187 20.5858L34.1487 3.12996C34.396 2.42939 34.3669 1.93315 34.0324 1.62666C33.6979 1.34935 33.4652 1.17421 32.6217 1.13043L31.9381 1.10123C31.8508 1.10123 31.7781 1.07204 31.6908 1.01366C31.6181 0.955281 31.5745 0.882306 31.5745 0.80933V0.0795721L31.6763 0.0065918C33.7415 0.0065918 39.9517 0.0065918 39.9517 0.0065918L40.039 0.0795721V0.80933C40.039 0.999067 39.9226 1.10123 39.7045 1.10123C38.6137 1.14501 37.8138 1.37854 37.2902 1.8018C36.7666 2.22506 36.3594 2.80887 36.0685 3.56782C36.0685 3.56782 29.3202 19.0533 27.0223 24.2054C26.1351 25.8984 25.277 25.7379 24.5062 24.1616C22.8919 20.8339 18.3542 10.7194 18.3542 10.7194L15.6345 5.26086Z" fill="white"/>
<path d="M28.8549 0.00648673C28.8549 0.00648673 24.2009 -0.00810842 22.1211 0.00648673L22.0193 0.0794669V0.809224C22.0193 0.896795 22.0629 0.969773 22.1356 1.02815C22.2084 1.08653 22.2956 1.11572 22.3829 1.11572L22.7174 1.1595C23.5609 1.1887 23.9536 1.42222 24.07 1.55358C24.2736 1.8017 24.3754 2.0644 23.8809 3.14445L15.1837 20.5565L14.951 20.4981C14.951 20.4981 8.72627 7.31866 6.92284 2.91093C6.73377 2.45848 6.64651 2.12279 6.64651 1.90386C6.64651 1.45141 7.05374 1.21789 7.85365 1.1741L8.79899 1.13032C9.04624 1.13032 9.17713 1.02815 9.17713 0.83841V0.108652L9.08987 0.0356833C9.08987 0.0356833 1.6289 0.0210881 0.0872627 0.0356833L0 0.0940652V0.853008C0 0.984364 0.174525 1.07194 0.523576 1.11572C1.46892 1.1741 2.09431 1.32005 2.38518 1.56817C2.67606 1.83088 2.99602 2.47307 3.41779 3.48014C5.68662 8.93872 10.4861 18.6737 12.8422 24.2198C13.5112 25.7377 14.3693 25.9713 15.3873 24.1761C17.1762 20.863 22.0048 10.7193 22.0048 10.7193L25.8152 3.56771C26.2661 2.80876 26.6878 2.13738 26.906 1.83088C27.2987 1.26167 27.5314 1.14491 28.6076 1.10112C28.8258 1.10112 28.9421 0.998958 28.9421 0.794626V0.0648687L28.8549 0.00648673Z" fill="white"/>
<path d="M43.0207 22.6001C43.0207 23.4321 43.3988 23.9283 44.606 24.0451L45.4059 24.118C45.5222 24.118 45.6386 24.191 45.6386 24.337V25.1397L45.5949 25.2127C45.5949 25.2127 42.7153 25.1397 41.5518 25.1397C40.4901 25.1397 37.5377 25.2127 37.5377 25.2127L37.465 25.1397V24.337C37.465 24.191 37.5813 24.118 37.7268 24.118L38.483 24.0451C39.7338 23.9283 40.1119 23.3299 40.1119 22.6001V9.96071C40.1119 9.12879 39.6611 8.89527 38.483 8.79311L37.7268 8.72013C37.5813 8.72013 37.465 8.69094 37.465 8.57418V7.69847L37.5086 7.62549C37.5086 7.62549 40.4901 7.69847 41.6681 7.69847C42.6862 7.69847 45.5949 7.62549 45.5949 7.62549L45.6386 7.69847V8.53039C45.6386 8.64715 45.5659 8.72013 45.4059 8.72013L44.606 8.79311C43.4279 8.90987 43.0207 9.21636 43.0207 9.97531V22.6001Z" fill="white"/>
<path d="M54.1902 22.6001C54.1902 23.4321 54.6847 23.8553 55.7755 24.0451L56.1973 24.118C56.3136 24.1472 56.43 24.191 56.43 24.337V25.1397L56.3864 25.2127C56.3864 25.2127 54.0012 25.1397 52.8668 25.1397C51.8051 25.1397 48.7072 25.2127 48.7072 25.2127L48.6345 25.1397V24.337C48.6345 24.191 48.7509 24.118 48.8963 24.118L49.6526 24.0451C50.787 23.9283 51.2815 23.3299 51.2815 22.6001V9.96071C51.2815 9.12879 50.8597 8.89527 49.6526 8.79311L48.8963 8.72013C48.7509 8.72013 48.6345 8.69094 48.6345 8.57418V7.69847L48.6782 7.62549C48.6782 7.62549 51.776 7.69847 52.954 7.69847C54.0157 7.69847 56.4009 7.62549 56.4009 7.62549L56.4445 7.69847V8.53039C56.4445 8.64715 56.3718 8.67634 56.2118 8.72013L55.7901 8.79311C54.612 9.01203 54.2048 9.21636 54.2048 9.97531V15.7112C55.4556 15.7112 56.1682 15.069 57.8407 13.2884C59.3533 11.61 60.5313 10.2234 60.5313 9.49367C60.5313 9.18717 60.1968 8.85149 59.4406 8.73472C59.2951 8.70553 59.2079 8.66175 59.2079 8.54499V7.66927L59.2515 7.64009C59.2515 7.64009 62.3202 7.71306 63.411 7.71306C64.4 7.71306 66.058 7.64009 66.058 7.64009L66.1743 7.66927V8.54499C66.1743 8.66175 66.058 8.73472 65.8689 8.73472C64.4 8.85149 63.3674 8.92446 62.0148 10.4861L58.757 14.2371C58.1171 14.9231 57.8844 15.3317 57.8844 15.6382C57.8844 15.8718 58.0298 16.0615 58.2189 16.2804L63.9346 23.184C64.3854 23.7094 65.3017 23.9429 66.058 24.0888L66.247 24.118C66.3634 24.1472 66.5088 24.2348 66.5088 24.337V25.1397L66.3925 25.1835C66.3925 25.1835 64.3854 25.1397 63.3237 25.1397C62.3784 25.1397 61.0113 25.1835 61.0113 25.1835L60.9676 25.1397V24.6873C60.9676 24.191 60.924 23.7824 60.4004 23.1694L56.1973 17.9297C55.6301 17.1707 55.0192 16.981 54.1902 16.981V22.6001Z" fill="white"/>
<path d="M74.5659 22.6001C74.5659 23.4321 74.944 23.9283 76.1512 24.0451L76.9511 24.118C77.0674 24.118 77.1838 24.191 77.1838 24.337V25.1397L77.1402 25.2127C77.1402 25.2127 74.2605 25.1397 73.097 25.1397C72.0353 25.1397 69.0829 25.2127 69.0829 25.2127L69.0102 25.1397V24.337C69.0102 24.191 69.1265 24.118 69.272 24.118L70.0283 24.0451C71.279 23.9283 71.6572 23.3299 71.6572 22.6001V9.96071C71.6572 9.12879 71.2063 8.89527 70.0283 8.79311L69.272 8.72013C69.1265 8.72013 69.0102 8.69094 69.0102 8.57418V7.69847L69.0538 7.62549C69.0538 7.62549 72.0353 7.69847 73.2133 7.69847C74.2314 7.69847 77.1402 7.62549 77.1402 7.62549L77.1838 7.69847V8.53039C77.1838 8.64715 77.1111 8.72013 76.9511 8.72013L76.1512 8.79311C74.9731 8.90987 74.5659 9.21636 74.5659 9.97531V22.6001Z" fill="white"/>
<path d="M82.7399 10.0331C82.7399 8.85089 82.2454 8.82169 80.4711 8.70493C80.2384 8.70493 80.2093 8.58817 80.2093 8.5152V7.63949L80.282 7.5957C80.8492 7.5957 83.0744 7.66867 84.1797 7.66867C85.2414 7.66867 86.754 7.5957 88.1502 7.5957C93.5169 7.5957 94.5058 10.252 94.5058 12.2224C94.5058 14.4992 93.4151 18.0604 88.0484 18.0604C87.103 18.0604 86.3468 17.9875 85.6632 17.681V22.7601C85.6632 23.592 86.1141 23.7818 87.3212 23.9715L88.0775 24.0883C88.2229 24.1174 88.3393 24.1612 88.3393 24.3072V25.1099L88.3102 25.1829C88.3102 25.1829 85.2851 25.1099 84.107 25.1099C83.0453 25.1099 80.2093 25.1829 80.2093 25.1829L80.1656 25.1099V24.3072C80.1656 24.1612 80.2384 24.1174 80.3984 24.0883L81.1983 23.9715C82.3763 23.8256 82.7544 23.4753 82.7544 22.7601L82.7399 10.0331ZM85.6487 16.6447C86.4049 16.9512 87.3503 16.9804 88.1066 16.9804C90.3754 16.9804 91.4662 15.6085 91.4662 12.6894C91.4662 9.4201 89.9973 8.70493 87.9175 8.70493C86.0995 8.70493 85.6487 9.04062 85.6487 10.0331V16.6447Z" fill="white"/>
<path d="M101.007 25.1397C99.8722 25.1397 97.2689 25.2127 97.2689 25.2127L97.2253 25.1397V24.3078C97.2253 24.2348 97.2689 24.118 97.458 24.118L98.3306 24.0451C99.5087 23.9283 99.8432 23.1694 99.8432 22.4104V9.88775C99.8432 9.01203 99.3923 8.86608 98.3306 8.79311L97.458 8.72013C97.2253 8.69094 97.2253 8.60337 97.2253 8.57418V7.69847L97.2689 7.62549C97.2689 7.62549 100.221 7.69847 101.356 7.69847H106.911C108.046 7.69847 110.736 7.62549 110.736 7.62549L110.809 7.69847C110.838 9.33313 111.115 10.8072 111.376 12.2522L110.431 12.3981C110.009 10.997 109.297 8.98284 106.882 8.98284H103.857C103.145 8.98284 102.766 9.24556 102.766 9.88775V15.3901H105.603C106.664 15.3901 106.926 14.9377 107.071 14.1787L107.29 13.376C107.29 13.2592 107.362 13.1862 107.522 13.1862H108.162C108.235 13.1862 108.235 13.23 108.235 13.303C108.162 14.1349 108.002 15.2004 108.002 16.1199C108.002 17.0686 108.148 17.8713 108.235 18.7324L108.162 18.8054H107.522C107.333 18.8054 107.26 18.7324 107.26 18.6157L107.071 17.7837C106.926 17.0248 106.577 16.6015 105.588 16.6015H102.752V22.4104C102.752 23.1256 103.159 23.8553 103.843 23.8553H107.435C109.369 23.8553 110.431 22.6439 110.882 20.659L111.827 20.7757L111.071 25.1397L110.998 25.2127C110.998 25.2127 108.773 25.1397 107.639 25.1397H101.007Z" fill="white"/>
<path d="M115.231 24.118L116.103 24.045C117.238 23.9283 117.616 23.5926 117.616 22.4104V9.88774C117.616 8.89527 117.354 8.89527 116.103 8.79311L115.274 8.72012C115.129 8.72012 115.012 8.64715 115.012 8.53039V7.69847L115.056 7.62549C115.056 7.62549 118.387 7.69847 119.07 7.69847C119.783 7.69847 123.084 7.62549 124.059 7.62549C130.371 7.62549 133.469 11.5662 133.469 16.6161C133.469 23.2569 128.785 25.2272 124.582 25.2272C121.557 25.2272 120.234 25.1543 119.07 25.1543C117.936 25.1543 115.056 25.2272 115.056 25.2272L115.012 25.1543V24.3515C114.998 24.2348 115.085 24.118 115.231 24.118ZM123.666 24.118C127.826 24.118 130.167 22.5709 130.167 17.2437C130.167 13.303 129.294 8.70553 122.939 8.70553C121.47 8.70553 120.525 8.93906 120.525 9.88774V22.4104C120.525 23.4758 120.786 24.118 123.666 24.118Z" fill="white"/>
<path d="M142.384 22.6001C142.384 23.4321 142.762 23.9283 143.969 24.0451L144.769 24.118C144.885 24.118 145.002 24.191 145.002 24.337V25.1397L144.958 25.2127C144.958 25.2127 142.078 25.1397 140.915 25.1397C139.853 25.1397 136.901 25.2127 136.901 25.2127L136.828 25.1397V24.337C136.828 24.191 136.944 24.118 137.09 24.118L137.846 24.0451C139.097 23.9283 139.475 23.3299 139.475 22.6001V9.96071C139.475 9.12879 139.024 8.89527 137.846 8.79311L137.09 8.72013C136.944 8.72013 136.828 8.69094 136.828 8.57418V7.69847L136.872 7.62549C136.872 7.62549 139.853 7.69847 141.031 7.69847C142.049 7.69847 144.973 7.62549 144.973 7.62549L145.002 7.69847V8.53039C145.002 8.64715 144.929 8.72013 144.769 8.72013L143.969 8.79311C142.791 8.90987 142.384 9.21636 142.384 9.97531V22.6001Z" fill="white"/>
<path d="M154.033 24.0447L155.124 24.1177C155.269 24.1177 155.429 24.2344 155.429 24.4242V25.1393L155.357 25.2123C155.357 25.2123 151.241 25.1393 150.325 25.1393C149.336 25.1393 146.921 25.2123 146.921 25.2123L146.849 25.1393V24.4242C146.849 24.2344 146.965 24.1177 147.154 24.1177C148.812 24.0009 149.757 23.6944 150.819 21.2716L159.211 1.53894C159.633 0.54647 159.924 0.166992 160.505 0.166992C161.029 0.166992 161.218 0.546465 161.523 1.30541L169.275 21.87C169.799 23.3441 170.57 23.9133 172.082 24.0739L172.504 24.1031C172.693 24.1031 172.882 24.2198 172.882 24.4096V25.1247L172.766 25.1977C172.766 25.1977 169.857 25.1247 168.373 25.1247C167.05 25.1247 163.341 25.1977 163.341 25.1977L163.312 25.1247V24.4096C163.312 24.2198 163.385 24.1031 163.574 24.1031L164.636 24.0301C166.076 23.9133 166.599 23.4609 166.221 22.3954L163.908 15.9736H156.04C155.139 15.9736 154.906 16.1195 154.717 16.6158L152.521 22.1181C152.143 23.096 152.637 23.9279 154.033 24.0447ZM163.298 14.3973L159.633 4.26824H159.56L155.779 13.9011C155.633 14.2805 155.895 14.3973 156.724 14.3973H163.298Z" fill="white"/>
</svg>
