<svg width="200" height="28" viewBox="0 0 200 28" fill="none" xmlns="http://www.w3.org/2000/svg">
<path d="M14.7929 21.3809L12.9539 15.7427H5.30818L3.46918 21.3809H0L6.58808 1.79858H11.6942L18.2822 21.3809H14.7929V21.3809ZM6.21758 12.9134H12.0243L9.11418 4.02155L6.21758 12.9134Z" fill="white"/>
<path d="M19.7305 6.94516H22.5866L22.8494 8.82458H23.038C23.4624 8.14422 24.0215 7.63226 24.7153 7.28871C25.4091 6.94516 26.1703 6.77002 26.9989 6.77002C27.3761 6.77002 27.7601 6.8037 28.1508 6.86433V10.0169C27.8073 9.95628 27.3559 9.9226 26.8036 9.9226C26.1165 9.9226 25.4361 10.0641 24.7692 10.347C24.1023 10.6299 23.5836 11.0341 23.1996 11.5528V21.3877H19.7305V6.94516V6.94516Z" fill="white"/>
<path d="M32.0378 27.3156C31.2294 27.2145 30.475 27.0596 29.7677 26.8575V24.1024C31.3103 24.5402 32.7721 24.7625 34.1463 24.7625C35.1365 24.7625 35.9381 24.6346 36.5511 24.3853C37.1641 24.1361 37.6222 23.7319 37.9186 23.1728C38.215 22.6137 38.3632 21.8862 38.3632 20.9768V19.8383H38.1948C37.7434 20.357 37.1978 20.7679 36.5444 21.0576C35.8977 21.3473 35.1702 21.4954 34.3551 21.4954C33.3244 21.4954 32.3881 21.2462 31.5528 20.7477C30.7175 20.2492 30.0439 19.4746 29.5386 18.417C29.0334 17.3661 28.7842 16.0391 28.7842 14.456C28.7842 11.9165 29.4443 9.98989 30.7714 8.68979C32.0917 7.38296 34.0654 6.72954 36.6724 6.71606C37.5346 6.71606 38.4305 6.78343 39.3601 6.91142C40.2897 7.04614 41.1116 7.22802 41.8323 7.47053V20.357C41.8323 22.0276 41.5629 23.3816 41.0173 24.4257C40.4716 25.4698 39.6565 26.2378 38.5653 26.7295C37.474 27.2213 36.0796 27.4638 34.3955 27.4638C33.6343 27.4705 32.8462 27.4166 32.0378 27.3156ZM37.1372 18.3631C37.6289 18.1677 38.0398 17.8781 38.3766 17.4874V9.6194C37.703 9.4712 37.0429 9.3971 36.3894 9.3971C35.022 9.3971 33.9981 9.77433 33.311 10.5355C32.6239 11.2967 32.287 12.5025 32.287 14.1596C32.287 15.81 32.5767 16.9754 33.1493 17.649C33.7219 18.3227 34.5437 18.6595 35.608 18.6595C36.1335 18.6595 36.6454 18.5584 37.1372 18.3631Z" fill="white"/>
<path d="M56.477 15.2037H47.5447C47.5851 16.1401 47.767 16.8811 48.0701 17.4334C48.38 17.9858 48.8515 18.3832 49.4982 18.6325C50.1449 18.8817 51.0004 19.003 52.0782 19.003C53.1358 19.003 54.3483 18.8346 55.7023 18.5045V21.1384C54.3146 21.4819 52.9472 21.6571 51.5999 21.6571C49.8822 21.6571 48.4675 21.3944 47.3628 20.8757C46.258 20.357 45.4295 19.5486 44.8838 18.4506C44.3382 17.3526 44.062 15.9245 44.062 14.1663C44.062 12.5496 44.3113 11.1889 44.8165 10.0774C45.3217 8.96594 46.0492 8.13064 46.999 7.57153C47.9488 7.01242 49.1007 6.72949 50.4547 6.72949C52.4217 6.72949 53.9172 7.3627 54.9411 8.62912C55.965 9.89554 56.477 11.775 56.477 14.2741V15.2037ZM48.2991 9.93596C47.8141 10.5692 47.5581 11.6335 47.5312 13.1222H53.2368C53.2099 11.6335 52.9674 10.5692 52.5026 9.93596C52.0378 9.30275 51.3507 8.98614 50.4345 8.98614C49.4915 8.98614 48.7841 9.30275 48.2991 9.93596Z" fill="white"/>
<path d="M58.5249 6.9452H61.3946L61.6303 8.4676H61.8189C62.3646 7.90175 63.0113 7.47063 63.759 7.17423C64.5067 6.87783 65.3016 6.7229 66.1436 6.7229C67.6323 6.7229 68.8112 7.16076 69.6734 8.03647C70.5357 8.91219 70.9735 10.2999 70.9735 12.1995V21.381H67.5044V12.4016C67.5044 11.4383 67.3023 10.7512 66.8981 10.347C66.4939 9.9361 65.9011 9.73402 65.1265 9.73402C64.5471 9.73402 63.9678 9.85527 63.4087 10.0978C62.8496 10.3403 62.3713 10.704 61.9941 11.1891V21.3878H58.5249V6.9452Z" fill="white"/>
<path d="M82.3645 18.5787V21.3541C81.5292 21.5494 80.6939 21.6438 79.8653 21.6438C76.4433 21.6438 74.7323 19.9193 74.7323 16.4703V9.71381H72.2466V6.95193H74.7323L75.3385 1.80542H78.1947V6.95193H82.2297V9.72054H78.1947V15.9247C78.1947 16.632 78.2823 17.1911 78.4642 17.602C78.646 18.0196 78.9222 18.316 79.2927 18.4979C79.6632 18.6798 80.155 18.7674 80.7612 18.7674C81.1924 18.7606 81.7245 18.7 82.3645 18.5787Z" fill="white"/>
<path d="M84.0419 3.98774C83.6781 3.6644 83.4895 3.1996 83.4895 2.59333C83.4895 1.98707 83.6714 1.51553 84.0419 1.19219C84.4056 0.868846 84.958 0.700439 85.6923 0.700439C86.4265 0.700439 86.9722 0.86211 87.3427 1.19219C87.7064 1.52227 87.895 1.98707 87.895 2.59333C87.895 3.1996 87.7132 3.6644 87.3427 3.98774C86.9789 4.31108 86.4265 4.47275 85.6923 4.47275C84.958 4.47275 84.4056 4.31108 84.0419 3.98774ZM83.9408 21.3808V6.94497H87.4235V21.3808C87.4235 21.3808 83.9408 21.3808 83.9408 21.3808Z" fill="white"/>
<path d="M90.3335 6.9452H93.2031L93.4389 8.4676H93.6275C94.1732 7.90175 94.8198 7.47063 95.5676 7.17423C96.3153 6.87783 97.1102 6.7229 97.9522 6.7229C99.4409 6.7229 100.62 7.16076 101.482 8.03647C102.344 8.91219 102.782 10.2999 102.782 12.1995V21.381H99.3129V12.4016C99.3129 11.4383 99.1109 10.7512 98.7067 10.347C98.3025 9.9361 97.7097 9.73402 96.935 9.73402C96.3557 9.73402 95.7764 9.85527 95.2173 10.0978C94.6582 10.3403 94.1799 10.704 93.8027 11.1891V21.3878H90.3335V6.9452Z" fill="white"/>
<path d="M113.937 7.26844C114.847 7.6322 115.52 8.23846 115.972 9.07376C116.416 9.9158 116.639 11.0475 116.639 12.4891V21.3809H113.769L113.533 19.8855H113.351C112.92 20.4581 112.361 20.8959 111.674 21.1856C110.994 21.482 110.232 21.6302 109.404 21.6302C108.461 21.6302 107.646 21.4618 106.959 21.125C106.272 20.7881 105.746 20.3166 105.376 19.7036C105.005 19.0906 104.823 18.3698 104.823 17.5413C104.823 16.2007 105.281 15.1634 106.197 14.4291C107.114 13.6948 108.569 13.2503 110.549 13.0953L113.25 12.8461V12.2735C113.25 11.5392 113.136 10.9667 112.9 10.549C112.664 10.1314 112.301 9.83496 111.802 9.65308C111.304 9.47794 110.637 9.39037 109.795 9.39037C109.202 9.39037 108.562 9.44426 107.875 9.5453C107.188 9.64634 106.528 9.80128 105.888 10.0034V7.34254C106.541 7.14045 107.269 6.98552 108.077 6.87773C108.885 6.76995 109.653 6.71606 110.374 6.71606C111.842 6.7228 113.028 6.90468 113.937 7.26844ZM111.957 18.8818C112.435 18.6864 112.866 18.3766 113.25 17.9522V14.8872L110.886 15.096C109.976 15.1836 109.316 15.4059 108.892 15.7494C108.474 16.0997 108.265 16.5847 108.265 17.2112C108.265 17.8444 108.454 18.3294 108.831 18.6662C109.209 19.003 109.754 19.1714 110.482 19.1714C110.987 19.1714 111.479 19.0771 111.957 18.8818Z" fill="white"/>
<path d="M119.488 20.9968C119.07 20.6061 118.862 20.0807 118.862 19.4205C118.862 18.7604 119.07 18.235 119.481 17.8375C119.899 17.4468 120.458 17.2515 121.159 17.2515C121.866 17.2515 122.425 17.4468 122.836 17.8443C123.254 18.2417 123.456 18.7671 123.456 19.4205C123.456 20.074 123.247 20.5994 122.829 20.9901C122.412 21.3808 121.852 21.5762 121.152 21.5762C120.465 21.5829 119.912 21.3875 119.488 20.9968Z" fill="white"/>
<path d="M128.38 27.3156C127.571 27.2145 126.817 27.0596 126.11 26.8575V24.1024C127.652 24.5402 129.114 24.7625 130.488 24.7625C131.479 24.7625 132.28 24.6346 132.9 24.3853C133.52 24.1361 133.971 23.7319 134.267 23.1728C134.564 22.6137 134.712 21.8862 134.712 20.9768V19.8383H134.537C134.085 20.357 133.54 20.7679 132.886 21.0576C132.24 21.3473 131.512 21.4954 130.697 21.4954C129.666 21.4954 128.73 21.2462 127.895 20.7477C127.06 20.2492 126.386 19.4746 125.881 18.417C125.375 17.3661 125.126 16.0391 125.126 14.456C125.126 11.9165 125.786 9.98989 127.113 8.68979C128.434 7.38296 130.401 6.72954 133.014 6.71606C133.877 6.71606 134.773 6.78343 135.702 6.91142C136.632 7.04614 137.454 7.22802 138.174 7.47053V20.357C138.174 22.0276 137.905 23.3816 137.359 24.4257C136.814 25.4698 135.999 26.2378 134.907 26.7295C133.816 27.2213 132.422 27.4638 130.738 27.4638C129.976 27.4705 129.188 27.4166 128.38 27.3156ZM133.472 18.3631C133.964 18.1677 134.375 17.8781 134.712 17.4874V9.6194C134.038 9.4712 133.378 9.3971 132.725 9.3971C131.357 9.3971 130.333 9.77433 129.646 10.5355C128.959 11.2967 128.622 12.5025 128.622 14.1596C128.622 15.81 128.912 16.9754 129.478 17.649C130.05 18.3227 130.872 18.6595 131.937 18.6595C132.475 18.6595 132.987 18.5584 133.472 18.3631Z" fill="white"/>
<path d="M142.183 19.7845C140.997 18.5383 140.404 16.6791 140.404 14.2002C140.404 11.701 140.99 9.83506 142.156 8.58885C143.321 7.34264 144.978 6.7229 147.127 6.7229C149.269 6.7229 150.926 7.34264 152.098 8.58885C153.264 9.83506 153.85 11.701 153.85 14.1867C153.85 15.8438 153.58 17.2315 153.035 18.343C152.496 19.4545 151.721 20.283 150.711 20.8287C149.707 21.3743 148.508 21.6505 147.127 21.6505C145.019 21.6505 143.368 21.024 142.183 19.7845ZM149.539 17.8916C150.084 17.1709 150.354 15.9381 150.354 14.2136C150.354 12.4622 150.084 11.216 149.539 10.4885C148.993 9.76096 148.191 9.3972 147.12 9.3972C146.056 9.3972 145.248 9.76096 144.709 10.4817C144.163 11.2025 143.894 12.4285 143.894 14.1597C143.894 15.3521 144.022 16.3019 144.271 17.0025C144.52 17.7098 144.884 18.215 145.355 18.5181C145.827 18.8212 146.42 18.9762 147.12 18.9762C148.191 18.9762 149 18.6124 149.539 17.8916Z" fill="white"/>
<path d="M158.552 21.455C157.656 21.327 156.827 21.1384 156.073 20.8959V0H159.542V8.37993H159.717C160.155 7.86123 160.707 7.45032 161.354 7.16066C162.007 6.871 162.742 6.7228 163.55 6.7228C164.601 6.7228 165.544 6.97204 166.379 7.47053C167.215 7.96901 167.881 8.75716 168.38 9.82822C168.872 10.8993 169.121 12.2533 169.121 13.8835C169.121 16.4567 168.461 18.3968 167.147 19.6969C165.834 20.997 163.867 21.6504 161.246 21.6504C160.344 21.6504 159.448 21.583 158.552 21.455ZM164.614 17.8377C165.288 17.0765 165.625 15.8505 165.625 14.1596C165.625 12.4823 165.335 11.3035 164.763 10.6231C164.19 9.93601 163.368 9.59919 162.304 9.59919C161.772 9.59919 161.266 9.70024 160.775 9.88885C160.283 10.0842 159.872 10.3739 159.542 10.7646V18.7268C160.148 18.8952 160.815 18.9761 161.543 18.9761C162.91 18.9761 163.934 18.5921 164.614 17.8377Z" fill="white"/>
<path d="M171.398 20.9968C170.98 20.6061 170.771 20.0807 170.771 19.4205C170.771 18.7604 170.98 18.235 171.391 17.8375C171.802 17.4468 172.368 17.2515 173.068 17.2515C173.776 17.2515 174.335 17.4468 174.746 17.8443C175.163 18.2417 175.365 18.7671 175.365 19.4205C175.365 20.074 175.157 20.5994 174.739 20.9901C174.321 21.3808 173.762 21.5762 173.068 21.5762C172.374 21.5829 171.815 21.3875 171.398 20.9968Z" fill="white"/>
<path d="M186.09 7.26844C186.999 7.6322 187.673 8.23846 188.124 9.07376C188.569 9.9158 188.791 11.0475 188.791 12.4891V21.3809H185.921L185.685 19.8855H185.497C185.066 20.4581 184.507 20.8959 183.826 21.1856C183.139 21.482 182.385 21.6302 181.556 21.6302C180.613 21.6302 179.798 21.4618 179.104 21.125C178.417 20.7881 177.892 20.3166 177.521 19.7036C177.157 19.0906 176.969 18.3698 176.969 17.5413C176.969 16.2007 177.427 15.1634 178.343 14.4291C179.259 13.6948 180.714 13.2503 182.695 13.0953L185.396 12.8461V12.2735C185.396 11.5392 185.281 10.9667 185.046 10.549C184.81 10.1314 184.446 9.83496 183.948 9.65308C183.449 9.47794 182.782 9.39037 181.94 9.39037C181.347 9.39037 180.707 9.44426 180.02 9.5453C179.333 9.64634 178.673 9.80128 178.033 10.0034V7.34254C178.687 7.14045 179.414 6.98552 180.222 6.87773C181.031 6.76995 181.792 6.71606 182.519 6.71606C183.995 6.7228 185.18 6.90468 186.09 7.26844ZM184.116 18.8818C184.594 18.6864 185.025 18.3766 185.409 17.9522V14.8872L183.038 15.096C182.129 15.1836 181.469 15.4059 181.051 15.7494C180.633 16.0997 180.424 16.5847 180.424 17.2112C180.424 17.8444 180.613 18.3294 180.99 18.6662C181.368 19.003 181.913 19.1714 182.641 19.1714C183.139 19.1714 183.631 19.0771 184.116 18.8818Z" fill="white"/>
<path d="M191.58 6.94516H194.436L194.699 8.82458H194.88C195.305 8.14422 195.864 7.63226 196.551 7.28871C197.245 6.94516 198.006 6.77002 198.835 6.77002C199.212 6.77002 199.603 6.8037 199.986 6.86433V10.0169C199.643 9.95628 199.192 9.9226 198.639 9.9226C197.952 9.9226 197.272 10.0641 196.605 10.347C195.938 10.6299 195.413 11.0341 195.035 11.5528V21.3877H191.566L191.58 6.94516Z" fill="white"/>
</svg>
