<svg width="200" height="52" viewBox="0 0 200 52" fill="none" xmlns="http://www.w3.org/2000/svg">
<path d="M5.23627 4.78509H0V1.46753H13.8729V4.78509H8.73244V20.0969H5.23627V4.78509Z" fill="white"/>
<path d="M15.7568 0H19.253V7.97492C20.1949 6.71488 21.6796 5.98119 23.26 6.01309C26.4529 6.01309 28.624 8.15037 28.624 11.755V20.0809H25.0161V12.3292C25.2715 10.8299 24.2498 9.42636 22.7492 9.17116C22.5736 9.13926 22.382 9.12331 22.2064 9.13926C20.5621 9.15521 19.237 10.495 19.237 12.1378C19.237 12.2654 19.253 12.409 19.269 12.5366V20.1447H15.7568V0Z" fill="white"/>
<path d="M30.3958 13.2386C30.3479 9.31494 33.5088 6.09309 37.436 6.04524C37.4999 6.04524 37.5637 6.04524 37.6276 6.04524C41.4111 5.88574 44.604 8.83644 44.7636 12.6165C44.7636 12.776 44.7636 12.9355 44.7636 13.111V14.4348H33.7962C34.2432 16.2212 35.9194 17.4334 37.7553 17.3217C39.1442 17.4015 40.4692 16.6837 41.1876 15.4875L44.0772 17.1782C42.6563 19.2835 40.2298 20.4957 37.6915 20.3681C33.86 20.5595 30.6033 17.6248 30.3958 13.7968C30.3958 13.6054 30.3958 13.43 30.3958 13.2386ZM33.892 11.6436H41.2515C40.8524 9.98483 39.3198 8.86834 37.6276 8.97999C35.9514 8.97999 34.4667 10.0805 33.9718 11.6915L33.892 11.6436Z" fill="white"/>
<path d="M52.8416 10.7981C52.7298 5.61435 56.8486 1.33978 62.037 1.22814C62.1647 1.22814 62.2924 1.22814 62.4201 1.22814C65.8045 1.21219 68.9495 2.96667 70.6896 5.86955L67.4968 7.86328C66.5708 5.8855 64.5753 4.64141 62.4042 4.67331C59.1634 4.64141 56.5134 7.25719 56.4814 10.495C56.4814 10.5748 56.4814 10.6386 56.4814 10.7183C56.4016 13.9561 58.9559 16.6357 62.1966 16.7155C62.2445 16.7155 62.3084 16.7155 62.3563 16.7155C64.6551 16.7633 66.7464 15.3916 67.6404 13.2703L70.9291 15.0248C68.5025 19.714 62.7234 21.5642 58.03 19.1398C54.885 17.513 52.9054 14.323 52.8416 10.7981Z" fill="white"/>
<path d="M71.7751 10.798C71.7751 5.51855 76.0695 1.22803 81.3537 1.22803C86.6379 1.22803 90.9323 5.51855 90.9323 10.798C90.9323 16.0774 86.6379 20.3679 81.3537 20.3679C76.0695 20.3679 71.7751 16.0774 71.7751 10.798ZM87.2605 10.798C87.1966 7.52824 84.4987 4.92841 81.226 4.99221C77.9533 5.05601 75.3511 7.75154 75.415 11.0213C75.4789 14.2272 78.097 16.8111 81.3058 16.827C84.6104 16.8111 87.2764 14.1475 87.2605 10.8458C87.2605 10.8299 87.2605 10.8139 87.2605 10.798Z" fill="white"/>
<path d="M90.166 1.46753H93.9655L98.9783 15.312L104.039 1.46753H107.822L100.766 20.0969H97.2063L90.166 1.46753Z" fill="white"/>
<path d="M109.451 1.46753H113.107V20.1128H109.451V1.46753Z" fill="white"/>
<path d="M116.252 1.46759H122.286C127.315 1.13264 131.673 4.92872 132.008 9.96889C132.024 10.24 132.04 10.5112 132.024 10.7823C132.072 15.8863 127.953 20.0652 122.845 20.113C122.685 20.113 122.526 20.113 122.366 20.0971H116.252C116.252 20.0971 116.252 1.46759 116.252 1.46759ZM119.876 4.81707V16.7317H122.127C125.351 16.939 128.145 14.4987 128.353 11.2768C128.369 11.1173 128.369 10.9418 128.369 10.7823C128.512 7.6083 126.054 4.91277 122.877 4.76922C122.574 4.75327 122.286 4.76922 121.983 4.80112H119.844L119.876 4.81707Z" fill="white"/>
<path d="M5.23627 30.3049H0V26.9873H13.8729V30.3049H8.73244V45.6168H5.23627V30.3049Z" fill="white"/>
<path d="M13.0745 31.8364H16.5547V33.9577C17.1613 32.4106 18.7098 31.4536 20.3701 31.5812C21.1843 31.5812 21.9825 31.7566 22.7009 32.1235L21.4238 35.6005C20.881 35.2656 20.2265 35.0901 19.5879 35.122C18.0713 34.9785 16.7143 36.0949 16.5866 37.6102C16.5706 37.8494 16.5706 38.0727 16.6026 38.3119V45.585H13.0745V31.8364Z" fill="white"/>
<path d="M22.6853 41.8047C22.6853 38.9497 25.064 37.1793 28.8954 37.1793H32.5193V37.0038C32.5193 35.6002 31.3858 34.4678 29.981 34.4678C29.8213 34.4678 29.6776 34.4838 29.534 34.4997C28.2089 34.4359 26.9637 35.1536 26.3411 36.318L23.1483 34.723C24.6489 32.6495 27.0914 31.4533 29.6617 31.533C33.7326 31.533 36.0474 33.6544 36.0474 37.1155V45.5848H32.5512V43.5113C31.3539 45.0744 29.4701 45.9676 27.4905 45.9038C24.3935 45.9038 22.6853 44.2291 22.6853 41.8047ZM32.5512 40.4968V39.7631H29.3583C27.267 39.7631 26.4209 40.433 26.4209 41.5017C26.4209 42.5703 27.1074 43.0009 28.5601 43.0009C30.2523 42.969 31.7849 42.0121 32.5512 40.4968Z" fill="white"/>
<path d="M37.7078 38.7422C37.7557 34.7228 41.0603 31.5169 45.0832 31.5647C47.9408 31.5966 50.5111 33.3192 51.6605 35.935L48.4677 37.2429C47.9568 35.7755 46.536 34.8185 44.9875 34.8664C42.8642 35.0099 41.2359 36.8441 41.3795 38.9655C41.5073 40.8954 43.0558 42.4425 44.9875 42.5701C46.52 42.5861 47.893 41.6291 48.4198 40.1776L51.7084 41.5334C50.559 44.2448 47.877 45.9834 44.9396 45.9196C41.0124 45.9834 37.7716 42.8732 37.7078 38.9495C37.7078 38.8857 37.7078 38.806 37.7078 38.7422Z" fill="white"/>
<path d="M58.9082 39.9384L56.785 42.3149V45.6325H53.2888V25.5198H56.785V38.2796L62.3885 31.8997H66.603L61.4146 37.7692L66.8584 45.7441H62.8195L58.9082 39.9384Z" fill="white"/>
<path d="M70.1629 25.6634C71.3761 25.6155 72.3819 26.5566 72.4298 27.7687C72.4298 27.8325 72.4298 27.8963 72.4298 27.9601C72.318 29.2042 71.2325 30.1293 69.9873 30.0336C68.8857 29.9379 68.0077 29.0607 67.9119 27.9601C67.864 26.748 68.8059 25.7112 70.0192 25.6634C70.0671 25.6634 70.115 25.6634 70.1629 25.6634ZM68.3749 31.8359H71.9828V45.6166H68.3749V31.8359Z" fill="white"/>
<path d="M74.6167 31.8363H78.1448V33.5748C79.0707 32.2669 80.5873 31.5173 82.1838 31.5651C85.3766 31.5651 87.5318 33.7024 87.5318 37.3071V45.6329H83.9239V37.8494C84.1793 36.3501 83.1576 34.9465 81.6569 34.6913C81.4813 34.6594 81.2898 34.6435 81.1142 34.6594C79.4698 34.6594 78.1288 35.9992 78.1288 37.642C78.1288 37.7856 78.1448 37.9132 78.1608 38.0567V45.6648H74.6167V31.8363Z" fill="white"/>
<path d="M89.2718 38.7106C89.0643 34.9783 91.9378 31.7724 95.6735 31.581C95.7693 31.581 95.8651 31.5651 95.9608 31.5651C97.653 31.5172 99.2495 32.2988 100.255 33.6545V31.8362H103.783V44.5961C103.847 48.3602 100.862 51.4545 97.0943 51.5343C96.9187 51.5343 96.7271 51.5342 96.5515 51.5183C94.0132 51.6937 91.5387 50.6889 89.8465 48.7909L92.752 46.526C93.5822 47.7701 95.0189 48.4719 96.5036 48.3921C98.4832 48.5197 100.191 47.0205 100.319 45.0427C100.319 44.947 100.335 44.8353 100.319 44.7237V43.671C99.3133 45.0586 97.685 45.8561 95.9768 45.8402C92.2252 45.7923 89.2079 42.714 89.2718 38.9658C89.2718 38.8701 89.2718 38.7903 89.2718 38.7106ZM100.447 38.7106C100.415 36.5893 98.6907 34.8986 96.5675 34.9305C94.4442 34.9624 92.752 36.685 92.7839 38.8063C92.8159 40.8957 94.524 42.5864 96.6154 42.5864C98.7226 42.5864 100.431 40.8798 100.431 38.7744C100.431 38.7425 100.431 38.7106 100.431 38.6787L100.447 38.7106Z" fill="white"/>
<path d="M112.771 26.9873H120.179C123.93 26.9873 126.964 30.0178 126.964 33.766C126.964 37.5142 123.93 40.5447 120.179 40.5447C120.179 40.5447 120.179 40.5447 120.163 40.5447H116.459V45.6327H112.835V26.9873H112.771ZM116.395 30.273V37.1952H119.892C121.807 37.1952 123.356 35.6481 123.356 33.7341C123.356 31.8201 121.807 30.273 119.892 30.273H116.395Z" fill="white"/>
<path d="M128.528 31.8364H132.008V33.9577C132.615 32.4106 134.163 31.4536 135.824 31.5812C136.638 31.5812 137.436 31.7566 138.154 32.1235L136.877 35.6005C136.334 35.2656 135.68 35.0901 135.041 35.122C133.525 34.9785 132.168 36.0949 132.04 37.6102C132.024 37.8494 132.024 38.0727 132.056 38.3119V45.585H128.56V31.8364H128.528Z" fill="white"/>
<path d="M137.341 38.7423C137.277 34.7229 140.501 31.4053 144.524 31.3415C148.547 31.2777 151.868 34.4996 151.932 38.519C151.996 42.5383 148.771 45.8559 144.748 45.9197C144.7 45.9197 144.668 45.9197 144.62 45.9197C140.677 45.9835 137.404 42.8414 137.341 38.9018C137.341 38.8539 137.341 38.7901 137.341 38.7423ZM148.436 38.7423C148.388 36.6528 146.664 34.994 144.572 35.0419C142.481 35.0897 140.821 36.8123 140.869 38.9018C140.917 40.9593 142.593 42.6021 144.652 42.6021C146.743 42.5862 148.452 40.8955 148.436 38.7901C148.436 38.7582 148.436 38.7423 148.436 38.7104V38.7423Z" fill="white"/>
<path d="M151.054 47.8496C153.448 47.8496 153.736 47.4987 153.736 45.2179V31.836H157.344V45.2657C157.344 49.6998 155.971 51.1353 151.549 51.1353H151.07L151.054 47.8496ZM155.524 25.6634C156.737 25.6155 157.743 26.5566 157.791 27.7687C157.791 27.8325 157.791 27.8963 157.791 27.9601C157.679 29.2042 156.593 30.1293 155.348 30.0336C154.247 29.9379 153.369 29.0607 153.273 27.9601C153.225 26.748 154.167 25.7112 155.38 25.6634C155.428 25.6634 155.476 25.6634 155.524 25.6634Z" fill="white"/>
<path d="M159.132 38.7584C159.084 34.8347 162.245 31.6129 166.172 31.565C166.236 31.565 166.3 31.565 166.363 31.565C170.147 31.4055 173.34 34.3562 173.499 38.1363C173.499 38.2958 173.499 38.4553 173.499 38.6308V39.9546H162.532C162.979 41.741 164.639 42.9532 166.475 42.8415C167.864 42.9213 169.189 42.2035 169.908 41.0073L172.861 42.7139C171.44 44.8193 169.014 46.0315 166.475 45.9039C162.644 46.1272 159.355 43.2084 159.148 39.3804C159.132 39.1731 159.132 38.9657 159.132 38.7584ZM162.628 37.1634H169.987C169.588 35.5046 168.056 34.3881 166.363 34.4998C164.655 34.4679 163.123 35.5684 162.628 37.2113V37.1634Z" fill="white"/>
<path d="M174.872 38.7422C174.92 34.7228 178.225 31.5169 182.248 31.5647C185.105 31.5966 187.676 33.3192 188.825 35.935L185.632 37.2429C185.121 35.7755 183.701 34.8185 182.152 34.8664C180.029 35.0099 178.4 36.8442 178.544 38.9655C178.672 40.8954 180.22 42.4426 182.152 42.5702C183.685 42.5861 185.058 41.6291 185.584 40.1777L188.825 41.5175C187.676 44.229 184.994 45.9675 182.056 45.9037C178.129 45.9516 174.92 42.8094 174.872 38.8858C174.872 38.8379 174.872 38.7901 174.872 38.7422Z" fill="white"/>
<path d="M189.607 31.8361H192.162V28.8534L195.626 26.8916V31.8361H199.25V35.026H195.626V40.6882C195.626 42.1397 196.233 42.6501 197.126 42.6501C197.605 42.6501 198.068 42.4746 198.404 42.1397L200 44.899C199.042 45.6008 197.893 45.9676 196.711 45.9517C193.822 45.9517 192.13 44.58 192.13 40.8158V34.9622H189.575V31.7723L189.607 31.8361Z" fill="white"/>
</svg>
