<svg width="200" height="227" viewBox="0 0 200 227" fill="none" xmlns="http://www.w3.org/2000/svg">
<path d="M47.7675 57.2646H66.2559V15.8326H82.1952V1.2002H31.907V15.8326H47.7675V57.2646Z" fill="white"/>
<path d="M107.057 1.2002H88.5686V57.2646H107.057V1.2002Z" fill="white"/>
<path d="M128.61 54.7491C133.1 57.2789 138.155 58.551 143.79 58.551C148.094 58.551 152.44 57.5232 156.822 55.4678C161.205 53.4196 164.964 50.6598 168.1 47.1886L157.424 35.7544C155.612 37.7236 153.557 39.3119 151.244 40.5121C148.932 41.7123 146.769 42.3088 144.75 42.3088C142.573 42.3088 140.59 41.7194 138.814 40.548C137.031 39.3765 135.649 37.7595 134.668 35.7113C133.687 33.6558 133.193 31.3489 133.193 28.7904C133.193 26.2319 133.68 23.9393 134.668 21.9126C135.649 19.8859 137.031 18.2976 138.814 17.1549C140.59 16.0122 142.573 15.4373 144.75 15.4373C146.927 15.4373 149.175 16.1416 151.481 17.5574C153.794 18.9732 155.77 20.8274 157.417 23.12L168.093 10.3993C165.222 7.25868 161.641 4.73611 157.338 2.83879C153.035 0.948659 148.76 0 144.506 0C138.714 0 133.522 1.25051 128.925 3.7587C124.328 6.2669 120.726 9.71657 118.127 14.1149C115.521 18.5132 114.225 23.4865 114.225 29.0347C114.225 34.6332 115.499 39.6856 118.048 44.1917C120.597 48.6978 124.12 52.2122 128.61 54.7491Z" fill="white"/>
<path d="M26.8879 70.4668V127.034H67.2159V115.564H39.9057V70.4668H26.8879Z" fill="white"/>
<path d="M88.6464 70.4668L68.0886 127.034H81.4286L85.7178 114.364H103.261L107.629 127.034H120.962L100.404 70.4668H88.6464ZM87.7728 105.359L94.518 85.3579L101.106 105.359H87.7728Z" fill="white"/>
<path d="M168.709 92.6167C170.055 90.2235 170.735 87.6794 170.735 84.9699C170.735 83.166 170.427 81.3981 169.826 79.6732C169.217 77.9484 168.358 76.4032 167.248 75.0521C166.138 73.701 164.785 72.5942 163.202 71.7462C161.613 70.8981 159.844 70.4741 157.882 70.4741H126.526V127.042H153.994C156.586 127.042 159.049 126.74 161.377 126.129C163.704 125.518 165.744 124.612 167.492 123.419C169.239 122.226 170.614 120.724 171.623 118.92C172.626 117.117 173.134 114.989 173.134 112.546C173.134 108.722 172.196 105.589 170.313 103.145C168.437 100.702 165.88 98.9986 162.651 98.0427C165.336 96.8138 167.356 95.0027 168.709 92.6167ZM139.537 81.6209H152.791C154.166 81.6209 155.34 82.1239 156.321 83.1373C157.302 84.1434 157.789 85.5808 157.789 87.4422C157.789 89.4617 157.231 90.9493 156.121 91.9052C155.011 92.861 153.736 93.3426 152.311 93.3426H139.53V81.6209H139.537ZM158.19 114.285C157.08 115.399 155.677 115.959 153.98 115.959H139.53V103.613H154.531C156.063 103.613 157.338 104.223 158.34 105.445C159.343 106.667 159.851 108.155 159.851 109.908C159.858 111.712 159.3 113.171 158.19 114.285Z" fill="white"/>
<path d="M181.483 33.3616H170.37V40.7999H181.483C187.612 40.8215 192.575 45.8019 192.596 51.9539V144.887H7.41112V51.9467C7.4326 45.7948 12.3948 40.8143 18.5242 40.7927H29.6373V33.3616H18.5171C8.29186 33.3616 0 41.6839 0 51.9467V163.472C0 173.734 8.29186 182.057 18.5171 182.057H69.8865L67.1082 204.365H62.9623C56.8257 204.365 51.8492 209.359 51.8492 215.519C51.8492 221.678 56.8257 226.672 62.9623 226.672H137.038C143.174 226.672 148.151 221.678 148.151 215.519C148.151 209.359 143.174 204.365 137.038 204.365H132.892L130.113 182.057H181.483C191.708 182.057 200 173.734 200 163.472V51.9467C200.007 41.6839 191.715 33.3616 181.483 33.3616ZM137.038 211.796C139.086 211.796 140.74 213.463 140.74 215.511C140.74 217.56 139.078 219.227 137.038 219.227H62.9623C60.9144 219.227 59.2603 217.56 59.2603 215.511C59.2603 213.463 60.9216 211.796 62.9623 211.796H137.038ZM74.5552 204.357L77.3334 182.05H122.667L125.445 204.357H74.5552ZM192.596 163.464C192.575 169.616 187.612 174.597 181.483 174.618H18.5171C12.3877 174.597 7.42544 169.616 7.40396 163.464V152.31H192.596V163.464V163.464Z" fill="white"/>
</svg>
