<svg width="67" height="65" viewBox="0 0 67 65" fill="none" xmlns="http://www.w3.org/2000/svg">
<path d="M33.0164 57.0549L40.8475 64.9999L47.167 58.579L39.3436 50.6418L33.0164 57.0549Z" fill="#E61366"/>
<path d="M47.5425 42.3179L41.2121 35.897L33.0166 44.2195L39.3439 50.642L47.5425 42.3179Z" fill="#E61366"/>
<path d="M18.8547 58.579L25.1758 64.9999L39.3435 50.6418L25.1758 36.2759L18.8547 42.6968L26.692 50.6418L18.8547 58.579Z" fill="white"/>
<path d="M0 0.591064H24.546V7.81395H16.7655V28.2558H7.7412V7.81395H0V0.591064Z" fill="white"/>
<path d="M36.6819 0.591064H27.6565V28.2558H36.6819V0.591064Z" fill="white"/>
<path d="M58.3664 8.66118C57.2382 7.965 56.1422 7.6157 55.0795 7.6157C54.0157 7.6157 53.0495 7.89852 52.1823 8.46417C51.3126 9.02982 50.6383 9.81182 50.1582 10.8126C49.6781 11.8121 49.4386 12.9434 49.4386 14.2053C49.4386 15.4683 49.6781 16.6068 50.1582 17.6185C50.6383 18.6313 51.3114 19.4278 52.1823 20.0056C53.0495 20.5845 54.0157 20.8734 55.0795 20.8734C56.066 20.8734 57.1215 20.5773 58.2496 19.9862C59.3778 19.394 60.3821 18.612 61.2649 17.6378L66.4757 23.281C64.9461 24.9912 63.1114 26.3534 60.9718 27.365C58.8334 28.3779 56.7117 28.8843 54.6125 28.8843C51.863 28.8843 49.3934 28.2594 47.2025 27.0097C45.0105 25.7599 43.2926 24.0243 42.0465 21.8004C40.8039 19.5777 40.1797 17.0843 40.1797 14.3213C40.1797 11.5849 40.8147 9.13135 42.0858 6.96061C43.3569 4.78988 45.1129 3.08689 47.3574 1.85044C49.6007 0.61762 52.1358 0 54.9628 0C57.0381 0 59.1253 0.466539 61.2256 1.40082C63.3271 2.3339 65.0759 3.57881 66.4757 5.12951L61.2649 11.4048C60.4607 10.2735 59.4946 9.35857 58.3664 8.66118Z" fill="white"/>
</svg>
