<svg width="200" height="67" viewBox="0 0 200 67" fill="none" xmlns="http://www.w3.org/2000/svg">
<path d="M0 25.6C0 16.6392 0 12.1587 1.7439 8.73615C3.27787 5.72556 5.72556 3.27787 8.73615 1.7439C12.1587 0 16.6392 0 25.6 0H174.4C183.361 0 187.841 0 191.264 1.7439C194.274 3.27787 196.722 5.72556 198.256 8.73615C200 12.1587 200 16.6392 200 25.6V41.4C200 50.3608 200 54.8413 198.256 58.2638C196.722 61.2744 194.274 63.7221 191.264 65.2561C187.841 67 183.361 67 174.4 67H25.6C16.6392 67 12.1587 67 8.73615 65.2561C5.72556 63.7221 3.27787 61.2744 1.7439 58.2638C0 54.8413 0 50.3608 0 41.4V25.6Z" fill="white"/>
<path d="M12.96 52.553L15.8246 42.13C14.0573 39.0803 13.1288 35.6188 13.1288 32.075C13.1323 20.9824 22.1886 11.9597 33.3164 11.9597C38.7167 11.9615 43.7847 14.0576 47.5971 17.8592C51.4095 21.6607 53.5074 26.7153 53.5039 32.089C53.4986 43.1798 44.4424 52.2025 33.3164 52.2025H33.3076C29.9295 52.2007 26.6094 51.3559 23.6604 49.754L12.96 52.553Z" fill="url(#paint0_linear)"/>
<path d="M12.2319 53.2802L15.1985 42.4838C13.3679 39.3238 12.406 35.7396 12.4078 32.0678C12.4113 20.5791 21.7929 11.2322 33.3199 11.2322C38.9136 11.2339 44.1645 13.4037 48.1124 17.3419C52.0602 21.2802 54.2337 26.5153 54.2319 32.0835C54.2267 43.5705 44.8451 52.9191 33.3199 52.9191H33.3111C29.8117 52.9174 26.372 52.0428 23.3175 50.383L12.2319 53.2802ZM23.831 46.6113L24.4658 46.9864C27.1335 48.5638 30.1932 49.3998 33.3128 49.4015H33.3199C42.9002 49.4015 50.6973 41.632 50.7009 32.0835C50.7026 27.4565 48.8966 23.1047 45.6153 19.8325C42.3339 16.5585 37.9693 14.755 33.3269 14.7533C23.7396 14.7533 15.9424 22.521 15.9388 32.0695C15.9371 35.3417 16.8568 38.5281 18.5959 41.285L19.0092 41.9405L17.2524 48.3307L23.831 46.6113Z" fill="url(#paint1_linear)"/>
<path fill-rule="evenodd" clip-rule="evenodd" d="M28.0937 23.3572C27.7015 22.4896 27.29 22.4721 26.9172 22.4581C26.613 22.4458 26.2648 22.4458 25.9166 22.4458C25.5685 22.4458 25.0022 22.5755 24.5239 23.0978C24.0456 23.6183 22.6951 24.8785 22.6951 27.4409C22.6951 30.0033 24.5679 32.4798 24.8281 32.8268C25.0901 33.1738 28.4436 38.6 33.7543 40.6875C38.1681 42.4226 39.0667 42.0773 40.0251 41.9897C40.9835 41.9021 43.1165 40.7295 43.5526 39.5149C43.9887 38.2986 43.9887 37.2575 43.8568 37.0384C43.7267 36.8211 43.3785 36.6914 42.8545 36.4303C42.3322 36.1691 39.7631 34.9089 39.2847 34.7354C38.8064 34.5619 38.4565 34.4743 38.1083 34.9966C37.7601 35.5171 36.7595 36.6896 36.4536 37.0367C36.1493 37.3855 35.8434 37.4275 35.3211 37.1681C34.7988 36.907 33.1159 36.3584 31.12 34.583C29.5673 33.2019 28.5175 31.4983 28.2132 30.976C27.909 30.4554 28.1798 30.1733 28.4418 29.9139C28.6757 29.6808 28.9641 29.3057 29.2261 29.0025C29.4864 28.6975 29.5743 28.482 29.7484 28.1349C29.9225 27.7879 29.8363 27.4829 29.7044 27.2218C29.5726 26.9624 28.5579 24.386 28.0937 23.3572Z" fill="white"/>
<path fill-rule="evenodd" clip-rule="evenodd" d="M15.183 42.2844L12.2319 53.0119L23.2594 50.1332C26.2979 51.7824 29.7195 52.6514 33.2005 52.6532H33.2093C44.674 52.6532 54.0064 43.3641 54.0117 31.9505C54.0134 26.4178 51.8513 21.2161 47.9242 17.303C43.997 13.3899 38.7737 11.2339 33.2093 11.2322C21.7427 11.2322 12.4104 20.5195 12.4069 31.9348C12.4051 35.5832 13.362 39.1445 15.183 42.2844ZM33.209 11.9322C22.1262 11.9323 13.1102 20.9092 13.1069 31.935C13.1052 35.4603 14.0296 38.9004 15.7885 41.9332L15.9357 42.1871L13.2285 52.0283L23.3502 49.3861L23.5933 49.518C26.5289 51.1114 29.8358 51.9515 33.2009 51.9532H33.2093C44.2903 51.9532 53.3065 42.9746 53.3116 31.9503M33.209 11.9322C38.5889 11.9339 43.6346 14.0169 47.4301 17.7988C51.2256 21.5808 53.3133 26.6043 53.3116 31.9503" fill="#46C756"/>
<path d="M78.2645 27.9174H80.7368L76.1581 15H73.5698L69 27.9174H71.3295L72.4362 24.5784H77.1756L78.2645 27.9174ZM74.739 17.4259H74.8907L76.6401 22.797H72.9718L74.739 17.4259Z" fill="black"/>
<path d="M86.1782 31.6413C89.0253 31.6413 90.8282 30.218 90.8282 27.9711V18.1331H88.6951V19.6997H88.5434C88.0078 18.6344 86.8476 17.972 85.5177 17.972C83.0275 17.972 81.4835 19.9235 81.4835 22.9223C81.4835 25.8585 83.0186 27.7741 85.482 27.7741C86.8386 27.7741 87.9007 27.2012 88.463 26.1449H88.6148V28.0069C88.6148 29.2512 87.7312 29.9852 86.2139 29.9852C85 29.9852 84.2146 29.5466 84.0718 28.8573H81.8494C82.0279 30.5402 83.6702 31.6413 86.1782 31.6413ZM86.1782 26.0106C84.6341 26.0106 83.7594 24.8111 83.7594 22.9133C83.7594 21.0245 84.6341 19.825 86.1782 19.825C87.7133 19.825 88.6505 21.0245 88.6505 22.9223C88.6505 24.8111 87.7222 26.0106 86.1782 26.0106Z" fill="black"/>
<path d="M93.3511 27.9174H95.5645V22.233C95.5645 20.8544 96.5642 19.9593 98.0011 19.9593C98.376 19.9593 98.9651 20.0219 99.1347 20.0846V18.0615C98.9294 18.0078 98.5367 17.972 98.2153 17.972C96.9569 17.972 95.9037 18.6881 95.6359 19.6549H95.4842V18.1331H93.3511V27.9174Z" fill="black"/>
<path d="M106.87 25.2408C106.549 25.9748 105.79 26.3866 104.692 26.3866C103.237 26.3866 102.3 25.3482 102.247 23.6921V23.5758H109.065V22.8686C109.065 19.7981 107.396 17.9451 104.612 17.9451C101.782 17.9451 100.024 19.9235 100.024 23.0655C100.024 26.1986 101.756 28.1143 104.63 28.1143C106.932 28.1143 108.566 27.0043 108.967 25.2408H106.87ZM104.603 19.6728C105.933 19.6728 106.807 20.6127 106.852 22.0987H102.255C102.354 20.6306 103.282 19.6728 104.603 19.6728Z" fill="black"/>
<path d="M115.283 31.6413C118.131 31.6413 119.933 30.218 119.933 27.9711V18.1331H117.8V19.6997H117.649C117.113 18.6344 115.953 17.972 114.623 17.972C112.133 17.972 110.589 19.9235 110.589 22.9223C110.589 25.8585 112.124 27.7741 114.587 27.7741C115.944 27.7741 117.006 27.2012 117.568 26.1449H117.72V28.0069C117.72 29.2512 116.836 29.9852 115.319 29.9852C114.105 29.9852 113.32 29.5466 113.177 28.8573H110.955C111.133 30.5402 112.775 31.6413 115.283 31.6413ZM115.283 26.0106C113.739 26.0106 112.865 24.8111 112.865 22.9133C112.865 21.0245 113.739 19.825 115.283 19.825C116.819 19.825 117.756 21.0245 117.756 22.9223C117.756 24.8111 116.827 26.0106 115.283 26.0106Z" fill="black"/>
<path d="M125.143 28.0785C126.419 28.0785 127.49 27.5235 128.035 26.5746H128.186V27.9174H130.319V21.2304C130.319 19.1626 128.909 17.9451 126.401 17.9451C124.081 17.9451 122.465 19.0372 122.287 20.747H124.375C124.58 20.0756 125.277 19.7086 126.294 19.7086C127.49 19.7086 128.133 20.2547 128.133 21.2304V22.0719L125.616 22.2241C123.242 22.3583 121.912 23.3878 121.912 25.1423C121.912 26.9327 123.26 28.0785 125.143 28.0785ZM125.794 26.3687C124.813 26.3687 124.107 25.8764 124.107 25.0349C124.107 24.2203 124.688 23.7638 125.928 23.6832L128.133 23.531V24.3277C128.133 25.4914 127.133 26.3687 125.794 26.3687Z" fill="black"/>
<path d="M132.789 27.9174H135.002V22.233C135.002 20.8544 136.002 19.9593 137.439 19.9593C137.814 19.9593 138.403 20.0219 138.572 20.0846V18.0615C138.367 18.0078 137.974 17.972 137.653 17.972C136.395 17.972 135.341 18.6881 135.074 19.6549H134.922V18.1331H132.789V27.9174Z" fill="black"/>
<path d="M147.554 28.0785C148.83 28.0785 149.901 27.5235 150.446 26.5746H150.598V27.9174H152.731V21.2304C152.731 19.1626 151.32 17.9451 148.812 17.9451C146.492 17.9451 144.876 19.0372 144.698 20.747H146.786C146.992 20.0756 147.688 19.7086 148.705 19.7086C149.901 19.7086 150.544 20.2547 150.544 21.2304V22.0719L148.027 22.2241C145.653 22.3583 144.323 23.3878 144.323 25.1423C144.323 26.9327 145.671 28.0785 147.554 28.0785ZM148.206 26.3687C147.224 26.3687 146.519 25.8764 146.519 25.0349C146.519 24.2203 147.099 23.7638 148.339 23.6832L150.544 23.531V24.3277C150.544 25.4914 149.544 26.3687 148.206 26.3687Z" fill="black"/>
<path d="M77.3809 39.5034H77.5147L80.1388 48.7505H82.2987L85.7528 35.8331H83.3697L81.1652 45.5279H81.0402L78.4697 35.8331H76.4259L73.8911 45.5279H73.7572L71.5526 35.8331H69.1517L72.6058 48.7505H74.7747L77.3809 39.5034Z" fill="black"/>
<path d="M87.7847 48.7505H89.9982V43.0662C89.9982 41.6339 90.8104 40.676 92.2652 40.676C93.5505 40.676 94.2288 41.4459 94.2288 42.9587V48.7505H96.4423V42.4395C96.4423 40.1121 95.1749 38.7872 93.0863 38.7872C91.6315 38.7872 90.5873 39.4497 90.1231 40.5507H89.9625V35.1797H87.7847V48.7505Z" fill="black"/>
<path d="M101.553 48.9116C102.83 48.9116 103.901 48.3566 104.445 47.4078H104.597V48.7505H106.73V42.0636C106.73 39.9957 105.32 38.7783 102.812 38.7783C100.491 38.7783 98.8758 39.8704 98.6973 41.5802H100.786C100.991 40.9088 101.687 40.5418 102.705 40.5418C103.901 40.5418 104.543 41.0878 104.543 42.0636V42.905L102.026 43.0572C99.6523 43.1915 98.3225 44.2209 98.3225 45.9755C98.3225 47.7658 99.6702 48.9116 101.553 48.9116ZM102.205 47.2019C101.223 47.2019 100.518 46.7095 100.518 45.8681C100.518 45.0534 101.098 44.5969 102.339 44.5163L104.543 44.3642V45.1609C104.543 46.3246 103.544 47.2019 102.205 47.2019Z" fill="black"/>
<path d="M109.904 36.5672V39.0289H108.36V40.7566H109.904V46.1545C109.904 48.0433 110.797 48.7953 113.037 48.7953C113.466 48.7953 113.876 48.7595 114.198 48.6968V46.996C113.93 47.0228 113.76 47.0407 113.448 47.0407C112.52 47.0407 112.109 46.6021 112.109 45.6264V40.7566H114.198V39.0289H112.109V36.5672H109.904Z" fill="black"/>
<path d="M115.863 41.7592C115.863 43.2273 116.747 44.0867 118.621 44.5163L120.353 44.9192C121.281 45.134 121.701 45.4921 121.701 46.0471C121.701 46.7901 120.924 47.3003 119.808 47.3003C118.702 47.3003 118.014 46.8527 117.8 46.1277H115.614C115.783 47.8911 117.318 48.9475 119.755 48.9475C122.192 48.9475 123.914 47.7032 123.914 45.8322C123.914 44.391 123.048 43.5943 121.183 43.1646L119.46 42.7797C118.479 42.547 118.014 42.1978 118.014 41.6428C118.014 40.9177 118.773 40.4254 119.782 40.4254C120.817 40.4254 121.469 40.873 121.629 41.5623H123.709C123.548 39.7988 122.093 38.7783 119.773 38.7783C117.47 38.7783 115.863 40.0047 115.863 41.7592Z" fill="black"/>
<path d="M128.641 48.9116C129.918 48.9116 130.989 48.3566 131.533 47.4078H131.685V48.7505H133.818V42.0636C133.818 39.9957 132.408 38.7783 129.9 38.7783C127.579 38.7783 125.964 39.8704 125.785 41.5802H127.874C128.079 40.9088 128.775 40.5418 129.793 40.5418C130.989 40.5418 131.631 41.0878 131.631 42.0636V42.905L129.115 43.0572C126.74 43.1915 125.411 44.2209 125.411 45.9755C125.411 47.7658 126.758 48.9116 128.641 48.9116ZM129.293 47.2019C128.311 47.2019 127.606 46.7095 127.606 45.8681C127.606 45.0534 128.186 44.5969 129.427 44.5163L131.631 44.3642V45.1609C131.631 46.3246 130.632 47.2019 129.293 47.2019Z" fill="black"/>
<path d="M141.607 38.8051C140.268 38.8051 139.135 39.4765 138.572 40.5865H138.421V38.9663H136.287V52H138.501V47.2645H138.653C139.152 48.3029 140.232 48.9116 141.634 48.9116C144.097 48.9116 145.632 46.9691 145.632 43.8629C145.632 40.7298 144.079 38.8051 141.607 38.8051ZM140.911 47.0676C139.402 47.0676 138.465 45.8412 138.456 43.8629C138.465 41.8845 139.411 40.6581 140.92 40.6581C142.437 40.6581 143.356 41.8577 143.356 43.8629C143.356 45.8681 142.446 47.0676 140.911 47.0676Z" fill="black"/>
<path d="M152.975 38.8051C151.636 38.8051 150.502 39.4765 149.94 40.5865H149.788V38.9663H147.655V52H149.869V47.2645H150.02C150.52 48.3029 151.6 48.9116 153.001 48.9116C155.465 48.9116 157 46.9691 157 43.8629C157 40.7298 155.447 38.8051 152.975 38.8051ZM152.279 47.0676C150.77 47.0676 149.833 45.8412 149.824 43.8629C149.833 41.8845 150.779 40.6581 152.287 40.6581C153.805 40.6581 154.724 41.8577 154.724 43.8629C154.724 45.8681 153.814 47.0676 152.279 47.0676Z" fill="black"/>
<defs>
<linearGradient id="paint0_linear" x1="33.2313" y1="52.5523" x2="33.2313" y2="11.9606" gradientUnits="userSpaceOnUse">
<stop stop-color="#20B038"/>
<stop offset="1" stop-color="#60D66A"/>
</linearGradient>
<linearGradient id="paint1_linear" x1="33.2314" y1="53.2796" x2="33.2314" y2="11.2323" gradientUnits="userSpaceOnUse">
<stop stop-color="#F9F9F9"/>
<stop offset="1" stop-color="white"/>
</linearGradient>
</defs>
</svg>
