<svg width="200" height="67" viewBox="0 0 200 67" fill="none" xmlns="http://www.w3.org/2000/svg">
<rect width="200" height="67" rx="16" fill="white"/>
<rect x="13" y="13" width="42" height="42" rx="9" fill="#896CC0"/>
<path d="M27.8135 27.3313H30.0114V22.422H31.9062V20.6882H25.928V22.422H27.8135V27.3313Z" fill="white"/>
<path d="M34.8617 20.6882H32.6638V27.3313H34.8617V20.6882Z" fill="white"/>
<path d="M37.424 27.0331C37.9577 27.3328 38.5587 27.4836 39.2286 27.4836C39.7402 27.4836 40.2569 27.3618 40.7779 27.1183C41.2989 26.8756 41.7458 26.5486 42.1186 26.1373L40.8494 24.7824C40.634 25.0157 40.3897 25.2039 40.1148 25.3462C39.8398 25.4884 39.5828 25.559 39.3427 25.559C39.0839 25.559 38.8481 25.4892 38.637 25.3504C38.4251 25.2116 38.2608 25.02 38.1442 24.7773C38.0275 24.5338 37.9688 24.2604 37.9688 23.9573C37.9688 23.6541 38.0267 23.3825 38.1442 23.1423C38.2608 22.9022 38.4251 22.714 38.637 22.5786C38.8481 22.4432 39.0839 22.3751 39.3427 22.3751C39.6015 22.3751 39.8688 22.4585 40.1429 22.6263C40.4178 22.794 40.6528 23.0137 40.8485 23.2854L42.1177 21.7781C41.7764 21.406 41.3508 21.1071 40.8392 20.8823C40.3276 20.6583 39.8194 20.5459 39.3138 20.5459C38.6251 20.5459 38.008 20.6941 37.4615 20.9913C36.915 21.2885 36.4868 21.6972 36.1778 22.2184C35.8679 22.7395 35.7139 23.3288 35.7139 23.9862C35.7139 24.6496 35.8654 25.2482 36.1684 25.7822C36.4715 26.3161 36.8903 26.7325 37.424 27.0331Z" fill="white"/>
<path d="M25.3311 28.8955V35.5981H30.1252V34.2391H26.8786V28.8955H25.3311Z" fill="white"/>
<path d="M32.6732 28.8955L30.2292 35.5981H31.8151L32.325 34.0968H34.4105L34.9298 35.5981H36.5148L34.0709 28.8955H32.6732ZM32.5693 33.0298L33.3712 30.6599L34.1543 33.0298H32.5693Z" fill="white"/>
<path d="M42.1909 31.5201C42.351 31.2366 42.4318 30.9351 42.4318 30.6141C42.4318 30.4003 42.3952 30.1909 42.3237 29.9865C42.2514 29.7821 42.1492 29.599 42.0173 29.4389C41.8853 29.2788 41.7244 29.1477 41.5363 29.0472C41.3473 28.9467 41.1371 28.8965 40.9038 28.8965H37.1763V35.5991H40.4416C40.7498 35.5991 41.0426 35.5634 41.3193 35.491C41.5959 35.4186 41.8385 35.3113 42.0462 35.1699C42.2539 35.0286 42.4174 34.8506 42.5374 34.6369C42.6566 34.4231 42.717 34.1711 42.717 33.8815C42.717 33.4285 42.6055 33.0572 42.3816 32.7677C42.1586 32.4782 41.8547 32.2763 41.4708 32.1631C41.79 32.0175 42.03 31.8029 42.1909 31.5201ZM38.723 30.2173H40.2986C40.4621 30.2173 40.6017 30.2769 40.7183 30.3969C40.8349 30.5162 40.8928 30.6865 40.8928 30.907C40.8928 31.1463 40.8264 31.3226 40.6944 31.4358C40.5625 31.5491 40.411 31.6062 40.2416 31.6062H38.7221V30.2173H38.723ZM40.9405 34.0876C40.8085 34.2196 40.6417 34.286 40.4399 34.286H38.7221V32.823H40.5055C40.6876 32.823 40.8392 32.8954 40.9583 33.0402C41.0775 33.1849 41.1379 33.3612 41.1379 33.569C41.1388 33.7827 41.0724 33.9556 40.9405 34.0876Z" fill="white"/>
<path d="M43.7094 24.499H42.3883V25.3804H43.7094C44.4381 25.3829 45.028 25.9731 45.0306 26.702V37.7136H23.0158V26.7012C23.0184 25.9722 23.6083 25.3821 24.3369 25.3795H25.658V24.499H24.3361C23.1205 24.499 22.1348 25.4851 22.1348 26.7012V39.9157C22.1348 41.1317 23.1205 42.1178 24.3361 42.1178H30.4429L30.1126 44.7611H29.6197C28.8902 44.7611 28.2986 45.3529 28.2986 46.0827C28.2986 46.8125 28.8902 47.4043 29.6197 47.4043H38.4258C39.1553 47.4043 39.7469 46.8125 39.7469 46.0827C39.7469 45.3529 39.1553 44.7611 38.4258 44.7611H37.9329L37.6026 42.1178H43.7094C44.925 42.1178 45.9107 41.1317 45.9107 39.9157V26.7012C45.9116 25.4851 44.9259 24.499 43.7094 24.499ZM38.4258 45.6416C38.6692 45.6416 38.8659 45.8392 38.8659 46.0818C38.8659 46.3245 38.6684 46.5221 38.4258 46.5221H29.6197C29.3763 46.5221 29.1796 46.3245 29.1796 46.0818C29.1796 45.8392 29.3771 45.6416 29.6197 45.6416H38.4258ZM30.9979 44.7602L31.3282 42.117H36.7174L37.0476 44.7602H30.9979ZM45.0306 39.9148C45.028 40.6438 44.4381 41.2339 43.7094 41.2365H24.3361C23.6074 41.2339 23.0175 40.6438 23.0149 39.9148V38.5932H45.0306V39.9148V39.9148Z" fill="white"/>
<path d="M78.2559 28.7538H80.7259L76.1515 16H73.5655L69 28.7538H71.3273L72.4331 25.4571H77.168L78.2559 28.7538ZM74.7337 18.3952H74.8853L76.633 23.6983H72.9681L74.7337 18.3952Z" fill="black"/>
<path d="M86.1623 32.4306C89.0068 32.4306 90.808 31.0253 90.808 28.8069V19.0934H88.6769V20.6402H88.5253C87.9903 19.5884 86.831 18.9344 85.5024 18.9344C83.0145 18.9344 81.4719 20.8611 81.4719 23.822C81.4719 26.721 83.0056 28.6124 85.4667 28.6124C86.8221 28.6124 87.8833 28.0468 88.445 27.0038H88.5966V28.8422C88.5966 30.0708 87.7138 30.7955 86.1979 30.7955C84.9852 30.7955 84.2005 30.3624 84.0578 29.6819H81.8375C82.0158 31.3435 83.6566 32.4306 86.1623 32.4306ZM86.1623 26.8712C84.6196 26.8712 83.7457 25.6869 83.7457 23.8132C83.7457 21.9483 84.6196 20.7639 86.1623 20.7639C87.696 20.7639 88.6323 21.9483 88.6323 23.822C88.6323 25.6869 87.7049 26.8712 86.1623 26.8712Z" fill="black"/>
<path d="M93.3285 28.7538H95.54V23.1414C95.54 21.7803 96.5387 20.8965 97.9743 20.8965C98.3488 20.8965 98.9373 20.9583 99.1068 21.0202V19.0227C98.9017 18.9697 98.5093 18.9344 98.1883 18.9344C96.931 18.9344 95.8788 19.6414 95.6113 20.596H95.4597V19.0934H93.3285V28.7538Z" fill="black"/>
<path d="M106.835 26.1111C106.514 26.8359 105.756 27.2425 104.659 27.2425C103.206 27.2425 102.269 26.2172 102.216 24.5821V24.4672H109.028V23.769C109.028 20.7374 107.361 18.9078 104.579 18.9078C101.752 18.9078 99.9954 20.8611 99.9954 23.9634C99.9954 27.0569 101.725 28.9483 104.597 28.9483C106.897 28.9483 108.529 27.8523 108.93 26.1111H106.835ZM104.57 20.6137C105.899 20.6137 106.772 21.5417 106.817 23.0089H102.225C102.323 21.5594 103.25 20.6137 104.57 20.6137Z" fill="black"/>
<path d="M115.241 32.4306C118.085 32.4306 119.886 31.0253 119.886 28.8069V19.0934H117.755V20.6402H117.604C117.069 19.5884 115.909 18.9344 114.581 18.9344C112.093 18.9344 110.55 20.8611 110.55 23.822C110.55 26.721 112.084 28.6124 114.545 28.6124C115.9 28.6124 116.962 28.0468 117.523 27.0038H117.675V28.8422C117.675 30.0708 116.792 30.7955 115.276 30.7955C114.063 30.7955 113.279 30.3624 113.136 29.6819H110.916C111.094 31.3435 112.735 32.4306 115.241 32.4306ZM115.241 26.8712C113.698 26.8712 112.824 25.6869 112.824 23.8132C112.824 21.9483 113.698 20.7639 115.241 20.7639C116.774 20.7639 117.711 21.9483 117.711 23.822C117.711 25.6869 116.783 26.8712 115.241 26.8712Z" fill="black"/>
<path d="M125.091 28.9129C126.366 28.9129 127.436 28.3649 127.98 27.4281H128.132V28.7538H130.263V22.1515C130.263 20.1099 128.854 18.9078 126.348 18.9078C124.03 18.9078 122.416 19.9861 122.237 21.6743H124.324C124.529 21.0114 125.225 20.649 126.241 20.649C127.436 20.649 128.078 21.1881 128.078 22.1515V22.9823L125.563 23.1326C123.191 23.2652 121.863 24.2816 121.863 26.0139C121.863 27.7816 123.209 28.9129 125.091 28.9129ZM125.742 27.2248C124.761 27.2248 124.056 26.7387 124.056 25.9079C124.056 25.1036 124.636 24.6528 125.876 24.5733L128.078 24.423V25.2096C128.078 26.3586 127.079 27.2248 125.742 27.2248Z" fill="black"/>
<path d="M132.73 28.7538H134.941V23.1414C134.941 21.7803 135.94 20.8965 137.375 20.8965C137.75 20.8965 138.338 20.9583 138.508 21.0202V19.0227C138.303 18.9697 137.91 18.9344 137.589 18.9344C136.332 18.9344 135.28 19.6414 135.012 20.596H134.861V19.0934H132.73V28.7538Z" fill="black"/>
<path d="M147.481 28.9129C148.756 28.9129 149.826 28.3649 150.37 27.4281H150.522V28.7538H152.653V22.1515C152.653 20.1099 151.244 18.9078 148.739 18.9078C146.42 18.9078 144.806 19.9861 144.628 21.6743H146.714C146.92 21.0114 147.615 20.649 148.632 20.649C149.826 20.649 150.469 21.1881 150.469 22.1515V22.9823L147.954 23.1326C145.582 23.2652 144.253 24.2816 144.253 26.0139C144.253 27.7816 145.6 28.9129 147.481 28.9129ZM148.132 27.2248C147.151 27.2248 146.447 26.7387 146.447 25.9079C146.447 25.1036 147.027 24.6528 148.266 24.5733L150.469 24.423V25.2096C150.469 26.3586 149.47 27.2248 148.132 27.2248Z" fill="black"/>
<path d="M80.8062 49.3232V36.5694H78.5145V41.8724H72.2547V36.5694H69.9541V49.3232H72.2547V43.7904H78.5145V49.3232H80.8062Z" fill="black"/>
<path d="M87.7673 49.5177C90.6832 49.5177 92.4577 47.6262 92.4577 44.4886C92.4577 41.3687 90.6743 39.4772 87.7673 39.4772C84.8693 39.4772 83.077 41.3775 83.077 44.4886C83.077 47.6262 84.8425 49.5177 87.7673 49.5177ZM87.7673 47.7235C86.2247 47.7235 85.3419 46.5391 85.3419 44.4974C85.3419 42.4558 86.2247 41.2714 87.7673 41.2714C89.3011 41.2714 90.1839 42.4558 90.1839 44.4974C90.1839 46.5391 89.31 47.7235 87.7673 47.7235Z" fill="black"/>
<path d="M94.4877 49.3232H96.6992V43.4457C96.6992 42.2437 97.5106 41.3333 98.6074 41.3333C99.6953 41.3333 100.373 41.9873 100.373 43.0568V49.3232H102.522V43.2866C102.522 42.1818 103.28 41.3333 104.43 41.3333C105.616 41.3333 106.214 41.9608 106.214 43.2159V49.3232H108.416V42.6767C108.416 40.6704 107.239 39.4772 105.286 39.4772C103.931 39.4772 102.807 40.1666 102.326 41.2184H102.174C101.764 40.1489 100.828 39.4772 99.4813 39.4772C98.1883 39.4772 97.1896 40.1313 96.7705 41.2184H96.6189V39.6628H94.4877V49.3232Z" fill="black"/>
<path d="M117.196 46.6805C116.875 47.4053 116.117 47.8119 115.021 47.8119C113.567 47.8119 112.631 46.7866 112.577 45.1515V45.0366H119.39V44.3384C119.39 41.3068 117.723 39.4772 114.94 39.4772C112.114 39.4772 110.357 41.4305 110.357 44.5328C110.357 47.6262 112.087 49.5177 114.958 49.5177C117.259 49.5177 118.891 48.4217 119.292 46.6805H117.196ZM114.931 41.183C116.26 41.183 117.134 42.1111 117.179 43.5783H112.586C112.684 42.1288 113.612 41.183 114.931 41.183Z" fill="black"/>
<path d="M126.726 39.5037C125.388 39.5037 124.256 40.1666 123.694 41.2626H123.542V39.6628H121.411V52.5316H123.623V47.856H123.774C124.273 48.8813 125.352 49.4823 126.752 49.4823C129.214 49.4823 130.747 47.5644 130.747 44.4974C130.747 41.404 129.196 39.5037 126.726 39.5037ZM126.03 47.6616C124.523 47.6616 123.587 46.4507 123.578 44.4974C123.587 42.5442 124.532 41.3333 126.039 41.3333C127.555 41.3333 128.473 42.5176 128.473 44.4974C128.473 46.4773 127.564 47.6616 126.03 47.6616Z" fill="black"/>
<path d="M135.452 49.4823C136.728 49.4823 137.798 48.9343 138.342 47.9975H138.493V49.3232H140.624V42.7209C140.624 40.6793 139.215 39.4772 136.71 39.4772C134.391 39.4772 132.777 40.5555 132.599 42.2437H134.686C134.891 41.5808 135.586 41.2184 136.603 41.2184C137.798 41.2184 138.44 41.7575 138.44 42.7209V43.5517L135.925 43.702C133.553 43.8346 132.224 44.851 132.224 46.5833C132.224 48.351 133.571 49.4823 135.452 49.4823ZM136.103 47.7942C135.122 47.7942 134.418 47.3081 134.418 46.4773C134.418 45.673 134.998 45.2222 136.237 45.1427L138.44 44.9924V45.779C138.44 46.928 137.441 47.7942 136.103 47.7942Z" fill="black"/>
<path d="M147.282 53C150.127 53 151.928 51.5947 151.928 49.3763V39.6628H149.797V41.2096H149.645C149.11 40.1578 147.951 39.5037 146.622 39.5037C144.135 39.5037 142.592 41.4305 142.592 44.3914C142.592 47.2904 144.126 49.1818 146.587 49.1818C147.942 49.1818 149.003 48.6161 149.565 47.5732H149.717V49.4116C149.717 50.6401 148.834 51.3649 147.318 51.3649C146.105 51.3649 145.321 50.9318 145.178 50.2513H142.958C143.136 51.9129 144.777 53 147.282 53ZM147.282 47.4406C145.74 47.4406 144.866 46.2563 144.866 44.3825C144.866 42.5176 145.74 41.3333 147.282 41.3333C148.816 41.3333 149.752 42.5176 149.752 44.3914C149.752 46.2563 148.825 47.4406 147.282 47.4406Z" fill="black"/>
<path d="M160.806 46.6805C160.485 47.4053 159.727 47.8119 158.631 47.8119C157.177 47.8119 156.241 46.7866 156.187 45.1515V45.0366H163V44.3384C163 41.3068 161.333 39.4772 158.55 39.4772C155.724 39.4772 153.967 41.4305 153.967 44.5328C153.967 47.6262 155.697 49.5177 158.568 49.5177C160.869 49.5177 162.501 48.4217 162.902 46.6805H160.806ZM158.541 41.183C159.87 41.183 160.744 42.1111 160.789 43.5783H156.196C156.294 42.1288 157.222 41.183 158.541 41.183Z" fill="black"/>
</svg>
