<svg width="200" height="40" viewBox="0 0 200 40" fill="none" xmlns="http://www.w3.org/2000/svg">
<path d="M36.6506 33.1737C36.6506 32.3191 36.6235 30.7285 36.3906 30.3157C36.2917 30.1493 36.0444 30.0517 35.7014 30.0245L35.3569 29.9989C35.2739 29.8996 35.3026 29.722 35.3824 29.666C35.9072 29.6932 36.4161 29.7076 36.9537 29.7076C37.5328 29.7076 37.9029 29.6948 38.4006 29.666C38.5107 29.7364 38.4963 29.914 38.4293 29.9989L38.0975 30.0245C37.7529 30.0533 37.4929 30.1765 37.41 30.3573C37.2185 30.8118 37.2185 32.3992 37.2185 33.1737V34.737C37.2185 35.9372 37.0255 37.2094 36.2534 38.0367C35.6616 38.6863 34.6406 39.0464 33.6228 39.0464C32.6736 39.0464 31.7229 38.8656 31.0497 38.2863C30.3207 37.6782 29.9745 36.6717 29.9745 35.0283V31.7671C29.9745 30.3317 29.9474 30.0949 29.1481 30.0261L28.8068 30.0005C28.7238 29.9428 28.7509 29.7076 28.8323 29.6676C29.5198 29.6948 29.9888 29.7092 30.5392 29.7092C31.1055 29.7092 31.5586 29.6964 32.2318 29.6676C32.3163 29.7092 32.3434 29.9444 32.2605 30.0005L31.9303 30.0261C31.131 30.0965 31.1055 30.3317 31.1055 31.7671V34.7514C31.1055 36.9741 31.7931 38.4367 33.8988 38.4367C35.8961 38.4367 36.6538 36.8637 36.6538 34.7643V33.1737H36.6506Z" fill="white"/>
<path d="M54.6437 36.4765C54.6437 36.891 54.6436 38.5344 54.6851 38.8928C54.658 38.9744 54.5751 39.0464 54.4235 39.0464C54.2592 38.8112 53.8588 38.3264 52.6623 36.9614L49.4671 33.3146C49.0954 32.8857 48.159 31.7528 47.8686 31.4488H47.8415C47.7857 31.6152 47.7713 31.9336 47.7713 32.3449V35.3564C47.7713 36.0061 47.7857 37.8031 48.0202 38.216C48.1031 38.3696 48.3775 38.4512 48.7237 38.4768L49.1496 38.52C49.231 38.6288 49.2182 38.7936 49.1209 38.864C48.5019 38.8384 48.0202 38.824 47.5097 38.824C46.9322 38.824 46.5621 38.8384 46.0772 38.864C45.9814 38.7952 45.9671 38.6048 46.05 38.52L46.4217 38.4768C46.7392 38.4352 46.9609 38.3536 47.0279 38.1999C47.2209 37.7071 47.2082 36.0189 47.2082 35.3548V31.3639C47.2082 30.9783 47.1938 30.6887 46.9035 30.3702C46.7105 30.1766 46.3787 30.0806 46.05 30.039L45.8171 30.0118C45.7326 29.9286 45.7326 29.7206 45.8427 29.6646C46.4217 29.7062 47.1524 29.7062 47.398 29.7062C47.6214 29.7062 47.8543 29.6918 48.0329 29.6646C48.3089 30.3702 49.9345 32.1944 50.3875 32.7049L51.7243 34.2107C52.6751 35.2732 53.3499 36.0493 53.9976 36.7118H54.0231C54.0789 36.643 54.0789 36.4205 54.0789 36.1309V33.1754C54.0789 32.5257 54.0646 30.7319 53.803 30.3174C53.72 30.191 53.4999 30.1062 52.9479 30.0406L52.715 30.0134C52.6193 29.9302 52.6304 29.7078 52.7437 29.6662C53.3754 29.6934 53.8444 29.7078 54.3677 29.7078C54.9595 29.7078 55.3168 29.6934 55.7843 29.6662C55.8943 29.7366 55.8943 29.9302 55.813 30.0134L55.6199 30.0406C55.1797 30.1062 54.9037 30.2198 54.8494 30.3318C54.6149 30.8295 54.6421 32.5401 54.6421 33.1754V36.4765H54.6437Z" fill="white"/>
<path d="M64.8993 31.8072C64.8993 30.343 64.8722 30.1062 64.0586 30.039L63.7141 30.0118C63.6295 29.9542 63.6598 29.7062 63.7412 29.6646C64.4287 29.6934 64.8993 29.7062 65.4768 29.7062C66.0272 29.7062 66.4962 29.695 67.1853 29.6646C67.2667 29.7062 67.2938 29.9558 67.2109 30.0118L66.8679 30.039C66.0559 30.1046 66.0288 30.3414 66.0288 31.8072V36.7246C66.0288 38.1855 66.0575 38.3808 66.8679 38.4768L67.2109 38.52C67.2922 38.5744 67.2651 38.8224 67.1853 38.864C66.4962 38.8384 66.0288 38.8224 65.4768 38.8224C64.8993 38.8224 64.4287 38.8368 63.7412 38.864C63.6598 38.8224 63.6295 38.6032 63.7141 38.52L64.0586 38.4768C64.8722 38.3808 64.8993 38.1855 64.8993 36.7246V31.8072Z" fill="white"/>
<path d="M76.0505 31.1719C75.7347 30.399 75.5273 30.1062 74.9354 30.039L74.6866 30.0118C74.5925 29.927 74.6036 29.735 74.7153 29.6646C75.1141 29.6934 75.5544 29.7062 76.1462 29.7062C76.7524 29.7062 77.2342 29.6918 77.8133 29.6646C77.9106 29.7222 77.9377 29.927 77.842 30.0118L77.6362 30.039C77.113 30.1046 77.0029 30.1894 76.9885 30.2998C77.0157 30.4374 77.2502 31.1863 77.6777 32.2344C78.311 33.8362 78.9459 35.4236 79.6351 36.9998C80.0594 36.0893 80.6385 34.6667 80.9559 33.9322C81.3547 32.9945 82.0024 31.4344 82.2369 30.8391C82.347 30.5495 82.3613 30.3974 82.3613 30.2998C82.3613 30.2038 82.2226 30.0934 81.7424 30.039L81.4935 30.0118C81.3978 29.927 81.4249 29.7206 81.5222 29.6646C81.9083 29.6934 82.4315 29.7062 82.9548 29.7062C83.411 29.7062 83.837 29.6918 84.29 29.6646C84.3873 29.7222 84.3873 29.9398 84.3187 30.0118L83.9055 30.039C83.5753 30.0646 83.3679 30.2342 83.1877 30.5222C82.8032 31.1719 82.2672 32.2921 81.6467 33.6986L80.9033 35.3964C80.3529 36.6686 79.7053 38.2687 79.4708 39.0032C79.4309 39.0288 79.375 39.0416 79.3208 39.0416C79.2522 39.0416 79.1836 39.0272 79.1134 39.0032C78.9603 38.4208 78.7146 37.7471 78.4801 37.1646L76.0505 31.1719Z" fill="white"/>
<path d="M92.6269 31.7816C92.6269 30.343 92.5998 30.1366 91.7878 30.0406L91.5661 30.0118C91.4831 29.9542 91.5118 29.7062 91.5932 29.6646C92.185 29.6934 92.6524 29.7062 93.2171 29.7062H95.8062C96.6884 29.7062 97.502 29.7062 97.6663 29.6646C97.7477 29.9014 97.8306 30.8935 97.8864 31.5032C97.8306 31.588 97.6105 31.6136 97.5419 31.5304C97.3361 30.8823 97.2117 30.3974 96.4938 30.2166C96.2051 30.1478 95.7648 30.1334 95.1586 30.1334H94.1679C93.7563 30.1334 93.7563 30.1606 93.7563 30.6855V33.4474C93.7563 33.8347 93.7978 33.8347 94.2078 33.8347H95.0086C95.5845 33.8347 96.012 33.8075 96.1763 33.7515C96.3438 33.6971 96.4396 33.6139 96.5081 33.2682L96.6198 32.7017C96.6868 32.6185 96.9197 32.6185 96.9756 32.7145C96.9756 33.049 96.9197 33.5866 96.9197 34.1115C96.9197 34.6076 96.9756 35.134 96.9756 35.4349C96.9197 35.5341 96.6852 35.5341 96.6198 35.4493L96.4922 34.9132C96.438 34.6636 96.3438 34.4572 96.0679 34.3867C95.8748 34.3291 95.543 34.3179 95.0086 34.3179H94.2078C93.7962 34.3179 93.7563 34.3291 93.7563 34.6924V36.6382C93.7563 37.3695 93.7978 37.84 94.0148 38.0736C94.1823 38.2384 94.471 38.3904 95.6834 38.3904C96.7442 38.3904 97.1431 38.336 97.4462 38.1824C97.695 38.0464 98.0651 37.5631 98.4224 36.8431C98.5198 36.7758 98.7144 36.8158 98.767 36.9407C98.6713 37.4239 98.3267 38.4865 98.1465 38.8593C96.9086 38.8337 95.6834 38.8177 94.4583 38.8177H93.2171C92.6253 38.8177 92.1579 38.8321 91.3443 38.8593C91.2598 38.8177 91.2358 38.5985 91.3172 38.5153L91.7703 38.4721C92.5551 38.4065 92.6253 38.1952 92.6253 36.7486V31.7816H92.6269Z" fill="white"/>
<path d="M107.549 31.7944C107.549 30.4806 107.507 30.2454 106.944 30.1766L106.502 30.1222C106.406 30.0534 106.406 29.831 106.518 29.7766C107.287 29.7078 108.239 29.6646 109.587 29.6646C110.444 29.6646 111.253 29.735 111.888 30.0806C112.548 30.4262 113.03 31.0471 113.03 32.0168C113.03 33.3274 111.998 34.0458 111.31 34.3227C111.242 34.4043 111.31 34.5451 111.379 34.6555C112.48 36.4365 113.21 37.5423 114.148 38.3279C114.383 38.5344 114.727 38.688 115.097 38.7136C115.168 38.7424 115.179 38.8528 115.11 38.9072C114.987 38.9472 114.766 38.976 114.506 38.976C113.335 38.976 112.633 38.632 111.656 37.2382C111.297 36.7262 110.733 35.7724 110.305 35.1532C110.098 34.8475 109.878 34.7115 109.327 34.7115C108.707 34.7115 108.681 34.7259 108.681 35.0172V36.755C108.681 38.2015 108.707 38.3711 109.508 38.4784L109.795 38.5216C109.878 38.5904 109.852 38.824 109.768 38.8656C109.149 38.84 108.68 38.824 108.129 38.824C107.55 38.824 107.054 38.8384 106.408 38.8656C106.327 38.824 106.298 38.6176 106.381 38.5216L106.724 38.4784C107.523 38.3823 107.55 38.2015 107.55 36.755V31.7944H107.549ZM108.678 33.769C108.678 34.0155 108.678 34.1691 108.718 34.2267C108.759 34.2667 108.967 34.2923 109.669 34.2923C110.165 34.2923 110.688 34.2379 111.087 33.9338C111.457 33.6442 111.774 33.1609 111.774 32.2232C111.774 31.1303 111.103 30.095 109.571 30.095C108.718 30.095 108.678 30.1494 108.678 30.5366V33.769Z" fill="white"/>
<path d="M124.19 39.0449C123.035 39.0449 122.303 38.6865 122.042 38.5329C121.877 38.2288 121.7 37.2479 121.67 36.5998C121.74 36.5006 121.946 36.475 122.003 36.5582C122.208 37.2623 122.772 38.6145 124.371 38.6145C125.526 38.6145 126.094 37.8576 126.094 37.0271C126.094 36.419 125.968 35.7421 124.964 35.094L123.658 34.2379C122.967 33.7803 122.168 32.9946 122.168 31.8632C122.168 30.5495 123.189 29.4854 124.977 29.4854C125.403 29.4854 125.897 29.5686 126.258 29.663C126.437 29.7206 126.628 29.7462 126.74 29.7462C126.862 30.079 126.987 30.8519 126.987 31.4344C126.933 31.516 126.711 31.5576 126.644 31.4744C126.464 30.8103 126.094 29.911 124.77 29.911C123.422 29.911 123.131 30.8087 123.131 31.4456C123.131 32.2489 123.793 32.8266 124.302 33.1418L125.404 33.8347C126.272 34.3723 127.127 35.1724 127.127 36.4846C127.126 38.008 125.982 39.0449 124.19 39.0449Z" fill="white"/>
<path d="M136.483 31.8072C136.483 30.343 136.458 30.1062 135.644 30.039L135.301 30.0118C135.217 29.9542 135.247 29.7062 135.328 29.6646C136.017 29.6934 136.483 29.7062 137.061 29.7062C137.614 29.7062 138.08 29.695 138.772 29.6646C138.855 29.7062 138.881 29.9558 138.798 30.0118L138.452 30.039C137.641 30.1046 137.614 30.3414 137.614 31.8072V36.7246C137.614 38.1855 137.641 38.3808 138.452 38.4768L138.798 38.52C138.881 38.5744 138.854 38.8224 138.772 38.864C138.08 38.8384 137.614 38.8224 137.061 38.8224C136.483 38.8224 136.017 38.8368 135.328 38.864C135.247 38.8224 135.217 38.6032 135.301 38.52L135.644 38.4768C136.459 38.3808 136.483 38.1855 136.483 36.7246V31.8072Z" fill="white"/>
<path d="M151.772 36.7536C151.772 38.2002 151.798 38.4098 152.596 38.477L153.039 38.5202C153.122 38.5746 153.092 38.8242 153.01 38.8658C152.225 38.8386 151.756 38.8242 151.206 38.8242C150.654 38.8242 150.175 38.8386 149.292 38.8658C149.209 38.8242 149.185 38.589 149.292 38.5202L149.789 38.477C150.574 38.4098 150.641 38.2002 150.641 36.7536V30.5768C150.641 30.1479 150.641 30.1367 150.228 30.1367H149.472C148.88 30.1367 148.124 30.1639 147.776 30.4808C147.448 30.7864 147.309 31.0888 147.157 31.4361C147.049 31.5161 146.853 31.4473 146.798 31.3385C147.022 30.716 147.226 29.8295 147.322 29.279C147.365 29.255 147.543 29.239 147.583 29.279C147.666 29.7223 148.122 29.7063 148.754 29.7063H154.333C155.076 29.7063 155.199 29.6807 155.405 29.3206C155.475 29.295 155.626 29.3078 155.652 29.3606C155.499 29.9271 155.405 31.0456 155.446 31.4617C155.392 31.5721 155.157 31.5721 155.087 31.4873C155.046 31.1432 154.949 30.6312 154.746 30.4792C154.428 30.2439 153.905 30.1351 153.146 30.1351H152.17C151.756 30.1351 151.772 30.1463 151.772 30.604V36.7536Z" fill="white"/>
<path d="M167.465 36.7246C167.465 38.1999 167.546 38.4224 168.291 38.4768L168.816 38.52C168.897 38.6048 168.87 38.8224 168.787 38.864C167.934 38.8384 167.465 38.8224 166.914 38.8224C166.334 38.8224 165.841 38.8368 165.11 38.864C165.027 38.8224 164.997 38.6032 165.08 38.52L165.509 38.4768C166.308 38.3936 166.332 38.1999 166.332 36.7246V36.0189C166.332 35.2604 166.291 35.0812 165.894 34.3083L164.27 31.1287C163.799 30.2182 163.595 30.1494 163.18 30.0806L162.796 30.0118C162.713 29.9126 162.727 29.7206 162.823 29.6646C163.265 29.6918 163.761 29.7062 164.421 29.7062C165.053 29.7062 165.547 29.6918 165.894 29.6646C166.016 29.7062 166.016 29.927 165.935 30.0118L165.758 30.039C165.275 30.1078 165.176 30.175 165.176 30.287C165.176 30.4246 165.535 31.2119 165.603 31.3527C166.112 32.3721 166.623 33.4634 167.16 34.4203C167.584 33.6858 168.041 32.8841 168.454 32.084C168.84 31.3639 169.347 30.4246 169.347 30.2582C169.347 30.175 169.102 30.0806 168.771 30.039L168.523 30.0118C168.427 29.9126 168.443 29.7206 168.551 29.6646C169.046 29.6918 169.446 29.7062 169.874 29.7062C170.3 29.7062 170.686 29.6918 171.153 29.6646C171.265 29.7366 171.278 29.927 171.183 30.0118L170.797 30.0806C170.081 30.2054 169.666 31.0759 168.979 32.2649L168.114 33.769C167.505 34.8204 167.465 34.9436 167.465 36.0061V36.7246Z" fill="white"/>
<path d="M5.72057 4.9174C5.72057 1.39855 5.40312 1.0161 3.53986 0.857681L2.74862 0.795275C2.55719 0.668859 2.62259 0.0991859 2.81083 0.00317383C4.64537 0.0655817 5.71898 0.0991869 7.04623 0.0991869C8.31126 0.0991869 9.38646 0.0655817 10.6499 0.00317383C10.8397 0.0991859 10.9035 0.668859 10.7121 0.795275L10.2399 0.857681C8.37507 1.11371 8.30967 1.55697 8.30967 4.9174V16.6805C8.30967 19.1848 8.18364 21.3723 7.58542 22.83C6.54053 25.3696 4.29601 27.3986 1.35915 27.3986C0.977889 27.3986 0 27.3666 0 26.7313C0 26.1953 0.472195 25.2736 1.13582 25.2736C1.51549 25.2736 1.89516 25.336 2.30673 25.4624C2.74862 25.592 3.1921 25.6864 3.63398 25.6864C4.29761 25.6864 4.67728 25.3072 4.89902 24.8623C5.62486 23.3725 5.72057 18.6135 5.72057 16.9045V4.9174Z" fill="white"/>
<path d="M10.6467 12.3839C10.6467 7.03447 14.6492 2.94116 20.1401 2.94116C26.3009 2.94116 29.3957 7.40892 29.3957 12.1183C29.3957 17.5206 25.2896 21.4539 20.1401 21.4539C14.2217 21.4539 10.6467 17.1989 10.6467 12.3839ZM26.7285 12.9456C26.7285 8.53225 24.7807 3.77167 19.6886 3.77167C16.9145 3.77167 13.3156 5.6711 13.3156 11.5294C13.3156 15.4851 15.2347 20.625 20.4894 20.625C23.6879 20.6234 26.7285 18.2167 26.7285 12.9456Z" fill="white"/>
<path d="M35.4529 12.3854C34.1735 12.3854 34.1193 12.4398 34.1193 13.2415V17.0132C34.1193 19.8216 34.2533 20.196 35.7448 20.3576L36.5185 20.4392C36.6781 20.5432 36.6254 21.0265 36.4643 21.1049C35.0238 21.0505 34.1177 21.0265 33.076 21.0265C31.9306 21.0265 31.0261 21.0809 29.9844 21.1049C29.8233 21.0265 29.7722 20.5961 29.9317 20.4392L30.3832 20.3576C31.8748 20.0904 31.9306 19.8216 31.9306 17.0132V7.38321C31.9306 4.57486 31.7455 4.1204 30.3561 4.01319L29.6621 3.96039C29.5042 3.85317 29.5584 3.36991 29.7164 3.2915C31.0245 3.31711 31.9306 3.36991 33.0744 3.36991C34.1161 3.36991 35.0206 3.34431 36.1676 3.2915C36.3287 3.36991 36.3829 3.85317 36.2202 3.96039L35.7161 4.01319C34.1703 4.17481 34.1161 4.57486 34.1161 7.38321V10.4588C34.1161 11.2877 34.1703 11.3149 35.4497 11.3149H43.0766C44.356 11.3149 44.4103 11.2877 44.4103 10.4588V7.38321C44.4103 4.57486 44.356 4.17481 42.7847 4.01319L42.2774 3.96039C42.1163 3.85317 42.1705 3.36991 42.3316 3.2915C43.5568 3.34591 44.4629 3.36991 45.5588 3.36991C46.5957 3.36991 47.505 3.34431 48.7047 3.2915C48.861 3.36991 48.9168 3.85317 48.7589 3.96039L48.1974 4.01319C46.65 4.17481 46.5957 4.57486 46.5957 7.38321V17.0132C46.5957 19.8216 46.65 20.1704 48.1974 20.3576L48.8355 20.4392C48.9966 20.5432 48.944 21.0265 48.7844 21.1049C47.505 21.0505 46.5957 21.0265 45.5588 21.0265C44.4629 21.0265 43.5041 21.0521 42.3316 21.1049C42.1705 21.0265 42.1179 20.5961 42.2774 20.4392L42.7847 20.3576C44.4103 20.0904 44.4103 19.8216 44.4103 17.0132V13.2415C44.4103 12.4398 44.356 12.3854 43.0766 12.3854H35.4529Z" fill="white"/>
<path d="M67.0548 16.4758C67.0548 17.2791 67.0548 20.4619 67.1329 21.158C67.0819 21.318 66.9224 21.4525 66.6304 21.4525C66.3082 20.9996 65.5345 20.0619 63.2134 17.4151L57.0286 10.3519C56.3108 9.52296 54.4938 7.32908 53.9354 6.74021H53.8812C53.7743 7.06185 53.7488 7.67633 53.7488 8.47803V14.3108C53.7488 15.5653 53.7743 19.0442 54.229 19.8458C54.3901 20.1403 54.9229 20.3035 55.5897 20.3547L56.4144 20.4363C56.5772 20.6492 56.5484 20.9708 56.3618 21.102C55.1622 21.0476 54.2289 21.022 53.2399 21.022C52.1232 21.022 51.4038 21.0476 50.4657 21.102C50.2791 20.9692 50.2536 20.5947 50.4147 20.4363L51.1358 20.3547C51.7499 20.2747 52.1743 20.1163 52.3099 19.8202C52.6816 18.8569 52.656 15.5941 52.656 14.3108V6.57859C52.656 5.82969 52.6289 5.26802 52.069 4.65355C51.6957 4.2791 51.0576 4.09188 50.4163 4.01027L49.9648 3.95906C49.8053 3.79744 49.8053 3.39739 50.0175 3.28857C51.1374 3.36698 52.5523 3.36699 53.0309 3.36699C53.4584 3.36699 53.9131 3.34298 54.2593 3.28857C54.7921 4.65355 57.9395 8.18519 58.8169 9.17252L61.406 12.0881C63.2453 14.1475 64.5518 15.6469 65.8057 16.9303H65.8599C65.9652 16.7975 65.9652 16.3686 65.9652 15.8069V10.083C65.9652 8.82687 65.9381 5.34964 65.4324 4.54794C65.2729 4.30471 64.847 4.14628 63.7797 4.01187L63.3283 3.96066C63.1416 3.79904 63.1671 3.36859 63.3793 3.29018C64.6077 3.34298 65.5138 3.36858 66.5268 3.36858C67.6737 3.36858 68.3677 3.34458 69.2738 3.29018C69.4875 3.42299 69.4875 3.79904 69.328 3.96066L68.9531 4.01187C68.1013 4.14628 67.5669 4.36071 67.4584 4.57354C67.0085 5.53846 67.0612 8.85407 67.0612 10.0846V16.4758H67.0548Z" fill="white"/>
<path d="M74.1044 21.4522C71.863 21.4522 70.4497 20.7577 69.9424 20.4617C69.6249 19.8728 69.2771 17.975 69.2229 16.7172C69.3585 16.5284 69.7573 16.474 69.8642 16.6372C70.263 18.0006 71.3574 20.6233 74.4505 20.6233C76.6919 20.6233 77.7862 19.1527 77.7862 17.5445C77.7862 16.3684 77.5469 15.0578 75.5975 13.8033L73.0627 12.1423C71.729 11.259 70.1848 9.73399 70.1848 7.54172C70.1848 4.99901 72.1566 2.94116 75.623 2.94116C76.451 2.94116 77.4113 3.10118 78.1037 3.2884C78.4498 3.39561 78.8231 3.45002 79.0353 3.45002C79.2762 4.0917 79.5171 5.58949 79.5171 6.71282C79.4118 6.87284 78.9842 6.94965 78.8486 6.79283C78.5041 5.50788 77.7846 3.77006 75.2226 3.77006C72.6112 3.77006 72.0497 5.50787 72.0497 6.73842C72.0497 8.28901 73.3323 9.41235 74.3165 10.03L76.451 11.3646C78.1324 12.4095 79.7851 13.9601 79.7851 16.5012C79.7819 19.4456 77.5693 21.4522 74.1044 21.4522Z" fill="white"/>
<path d="M95.6098 10.7837C94.0911 10.7837 94.0273 10.8461 94.0273 11.7982V16.2692C94.0273 19.5976 94.1868 20.0425 95.956 20.2329L96.8732 20.3273C97.0631 20.4553 96.9993 21.025 96.811 21.1194C95.1057 21.0554 94.0273 21.0234 92.7958 21.0234C91.4366 21.0234 90.3614 21.0874 89.1315 21.1194C88.94 21.0234 88.8762 20.5177 89.0677 20.3273L89.6053 20.2329C91.3744 19.916 91.4382 19.5976 91.4382 16.2692V4.85339C91.4382 1.52338 91.2149 0.985718 89.5734 0.857703L88.7502 0.793696C88.562 0.66728 88.6226 0.0960118 88.814 0C90.3614 0.0320039 91.4382 0.0960127 92.7974 0.0960127C94.0289 0.0960127 95.1057 0.0640078 96.4633 0C96.6531 0.0960118 96.7169 0.66728 96.5255 0.793696L95.9257 0.857703C94.0927 1.04973 94.0289 1.52178 94.0289 4.85339V8.50024C94.0289 9.48276 94.0927 9.51156 95.6114 9.51156H104.652C106.17 9.51156 106.231 9.48276 106.231 8.50024V4.85339C106.231 1.52338 106.169 1.04973 104.302 0.857703L103.703 0.793696C103.513 0.66728 103.576 0.0960118 103.766 0C105.218 0.0640078 106.293 0.0960127 107.59 0.0960127C108.822 0.0960127 109.897 0.0640078 111.32 0C111.508 0.0960118 111.572 0.66728 111.38 0.793696L110.718 0.857703C108.885 1.04973 108.822 1.52178 108.822 4.85339V16.2692C108.822 19.5976 108.885 20.0088 110.718 20.2329L111.476 20.3273C111.666 20.4553 111.602 21.025 111.412 21.1194C109.897 21.0554 108.822 21.0234 107.59 21.0234C106.293 21.0234 105.156 21.0554 103.766 21.1194C103.575 21.0234 103.513 20.5177 103.703 20.3273L104.302 20.2329C106.231 19.916 106.231 19.5976 106.231 16.2692V11.7982C106.231 10.8477 106.169 10.7837 104.652 10.7837H95.6098Z" fill="white"/>
<path d="M111.277 12.3839C111.277 7.03447 115.278 2.94116 120.77 2.94116C126.929 2.94116 130.023 7.40892 130.023 12.1183C130.023 17.5206 125.916 21.4539 120.77 21.4539C114.85 21.4539 111.277 17.1989 111.277 12.3839ZM127.359 12.9456C127.359 8.53225 125.412 3.77167 120.319 3.77167C117.546 3.77167 113.946 5.6711 113.946 11.5294C113.946 15.4851 115.865 20.625 121.118 20.625C124.32 20.6234 127.359 18.2167 127.359 12.9456Z" fill="white"/>
<path d="M134.851 17.0119C134.851 19.8219 134.906 20.1675 136.609 20.3547L137.332 20.4348C137.491 20.5676 137.439 21.0236 137.278 21.1036C135.757 21.0492 134.878 21.0236 133.81 21.0236C132.69 21.0236 131.731 21.0476 130.557 21.1036C130.397 21.0236 130.343 20.5948 130.504 20.4348L131.063 20.3547C132.61 20.1419 132.663 19.8203 132.663 17.0119V7.14187C132.663 4.86798 132.61 4.41192 131.41 4.2791L130.45 4.17349C130.263 4.01187 130.29 3.61182 130.504 3.5046C131.916 3.31738 133.57 3.28857 135.783 3.28857C137.996 3.28857 139.65 3.58301 140.902 4.36071C142.127 5.13681 143.035 6.52739 143.035 8.37082C143.035 10.8319 141.516 12.0625 140.369 12.6242C139.195 13.1858 137.783 13.4275 136.689 13.4275C136.504 13.3475 136.504 12.9458 136.662 12.893C139.543 12.3569 140.581 10.7247 140.581 8.39642C140.581 5.8009 139.063 4.11908 136.29 4.11908C134.878 4.11908 134.85 4.22469 134.85 5.084V17.0119H134.851Z" fill="white"/>
<path d="M145.946 7.38029C145.946 4.57354 145.892 4.14469 144.345 4.01187L143.678 3.95906C143.517 3.85025 143.571 3.36698 143.731 3.28857C145.037 3.34298 145.892 3.36699 147.092 3.36699C148.132 3.36699 149.04 3.34298 150.187 3.28857C150.346 3.36698 150.399 3.85025 150.239 3.95906L149.735 4.01187C148.186 4.17349 148.134 4.57354 148.134 7.38029V10.4591C148.134 10.9663 148.186 11.4768 148.481 11.4768C148.721 11.4768 149.041 11.3152 149.226 11.1792C149.6 10.8591 150.295 10.163 150.587 9.89581L153.465 7.03465C153.972 6.55459 155.28 5.18802 155.545 4.81197C155.679 4.62635 155.733 4.49193 155.733 4.38471C155.733 4.2791 155.626 4.19909 155.28 4.11748L154.561 3.95906C154.373 3.77184 154.4 3.42299 154.613 3.28857C155.545 3.34298 156.612 3.36699 157.547 3.36699C158.48 3.36699 159.385 3.34298 160.186 3.28857C160.372 3.42299 160.398 3.79744 160.24 3.95906C159.546 4.01187 158.507 4.2791 157.759 4.70636C157.014 5.13521 155.52 6.38977 154.026 7.81075L151.626 10.083C151.252 10.4591 151.013 10.6975 151.013 10.9135C151.013 11.0992 151.174 11.3152 151.52 11.7408C154.054 14.6564 156.107 17.0647 158.187 19.257C158.827 19.9003 159.415 20.2491 160.321 20.3563L161.039 20.4379C161.227 20.5692 161.173 21.0236 160.985 21.1052C160.293 21.0508 159.251 21.0236 157.999 21.0236C156.906 21.0236 155.971 21.0492 154.744 21.1052C154.559 21.0508 154.478 20.5964 154.637 20.4379L155.25 20.3275C155.623 20.2747 155.89 20.1931 155.89 20.0635C155.89 19.9003 155.703 19.6874 155.516 19.4442C155.009 18.8025 154.317 18.0824 153.304 16.9319L151.171 14.5236C149.651 12.813 149.225 12.2769 148.583 12.2769C148.183 12.2769 148.129 12.6242 148.129 13.5619V17.0119C148.129 19.8187 148.181 20.1931 149.676 20.3563L150.396 20.4379C150.554 20.5436 150.504 21.0236 150.343 21.1052C149.038 21.0508 148.129 21.0236 147.089 21.0236C145.996 21.0236 145.088 21.0492 143.997 21.1052C143.838 21.0236 143.782 20.6252 143.943 20.4379L144.476 20.3563C145.889 20.1419 145.945 19.8203 145.945 17.0119V7.38029H145.946Z" fill="white"/>
<path d="M164.249 7.4347C164.249 4.59754 164.195 4.14469 162.622 4.01187L161.955 3.95906C161.794 3.85025 161.848 3.36858 162.007 3.28857C163.341 3.34298 164.247 3.36858 165.367 3.36858C166.433 3.36858 167.34 3.34138 168.674 3.28857C168.835 3.36858 168.886 3.85185 168.727 3.95906L168.06 4.01187C166.487 4.14629 166.433 4.59754 166.433 7.4347V16.9559C166.433 19.7931 166.487 20.1675 168.06 20.3547L168.727 20.4348C168.886 20.542 168.834 21.022 168.674 21.1036C167.34 21.0492 166.433 21.022 165.367 21.022C164.247 21.022 163.341 21.0492 162.007 21.1036C161.848 21.022 161.792 20.5948 161.955 20.4348L162.622 20.3547C164.195 20.1675 164.249 19.7931 164.249 16.9559V7.4347Z" fill="white"/>
<path d="M187.316 16.4758C187.316 17.2791 187.316 20.4619 187.397 21.158C187.343 21.318 187.185 21.4525 186.892 21.4525C186.573 20.9996 185.799 20.0619 183.48 17.4151L177.293 10.3519C176.572 9.52296 174.758 7.32908 174.198 6.74021H174.146C174.039 7.06185 174.01 7.67633 174.01 8.47803V14.3108C174.01 15.5653 174.039 19.0442 174.492 19.8458C174.653 20.1403 175.184 20.3035 175.853 20.3547L176.677 20.4363C176.838 20.6492 176.811 20.9708 176.625 21.102C175.425 21.0476 174.492 21.022 173.503 21.022C172.385 21.022 171.663 21.0476 170.73 21.102C170.545 20.9692 170.518 20.5947 170.676 20.4363L171.397 20.3547C172.01 20.2747 172.436 20.1163 172.57 19.8202C172.943 18.8569 172.917 15.5941 172.917 14.3108V6.57859C172.917 5.82969 172.892 5.26802 172.332 4.65355C171.957 4.2791 171.317 4.09188 170.676 4.01027L170.223 3.95906C170.063 3.79744 170.063 3.39739 170.277 3.28857C171.397 3.36698 172.809 3.36699 173.291 3.36699C173.717 3.36699 174.17 3.34298 174.516 3.28857C175.052 4.65355 178.198 8.18519 179.075 9.17252L181.664 12.0881C183.503 14.1475 184.81 15.6469 186.062 16.9303H186.116C186.223 16.7975 186.223 16.3686 186.223 15.8069V10.083C186.223 8.82687 186.195 5.34964 185.691 4.54794C185.531 4.30471 185.103 4.14628 184.038 4.01187L183.585 3.96066C183.397 3.79904 183.424 3.36859 183.636 3.29018C184.864 3.34298 185.77 3.36858 186.783 3.36858C187.93 3.36858 188.624 3.34458 189.53 3.29018C189.744 3.42299 189.744 3.79904 189.585 3.96066L189.211 4.01187C188.358 4.14628 187.823 4.36071 187.715 4.57354C187.263 5.53846 187.314 8.85407 187.314 10.0846V16.4758H187.316Z" fill="white"/>
<path d="M194.319 21.4521C192.08 21.4521 190.666 20.7576 190.159 20.4616C189.838 19.8727 189.492 17.9749 189.439 16.7171C189.573 16.5283 189.975 16.4739 190.078 16.6371C190.48 18.0005 191.574 20.6232 194.665 20.6232C196.907 20.6232 198 19.1526 198 17.5444C198 16.3683 197.759 15.0577 195.811 13.8032L193.279 12.1438C191.946 11.2604 190.398 9.73546 190.398 7.54319C190.398 5.00048 192.373 2.94263 195.84 2.94263C196.666 2.94263 197.625 3.10264 198.319 3.28987C198.665 3.39708 199.04 3.45149 199.252 3.45149C199.493 4.09317 199.732 5.59095 199.732 6.71428C199.625 6.8743 199.199 6.95111 199.064 6.79429C198.717 5.50934 197.998 3.77153 195.439 3.77153C192.826 3.77153 192.265 5.50934 192.265 6.73989C192.265 8.29048 193.546 9.41382 194.531 10.0315L196.666 11.3661C198.347 12.411 200 13.9616 200 16.5027C200 19.4454 197.786 21.4521 194.319 21.4521Z" fill="white"/>
</svg>
