<svg width="200" height="59" viewBox="0 0 200 59" fill="none" xmlns="http://www.w3.org/2000/svg">
<path d="M16.3013 45.6632C16.3013 45.9671 16.4359 45.7476 16.5201 45.6632C17.8492 44.1773 18.9092 43.8903 19.9692 43.8903C20.7263 43.8903 21.4162 44.1604 21.7863 44.6332C22.2911 45.3086 22.3752 46.3723 22.3752 47.5711V50.8467C22.3752 52.6365 22.6107 52.7378 23.839 52.8391C23.9568 52.9742 23.9568 53.43 23.839 53.5651C22.8968 53.5482 22.4257 53.5313 21.5171 53.5313C20.6422 53.5313 20.2048 53.5482 19.2794 53.5651C19.1616 53.43 19.1616 52.9742 19.2794 52.8391C20.4235 52.7378 20.6422 52.6365 20.6422 50.8467V47.5036C20.6422 46.8451 20.5917 46.2541 20.373 45.8151C20.1206 45.3086 19.6664 45.0216 19.2121 45.0216C18.354 45.0216 17.5127 45.4943 16.6715 46.3217C16.5032 46.5074 16.3013 46.7775 16.3013 47.2503V50.8467C16.3013 52.6702 16.5032 52.7547 17.6137 52.8391C17.7483 52.9742 17.7483 53.43 17.6137 53.5651C16.6883 53.5482 16.3013 53.5313 15.4601 53.5313C14.5179 53.5313 13.9626 53.5482 13.0541 53.5651C12.9195 53.43 12.9195 52.9742 13.0541 52.8391C14.316 52.7547 14.5852 52.6702 14.5852 50.8467V41.2563C14.5852 40.7498 14.5852 40.2432 13.0541 40.2432H10.2779C9.48717 40.2432 9.26844 40.6316 9.26844 41.3914V50.8467C9.26844 52.6702 9.63859 52.7884 11.3884 52.8391C11.523 52.9742 11.523 53.43 11.3884 53.5651C10.2948 53.5482 9.52082 53.5313 8.34306 53.5313C7.13166 53.5313 6.3577 53.5482 5.28089 53.5651C5.14629 53.43 5.14629 52.9742 5.28089 52.8391C7.0307 52.7716 7.40086 52.6702 7.40086 50.8467V41.3238C7.40086 40.6485 7.18213 40.2432 6.39135 40.2432H4.57424C3.36283 40.2432 3.09363 40.4965 2.65618 42.2525L2 42.1512C2.2692 40.9861 2.38698 39.838 2.48793 38.7743L3.07681 38.8587C3.07681 38.9938 3.07681 39.3652 3.53108 39.3652H12.2297C14.0804 39.3652 14.3496 39.1964 16.1163 38.2002C16.2845 38.2002 16.3855 38.2677 16.3855 38.4197C16.3855 38.4197 16.3182 39.1964 16.3182 40.6147L16.3013 45.6632Z" fill="white"/>
<path d="M32.9752 51.8258C32.1003 52.974 30.9225 53.7338 29.2569 53.7338C27.6753 53.7338 26.649 53.2103 25.9087 52.3323C25.1852 51.505 24.8823 50.3062 24.8823 49.0905C24.8823 45.7474 27.3556 43.9238 29.2569 43.9238C32.3022 43.9238 32.9584 45.8993 32.9584 47.7397C32.9584 47.9761 32.807 48.1112 32.5378 48.1112L26.7163 48.0774C26.7163 49.3438 26.9855 50.3568 27.4229 51.0829C28.0959 52.1973 29.0213 52.67 29.8121 52.67C31.074 52.67 31.7133 52.3155 32.5209 51.4881C32.7901 51.505 32.9247 51.6232 32.9752 51.8258ZM30.7543 47.267C30.9898 47.267 31.074 47.1657 31.074 46.9631C31.074 45.1226 30.0981 44.6668 29.2569 44.6668C28.7353 44.6668 27.2042 44.8694 26.7836 47.3514L30.7543 47.267Z" fill="white"/>
<path d="M42.0773 46.4398V50.8466C42.0773 52.6701 42.4474 52.7883 43.9785 52.839C44.1131 52.9741 44.1131 53.4299 43.9785 53.565C42.8849 53.5481 42.2455 53.5312 41.1519 53.5312C40.0415 53.5312 39.3853 53.5481 38.3085 53.565C38.1739 53.4299 38.1739 52.9741 38.3085 52.839C39.8396 52.7714 40.2097 52.6701 40.2097 50.8466V42.0498C40.2097 40.2263 39.8396 40.1081 38.3085 40.0574C38.1739 39.9224 38.1739 39.4665 38.3085 39.3314C39.4021 39.3483 41.1351 39.3652 41.1351 39.3652H46.721C47.2426 39.3652 47.3604 39.3483 47.7474 39.2808C47.7978 39.2808 47.8315 39.2976 47.8315 39.3483C47.8651 39.5171 48.1848 41.6277 48.3026 42.5226L47.6296 42.6408C47.1416 41.1212 46.8051 40.2432 45.1563 40.2432H42.8512C42.3297 40.2432 42.0605 40.4627 42.0605 40.9861V45.5955H44.0963C45.9471 45.5955 46.0144 45.3085 46.0817 44.1097C46.2163 43.9746 46.6705 43.9746 46.8051 44.1097C46.7883 44.7682 46.7547 45.2579 46.7547 46.0008C46.7547 46.7437 46.7715 47.1658 46.8051 47.9256C46.6705 48.0607 46.2163 48.0607 46.0817 47.9256C46.0144 46.9294 45.9471 46.4398 44.0963 46.4398H42.0773C42.0773 46.4229 42.0773 46.4398 42.0773 46.4398Z" fill="white"/>
<path d="M49.2111 45.0725C49.127 44.9374 49.127 44.5828 49.1606 44.4646C50.6749 44.262 51.5498 44.0763 52.1555 43.823C52.3237 43.823 52.4415 43.8905 52.4415 43.975C52.4415 43.975 52.3406 45.0218 52.3406 45.7309C52.3406 45.8323 52.4079 45.9504 52.5425 45.7141C53.0472 44.8529 53.939 43.8905 54.9653 43.8905C55.8907 43.8905 56.2776 44.5321 56.2776 44.9374C56.2776 45.4946 55.7729 46.0349 55.2513 46.0349C54.797 46.0349 54.5783 45.6128 54.3596 45.3933C54.225 45.2582 54.0567 45.2413 53.9053 45.2413C53.6361 45.2413 53.1314 45.9673 52.8958 46.3219C52.6266 46.7102 52.3742 47.2168 52.3742 47.7909V50.847C52.3742 52.6705 52.6434 52.738 54.1745 52.8393C54.3091 52.9744 54.3091 53.4303 54.1745 53.5654C53.2323 53.5485 52.4247 53.5316 51.533 53.5316C50.6581 53.5316 49.9514 53.5485 49.0428 53.5654C48.9082 53.4303 48.9082 52.9744 49.0428 52.8393C50.4057 52.7549 50.6581 52.6705 50.6581 50.847V46.5752C50.6244 45.3595 50.3889 45.1906 49.2111 45.0725Z" fill="white"/>
<path d="M65.212 51.8258C64.3371 52.974 63.1594 53.7338 61.4937 53.7338C59.9121 53.7338 58.8858 53.2103 58.1455 52.3323C57.422 51.505 57.1191 50.3062 57.1191 49.0905C57.1191 45.7474 59.5924 43.9238 61.4937 43.9238C64.539 43.9238 65.1952 45.8993 65.1952 47.7397C65.1952 47.9761 65.0438 48.1112 64.7746 48.1112L58.9531 48.0774C58.9531 49.3438 59.2223 50.3568 59.6597 51.0829C60.3327 52.1973 61.2581 52.67 62.0489 52.67C63.3108 52.67 63.9501 52.3155 64.7577 51.4881C65.0269 51.505 65.1447 51.6232 65.212 51.8258ZM62.9911 47.267C63.2267 47.267 63.3108 47.1657 63.3108 46.9631C63.3108 45.1226 62.3349 44.6668 61.4937 44.6668C60.9721 44.6668 59.441 44.8694 59.0204 47.3514L62.9911 47.267Z" fill="white"/>
<path d="M75.0546 51.8258C74.1797 52.974 73.0019 53.7338 71.3362 53.7338C69.7546 53.7338 68.7283 53.2103 67.988 52.3323C67.2645 51.505 66.9617 50.3062 66.9617 49.0905C66.9617 45.7474 69.435 43.9238 71.3362 43.9238C74.3816 43.9238 75.0377 45.8993 75.0377 47.7397C75.0377 47.9761 74.8863 48.1112 74.6171 48.1112L68.7956 48.0774C68.7956 49.3438 69.0648 50.3568 69.5023 51.0829C70.1753 52.1973 71.1007 52.67 71.8914 52.67C73.1533 52.67 73.7927 52.3155 74.6003 51.4881C74.8695 51.505 74.9873 51.6232 75.0546 51.8258ZM72.8336 47.267C73.0692 47.267 73.1533 47.1657 73.1533 46.9631C73.1533 45.1226 72.1775 44.6668 71.3362 44.6668C70.8146 44.6668 69.2835 44.8694 68.8629 47.3514L72.8336 47.267Z" fill="white"/>
<path d="M88.1445 44.1097C88.2791 43.9746 88.7334 43.9746 88.868 44.1097C88.8511 44.7682 88.8175 45.2578 88.8175 46.0007C88.8175 46.7437 88.8343 47.1658 88.868 47.9424C88.7334 48.0775 88.2791 48.0775 88.1445 47.9424C88.0772 46.9463 88.0099 46.4566 86.1591 46.4566H84.1738V51.7414C84.1738 52.3324 84.4766 52.687 84.9645 52.687H87.9426C89.6083 52.687 90.3654 51.3869 90.8029 49.8166C91.0889 49.7491 91.3413 49.7997 91.5768 49.9179C91.4086 51.0323 91.0721 52.4844 90.7692 53.5818C90.7692 53.5818 89.0194 53.5481 87.9762 53.5481H83.2652C83.2652 53.5481 81.4986 53.565 80.4218 53.5818C80.2872 53.4468 80.2872 52.9909 80.4218 52.8558C81.9528 52.7883 82.323 52.687 82.323 50.8634V42.0667C82.323 40.2431 81.9528 40.1249 80.4218 40.0743C80.2872 39.9392 80.2872 39.4833 80.4218 39.3483C81.5154 39.3651 83.2484 39.382 83.2484 39.382H88.8175C89.3391 39.382 89.5241 39.3651 89.8943 39.2976C89.9616 39.2976 89.9784 39.3145 89.9784 39.3651C90.0289 39.534 90.3486 41.6445 90.4664 42.5394C90.2476 42.6407 90.0121 42.6914 89.7429 42.6576C89.2549 41.138 88.9184 40.26 87.2696 40.26H84.9645C84.443 40.26 84.1738 40.699 84.1738 41.2224V45.6124H86.1591C88.0099 45.5955 88.0772 45.3085 88.1445 44.1097Z" fill="white"/>
<path d="M99.5688 43.8905C100.343 43.8905 101.016 44.1607 101.386 44.6334C101.891 45.3088 101.975 46.3726 101.975 47.5714V50.847C101.975 52.6367 102.21 52.738 103.439 52.8393C103.54 52.9744 103.54 53.4303 103.439 53.5654C102.496 53.5485 102.008 53.5316 101.117 53.5316C100.242 53.5316 99.8043 53.5485 98.879 53.5654C98.7612 53.4303 98.7612 52.9744 98.879 52.8393C100.023 52.738 100.242 52.6367 100.242 50.847V47.5038C100.242 46.8453 100.191 46.2544 99.9726 45.8154C99.7034 45.3088 99.2491 45.0218 98.8117 45.0218C97.9536 45.0218 97.1123 45.4946 96.2711 46.3219C96.1028 46.5245 95.9009 46.7778 95.9009 47.2505V50.847C95.9009 52.6367 96.1028 52.738 97.2133 52.8393C97.3479 52.9744 97.3479 53.4303 97.2133 53.5654C96.2879 53.5485 95.9009 53.5316 95.0428 53.5316C94.1006 53.5316 93.5286 53.5485 92.6368 53.5654C92.5022 53.4303 92.5022 52.9744 92.6368 52.8393C93.9492 52.738 94.1679 52.6367 94.1679 50.847V46.5583C94.1679 45.2919 93.9324 45.1738 92.7378 45.0725C92.6873 44.9374 92.6537 44.5828 92.6873 44.4646C94.2016 44.262 95.0933 44.0763 95.699 43.823C95.8673 43.823 95.9682 43.8905 95.9682 43.9918C95.9682 43.9918 95.8504 45.0049 95.8504 45.6634C95.8504 45.9673 96.0019 45.7478 96.0692 45.6634C97.4488 44.1776 98.5088 43.8905 99.5688 43.8905Z" fill="white"/>
<path d="M108.873 53.7507C106.114 53.7507 104.549 51.7921 104.549 48.9723C104.549 45.8487 106.871 43.907 109.041 43.907C111.144 43.907 112.389 44.785 112.389 45.9838C112.389 46.6592 111.784 46.9462 111.313 46.9462C110.841 46.9462 110.555 46.7436 110.488 46.1526C110.404 45.3759 110.219 44.6161 108.94 44.6161C107.493 44.6161 106.45 46.0682 106.45 48.4827C106.45 51.0492 107.779 52.6701 109.378 52.6701C110.32 52.6701 111.262 52.1804 112.002 51.218C112.204 51.2349 112.373 51.3193 112.457 51.5219C111.346 53.3286 110.185 53.7507 108.873 53.7507Z" fill="white"/>
<path d="M115.334 58.6136C114.745 58.6136 114.308 58.259 114.308 57.8031C114.308 57.5161 114.627 56.8576 115.267 56.8576C115.502 56.8576 115.586 56.9251 115.906 56.9251C116.444 56.9251 116.764 56.7225 117 56.2835C117.319 55.6081 117.588 55.0003 117.858 54.2574C118.076 53.6495 117.74 52.6365 117.555 52.1975L115.082 46.423C114.493 45.0216 114.308 44.8696 113.365 44.7683C113.231 44.6332 113.231 44.1774 113.365 44.0423C113.803 44.0592 114.392 44.0761 115.132 44.0761C115.923 44.0761 116.798 44.0592 117.605 44.0423C117.74 44.1774 117.74 44.6332 117.605 44.7683C116.259 44.8696 116.495 45.2748 116.882 46.2035L118.817 50.7623C119.002 51.2013 119.187 51.1338 119.338 50.7792L121.509 45.7476C121.845 44.954 121.155 44.819 120.466 44.7514C120.331 44.6163 120.331 44.1605 120.466 44.0254C121.273 44.0423 121.694 44.0592 122.451 44.0592C123.057 44.0592 123.46 44.0423 123.999 44.0254C124.133 44.1605 124.133 44.6163 123.999 44.7514C123.191 44.819 122.535 45.5281 122.232 46.1528C121.071 48.618 120.112 50.8805 118.362 55.1016C118.093 55.7432 117.807 56.3848 117.471 56.9927C116.663 58.4447 115.788 58.6136 115.334 58.6136Z" fill="white"/>
<path d="M129.13 53.7507C126.371 53.7507 124.806 51.7921 124.806 48.9723C124.806 45.8487 127.128 43.907 129.282 43.907C131.385 43.907 132.63 44.785 132.63 45.9838C132.63 46.6592 132.024 46.9462 131.553 46.9462C131.099 46.9462 130.796 46.7436 130.729 46.1526C130.645 45.3759 130.476 44.6161 129.181 44.6161C127.734 44.6161 126.691 46.0682 126.691 48.4827C126.691 51.0492 128.02 52.6701 129.618 52.6701C130.561 52.6701 131.503 52.1804 132.243 51.218C132.445 51.2349 132.613 51.3193 132.697 51.5219C131.604 53.3286 130.443 53.7507 129.13 53.7507Z" fill="white"/>
<path d="M135.238 41.2563C135.238 39.4159 134.969 39.5172 133.841 39.4496C133.707 39.3146 133.656 38.9769 133.707 38.7912C134.582 38.7236 136.214 38.4197 136.769 38.2002C136.954 38.2002 137.055 38.2677 137.055 38.4197C137.055 38.4197 136.971 39.2977 136.971 40.7329V50.8467C136.971 52.6702 137.207 52.7884 138.553 52.8391C138.687 52.9742 138.687 53.43 138.553 53.5651C137.61 53.5482 137.055 53.5313 136.13 53.5313C135.171 53.5313 134.599 53.5482 133.673 53.5651C133.539 53.43 133.539 52.9742 133.673 52.8391C135.002 52.7716 135.255 52.6702 135.255 50.8467L135.238 41.2563Z" fill="white"/>
<path d="M144.374 43.8906C147.773 43.8906 148.967 46.5415 148.967 48.8378C148.967 51.0328 147.588 53.7512 144.324 53.7512C141.245 53.7512 139.73 51.2692 139.73 49.0404C139.73 46.2376 141.413 43.8906 144.374 43.8906ZM141.615 48.517C141.615 50.2054 142.439 53.0251 144.728 53.0251C145.754 53.0251 147.083 52.4342 147.083 49.53C147.083 46.3051 146.006 44.6167 144.122 44.6167C142.288 44.6167 141.615 46.609 141.615 48.517Z" fill="white"/>
<path d="M156.421 43.8905C158.659 43.8905 160.291 46.0348 160.291 48.3649C160.291 50.1377 159.702 51.5054 158.675 52.5184C157.784 53.3795 156.69 53.751 155.462 53.751C154.772 53.751 154.099 53.6328 153.561 53.4133C153.342 53.3289 153.258 53.2951 153.258 53.5821V55.946C153.258 57.7695 153.493 57.8539 155.041 57.9383C155.176 58.0734 155.176 58.5293 155.041 58.6644C154.099 58.6475 153.426 58.6306 152.4 58.6306C151.441 58.6306 150.869 58.6475 149.943 58.6644C149.809 58.5293 149.809 58.0734 149.943 57.9383C151.272 57.8708 151.525 57.7695 151.525 55.946V46.5751C151.525 45.3257 151.289 45.1906 150.095 45.0893C150.044 44.9542 150.011 44.5997 150.044 44.4815C151.558 44.2788 152.4 44.0931 153.022 43.8398C153.19 43.8398 153.308 43.9074 153.308 43.9918C153.308 43.9918 153.207 44.5997 153.207 45.3932C153.207 45.5452 153.342 45.5283 153.409 45.4608C154.402 44.4308 155.613 43.8905 156.421 43.8905ZM153.258 47.1323V51.2183C153.258 52.0119 153.342 52.1301 153.779 52.5353C154.166 52.8899 154.94 52.9912 155.327 52.9912C157.784 52.9912 158.406 50.7456 158.406 48.9389C158.406 46.4569 157.212 44.8867 155.798 44.8867C155.159 44.8867 154.267 45.4608 153.594 46.153C153.325 46.4569 153.258 46.6764 153.258 47.1323Z" fill="white"/>
<path d="M170.1 51.8258C169.225 52.974 168.047 53.7338 166.381 53.7338C164.8 53.7338 163.773 53.2103 163.033 52.3323C162.31 51.505 162.007 50.3062 162.007 49.0905C162.007 45.7474 164.48 43.9238 166.381 43.9238C169.427 43.9238 170.083 45.8993 170.083 47.7397C170.083 47.9761 169.931 48.1112 169.662 48.1112L163.841 48.0774C163.841 49.3438 164.093 50.3568 164.547 51.0829C165.22 52.1973 166.146 52.67 166.937 52.67C168.198 52.67 168.838 52.3155 169.645 51.4881C169.898 51.505 170.032 51.6232 170.1 51.8258ZM167.862 47.267C168.098 47.267 168.182 47.1657 168.182 46.9631C168.182 45.1226 167.189 44.6668 166.365 44.6668C165.843 44.6668 164.312 44.8694 163.891 47.3514L167.862 47.267Z" fill="white"/>
<path d="M175.568 53.7508C173.212 53.7508 171.849 51.7753 171.849 49.0738C171.849 47.4529 172.421 46.1528 173.364 45.2073C174.239 44.3799 175.198 43.8903 176.645 43.8903C177.368 43.8903 178.26 44.2617 178.344 44.2617C178.495 44.2617 178.546 44.2111 178.546 44.0591V41.2563C178.546 39.4159 178.277 39.5172 177.149 39.4496C177.015 39.3146 176.981 38.9769 177.015 38.7911C177.89 38.7236 179.505 38.4197 180.06 38.2002C180.262 38.2002 180.346 38.2677 180.346 38.4197C180.346 38.4197 180.262 39.2977 180.262 40.7329V50.6778C180.262 51.7584 180.464 52.1637 181.86 52.2819C181.995 52.4169 181.995 52.7377 181.86 52.8728C180.531 53.0248 179.538 53.3625 179.067 53.7508C178.899 53.7846 178.748 53.8183 178.563 53.7508C178.563 53.7508 178.579 52.6702 178.579 52.4507C178.579 52.2987 178.428 52.3325 178.31 52.4169C177.217 53.3118 176.409 53.7508 175.568 53.7508ZM178.529 46.6255C178.529 45.9502 178.462 45.7982 178.159 45.4436C177.721 44.9371 177.166 44.6501 176.375 44.6501C175.938 44.6501 175.012 44.7176 174.339 45.7476C174.02 46.2034 173.7 47.0814 173.7 48.6686C173.7 51.4039 174.928 52.704 176.106 52.704C176.645 52.704 177.351 52.3494 178.159 51.6571C178.462 51.387 178.512 51.2181 178.512 50.796V46.6255H178.529Z" fill="white"/>
<path d="M187.48 52.839C187.615 52.9741 187.615 53.4299 187.48 53.565C186.538 53.5481 185.983 53.5312 185.057 53.5312C184.098 53.5312 183.526 53.5481 182.601 53.565C182.483 53.4299 182.483 52.9741 182.601 52.839C183.93 52.7377 184.182 52.6701 184.182 50.8466V46.5579C184.182 45.3085 183.947 45.1734 182.752 45.0721C182.702 44.937 182.668 44.5824 182.702 44.4642C184.216 44.2616 185.074 44.0759 185.697 43.8226C185.865 43.8226 185.983 43.8902 185.983 43.9746C185.983 43.9746 185.899 45.376 185.899 46.4735V50.8466C185.899 52.6701 186.151 52.7546 187.48 52.839ZM185.057 39.3145C185.646 39.3145 186.1 39.9223 186.1 40.4626C186.1 40.9185 185.579 41.5094 184.956 41.5094C184.435 41.5094 183.913 40.9354 183.913 40.3613C183.913 39.8548 184.519 39.3145 185.057 39.3145Z" fill="white"/>
<path d="M194.159 52.4674L193.722 52.822C192.763 53.5649 192.342 53.7506 191.333 53.7506C189.802 53.7506 188.573 53.109 188.573 51.3868C188.573 49.901 190.088 48.7359 192.191 48.2125L194.058 47.7566C194.126 47.7397 194.193 47.6553 194.193 47.5034C194.193 45.0213 193.167 44.6499 192.41 44.6499C191.585 44.6499 190.592 44.9031 190.592 45.5785C190.592 45.8318 190.609 45.95 190.643 46.0175C190.693 46.1019 190.71 46.2539 190.71 46.4059C190.71 46.6929 190.391 47.1319 189.751 47.1319C189.246 47.1319 188.977 46.8955 188.977 46.3552C188.977 45.1733 190.794 43.9238 192.595 43.9238C194.193 43.9238 195.892 44.5148 195.892 47.6384V50.9141C195.892 51.9271 195.909 52.7713 196.767 52.7713C197.222 52.7713 197.323 52.4168 197.44 52.4168C197.524 52.4168 197.726 52.6363 197.726 52.7882C197.726 52.8895 196.936 53.7844 195.876 53.7844C194.715 53.7844 194.328 52.974 194.193 52.5181L194.159 52.4674ZM192.46 48.871C190.845 49.2931 190.391 50.3062 190.391 51.2855C190.391 51.9609 190.879 52.8389 191.972 52.8389C192.578 52.8389 193.335 52.3492 193.907 51.8933C194.075 51.7583 194.21 51.6063 194.21 51.3193V48.3982L192.46 48.871Z" fill="white"/>
<path d="M18.0869 6.08601C18.0869 6.08601 17.4643 4.81966 17.2624 4.41443C15.866 1.62848 15.8828 1.47653 14.4695 1.2908C14.0657 1.24014 13.8638 1.18949 13.8638 0.986874V0.108884L13.9815 0.0244565C16.539 0.0244565 22.2427 0.0244565 22.2427 0.0244565L22.4614 0.0919962V0.969986C22.4614 1.1726 22.3268 1.27391 22.0239 1.27391L21.4182 1.35834C19.904 1.47653 20.1564 2.10125 21.149 4.11051L30.7057 23.7303L31.0254 23.8148L39.5052 3.62086C39.7913 2.8104 39.7576 2.23633 39.3706 1.88175C38.9836 1.56095 38.7144 1.35834 37.7386 1.30768L36.9478 1.27391C36.8469 1.27391 36.7627 1.24014 36.6618 1.17261C36.5777 1.10507 36.5272 1.02065 36.5272 0.936223V0.0919962L36.645 0.00756836C39.0341 0.00756836 46.2184 0.00756836 46.2184 0.00756836L46.3194 0.0919962V0.936223C46.3194 1.15572 46.1848 1.27391 45.9324 1.27391C44.6705 1.32456 43.7452 1.59472 43.1395 2.08437C42.5337 2.57402 42.0626 3.2494 41.7261 4.1274C41.7261 4.1274 33.9193 22.0419 31.2609 28.0021C30.2346 29.9607 29.2419 29.775 28.3502 27.9515C26.4826 24.1018 21.2332 12.4008 21.2332 12.4008L18.0869 6.08601Z" fill="white"/>
<path d="M33.381 0.00750423C33.381 0.00750423 27.997 -0.00938029 25.591 0.00750423L25.4732 0.091932V0.936158C25.4732 1.03746 25.5237 1.12189 25.6078 1.18943C25.6919 1.25697 25.7929 1.29073 25.8938 1.29073L26.2808 1.34138C27.2567 1.37515 27.7109 1.64531 27.8455 1.79727C28.0811 2.08431 28.1989 2.38822 27.6268 3.63768L17.5654 23.7809L17.2962 23.7134C17.2962 23.7134 10.0951 8.46666 8.00875 3.36753C7.79002 2.84411 7.68907 2.45576 7.68907 2.2025C7.68907 1.67908 8.16017 1.40892 9.08555 1.35827L10.1792 1.30762C10.4652 1.30762 10.6166 1.18942 10.6166 0.969921V0.125695L10.5157 0.0412805C10.5157 0.0412805 1.88441 0.024396 0.100951 0.0412805L0 0.10882V0.986809C0 1.13877 0.201901 1.24008 0.605704 1.29073C1.69934 1.35827 2.42281 1.52711 2.75932 1.81415C3.09582 2.11807 3.46597 2.861 3.9539 4.02603C6.57861 10.3408 12.1309 21.6028 14.8566 28.0189C15.6305 29.7749 16.6232 30.0451 17.801 27.9683C19.8704 24.1355 25.4564 12.4007 25.4564 12.4007L29.8646 4.12733C30.3861 3.24934 30.8741 2.47264 31.1264 2.11807C31.5807 1.45957 31.8499 1.3245 33.095 1.27384C33.3473 1.27384 33.4819 1.15565 33.4819 0.91927V0.0750438L33.381 0.00750423Z" fill="white"/>
<path d="M49.7687 26.1448C49.7687 27.1073 50.2062 27.6813 51.6027 27.8164L52.5281 27.9008C52.6627 27.9008 52.7973 27.9853 52.7973 28.1541V29.0827L52.7468 29.1672C52.7468 29.1672 49.4154 29.0827 48.0694 29.0827C46.8412 29.0827 43.4257 29.1672 43.4257 29.1672L43.3416 29.0827V28.1541C43.3416 27.9853 43.4762 27.9008 43.6444 27.9008L44.5193 27.8164C45.9663 27.6813 46.4037 26.9891 46.4037 26.1448V11.5228C46.4037 10.5604 45.8821 10.2902 44.5193 10.1721L43.6444 10.0876C43.4762 10.0876 43.3416 10.0539 43.3416 9.91879V8.90572L43.392 8.82129C43.392 8.82129 46.8412 8.90572 48.204 8.90572C49.3818 8.90572 52.7468 8.82129 52.7468 8.82129L52.7973 8.90572V9.86814C52.7973 10.0032 52.7131 10.0876 52.5281 10.0876L51.6027 10.1721C50.2398 10.3071 49.7687 10.6617 49.7687 11.5397V26.1448Z" fill="white"/>
<path d="M62.6904 26.1448C62.6904 27.1073 63.2624 27.5969 64.5243 27.8164L65.0122 27.9008C65.1468 27.9346 65.2814 27.9853 65.2814 28.1541V29.0827L65.231 29.1672C65.231 29.1672 62.4716 29.0827 61.1593 29.0827C59.9311 29.0827 56.3473 29.1672 56.3473 29.1672L56.2632 29.0827V28.1541C56.2632 27.9853 56.3978 27.9008 56.566 27.9008L57.4409 27.8164C58.7533 27.6813 59.3253 26.9891 59.3253 26.1448V11.5228C59.3253 10.5604 58.8374 10.2902 57.4409 10.1721L56.566 10.0876C56.3978 10.0876 56.2632 10.0539 56.2632 9.91879V8.90572L56.3137 8.82129C56.3137 8.82129 59.8974 8.90572 61.2602 8.90572C62.4885 8.90572 65.2478 8.82129 65.2478 8.82129L65.2983 8.90572V9.86814C65.2983 10.0032 65.2141 10.037 65.0291 10.0876L64.5411 10.1721C63.1783 10.4253 62.7072 10.6617 62.7072 11.5397V18.1753C64.1542 18.1753 64.9786 17.4324 66.9135 15.3725C68.6633 13.4308 70.0261 11.8267 70.0261 10.9825C70.0261 10.6279 69.6391 10.2396 68.7642 10.1045C68.596 10.0707 68.495 10.0201 68.495 9.88502V8.87194L68.5455 8.83818C68.5455 8.83818 72.0956 8.92259 73.3575 8.92259C74.5016 8.92259 76.4196 8.83818 76.4196 8.83818L76.5542 8.87194V9.88502C76.5542 10.0201 76.4196 10.1045 76.2009 10.1045C74.5016 10.2396 73.307 10.324 71.7423 12.1307L67.9735 16.47C67.2331 17.2636 66.9639 17.7363 66.9639 18.0909C66.9639 18.3611 67.1322 18.5806 67.3509 18.8338L73.9632 26.8202C74.4848 27.4281 75.5447 27.6982 76.4196 27.8671L76.6384 27.9008C76.773 27.9346 76.9412 28.0359 76.9412 28.1541V29.0827L76.8066 29.1334C76.8066 29.1334 74.4848 29.0827 73.2565 29.0827C72.1629 29.0827 70.5813 29.1334 70.5813 29.1334L70.5309 29.0827V28.5593C70.5309 27.9853 70.4804 27.5125 69.8747 26.8033L65.0122 20.7418C64.3561 19.8638 63.6494 19.6443 62.6904 19.6443V26.1448Z" fill="white"/>
<path d="M86.2621 26.1448C86.2621 27.1073 86.6996 27.6813 88.0961 27.8164L89.0214 27.9008C89.156 27.9008 89.2906 27.9853 89.2906 28.1541V29.0827L89.2402 29.1672C89.2402 29.1672 85.9088 29.0827 84.5628 29.0827C83.3346 29.0827 79.9191 29.1672 79.9191 29.1672L79.835 29.0827V28.1541C79.835 27.9853 79.9696 27.9008 80.1378 27.9008L81.0127 27.8164C82.4597 27.6813 82.8971 26.9891 82.8971 26.1448V11.5228C82.8971 10.5604 82.3755 10.2902 81.0127 10.1721L80.1378 10.0876C79.9696 10.0876 79.835 10.0539 79.835 9.91879V8.90572L79.8854 8.82129C79.8854 8.82129 83.3346 8.90572 84.6974 8.90572C85.8752 8.90572 89.2402 8.82129 89.2402 8.82129L89.2906 8.90572V9.86814C89.2906 10.0032 89.2065 10.0876 89.0214 10.0876L88.0961 10.1721C86.7332 10.3071 86.2621 10.6617 86.2621 11.5397V26.1448Z" fill="white"/>
<path d="M95.7183 11.6071C95.7183 10.2394 95.1462 10.2056 93.0936 10.0706C92.8244 10.0706 92.7907 9.9355 92.7907 9.85108V8.83801L92.8748 8.78735C93.531 8.78735 96.1053 8.87177 97.384 8.87177C98.6122 8.87177 100.362 8.78735 101.977 8.78735C108.186 8.78735 109.33 11.8603 109.33 14.1398C109.33 16.7737 108.068 20.8936 101.859 20.8936C100.766 20.8936 99.8909 20.8092 99.1001 20.4546V26.3304C99.1001 27.2928 99.6217 27.5123 101.018 27.7318L101.893 27.8669C102.061 27.9007 102.196 27.9513 102.196 28.1202V29.0488L102.162 29.1332C102.162 29.1332 98.6627 29.0488 97.2998 29.0488C96.0716 29.0488 92.7907 29.1332 92.7907 29.1332L92.7402 29.0488V28.1202C92.7402 27.9513 92.8244 27.9007 93.0094 27.8669L93.9348 27.7318C95.2977 27.563 95.7351 27.1578 95.7351 26.3304L95.7183 11.6071ZM99.0833 19.2558C99.9582 19.6104 101.052 19.6441 101.927 19.6441C104.551 19.6441 105.813 18.057 105.813 14.6801C105.813 10.8979 104.114 10.0706 101.708 10.0706C99.6049 10.0706 99.0833 10.4589 99.0833 11.6071V19.2558Z" fill="white"/>
<path d="M116.85 29.0827C115.538 29.0827 112.526 29.1672 112.526 29.1672L112.476 29.0827V28.1203C112.476 28.0359 112.526 27.9008 112.745 27.9008L113.755 27.8164C115.117 27.6813 115.504 26.8033 115.504 25.9253V11.4384C115.504 10.4253 114.983 10.2565 113.755 10.1721L112.745 10.0876C112.476 10.0539 112.476 9.95256 112.476 9.91879V8.90572L112.526 8.82129C112.526 8.82129 115.942 8.90572 117.254 8.90572H123.681C124.994 8.90572 128.106 8.82129 128.106 8.82129L128.19 8.90572C128.224 10.7968 128.544 12.5021 128.847 14.1737L127.753 14.3425C127.265 12.7216 126.441 10.3916 123.648 10.3916H120.148C119.324 10.3916 118.886 10.6955 118.886 11.4384V17.8039H122.167C123.395 17.8039 123.698 17.2804 123.866 16.4024L124.119 15.4738C124.119 15.3387 124.203 15.2543 124.388 15.2543H125.128C125.212 15.2543 125.212 15.305 125.212 15.3894C125.128 16.3518 124.943 17.5844 124.943 18.6481C124.943 19.7456 125.111 20.6742 125.212 21.6704L125.128 21.7549H124.388C124.169 21.7549 124.085 21.6704 124.085 21.5354L123.866 20.5729C123.698 19.6949 123.294 19.2053 122.15 19.2053H118.869V25.9253C118.869 26.7527 119.34 27.5969 120.131 27.5969H124.287C126.525 27.5969 127.753 26.1955 128.275 23.8992L129.368 24.0343L128.493 29.0827L128.409 29.1672C128.409 29.1672 125.835 29.0827 124.523 29.0827H116.85Z" fill="white"/>
<path d="M133.305 27.9008L134.315 27.8164C135.627 27.6813 136.065 27.293 136.065 25.9253V11.4384C136.065 10.2902 135.762 10.2902 134.315 10.1721L133.356 10.0876C133.188 10.0876 133.053 10.0032 133.053 9.86813V8.90572L133.104 8.82129C133.104 8.82129 136.957 8.90572 137.747 8.90572C138.572 8.90572 142.391 8.82129 143.518 8.82129C150.82 8.82129 154.404 13.3801 154.404 19.2222C154.404 26.9046 148.986 29.184 144.124 29.184C140.624 29.184 139.093 29.0996 137.747 29.0996C136.435 29.0996 133.104 29.184 133.104 29.184L133.053 29.0996V28.171C133.036 28.0359 133.137 27.9008 133.305 27.9008ZM143.064 27.9008C147.876 27.9008 150.585 26.111 150.585 19.9482C150.585 15.3894 149.575 10.0707 142.223 10.0707C140.523 10.0707 139.43 10.3409 139.43 11.4384V25.9253C139.43 27.1579 139.733 27.9008 143.064 27.9008Z" fill="white"/>
<path d="M164.718 26.1448C164.718 27.1073 165.155 27.6813 166.552 27.8164L167.477 27.9008C167.612 27.9008 167.746 27.9853 167.746 28.1541V29.0827L167.696 29.1672C167.696 29.1672 164.364 29.0827 163.018 29.0827C161.79 29.0827 158.375 29.1672 158.375 29.1672L158.291 29.0827V28.1541C158.291 27.9853 158.425 27.9008 158.593 27.9008L159.468 27.8164C160.915 27.6813 161.353 26.9891 161.353 26.1448V11.5228C161.353 10.5604 160.831 10.2902 159.468 10.1721L158.593 10.0876C158.425 10.0876 158.291 10.0539 158.291 9.91879V8.90572L158.341 8.82129C158.341 8.82129 161.79 8.90572 163.153 8.90572C164.331 8.90572 167.713 8.82129 167.713 8.82129L167.746 8.90572V9.86814C167.746 10.0032 167.662 10.0876 167.477 10.0876L166.552 10.1721C165.189 10.3071 164.718 10.6617 164.718 11.5397V26.1448Z" fill="white"/>
<path d="M178.195 27.8165L179.457 27.9009C179.625 27.9009 179.81 28.036 179.81 28.2555V29.0828L179.726 29.1672C179.726 29.1672 174.964 29.0828 173.904 29.0828C172.76 29.0828 169.967 29.1672 169.967 29.1672L169.883 29.0828V28.2555C169.883 28.036 170.018 27.9009 170.236 27.9009C172.154 27.7658 173.248 27.4112 174.476 24.6084L184.184 1.78051C184.672 0.632362 185.009 0.193359 185.682 0.193359C186.288 0.193359 186.506 0.632355 186.86 1.51035L195.827 25.3007C196.433 27.006 197.325 27.6645 199.075 27.8502L199.563 27.884C199.781 27.884 200 28.0191 200 28.2386V29.0659L199.865 29.1503C199.865 29.1503 196.5 29.0659 194.784 29.0659C193.253 29.0659 188.963 29.1503 188.963 29.1503L188.929 29.0659V28.2386C188.929 28.0191 189.013 27.884 189.232 27.884L190.46 27.7996C192.126 27.6645 192.732 27.1411 192.294 25.9085L189.619 18.4793H180.517C179.473 18.4793 179.204 18.6482 178.985 19.2222L176.445 25.5877C176.007 26.719 176.579 27.6814 178.195 27.8165ZM188.912 16.6558L184.672 4.93792H184.588L180.214 16.0817C180.045 16.5207 180.348 16.6558 181.307 16.6558H188.912Z" fill="white"/>
</svg>
