<svg width="100%" height="100%" viewBox="0 0 1920 464" fill="none" xmlns="http://www.w3.org/2000/svg">
<g clip-path="url(#clip0)">
<path d="M1848.97 0H72.06V74.06H0V463.56H1920V74.06H1848.97V0Z" fill="#0C043F"/>
<path d="M546.25 226.85H561.09V198.66H577.77C593.07 198.66 603.78 187.61 603.78 171.73C603.78 155.85 593.08 145.15 577.77 145.15H546.24V226.85H546.25ZM561.09 185.75V157.9H575.23C582.21 157.42 588.25 162.69 588.73 169.66C588.78 170.34 588.77 171.02 588.71 171.7C589.38 178.76 584.21 185.04 577.14 185.71C576.43 185.78 575.72 185.79 575.02 185.74L561.09 185.75ZM610.48 197.49C610.1 214.09 623.25 227.86 639.86 228.24C640.58 228.26 641.29 228.25 642.01 228.21C650.62 228.26 658.97 225.29 665.6 219.81L659.96 209.34C655.15 213.24 649.23 215.5 643.04 215.78C633.91 216.3 626.06 209.37 625.43 200.25H665.93C665.93 200.25 666.26 196.34 666.26 194.61C666.26 179.08 657.17 166.76 640.25 166.76C622.78 166.78 610.46 179.43 610.46 197.5V197.49H610.48ZM625.9 190.26C626.67 183.15 632.79 177.83 639.94 178.06C646.38 178.06 651.33 182.32 651.56 190.26H625.9ZM678.34 226.85H692.95V203.61C692.88 200.39 693.31 197.17 694.22 194.08C696.16 186.84 702.71 181.79 710.21 181.77C711.36 181.77 712.52 181.84 713.66 182V167.62C712.79 167.47 711.91 167.4 711.03 167.39C702.18 167.78 694.63 173.9 692.39 182.46H692.16C692.31 181.08 692.39 179.7 692.39 178.32V168.19H678.35L678.34 226.85ZM723.51 226.85H738.12V203.61C738.05 200.39 738.48 197.17 739.39 194.08C741.33 186.84 747.89 181.79 755.38 181.77C756.53 181.77 757.69 181.84 758.83 182V167.62C757.96 167.47 757.07 167.4 756.18 167.39C747.33 167.78 739.78 173.9 737.54 182.46H737.31C737.46 181.08 737.54 179.7 737.54 178.32V168.19H723.5V226.85H723.51ZM763.33 247.23C766.95 249.64 771.18 250.96 775.53 251.03C785.18 251.14 793.78 244.93 796.7 235.73L822.94 168.18H806.95L795.44 202.24C794.4 205.35 793.48 209.95 793.48 209.95H793.25C792.67 207.26 791.94 204.61 791.06 202.01L778.75 168.18H762.31L787.05 225.94L784.86 231.12C783.4 235.52 779.37 238.55 774.73 238.71C772.36 238.53 770.09 237.69 768.17 236.29L763.33 247.23ZM822.6 238.95H833.65L844.7 212.02H830.32L822.6 238.95ZM883.79 185.65C883.79 209.7 901.05 228.23 926.02 228.23C938.08 228.41 949.69 223.63 958.12 215L950.3 204.3C944 210.64 935.53 214.34 926.6 214.66C909.57 214.66 899.1 200.97 899.1 185.43C899.1 170.24 909.23 157.35 926.49 157.35C934.7 157.6 942.57 160.64 948.81 165.98L955.94 154.93C947.75 147.38 936.92 143.37 925.79 143.77C903.12 143.25 884.31 161.2 883.79 183.88C883.78 184.47 883.78 185.06 883.79 185.65ZM965.71 185.42C965.42 208.74 984.09 227.89 1007.41 228.18C1030.73 228.47 1049.88 209.8 1050.17 186.48C1050.17 186.13 1050.17 185.78 1050.17 185.43C1049.88 162.11 1030.74 143.44 1007.41 143.73C984.5 144.01 966 162.51 965.71 185.42ZM981.01 185.42C980.28 170.55 991.73 157.9 1006.61 157.16C1021.48 156.42 1034.13 167.88 1034.87 182.76C1034.91 183.65 1034.91 184.53 1034.87 185.42C1034.87 202.22 1022.9 214.65 1007.94 214.65C992.98 214.65 981.01 202.22 981.01 185.42ZM1084.17 226.85H1098.9L1128.69 145.15H1112.81L1094.76 198.41C1093.15 203.13 1091.77 210.38 1091.64 210.38H1091.42C1091.31 210.38 1089.92 203.13 1088.31 198.41L1070.36 145.15H1054.35L1084.17 226.85ZM1138.88 226.85H1153.74V145.15H1138.88V226.85ZM1174.39 226.85H1202.24C1227.46 226.85 1243.89 211.66 1243.89 185.89C1243.89 160.11 1227.45 145.16 1202.24 145.16H1174.39V226.85ZM1189.25 214.08V157.93H1201.45C1217.79 157.93 1228.61 167.71 1228.61 185.88C1228.61 204.29 1218.02 214.07 1201.45 214.07L1189.25 214.08ZM1258.09 200.38H1292.71V187.61H1258.09V200.38ZM1307.9 226.85H1357.84V214.08H1340.12V145.15H1327.13L1306.65 164.83L1315.4 174.04L1321.94 167.83C1323.37 166.49 1324.58 164.94 1325.52 163.23H1325.75C1325.75 163.23 1325.62 165.99 1325.62 168.75V214.09H1307.9V226.85ZM1386.34 228.23C1411.65 228.23 1423.98 203.95 1423.98 182.55C1423.98 157.93 1409.48 143.77 1392.45 143.77C1377.9 143.44 1365.84 154.96 1365.51 169.51C1365.5 170.06 1365.5 170.61 1365.52 171.15C1365.52 185.88 1375.51 198.54 1391.62 198.54C1397.31 198.66 1402.82 196.6 1407.04 192.79H1407.27C1405.2 203.97 1398.29 214.65 1385.41 214.65C1381.47 214.59 1377.6 213.69 1374.03 212.02L1369.66 224.79C1374.89 227.21 1380.6 228.38 1386.34 228.23ZM1395.22 186.35C1387.35 186.81 1380.59 180.81 1380.12 172.93C1380.09 172.34 1380.09 171.75 1380.13 171.16C1380.13 163.45 1384.86 157.47 1392.46 157.47C1400.98 157.47 1408.57 167.25 1408.57 177.49C1408.57 182.43 1402.59 186.35 1395.22 186.35Z" fill="white"/>
<path d="M539.75 331.15C539.35 342.68 548.37 352.36 559.9 352.77C560.39 352.79 560.88 352.79 561.37 352.77C566.99 352.72 572.4 350.69 576.66 347.02L574.11 342.75C570.67 345.89 566.2 347.67 561.53 347.76C552.94 348.03 545.76 341.27 545.49 332.68C545.48 332.25 545.48 331.83 545.5 331.4H577.23C577.23 331.4 577.39 329.51 577.39 328.52C577.39 318.25 571.55 309.45 560.13 309.45C548.96 309.45 539.75 317.59 539.75 331.15ZM545.75 326.79C546.46 319.51 552.65 313.99 559.97 314.13C566.13 314.13 571.39 318.16 571.72 326.79H545.75ZM588.06 351.78H593.65V331.97C593.61 330.09 593.83 328.2 594.31 326.38C596.13 319.55 602.28 314.77 609.35 314.71C617.32 314.71 618.31 320.46 618.31 326.96V351.78H623.9V325.48C623.9 315.29 620.28 309.45 610.09 309.45C602.98 309.27 596.46 313.39 593.57 319.89H593.41C593.41 319.89 593.57 318.41 593.57 316.6V310.44H588.06V351.78ZM658.44 342C658.44 351.04 664.52 352.11 667.97 352.11C668.66 352.11 669.34 352.05 670.02 351.95V346.94C669.56 346.99 669.09 347.02 668.62 347.02C666.48 347.02 664.02 346.2 664.02 340.77V294H658.43V342H658.44ZM679.32 303.78H684.42L691.49 294H685L679.32 303.78ZM679.16 351.78H684.75V310.44H679.16V351.78ZM698.27 351.78H703.86V331.97C703.82 330.09 704.04 328.2 704.52 326.38C706.34 319.55 712.49 314.77 719.56 314.71C727.53 314.71 728.52 320.46 728.52 326.96V351.78H734.11V325.48C734.11 315.29 730.49 309.45 720.3 309.45C713.19 309.27 706.67 313.39 703.78 319.89H703.62C703.62 319.89 703.78 318.41 703.78 316.6V310.44H698.27V351.78ZM744.11 331.15C743.71 342.68 752.73 352.36 764.26 352.77C764.75 352.79 765.24 352.79 765.73 352.77C771.35 352.72 776.76 350.69 781.02 347.02L778.47 342.75C775.03 345.89 770.56 347.67 765.89 347.76C757.3 348.03 750.11 341.27 749.85 332.68C749.84 332.25 749.84 331.83 749.86 331.4H781.59C781.59 331.4 781.75 329.51 781.75 328.52C781.75 318.25 775.91 309.45 764.49 309.45C753.31 309.45 744.11 317.59 744.11 331.15ZM750.11 326.79C750.82 319.51 757.01 313.99 764.33 314.13C770.49 314.13 775.75 318.16 776.08 326.79H750.11ZM789.04 340.52C789.04 348.74 796.19 352.77 803.09 352.77C809.07 352.82 814.51 349.29 816.9 343.81H817.06C816.94 344.96 816.89 346.11 816.9 347.26V351.78H822.24V325.31C822.24 314.95 816.73 309.45 806.79 309.45C801.5 309.33 796.32 310.98 792.08 314.13L794.71 318.4C798.09 315.9 802.17 314.52 806.38 314.45C812.3 314.45 816.65 317.16 816.65 325.13V326.2H814.35C807.21 326.22 789.04 326.55 789.04 340.52ZM794.79 340.19C794.79 331.07 807.78 330.82 814.27 330.82H816.65V332.63C816.65 339.78 811.88 348 803.99 348C799.48 348.55 795.39 345.33 794.84 340.83C794.83 340.62 794.81 340.4 794.79 340.19Z" fill="white"/>
<path d="M1676.71 313.23C1721.92 313.23 1758.57 276.58 1758.57 231.37C1758.57 186.16 1721.92 149.51 1676.71 149.51C1631.5 149.51 1594.85 186.16 1594.85 231.37C1595.16 276.45 1631.63 312.93 1676.71 313.23ZM1675.99 202.79C1670.21 202.82 1665.49 198.15 1665.46 192.37C1665.43 186.59 1670.1 181.87 1675.88 181.84C1681.66 181.81 1686.38 186.48 1686.41 192.26C1686.41 192.29 1686.41 192.32 1686.41 192.35C1686.43 198.09 1681.79 202.77 1676.05 202.79C1676.03 202.79 1676.01 202.79 1675.99 202.79ZM1662.67 275.51C1659.59 275.66 1656.97 273.27 1656.82 270.19C1656.82 270.09 1656.81 269.99 1656.81 269.89C1656.85 266.75 1659.42 264.23 1662.56 264.27C1662.59 264.27 1662.63 264.27 1662.66 264.27H1672.59V227.43H1664.01C1660.93 227.58 1658.31 225.19 1658.16 222.11C1658.16 222.01 1658.15 221.91 1658.15 221.81C1658.19 218.67 1660.76 216.15 1663.9 216.19C1663.93 216.19 1663.97 216.19 1664 216.19H1679.09C1683.2 216.19 1685.37 219.08 1685.37 223.42V264.28H1695.3C1698.44 264.17 1701.08 266.64 1701.18 269.78C1701.18 269.82 1701.18 269.86 1701.18 269.9C1701.2 272.99 1698.71 275.51 1695.63 275.53C1695.52 275.53 1695.41 275.53 1695.3 275.52L1662.67 275.51Z" fill="white"/>
<mask id="mask0" mask-type="alpha" maskUnits="userSpaceOnUse" x="125" y="77" width="309" height="309">
<circle cx="279.5" cy="231.5" r="154.5" fill="#C4C4C4"/>
</mask>
<g mask="url(#mask0)">
<rect x="114" y="70" width="320" height="322" fill="white"/>
<path fill-rule="evenodd" clip-rule="evenodd" d="M339.687 122.118C339.687 122.118 359.409 127.051 360.068 150.048C360.728 173.056 360.728 172.397 366.969 181.934C373.21 191.46 367.628 198.371 364.013 212.501C360.398 226.631 366.639 231.235 378.802 239.124C390.965 247.013 388.743 255.561 388.743 255.561C388.743 255.561 410.018 265.417 401.151 294.995C392.273 324.574 367.298 339.033 299.264 350.867C231.229 362.7 175.687 343.966 181.928 322.277C188.18 300.588 185.873 293.358 172.072 297.302C158.272 301.247 136.572 288.095 152.35 250.309C168.128 212.512 184.225 214.489 186.861 204.623C189.488 194.767 168.457 170.44 192.124 144.477C216.44 114.569 251.611 123.117 251.611 123.117C251.611 123.117 294.33 69.5316 339.687 122.118Z" fill="#291109"/>
<path fill-rule="evenodd" clip-rule="evenodd" d="M263.646 379.669C263.646 379.669 243.902 402.092 241.244 439.645C238.586 477.197 246.9 526.073 246.9 526.073C246.9 526.073 258.17 531.144 288.62 532.037C319.06 532.931 338.591 529.954 338.591 529.954C338.591 529.954 354.571 459.612 350.095 428.619C345.619 397.627 329.798 379.372 329.798 379.372C329.798 379.372 271.556 369.909 263.646 379.669Z" fill="#06546E"/>
<path fill-rule="evenodd" clip-rule="evenodd" d="M216.269 340.735C207.689 361.414 204.202 386.899 206.881 435.626C206.881 435.626 197.599 451.553 196.206 458.613C195.239 463.514 197.089 465.587 199.045 461.834C199.874 460.239 201.14 456.018 202.458 454.2C201.778 456.497 198.875 467.352 201.873 468.128C204.882 468.905 203.989 464.248 208.082 455.572C206.381 461.707 204.84 469.468 207.657 470.563C210.475 471.658 211.378 459.91 212.814 457.145C212.41 460.76 212.41 469.776 215.663 469.021C218.906 468.267 218.087 459.346 219.427 456.316L223.712 447.842C224.53 448.342 227.592 453.839 228.719 454.317C229.814 454.775 231.08 454.222 231.133 450.734C231.175 445.014 224.945 437.157 224.945 437.157C219.31 405.303 234.439 349.326 259.531 318.673C262.635 314.878 270.567 301.375 263.507 295.942C259.446 293.433 263.093 287.171 258.904 288.67C240.181 295.357 220.745 329.912 216.269 340.735Z" fill="#D6824B"/>
<path fill-rule="evenodd" clip-rule="evenodd" d="M201.545 430.969L226.169 430.033C226.371 409.417 237.439 345.774 259.532 318.683C262.637 314.888 270.568 301.385 263.508 295.963C259.447 293.453 263.094 287.191 258.905 288.69C212.506 302.448 198.451 392.055 201.545 430.969Z" fill="black"/>
<path fill-rule="evenodd" clip-rule="evenodd" d="M284.507 258.038L305.058 261.632L306.791 282.045L295.617 284.342L283.922 284.033L284.507 258.038Z" fill="#BA662F"/>
<path fill-rule="evenodd" clip-rule="evenodd" d="M359.144 346.433C375.974 357.831 390.041 366.762 430.708 376.331C437.895 387.515 442.382 389.855 449.729 390.514C455.417 391.024 456.491 389.015 460.212 386.208C464.848 382.72 470.78 377.553 461.913 369.239C463.274 369.239 465.305 368.941 467.697 368.218C476.267 365.635 475.448 360.127 472.428 360.308C469.069 360.521 466.815 362.658 452.589 363.253C421.001 360.308 371.998 331.474 349.522 299.801C346.747 295.878 336.03 284.874 329.055 290.136C312.862 305.213 347.076 338.257 359.144 346.433Z" fill="#C7733B"/>
<path fill-rule="evenodd" clip-rule="evenodd" d="M355.774 348.23C371.637 358.979 388.893 373.609 424.511 382.572C426.977 377.681 432.336 363.253 434.547 357.289C405.798 347.603 369.787 324.234 350.735 300.737C346.216 295.155 330.427 280.78 323.878 286.979C307.675 302.045 343.718 340.054 355.774 348.23Z" fill="black"/>
<path fill-rule="evenodd" clip-rule="evenodd" d="M255.555 292.688C255.555 292.688 262.445 287.362 271.588 284.342C276.022 282.885 287.749 284.31 298.084 283.832C308.864 283.332 318.189 280.961 318.231 280.929C326.078 281.323 337.326 303.033 342.058 318.747C347.65 333.25 344.865 341.798 332.585 350.463C331.585 360.096 330.596 369.739 329.597 379.372C329.597 379.372 320.655 385.931 300.391 387.122C280.126 388.313 263.434 379.669 263.434 379.669C263.434 379.669 246.752 304.564 255.555 292.688Z" fill="#FF3E8A"/>
<path fill-rule="evenodd" clip-rule="evenodd" d="M341.685 317.556L342.057 318.758C347.649 333.26 344.864 341.808 332.584 350.473C331.584 360.106 330.596 369.749 329.596 379.382C329.596 379.382 320.655 385.942 300.39 387.132C280.125 388.323 263.433 379.679 263.433 379.679C263.433 379.679 258 355.215 254.97 332.005C254.97 332.005 276.585 351.855 312.755 347.656C348.925 343.445 342.355 323.255 341.685 317.556Z" fill="#F93E8B"/>
<path fill-rule="evenodd" clip-rule="evenodd" d="M284.123 275.114C286.675 279.717 291.682 282.737 298.083 283.832C301.666 281.535 304.813 278.441 306.121 274.199C307.779 274.869 312.84 275.805 318.337 280.43C316.615 285.831 313.914 290.509 310.597 293.73C306.429 290.434 302.251 287.128 298.083 283.832C294.436 288.531 292.193 292.178 288.546 296.877C280.827 293.677 275.107 289.446 271.588 284.332C274.31 280.653 278.02 278.41 284.123 275.114Z" fill="#E61366"/>
<path fill-rule="evenodd" clip-rule="evenodd" d="M421.341 402.22C419.651 403.166 417.524 402.56 416.578 400.88C415.632 399.2 416.238 397.063 417.918 396.117L591.933 300.237C595.622 298.206 596.887 301.141 593.74 302.959L421.341 402.22Z" fill="#336699"/>
<path fill-rule="evenodd" clip-rule="evenodd" d="M269.749 285.373C277.372 317.418 284.283 336.343 285.878 363.806C281.7 424.93 277.521 486.064 273.343 547.188C267.676 547.422 236.992 543.403 223.766 538.044L247.635 339.171C246.093 327.348 238.98 324.031 237.428 312.198C239.193 301.885 253.397 287.425 269.749 285.373Z" fill="black"/>
<path fill-rule="evenodd" clip-rule="evenodd" d="M269.536 284.129C275.511 308.264 284.038 331.506 285.877 363.817L269.344 331.336L274.884 320.938L252.344 290.838C258.266 287.064 262.816 284.268 269.536 284.129Z" fill="#140C11"/>
<path fill-rule="evenodd" clip-rule="evenodd" d="M321.92 281.929C320.325 309.392 318.73 336.854 317.125 364.317C321.303 425.441 325.482 486.575 329.65 547.699C335.316 547.933 354.784 544.881 368.01 539.534L352.062 346.817C353.604 334.994 352.913 318.663 354.454 306.829C352.7 302.321 338.272 283.971 321.92 281.929Z" fill="black"/>
<path fill-rule="evenodd" clip-rule="evenodd" d="M319.253 280.015L317.137 364.189L329.289 326.892L323.75 316.494L336.593 285.714C330.831 282.173 323.473 280.281 319.253 280.015Z" fill="#140C11"/>
<path fill-rule="evenodd" clip-rule="evenodd" d="M360.696 165.73C361.333 173.641 362.673 175.384 366.968 181.934C373.209 191.46 367.628 198.371 364.013 212.501C360.398 226.631 366.639 231.235 378.802 239.124C390.965 247.013 388.743 255.561 388.743 255.561C388.743 255.561 410.018 265.417 401.151 294.995C398.407 304.149 394.123 311.847 387.499 318.471C400.055 287.106 373.805 263.981 359.654 260.973C344.205 257.687 337.996 235.775 337.996 235.775L352.243 174.045C352.232 174.045 355.592 170.377 360.696 165.73Z" fill="#401B0F"/>
<path d="M226.285 234.626C210.55 235.094 206.956 213.203 219.651 209.343C208.679 174.183 229.698 136.386 275.214 128.242C306.717 122.607 342.398 136.705 352.233 174.045C358.835 199.104 359.611 224.313 350.883 241.239C329.597 282.492 243.584 278.537 226.285 234.626Z" fill="#D6824B"/>
<path fill-rule="evenodd" clip-rule="evenodd" d="M266.772 220.422C276.596 227.545 280.488 238.943 275.437 245.875C270.387 252.796 258.32 252.626 248.496 245.492C238.672 238.358 234.78 226.971 239.831 220.039C244.881 213.118 256.948 213.288 266.772 220.422Z" fill="#D6824B"/>
<path fill-rule="evenodd" clip-rule="evenodd" d="M266.452 220.443C276.064 227.418 279.87 238.55 274.937 245.322C270.003 252.095 258.212 251.925 248.59 244.961C238.968 237.997 235.173 226.844 240.106 220.082C245.039 213.309 256.841 213.469 266.452 220.443Z" fill="#D6814B"/>
<path fill-rule="evenodd" clip-rule="evenodd" d="M266.135 220.464C275.533 227.268 279.244 238.166 274.428 244.779C269.611 251.403 258.075 251.233 248.677 244.429C239.278 237.624 235.567 226.726 240.384 220.113C245.2 213.489 256.736 213.659 266.135 220.464Z" fill="#D6804B"/>
<path fill-rule="evenodd" clip-rule="evenodd" d="M265.815 220.485C274.991 227.141 278.627 237.773 273.928 244.237C269.228 250.702 257.958 250.542 248.772 243.897C239.597 237.241 235.95 226.609 240.66 220.145C245.37 213.681 256.629 213.84 265.815 220.485Z" fill="#D67F4B"/>
<path fill-rule="evenodd" clip-rule="evenodd" d="M265.497 220.506C274.46 226.992 278.022 237.38 273.418 243.684C268.836 250 257.832 249.84 248.869 243.355C239.906 236.869 236.344 226.482 240.937 220.177C245.53 213.861 256.524 214.021 265.497 220.506Z" fill="#D67E4A"/>
<path fill-rule="evenodd" clip-rule="evenodd" d="M265.168 220.528C273.918 226.854 277.395 236.987 272.918 243.143C268.442 249.299 257.704 249.15 248.964 242.824C240.214 236.498 236.738 226.365 241.214 220.209C245.69 214.053 256.418 214.202 265.168 220.528Z" fill="#D57D4A"/>
<path fill-rule="evenodd" clip-rule="evenodd" d="M264.847 220.56C273.385 226.726 276.776 236.604 272.406 242.611C268.047 248.618 257.585 248.469 249.048 242.302C240.51 236.136 237.129 226.259 241.488 220.251C245.848 214.244 256.32 214.383 264.847 220.56Z" fill="#D57C4A"/>
<path fill-rule="evenodd" clip-rule="evenodd" d="M264.53 220.581C272.855 226.599 276.162 236.21 271.919 242.058C267.667 247.905 257.47 247.767 249.156 241.76C240.831 235.753 237.535 226.131 241.778 220.283C246.02 214.425 256.205 214.563 264.53 220.581Z" fill="#D57C4A"/>
<path fill-rule="evenodd" clip-rule="evenodd" d="M264.21 220.603C272.311 226.461 275.544 235.817 271.408 241.516C267.272 247.215 257.342 247.077 249.24 241.229C241.138 235.381 237.906 226.015 242.042 220.316C246.178 214.617 256.108 214.745 264.21 220.603Z" fill="#D57B4A"/>
<path fill-rule="evenodd" clip-rule="evenodd" d="M263.891 220.624C271.78 226.323 274.927 235.424 270.908 240.974C266.889 246.513 257.225 246.385 249.336 240.697C241.447 234.999 238.3 225.887 242.318 220.348C246.337 214.798 256.002 214.936 263.891 220.624Z" fill="#D57A4A"/>
<path fill-rule="evenodd" clip-rule="evenodd" d="M263.573 220.645C271.249 226.185 274.311 235.041 270.399 240.421C266.497 245.811 257.098 245.684 249.422 240.155C241.745 234.616 238.683 225.759 242.585 220.38C246.498 214.989 255.896 215.117 263.573 220.645Z" fill="#D5794A"/>
<path fill-rule="evenodd" clip-rule="evenodd" d="M263.253 220.667C270.717 226.046 273.694 234.648 269.898 239.879C266.102 245.11 256.98 244.993 249.516 239.623C242.053 234.254 239.076 225.642 242.871 220.411C246.667 215.17 255.789 215.297 263.253 220.667Z" fill="#D57849"/>
<path fill-rule="evenodd" clip-rule="evenodd" d="M262.923 220.687C270.164 225.908 273.066 234.254 269.388 239.336C265.709 244.418 256.852 244.301 249.601 239.092C242.361 233.871 239.458 225.525 243.137 220.443C246.826 215.361 255.683 215.478 262.923 220.687Z" fill="#D57749"/>
<path fill-rule="evenodd" clip-rule="evenodd" d="M262.616 220.709C269.644 225.77 272.461 233.861 268.9 238.794C265.338 243.727 256.737 243.61 249.709 238.56C242.681 233.499 239.863 225.408 243.425 220.475C246.987 215.552 255.588 215.659 262.616 220.709Z" fill="#D47649"/>
<path fill-rule="evenodd" clip-rule="evenodd" d="M262.286 220.741C269.101 225.632 271.833 233.478 268.378 238.252C264.933 243.026 256.597 242.919 249.793 238.029C242.978 233.127 240.245 225.291 243.701 220.518C247.146 215.733 255.47 215.84 262.286 220.741Z" fill="#D47549"/>
<path fill-rule="evenodd" clip-rule="evenodd" d="M261.965 220.762C268.568 225.504 271.215 233.085 267.877 237.71C264.538 242.335 256.479 242.229 249.887 237.497C243.285 232.755 240.638 225.175 243.965 220.55C247.315 215.925 255.374 216.021 261.965 220.762Z" fill="#D47449"/>
<path fill-rule="evenodd" clip-rule="evenodd" d="M261.648 220.784C268.038 225.355 270.6 232.691 267.378 237.168C264.157 241.633 256.364 241.537 249.984 236.966C243.594 232.383 241.032 225.058 244.254 220.582C247.475 216.105 255.268 216.201 261.648 220.784Z" fill="#D47349"/>
<path fill-rule="evenodd" clip-rule="evenodd" d="M261.329 220.805C267.495 225.217 269.983 232.298 266.879 236.615C263.774 240.931 256.247 240.836 250.08 236.423C243.913 232.001 241.426 224.93 244.53 220.614C247.635 216.297 255.162 216.393 261.329 220.805Z" fill="#D47249"/>
<path fill-rule="evenodd" clip-rule="evenodd" d="M261.01 220.826C266.953 225.079 269.367 231.916 266.368 236.073C263.381 240.23 256.119 240.145 250.165 235.892C244.211 231.639 241.808 224.803 244.796 220.646C247.794 216.489 255.056 216.574 261.01 220.826Z" fill="#D47148"/>
<path fill-rule="evenodd" clip-rule="evenodd" d="M260.691 220.847C266.422 224.951 268.75 231.522 265.869 235.53C262.987 239.538 256.002 239.453 250.261 235.36C244.52 231.267 242.202 224.685 245.083 220.688C247.964 216.669 254.95 216.754 260.691 220.847Z" fill="#D47048"/>
<path fill-rule="evenodd" clip-rule="evenodd" d="M260.371 220.869C265.889 224.803 268.132 231.129 265.368 234.978C262.604 238.827 255.884 238.752 250.356 234.818C244.838 230.884 242.594 224.558 245.359 220.71C248.123 216.861 254.842 216.935 260.371 220.869Z" fill="#D46F48"/>
<path fill-rule="evenodd" clip-rule="evenodd" d="M260.043 220.89C265.349 224.675 267.507 230.735 264.849 234.435C262.202 238.135 255.748 238.06 250.443 234.286C245.137 230.512 242.979 224.441 245.626 220.741C248.284 217.051 254.738 217.115 260.043 220.89Z" fill="#D36F48"/>
<path fill-rule="evenodd" clip-rule="evenodd" d="M259.734 220.922C264.827 224.536 266.9 230.352 264.359 233.903C261.818 237.444 255.63 237.38 250.548 233.765C245.455 230.14 243.382 224.334 245.913 220.783C248.443 217.232 254.631 217.296 259.734 220.922Z" fill="#D36E48"/>
<path fill-rule="evenodd" clip-rule="evenodd" d="M259.404 220.943C264.284 224.409 266.272 229.959 263.848 233.35C261.424 236.742 255.502 236.678 250.632 233.223C245.752 229.756 243.764 224.207 246.188 220.815C248.602 217.423 254.524 217.476 259.404 220.943Z" fill="#D36D48"/>
<path fill-rule="evenodd" clip-rule="evenodd" d="M259.086 220.964C263.743 224.271 265.656 229.565 263.349 232.808C261.032 236.04 255.386 235.987 250.718 232.691C246.062 229.385 244.148 224.09 246.455 220.847C248.773 217.604 254.418 217.668 259.086 220.964Z" fill="#D36C47"/>
<path fill-rule="evenodd" clip-rule="evenodd" d="M258.766 220.985C263.21 224.122 265.039 229.172 262.849 232.266C260.648 235.349 255.268 235.296 250.824 232.159C246.38 229.023 244.551 223.973 246.741 220.879C248.931 217.795 254.322 217.849 258.766 220.985Z" fill="#D36B47"/>
<path fill-rule="evenodd" clip-rule="evenodd" d="M258.436 221.006C262.667 223.983 264.411 228.778 262.338 231.713C260.254 234.647 255.14 234.594 250.908 231.617C246.677 228.629 244.933 223.834 247.017 220.91C249.09 217.987 254.215 218.029 258.436 221.006Z" fill="#D36A47"/>
<path fill-rule="evenodd" clip-rule="evenodd" d="M258.129 221.028C262.148 223.846 263.818 228.396 261.84 231.171C259.873 233.946 255.025 233.914 251.006 231.086C246.987 228.258 245.328 223.718 247.295 220.943C249.262 218.168 254.11 218.211 258.129 221.028Z" fill="#D36947"/>
<path fill-rule="evenodd" clip-rule="evenodd" d="M257.799 221.049C261.605 223.707 263.179 228.002 261.329 230.618C259.479 233.244 254.896 233.202 251.09 230.544C247.284 227.875 245.71 223.59 247.56 220.964C249.421 218.359 254.003 218.391 257.799 221.049Z" fill="#D36847"/>
<path fill-rule="evenodd" clip-rule="evenodd" d="M257.479 221.081C261.073 223.58 262.561 227.62 260.828 230.087C259.084 232.553 254.768 232.532 251.185 230.023C247.591 227.524 246.092 223.484 247.836 221.017C249.579 218.54 253.896 218.572 257.479 221.081Z" fill="#D26747"/>
<path fill-rule="evenodd" clip-rule="evenodd" d="M257.161 221.103C260.531 223.452 261.956 227.227 260.329 229.545C258.702 231.862 254.651 231.841 251.281 229.491C247.911 227.152 246.497 223.367 248.123 221.05C249.739 218.732 253.79 218.753 257.161 221.103Z" fill="#D26647"/>
<path fill-rule="evenodd" clip-rule="evenodd" d="M256.842 221.124C260 223.303 261.339 226.833 259.819 229.002C258.309 231.16 254.524 231.15 251.366 228.96C248.209 226.78 246.88 223.25 248.389 221.081C249.899 218.912 253.684 218.934 256.842 221.124Z" fill="#D26546"/>
<path fill-rule="evenodd" clip-rule="evenodd" d="M256.523 221.145C259.457 223.165 260.712 226.44 259.319 228.449C257.916 230.458 254.407 230.448 251.462 228.417C248.517 226.397 247.262 223.122 248.666 221.113C250.069 219.103 253.588 219.125 256.523 221.145Z" fill="#D26446"/>
<path fill-rule="evenodd" clip-rule="evenodd" d="M256.204 221.166C258.925 223.027 260.106 226.046 258.819 227.907C257.533 229.757 254.29 229.757 251.568 227.886C248.846 226.025 247.666 223.006 248.953 221.145C250.228 219.295 253.482 219.306 256.204 221.166Z" fill="#D26346"/>
<path fill-rule="evenodd" clip-rule="evenodd" d="M255.885 221.188C258.394 222.889 259.478 225.653 258.319 227.365C257.15 229.066 254.162 229.066 251.664 227.355C249.154 225.643 248.07 222.878 249.229 221.177C250.388 219.476 253.375 219.487 255.885 221.188Z" fill="#D26246"/>
<path fill-rule="evenodd" clip-rule="evenodd" d="M255.556 221.208C257.852 222.75 258.862 225.27 257.81 226.812C256.757 228.364 254.046 228.364 251.75 226.812C249.453 225.259 248.443 222.75 249.506 221.208C250.548 219.667 253.27 219.667 255.556 221.208Z" fill="#D26246"/>
<path fill-rule="evenodd" clip-rule="evenodd" d="M255.247 221.24C257.331 222.622 258.256 224.887 257.31 226.28C256.364 227.672 253.929 227.683 251.845 226.29C249.761 224.908 248.836 222.643 249.782 221.251C250.718 219.847 253.163 219.847 255.247 221.24Z" fill="#D26146"/>
<path fill-rule="evenodd" clip-rule="evenodd" d="M254.929 221.262C256.79 222.485 257.63 224.494 256.811 225.738C255.982 226.982 253.802 226.993 251.941 225.76C250.081 224.526 249.241 222.527 250.06 221.283C250.878 220.039 253.058 220.029 254.929 221.262Z" fill="#D16046"/>
<path fill-rule="evenodd" clip-rule="evenodd" d="M254.599 221.283C256.247 222.346 257.002 224.1 256.29 225.185C255.577 226.269 253.663 226.29 252.016 225.217C250.368 224.153 249.602 222.399 250.314 221.315C251.037 220.23 252.951 220.209 254.599 221.283Z" fill="#D15F45"/>
<path fill-rule="evenodd" clip-rule="evenodd" d="M254.279 221.304C255.714 222.218 256.395 223.707 255.789 224.643C255.193 225.578 253.545 225.599 252.11 224.685C250.675 223.771 249.994 222.282 250.59 221.347C251.206 220.411 252.854 220.39 254.279 221.304Z" fill="#D15E45"/>
<path fill-rule="evenodd" clip-rule="evenodd" d="M253.96 221.326C255.183 222.07 255.779 223.314 255.289 224.101C254.811 224.877 253.418 224.909 252.206 224.154C250.983 223.399 250.388 222.166 250.877 221.379C251.366 220.603 252.738 220.581 253.96 221.326Z" fill="#D15D45"/>
<path fill-rule="evenodd" clip-rule="evenodd" d="M253.642 221.347C254.641 221.932 255.162 222.921 254.79 223.548C254.418 224.175 253.312 224.207 252.302 223.612C251.292 223.016 250.782 222.038 251.154 221.411C251.526 220.784 252.642 220.762 253.642 221.347Z" fill="#D15C45"/>
<path fill-rule="evenodd" clip-rule="evenodd" d="M338.347 215.595C330.129 220.454 325.153 230.831 327.258 238.773C329.363 246.715 337.731 249.203 345.949 244.334C354.168 239.475 359.133 229.098 357.039 221.156C354.933 213.224 346.566 210.736 338.347 215.595Z" fill="#D6824B"/>
<path fill-rule="evenodd" clip-rule="evenodd" d="M338.559 215.691C330.521 220.443 325.662 230.586 327.714 238.348C329.766 246.109 337.942 248.544 345.991 243.791C354.028 239.039 358.887 228.896 356.846 221.134C354.783 213.373 346.607 210.938 338.559 215.691Z" fill="#D6814B"/>
<path fill-rule="evenodd" clip-rule="evenodd" d="M338.783 215.786C330.926 220.422 326.163 230.341 328.162 237.922C330.161 245.503 338.167 247.884 346.024 243.249C353.881 238.613 358.644 228.693 356.634 221.113C354.646 213.522 346.64 211.14 338.783 215.786Z" fill="#D6804B"/>
<path fill-rule="evenodd" clip-rule="evenodd" d="M338.995 215.872C331.319 220.401 326.672 230.087 328.629 237.497C330.585 244.908 338.4 247.236 346.065 242.707C353.742 238.178 358.388 228.492 356.442 221.081C354.486 213.671 346.671 211.342 338.995 215.872Z" fill="#D67F4B"/>
<path fill-rule="evenodd" clip-rule="evenodd" d="M339.22 215.967C331.724 220.39 327.184 229.831 329.098 237.072C331.001 244.302 338.624 246.577 346.12 242.154C353.615 237.731 358.155 228.279 356.252 221.049C354.338 213.819 346.715 211.544 339.22 215.967Z" fill="#D67E4A"/>
<path fill-rule="evenodd" clip-rule="evenodd" d="M339.432 216.063C332.117 220.379 327.684 229.587 329.544 236.646C331.394 243.706 338.837 245.917 346.152 241.611C353.467 237.295 357.9 228.087 356.039 221.028C354.189 213.968 346.747 211.746 339.432 216.063Z" fill="#D57D4A"/>
<path fill-rule="evenodd" clip-rule="evenodd" d="M339.644 216.159C332.51 220.358 328.182 229.342 329.99 236.221C331.797 243.1 339.059 245.269 346.193 241.059C353.327 236.859 357.644 227.875 355.836 220.996C354.04 214.117 346.778 211.948 339.644 216.159Z" fill="#D57C4A"/>
<path fill-rule="evenodd" clip-rule="evenodd" d="M339.869 216.243C332.915 220.336 328.705 229.087 330.459 235.785C332.224 242.483 339.295 244.599 346.248 240.506C353.201 236.412 357.422 227.662 355.657 220.953C353.892 214.266 346.822 212.16 339.869 216.243Z" fill="#D57C4A"/>
<path fill-rule="evenodd" clip-rule="evenodd" d="M340.08 216.339C333.307 220.316 329.203 228.843 330.915 235.371C332.627 241.899 339.516 243.951 346.289 239.974C353.062 235.987 357.176 227.471 355.464 220.943C353.742 214.415 346.852 212.363 340.08 216.339Z" fill="#D57B4A"/>
<path fill-rule="evenodd" clip-rule="evenodd" d="M340.293 216.435C333.701 220.305 329.703 228.598 331.372 234.946C333.031 241.293 339.74 243.292 346.332 239.422C352.924 235.552 356.921 227.259 355.252 220.911C353.593 214.564 346.895 212.565 340.293 216.435Z" fill="#D57A4A"/>
<path fill-rule="evenodd" clip-rule="evenodd" d="M340.517 216.531C334.106 220.295 330.214 228.354 331.831 234.52C333.447 240.697 339.964 242.643 346.375 238.879C352.786 235.116 356.678 227.057 355.062 220.89C353.446 214.713 346.928 212.767 340.517 216.531Z" fill="#D5794A"/>
<path fill-rule="evenodd" clip-rule="evenodd" d="M340.729 216.616C334.499 220.273 330.713 228.088 332.287 234.084C333.85 240.081 340.187 241.973 346.417 238.326C352.647 234.669 356.432 226.854 354.859 220.858C353.296 214.861 346.959 212.969 340.729 216.616Z" fill="#D57849"/>
<path fill-rule="evenodd" clip-rule="evenodd" d="M340.951 216.711C334.902 220.252 331.223 227.843 332.743 233.669C334.264 239.485 340.409 241.324 346.459 237.784C352.508 234.243 356.187 226.652 354.667 220.826C353.146 215.01 347.001 213.171 340.951 216.711Z" fill="#D57749"/>
<path fill-rule="evenodd" clip-rule="evenodd" d="M341.165 216.807C335.296 220.241 331.724 227.598 333.202 233.244C334.68 238.89 340.634 240.676 346.502 237.242C352.371 233.807 355.944 226.45 354.466 220.804C352.999 215.159 347.034 213.373 341.165 216.807Z" fill="#D47649"/>
<path fill-rule="evenodd" clip-rule="evenodd" d="M341.378 216.892C335.69 220.219 332.223 227.343 333.648 232.808C335.073 238.273 340.846 240.006 346.534 236.678C352.222 233.35 355.688 226.227 354.264 220.762C352.839 215.307 347.076 213.574 341.378 216.892Z" fill="#D47549"/>
<path fill-rule="evenodd" clip-rule="evenodd" d="M341.6 216.988C336.093 220.199 332.733 227.099 334.115 232.383C335.487 237.678 341.079 239.347 346.587 236.136C352.094 232.926 355.454 226.025 354.082 220.741C352.7 215.457 347.108 213.777 341.6 216.988Z" fill="#D47449"/>
<path fill-rule="evenodd" clip-rule="evenodd" d="M341.814 217.084C336.487 220.188 333.244 226.855 334.573 231.969C335.902 237.083 341.303 238.709 346.63 235.605C351.957 232.5 355.199 225.834 353.87 220.72C352.541 215.606 347.151 213.979 341.814 217.084Z" fill="#D47349"/>
<path fill-rule="evenodd" clip-rule="evenodd" d="M342.037 217.179C336.891 220.177 333.755 226.599 335.031 231.543C336.317 236.476 341.527 238.05 346.673 235.052C351.819 232.053 354.955 225.632 353.679 220.688C352.403 215.744 347.183 214.181 342.037 217.179Z" fill="#D47249"/>
<path fill-rule="evenodd" clip-rule="evenodd" d="M342.249 217.264C337.283 220.145 334.253 226.344 335.476 231.107C336.709 235.87 341.738 237.38 346.714 234.499C351.679 231.617 354.709 225.419 353.476 220.656C352.243 215.903 347.214 214.383 342.249 217.264Z" fill="#D47148"/>
<path fill-rule="evenodd" clip-rule="evenodd" d="M342.472 217.36C337.677 220.135 334.764 226.099 335.944 230.682C337.124 235.264 341.972 236.731 346.757 233.956C351.541 231.181 354.465 225.217 353.285 220.634C352.105 216.052 347.246 214.585 342.472 217.36Z" fill="#D47048"/>
<path fill-rule="evenodd" clip-rule="evenodd" d="M342.685 217.455C338.082 220.124 335.264 225.855 336.402 230.267C337.539 234.669 342.196 236.083 346.8 233.414C351.404 230.745 354.221 225.015 353.083 220.613C351.946 216.201 347.289 214.787 342.685 217.455Z" fill="#D46F48"/>
<path fill-rule="evenodd" clip-rule="evenodd" d="M342.898 217.552C338.475 220.103 335.774 225.611 336.859 229.842C337.943 234.074 342.419 235.424 346.842 232.873C351.265 230.321 353.976 224.813 352.881 220.582C351.797 216.35 347.321 214.989 342.898 217.552Z" fill="#D36F48"/>
<path fill-rule="evenodd" clip-rule="evenodd" d="M343.123 217.636C338.88 220.082 336.275 225.355 337.317 229.406C338.359 233.457 342.644 234.764 346.886 232.319C351.128 229.874 353.733 224.6 352.691 220.549C351.649 216.499 347.365 215.191 343.123 217.636Z" fill="#D36E48"/>
<path fill-rule="evenodd" clip-rule="evenodd" d="M343.333 217.732C339.272 220.071 336.784 225.1 337.772 228.981C338.761 232.862 342.865 234.106 346.927 231.767C350.988 229.427 353.487 224.388 352.498 220.518C351.498 216.648 347.394 215.393 343.333 217.732Z" fill="#D36D48"/>
<path fill-rule="evenodd" clip-rule="evenodd" d="M343.546 217.828C339.665 220.05 337.273 224.855 338.219 228.566C339.166 232.266 343.078 233.457 346.959 231.235C350.84 229.012 353.221 224.207 352.286 220.507C351.35 216.796 347.437 215.605 343.546 217.828Z" fill="#D36C47"/>
<path fill-rule="evenodd" clip-rule="evenodd" d="M343.77 217.923C340.07 220.039 337.795 224.611 338.688 228.14C339.592 231.67 343.313 232.808 347.024 230.681C350.724 228.566 352.999 223.994 352.106 220.464C351.202 216.945 347.47 215.807 343.77 217.923Z" fill="#D36B47"/>
<path fill-rule="evenodd" clip-rule="evenodd" d="M343.982 218.008C340.463 220.018 338.294 224.356 339.145 227.705C339.995 231.054 343.546 232.138 347.055 230.129C350.574 228.12 352.754 223.782 351.903 220.433C351.053 217.094 347.501 216.01 343.982 218.008Z" fill="#D36A47"/>
<path fill-rule="evenodd" clip-rule="evenodd" d="M344.206 218.105C340.857 219.997 338.805 224.112 339.603 227.28C340.4 230.448 343.76 231.48 347.098 229.587C350.437 227.695 352.499 223.58 351.702 220.412C350.904 217.243 347.545 216.212 344.206 218.105Z" fill="#D36947"/>
<path fill-rule="evenodd" clip-rule="evenodd" d="M344.419 218.2C341.261 219.986 339.305 223.867 340.059 226.855C340.814 229.853 343.983 230.82 347.151 229.034C350.309 227.248 352.265 223.367 351.51 220.38C350.755 217.392 347.576 216.414 344.419 218.2Z" fill="#D36847"/>
<path fill-rule="evenodd" clip-rule="evenodd" d="M344.631 218.296C341.654 219.976 339.804 223.623 340.516 226.44C341.218 229.258 344.216 230.183 347.182 228.503C350.159 226.823 352.009 223.176 351.307 220.359C350.606 217.541 347.618 216.616 344.631 218.296Z" fill="#D26747"/>
<path fill-rule="evenodd" clip-rule="evenodd" d="M344.854 218.381C342.058 219.944 340.314 223.357 340.973 226.004C341.633 228.641 344.439 229.512 347.236 227.95C350.032 226.387 351.775 222.974 351.116 220.326C350.446 217.69 347.65 216.818 344.854 218.381Z" fill="#D26647"/>
<path fill-rule="evenodd" clip-rule="evenodd" d="M345.067 218.476C342.451 219.933 340.814 223.112 341.431 225.578C342.037 228.045 344.663 228.853 347.278 227.397C349.894 225.94 351.521 222.761 350.915 220.294C350.298 217.838 347.682 217.02 345.067 218.476Z" fill="#D26546"/>
<path fill-rule="evenodd" clip-rule="evenodd" d="M345.279 218.571C342.845 219.922 341.324 222.867 341.888 225.153C342.441 227.439 344.875 228.204 347.321 226.854C349.756 225.503 351.276 222.558 350.712 220.273C350.16 217.987 347.725 217.221 345.279 218.571Z" fill="#D26446"/>
<path fill-rule="evenodd" clip-rule="evenodd" d="M345.503 218.667C343.249 219.911 341.835 222.623 342.345 224.738C342.856 226.854 345.11 227.556 347.364 226.323C349.618 225.079 351.032 222.367 350.521 220.252C350 218.125 347.757 217.423 345.503 218.667Z" fill="#D26346"/>
<path fill-rule="evenodd" clip-rule="evenodd" d="M345.715 218.753C343.642 219.88 342.334 222.367 342.802 224.302C343.27 226.238 345.322 226.886 347.406 225.759C349.479 224.632 350.787 222.144 350.319 220.209C349.851 218.285 347.788 217.626 345.715 218.753Z" fill="#D26246"/>
<path fill-rule="evenodd" clip-rule="evenodd" d="M345.939 218.848C344.046 219.869 342.845 222.123 343.26 223.877C343.674 225.632 345.556 226.238 347.449 225.217C349.341 224.196 350.543 221.942 350.128 220.188C349.703 218.434 347.831 217.828 345.939 218.848Z" fill="#D26246"/>
<path fill-rule="evenodd" clip-rule="evenodd" d="M346.151 218.945C344.439 219.859 343.344 221.879 343.716 223.453C344.088 225.037 345.779 225.579 347.491 224.665C349.202 223.75 350.297 221.741 349.925 220.157C349.553 218.573 347.863 218.03 346.151 218.945Z" fill="#D26146"/>
<path fill-rule="evenodd" clip-rule="evenodd" d="M346.363 219.04C344.832 219.837 343.843 221.623 344.162 223.037C344.481 224.441 345.991 224.93 347.522 224.132C349.053 223.335 350.042 221.549 349.723 220.135C349.404 218.721 347.905 218.231 346.363 219.04Z" fill="#D16046"/>
<path fill-rule="evenodd" clip-rule="evenodd" d="M346.588 219.125C345.238 219.816 344.355 221.368 344.632 222.602C344.908 223.835 346.227 224.271 347.577 223.58C348.927 222.889 349.799 221.336 349.533 220.103C349.257 218.87 347.938 218.434 346.588 219.125Z" fill="#D15F45"/>
<path fill-rule="evenodd" clip-rule="evenodd" d="M346.799 219.22C345.63 219.805 344.864 221.123 345.088 222.176C345.311 223.228 346.448 223.611 347.618 223.026C348.787 222.441 349.564 221.123 349.33 220.07C349.106 219.018 347.969 218.646 346.799 219.22Z" fill="#D15E45"/>
<path fill-rule="evenodd" clip-rule="evenodd" d="M347.012 219.316C346.023 219.784 345.354 220.879 345.534 221.751C345.715 222.623 346.661 222.953 347.65 222.485C348.639 222.017 349.298 220.922 349.117 220.05C348.958 219.168 348.012 218.849 347.012 219.316Z" fill="#D15D45"/>
<path fill-rule="evenodd" clip-rule="evenodd" d="M347.236 219.412C346.418 219.774 345.875 220.635 346.003 221.336C346.141 222.038 346.896 222.315 347.704 221.953C348.512 221.592 349.065 220.73 348.948 220.039C348.81 219.316 348.044 219.051 347.236 219.412Z" fill="#D15C45"/>
<path fill-rule="evenodd" clip-rule="evenodd" d="M211.975 220.433C211.985 215.563 214.441 210.939 219.651 209.354C208.679 174.194 229.698 136.397 275.214 128.253C306.706 122.618 342.398 136.716 352.233 174.056L352.435 174.821C346.279 164.838 335.317 165.008 326.875 165.763C315.775 166.752 316.275 159.851 316.275 159.851L311.714 143.584C311.714 143.584 304.442 148.273 309.375 156.035C314.308 163.796 307.036 171.44 290.397 168.602C273.758 165.763 255.268 153.196 255.268 153.196C255.268 153.196 255.268 157.385 253.663 164.53C252.057 171.674 245.657 181.296 239.49 182.647C233.334 184.008 234.802 189.919 236.163 195.958C237.523 201.997 230.124 211.491 222.235 212.225C216.472 212.757 213.272 217.764 211.975 220.433Z" fill="#C7733B"/>
<path fill-rule="evenodd" clip-rule="evenodd" d="M226.285 234.627C222.202 235.467 219.013 233.096 216.737 231.331C221.288 232.533 224.19 233.447 228.847 230.045C241.946 271.893 316.817 277.74 343.461 251.479C314.329 281.43 241.999 274.498 226.285 234.627Z" fill="#C7733B"/>
<path fill-rule="evenodd" clip-rule="evenodd" d="M266.367 191.078C273.682 191.078 279.604 196.628 279.604 203.475C279.604 210.322 273.682 215.872 266.367 215.872C259.063 215.872 253.13 210.322 253.13 203.475C253.13 196.628 259.063 191.078 266.367 191.078Z" fill="#BA662F"/>
<path fill-rule="evenodd" clip-rule="evenodd" d="M266.368 191.078C273.683 191.078 279.605 196.628 279.605 203.475C279.605 210.322 273.683 215.872 266.368 215.872C259.064 215.872 255.874 208.844 255.874 201.997C255.874 200.232 253.525 200.03 254.227 198.509C256.268 194.14 260.935 191.078 266.368 191.078Z" fill="#E61366"/>
<path fill-rule="evenodd" clip-rule="evenodd" d="M267.793 192.333C275.107 192.333 281.03 197.882 281.03 204.73C281.03 211.577 275.107 217.126 267.793 217.126C260.478 217.126 254.556 211.577 254.556 204.73C254.556 197.893 260.478 192.333 267.793 192.333Z" fill="#FEFEFE"/>
<path fill-rule="evenodd" clip-rule="evenodd" d="M269.101 195.192C274.013 195.192 278 199.179 278 204.091C278 209.003 274.013 212.99 269.101 212.99C264.178 212.99 260.191 209.003 260.191 204.091C260.202 199.179 264.189 195.192 269.101 195.192Z" fill="#401B0F"/>
<path fill-rule="evenodd" clip-rule="evenodd" d="M278.967 200.008C280.53 201.422 281.615 203.07 280.105 199.275C276.798 190.982 266.188 190.418 259.436 194.809C258.394 195.479 257.342 196.17 255.885 196.649C253.514 197.435 252.345 196.755 251.632 196.245C248.421 193.863 250.165 205.09 259.904 199.774C264.837 197.084 270.27 192.13 278.967 200.008Z" fill="#401B0F"/>
<path fill-rule="evenodd" clip-rule="evenodd" d="M264.572 199.498C265.954 199.498 267.07 200.614 267.07 201.996C267.07 203.378 265.954 204.495 264.572 204.495C263.19 204.495 262.073 203.378 262.073 201.996C262.073 200.625 263.19 199.498 264.572 199.498Z" fill="#FEFEFE"/>
<path fill-rule="evenodd" clip-rule="evenodd" d="M336.072 188.814C342.908 188.814 348.448 194.363 348.448 201.211C348.448 208.058 342.898 213.608 336.072 213.608C329.236 213.608 323.696 208.058 323.696 201.211C323.696 194.363 329.055 188.792 336.072 188.814Z" fill="#BA662F"/>
<path fill-rule="evenodd" clip-rule="evenodd" d="M336.603 188.813C329.895 188.377 323.494 194.086 323.494 200.934C323.494 207.781 329.416 213.331 336.731 213.331C344.035 213.331 347.225 206.303 347.225 199.456C347.225 197.691 348.182 197.489 347.48 195.968C345.428 191.599 341.26 189.111 336.603 188.813Z" fill="#E61366"/>
<path fill-rule="evenodd" clip-rule="evenodd" d="M334.966 190.546C341.802 190.546 347.352 196.096 347.352 202.943C347.352 209.79 341.802 215.34 334.966 215.34C328.129 215.34 322.59 209.79 322.59 202.943C322.59 196.096 328.129 190.546 334.966 190.546Z" fill="#FEFEFE"/>
<path fill-rule="evenodd" clip-rule="evenodd" d="M333.456 193.863C337.996 193.863 341.674 197.85 341.674 202.762C341.674 207.674 337.996 211.661 333.456 211.661C328.916 211.661 325.227 207.674 325.227 202.762C325.227 197.84 328.905 193.863 333.456 193.863Z" fill="#401B0F"/>
<path fill-rule="evenodd" clip-rule="evenodd" d="M329.098 197.818C330.47 197.818 331.597 198.935 331.597 200.317C331.597 201.699 330.47 202.815 329.098 202.815C327.716 202.815 326.6 201.699 326.6 200.317C326.589 198.935 327.716 197.818 329.098 197.818Z" fill="#FEFEFE"/>
<path fill-rule="evenodd" clip-rule="evenodd" d="M315.413 220.05C315.105 229.948 299.614 229.789 298.668 222.633C300.465 223.208 302.612 224.111 305.983 223.899C308.864 223.718 312.936 222.708 315.413 220.05Z" fill="#BA662F"/>
<path fill-rule="evenodd" clip-rule="evenodd" d="M222.139 223.091C222.139 223.091 220.289 219.827 223.404 219.093C225.02 218.711 225.977 220.125 226.488 221.549C226.966 222.868 227.072 224.207 226.977 224.144C226.977 224.144 226.541 223.527 225.913 222.889C224.765 221.719 222.968 220.486 222.139 223.091Z" fill="#C7733B"/>
<path fill-rule="evenodd" clip-rule="evenodd" d="M288.503 241.069C300.336 245.779 312.021 242.834 321.356 239.591C325.098 238.294 322.621 244.663 321.877 246.311C318.081 254.732 307.237 259.505 298.189 257.921C290.597 256.592 285.473 250.893 283.612 245.992C281.486 240.368 281.55 238.294 288.503 241.069Z" fill="#8F2F23"/>
<path fill-rule="evenodd" clip-rule="evenodd" d="M314.181 254.689C309.429 257.581 303.496 258.836 298.19 257.911C291.024 256.656 286.049 251.5 283.954 246.8C290.355 244.376 313.128 244.206 314.181 254.689Z" fill="#B13B32"/>
<path fill-rule="evenodd" clip-rule="evenodd" d="M289.099 241.293C300.188 245.099 310.99 242.803 319.804 240.113C319.74 245.929 312.223 248.874 303.824 249.437C296.456 249.937 290.704 247.747 289.099 241.293Z" fill="#FEFEFE"/>
<path fill-rule="evenodd" clip-rule="evenodd" d="M289.099 241.293C300.188 245.099 310.99 242.803 319.804 240.113C319.793 240.815 319.676 241.484 319.464 242.101C306.652 246.513 296.105 245.12 289.822 243.356C289.524 242.728 289.279 242.048 289.099 241.293Z" fill="#F2F2F2"/>
<path fill-rule="evenodd" clip-rule="evenodd" d="M254.461 185.719C259.745 182.157 268.335 180.754 272.567 180.977C279.605 181.36 278.606 174.948 273.311 173.598C267.368 172.078 254.322 177.49 250.218 182.168C247.688 185.081 249.07 189.344 254.461 185.719Z" fill="#401B0F"/>
<path fill-rule="evenodd" clip-rule="evenodd" d="M324.579 198.605C323.09 200.019 322.059 201.667 323.494 197.872C326.641 189.579 336.614 188.654 343.036 193.034C344.025 193.704 345.162 194.767 346.555 195.246C348.82 196.022 349.926 195.352 350.595 194.842C353.657 192.46 351.999 203.687 342.728 198.371C338.018 195.682 332.85 190.727 324.579 198.605Z" fill="#401B0F"/>
<path fill-rule="evenodd" clip-rule="evenodd" d="M182.832 331.187C181.397 328.327 181.046 325.329 181.928 322.267C188.18 300.578 185.873 293.348 172.072 297.292C158.272 301.237 136.572 288.085 152.35 250.299C167.532 213.926 183.023 214.383 186.511 205.676C208.87 196.883 225.392 184.327 222.894 196.553C222.245 199.722 229.507 200.626 224.403 208.334C202.81 215.564 194.665 246.832 206.169 254.721C217.673 262.61 219.959 283.045 201.895 301.715C192.422 311.507 185.299 321.778 182.832 331.187Z" fill="#401B0F"/>
<path fill-rule="evenodd" clip-rule="evenodd" d="M339.687 122.118C339.687 122.118 359.409 127.051 360.068 150.048C360.536 166.411 360.675 170.802 362.96 175.406C359.707 181.477 355.401 181.551 352.243 174.045C345.822 158.767 335.997 162.701 326.131 163.689C316.275 164.678 310.364 154.163 310.364 154.163C310.364 154.163 317.593 165.997 299.179 165.997C280.775 165.997 254.162 149.559 254.162 149.559C254.162 149.559 253.503 156.13 250.877 164.678C248.251 173.226 243.318 178.149 235.429 181.115C227.54 184.071 233.462 188.675 232.143 198.86C230.825 209.046 219.661 209.354 219.661 209.354C201.427 208.312 146.343 271.584 190.721 281.344C202.065 283.842 191.486 301.725 183.831 320.395C182.12 323.234 181.545 325.371 181.46 325.68C181.45 324.553 181.599 323.415 181.928 322.267C188.18 300.577 185.873 293.347 172.072 297.292C158.272 301.236 136.572 288.085 152.35 250.298C168.128 212.501 184.225 214.479 186.861 204.612C189.488 194.756 168.457 170.43 192.124 144.467C216.44 114.559 251.611 123.107 251.611 123.107C251.611 123.107 294.33 69.5318 339.687 122.118Z" fill="#401B0F"/>
<path fill-rule="evenodd" clip-rule="evenodd" d="M354.678 132.856C357.602 136.971 359.845 142.553 360.058 150.048L360.09 151.186C358.038 157.608 354.71 163.891 349.447 168.835C345.396 162.998 340.431 162.19 335.136 162.573C343.281 159.554 349.362 155.63 351.446 150.867C354.104 144.796 354.87 138.534 354.678 132.856ZM252.079 160.351C251.728 161.712 251.324 163.158 250.856 164.668C248.23 173.216 243.297 178.138 235.408 181.105C234.408 181.477 233.643 181.881 233.037 182.306C229.39 180.563 222.437 179.255 209.21 180.924C196.633 182.508 186.936 177.437 180.77 170.42C180.972 164.699 182.449 158.597 186.203 152.324C188.244 158.554 193.751 164.689 207.477 165.008C231.378 165.561 240.766 156.375 252.079 160.351Z" fill="#E61366"/>
<path fill-rule="evenodd" clip-rule="evenodd" d="M346.458 184.422C341.27 181.115 332.828 180.137 328.671 180.573C321.76 181.296 322.738 174.842 327.948 173.226C333.785 171.419 346.597 176.182 350.615 180.668C353.114 183.454 351.742 187.792 346.458 184.422Z" fill="#401B0F"/>
<path d="M221.363 209.439C225.467 212.672 230.124 215.691 233.909 215.234C234.685 215.138 235.387 215.68 235.482 216.446C235.578 217.201 235.025 217.903 234.249 217.988C229.986 218.509 223.904 214.777 218.981 210.747L221.363 209.439Z" fill="#20A39E"/>
<path d="M226.295 234.627C233.94 243.93 241.489 256.784 253.333 260.122C254.088 260.335 254.523 261.101 254.311 261.834C254.098 262.568 253.311 262.993 252.557 262.791C244.295 260.484 232.664 249.171 222.563 234.563C223.807 234.839 224.573 234.786 226.295 234.627Z" fill="#20A39E"/>
<path fill-rule="evenodd" clip-rule="evenodd" d="M233.622 213.67C236.206 230.458 239.161 244.131 241.745 260.93C278.394 284.044 366.31 277.41 359.41 210.226C338.061 222.686 318.881 218.508 304.485 219.465C286.059 220.688 268.059 225.419 233.622 213.67Z" fill="#20A89E"/>
<path fill-rule="evenodd" clip-rule="evenodd" d="M233.622 213.67C236.206 230.458 236.897 243.206 239.48 259.994C241.564 261.143 243.712 262.195 245.902 263.163C244.275 241.473 240.522 224.823 237.673 214.989C236.397 214.734 234.94 213.936 233.622 213.67Z" fill="#20A39E"/>
<path fill-rule="evenodd" clip-rule="evenodd" d="M270.588 271.126C291.884 274.592 314.87 275.22 336.092 261.132C332.19 244.737 321.484 234.733 306.96 232.713C292.447 230.703 273.48 263.694 270.588 271.126Z" fill="#20A39E"/>
</g>
</g>
<defs>
<clipPath id="clip0">
<rect width="1920" height="463.56" fill="white"/>
</clipPath>
</defs>
</svg>
