<svg width="47" height="30" viewBox="0 0 47 30" fill="none" xmlns="http://www.w3.org/2000/svg">
<path d="M3.19011 0C2.81786 0 2.4668 0.0651865 2.1346 0.19793L8.78577 7.08636L15.51 14.0992L15.6325 14.2474L15.8292 14.4453L16.026 14.6433L16.4183 15.0628L22.1859 21.0138C22.2825 21.0742 22.5605 21.3326 22.7773 21.4428C23.0576 21.5838 23.3604 21.713 23.6738 21.7249C24.0119 21.7367 24.357 21.6395 24.6598 21.4914C24.8871 21.38 24.9884 21.22 25.2523 21.0149L31.9282 14.0767L38.6772 7.08873L45.1811 0.348451C44.7653 0.118521 44.3023 0 43.8087 0H3.19011ZM1.15329 0.839128C0.444119 1.51588 0 2.53161 0 3.67889V26.2962C0 27.2254 0.296864 28.0681 0.785748 28.7164L1.71875 27.8275L8.66444 21.0375L14.8244 15.0379L14.7019 14.8898L7.95173 7.90179L1.20277 0.888906L1.15329 0.839128ZM46.0658 1.06195L39.4889 7.90179L32.7646 14.8898L32.6421 15.013L39.0483 21.2603L45.994 28.0503L46.411 28.445C46.7844 27.8417 47 27.0974 47 26.2974V3.67889C46.9988 2.65605 46.6466 1.72922 46.0658 1.06195ZM15.6089 15.8522L9.47374 21.8517L2.50332 28.6418L1.6198 29.5058C2.08512 29.808 2.61523 30 3.19011 30H43.8075C44.499 30 45.1257 29.7321 45.6476 29.309L45.2059 28.8646L38.2354 22.0745L31.8293 15.8522L26.0616 21.828C25.7495 22.0366 25.5409 22.2677 25.2358 22.4087C24.7458 22.6375 24.2074 22.8295 23.6667 22.8212C23.1248 22.8129 22.5935 22.5996 22.107 22.359C21.8631 22.2381 21.7324 22.1184 21.4461 21.8766L15.6089 15.8522Z" fill="white"/>
</svg>
