<svg width="1093" height="1361" viewBox="0 0 1093 1361" fill="none" xmlns="http://www.w3.org/2000/svg">
<path fill-rule="evenodd" clip-rule="evenodd" d="M498.995 105.006C498.995 105.006 544.787 116.46 546.317 169.854C547.848 223.273 547.848 221.743 562.338 243.886C576.828 266.004 563.868 282.049 555.475 314.856C547.082 347.663 561.573 358.352 589.813 376.668C618.053 394.985 612.894 414.832 612.894 414.832C612.894 414.832 662.289 437.715 641.701 506.39C621.089 575.064 563.103 608.636 405.142 636.111C247.18 663.586 118.224 620.09 132.714 569.732C147.229 519.374 141.873 502.588 109.831 511.746C77.7896 520.904 27.4068 490.369 64.0398 402.637C100.673 314.881 138.046 319.472 144.168 296.564C150.266 273.681 101.438 217.201 156.388 156.919C212.843 87.4794 294.502 107.326 294.502 107.326C294.502 107.326 393.688 -17.0877 498.995 105.006Z" fill="#291109"/>
<path fill-rule="evenodd" clip-rule="evenodd" d="M403.338 1305.73C523.432 1305.73 621.384 1318.04 622.124 1333.22C622.865 1348.41 526.099 1360.72 405.98 1360.72C285.861 1360.72 187.934 1348.41 187.194 1333.22C186.453 1318.04 283.244 1305.73 403.338 1305.73Z" fill="#EBECEC"/>
<path fill-rule="evenodd" clip-rule="evenodd" d="M428.542 1266.82L438.342 1337.79H447.771L444.735 1274.7L428.542 1266.82Z" fill="#0D0B42"/>
<path fill-rule="evenodd" clip-rule="evenodd" d="M437.111 1328.93L438.346 1337.79H447.775L447.356 1328.93H437.111Z" fill="#0D0B42"/>
<path fill-rule="evenodd" clip-rule="evenodd" d="M376.852 968.204C375.445 975.363 344.538 1203.68 348.093 1232.53C360.485 1249.62 363.62 1266.48 363.62 1283.21L360.461 1337.57L293.39 1338.34C277.937 1338.51 278.9 1302.12 283.862 1292.74C297.217 1267.88 308.942 1253.29 304.129 1212.91C298.525 1166.08 287.54 1016.27 290.379 968.895C293.44 917.673 376.852 968.204 376.852 968.204Z" fill="#D6824B"/>
<path fill-rule="evenodd" clip-rule="evenodd" d="M376.854 968.204C376.187 971.487 369.276 1021.77 362.364 1077.83C336.666 1075.21 313.067 1070.55 292.578 1065.27C290.406 1025.33 289.221 988.421 290.381 968.895C293.442 917.673 376.854 968.204 376.854 968.204Z" fill="#C7733B"/>
<path fill-rule="evenodd" clip-rule="evenodd" d="M348.07 1232.53C360.462 1249.62 363.597 1266.48 363.597 1283.21L360.438 1337.57L293.368 1338.34C277.914 1338.51 278.877 1302.12 283.839 1292.74C289.294 1282.6 294.454 1274.18 298.354 1265C297.786 1266.4 288.825 1289.09 294.923 1295.41C310.252 1301.16 330.321 1297.48 330.321 1297.48C345.059 1284.87 350.835 1263.96 348.07 1232.53Z" fill="#171454"/>
<path fill-rule="evenodd" clip-rule="evenodd" d="M360.954 1328.93L360.46 1337.57L293.39 1338.33C288.305 1338.38 284.997 1334.51 283.022 1328.9H360.954V1328.93Z" fill="#0D0B42"/>
<path fill-rule="evenodd" clip-rule="evenodd" d="M363.497 1278.15C363.571 1279.86 363.596 1281.53 363.596 1283.24C362.534 1301.36 361.498 1319.48 360.436 1337.59C358.634 1337.92 354.709 1337.37 352.907 1337.69C351.92 1334.48 353.055 1332.16 352.068 1328.95C359.671 1324.12 359.424 1295.93 363.102 1279.41C363.25 1278.97 363.374 1278.57 363.497 1278.15Z" fill="#171454"/>
<path fill-rule="evenodd" clip-rule="evenodd" d="M490.578 1005.23C490.578 1005.23 475.471 1093.8 477.89 1143.64C480.309 1193.46 479.914 1214.22 488.406 1232.21C496.873 1250.21 521.534 1285.73 539.998 1295.41C556.414 1302.2 567.572 1311.28 569.053 1321.15C570.337 1329.77 566.066 1335.99 557.55 1337.23L499.687 1337.79C478.606 1337.79 486.036 1310.15 453.353 1290.37C437.307 1280.67 421.459 1274.77 431.383 1252.58C438.394 1236.93 446.342 1233.15 439.751 1200.94C432.518 1165.64 414.646 1123.57 411.092 1092.42C407.512 1061.27 403.39 1019.08 417.683 999.703C431.926 980.325 490.578 1005.23 490.578 1005.23Z" fill="#D6824B"/>
<path fill-rule="evenodd" clip-rule="evenodd" d="M490.579 1005.23C490.579 1005.23 485.247 1036.48 481.42 1072.3C456.883 1077.44 432.79 1079.73 409.685 1080C406.723 1050.88 405.192 1016.61 417.634 999.703C431.926 980.325 490.579 1005.23 490.579 1005.23Z" fill="#C7733B"/>
<path fill-rule="evenodd" clip-rule="evenodd" d="M539.973 1295.41C556.389 1302.2 567.547 1311.28 569.028 1321.15C570.312 1329.77 566.041 1335.99 557.525 1337.22L499.662 1337.79C478.581 1337.79 486.011 1310.15 453.328 1290.37C436.147 1282.05 421.435 1274.77 431.358 1252.58C434.222 1246.19 437.258 1241.77 439.356 1236.61C454.538 1242.51 461.795 1255.96 462.239 1271.27C462.239 1271.27 508.08 1307.13 512.523 1308.17C516.991 1309.21 537.357 1309.21 539.973 1295.41Z" fill="#171454"/>
<path fill-rule="evenodd" clip-rule="evenodd" d="M568.507 1328.93C566.977 1333.4 563.2 1336.41 557.523 1337.22L499.66 1337.79C492.156 1337.79 488.28 1334.31 484.923 1328.93H568.507Z" fill="#0D0B42"/>
<path fill-rule="evenodd" clip-rule="evenodd" d="M322.445 702.985C322.445 702.985 276.605 755.046 270.433 842.235C264.262 929.423 283.566 1042.9 283.566 1042.9C283.566 1042.9 309.733 1054.68 380.431 1056.75C451.105 1058.82 496.452 1051.91 496.452 1051.91C496.452 1051.91 533.554 888.594 523.162 816.636C512.769 744.678 476.038 702.294 476.038 702.294C476.038 702.294 340.811 680.324 322.445 702.985Z" fill="#06546E"/>
<path fill-rule="evenodd" clip-rule="evenodd" d="M212.446 612.587C192.525 660.6 184.428 719.771 190.649 832.904C190.649 832.904 169.099 869.882 165.865 886.273C163.618 897.653 167.914 902.467 172.456 893.753C174.381 890.05 177.319 880.25 180.38 876.029C178.8 881.361 172.061 906.565 179.022 908.367C186.008 910.169 183.935 899.357 193.438 879.213C189.489 893.457 185.909 911.477 192.451 914.02C198.993 916.562 201.091 889.285 204.423 882.867C203.485 891.26 203.485 912.193 211.039 910.44C218.568 908.688 216.667 887.977 219.778 880.941L229.726 861.267C231.627 862.427 238.736 875.19 241.353 876.301C243.895 877.362 246.833 876.078 246.956 867.982C247.055 854.701 232.589 836.458 232.589 836.458C219.506 762.501 254.633 632.533 312.891 561.365C320.099 552.552 338.514 521.202 322.123 508.588C312.693 502.762 321.16 488.222 311.434 491.703C267.963 507.23 222.839 587.457 212.446 612.587Z" fill="#D6824B"/>
<path fill-rule="evenodd" clip-rule="evenodd" d="M178.261 822.09L235.432 819.918C235.901 772.053 261.598 624.287 312.895 561.388C320.103 552.576 338.518 521.225 322.127 508.636C312.697 502.81 321.164 488.27 311.438 491.751C203.711 523.694 171.077 731.742 178.261 822.09Z" fill="black"/>
<path fill-rule="evenodd" clip-rule="evenodd" d="M370.878 420.584L418.595 428.927L422.618 476.323L396.674 481.655L369.52 480.939L370.878 420.584Z" fill="#BA662F"/>
<path fill-rule="evenodd" clip-rule="evenodd" d="M544.17 625.817C583.246 652.28 615.905 673.016 710.327 695.233C727.014 721.202 737.431 726.632 754.489 728.163C767.695 729.348 770.189 724.682 778.828 718.165C789.591 710.069 803.366 698.071 782.778 678.767C785.938 678.767 790.653 678.076 796.207 676.398C816.103 670.399 814.202 657.612 807.192 658.032C799.391 658.525 794.158 663.487 761.129 664.87C687.789 658.032 574.014 591.085 521.829 517.548C515.386 508.439 490.504 482.889 474.31 495.109C436.714 530.112 516.152 606.834 544.17 625.817Z" fill="#C7733B"/>
<path fill-rule="evenodd" clip-rule="evenodd" d="M536.346 629.99C573.176 654.946 613.241 688.913 695.937 709.723C701.664 698.368 714.105 664.87 719.24 651.021C652.49 628.533 568.881 574.275 524.645 519.72C514.154 506.76 477.496 473.386 462.29 487.777C424.67 522.756 508.353 611.006 536.346 629.99Z" fill="black"/>
<path fill-rule="evenodd" clip-rule="evenodd" d="M303.66 501.033C303.66 501.033 319.656 488.666 340.886 481.655C351.18 478.274 378.408 481.581 402.402 480.471C427.433 479.31 449.082 473.806 449.18 473.731C467.398 474.645 493.515 525.052 504.5 561.537C517.485 595.208 511.017 615.055 482.506 635.174C480.185 657.538 477.889 679.928 475.569 702.293C475.569 702.293 454.809 717.524 407.758 720.289C360.708 723.053 321.952 702.984 321.952 702.984C321.952 702.984 283.221 528.607 303.66 501.033Z" fill="#FF3E8A"/>
<path fill-rule="evenodd" clip-rule="evenodd" d="M503.635 558.772L504.499 561.561C517.484 595.232 511.016 615.079 482.505 635.198C480.184 657.563 477.888 679.952 475.568 702.317C475.568 702.317 454.808 717.548 407.757 720.313C360.707 723.077 321.951 703.008 321.951 703.008C321.951 703.008 309.337 646.207 302.302 592.319C302.302 592.319 352.487 638.407 436.467 628.656C520.446 618.881 505.19 572.003 503.635 558.772Z" fill="#F93E8B"/>
<path fill-rule="evenodd" clip-rule="evenodd" d="M369.99 460.229C375.914 470.918 387.541 477.928 402.402 480.471C410.721 475.139 418.027 467.955 421.064 458.106C424.915 459.661 436.665 461.833 449.427 472.572C445.428 485.112 439.158 495.973 431.456 503.453C421.78 495.8 412.078 488.123 402.402 480.471C393.935 491.382 388.726 499.849 380.259 510.76C362.337 503.329 349.057 493.505 340.886 481.631C347.205 473.09 355.82 467.881 369.99 460.229Z" fill="#E61366"/>
<path fill-rule="evenodd" clip-rule="evenodd" d="M688.579 755.342C684.654 757.539 679.717 756.132 677.52 752.232C675.323 748.331 676.73 743.37 680.63 741.173L1084.66 518.56C1093.22 513.846 1096.16 520.659 1088.85 524.88L688.579 755.342Z" fill="#336699"/>
<path fill-rule="evenodd" clip-rule="evenodd" d="M737.506 706.761C737.506 706.761 726.99 707.008 730.224 716.882C738.42 743.024 800.084 731.397 793.517 698.097C789.543 678.028 765.425 673.313 767.598 688.963C759.501 685.458 750.713 686.988 751.305 697.875C742.098 692.913 736.198 701.108 737.506 706.761Z" fill="#D6824B"/>
<path fill-rule="evenodd" clip-rule="evenodd" d="M336.615 484.049C354.315 558.451 370.36 602.391 374.063 666.153C364.362 808.069 354.66 950.01 344.959 1091.93C331.802 1092.47 260.56 1083.14 229.851 1070.7L285.27 608.957C281.691 581.507 265.176 573.805 261.572 546.331C265.67 522.386 298.649 488.814 336.615 484.049Z" fill="black"/>
<path fill-rule="evenodd" clip-rule="evenodd" d="M336.121 481.162C349.994 537.198 369.792 591.16 374.062 666.179L335.677 590.765L348.538 566.623L296.205 496.739C309.955 487.975 320.52 481.483 336.121 481.162Z" fill="#140C11"/>
<path fill-rule="evenodd" clip-rule="evenodd" d="M457.746 476.053C454.043 539.815 450.34 603.577 446.613 667.339C456.314 809.255 466.016 951.196 475.692 1093.11C488.85 1093.66 534.048 1086.57 564.757 1074.15L527.729 626.707C531.308 599.257 529.704 561.341 533.283 533.866C529.21 523.399 495.712 480.792 457.746 476.053Z" fill="black"/>
<path fill-rule="evenodd" clip-rule="evenodd" d="M451.55 471.609L446.638 667.043L474.853 580.447L461.992 556.305L491.812 484.841C478.433 476.62 461.35 472.226 451.55 471.609Z" fill="#140C11"/>
<path fill-rule="evenodd" clip-rule="evenodd" d="M547.774 206.266C549.255 224.631 552.365 228.68 562.338 243.886C576.828 266.004 563.869 282.049 555.476 314.856C547.083 347.663 561.573 358.352 589.813 376.668C618.053 394.985 612.894 414.832 612.894 414.832C612.894 414.832 662.289 437.715 641.701 506.39C635.333 527.644 625.384 545.516 610.005 560.895C639.159 488.073 578.211 434.383 545.355 427.397C509.487 419.769 495.071 368.893 495.071 368.893L528.149 225.569C528.124 225.569 535.925 217.053 547.774 206.266Z" fill="#401B0F"/>
<path d="M235.701 366.226C199.167 367.312 190.823 316.485 220.297 307.525C194.822 225.89 243.625 138.134 349.303 119.225C422.446 106.142 505.29 138.874 528.124 225.569C543.453 283.753 545.255 342.282 524.989 381.581C475.569 477.36 275.864 468.177 235.701 366.226Z" fill="#D6824B"/>
<path fill-rule="evenodd" clip-rule="evenodd" d="M329.702 333.246C352.512 349.786 361.547 376.248 349.821 392.343C338.095 408.413 310.078 408.018 287.268 391.454C264.459 374.891 255.424 348.453 267.15 332.358C278.875 316.288 306.893 316.683 329.702 333.246Z" fill="#D6824B"/>
<path fill-rule="evenodd" clip-rule="evenodd" d="M328.961 333.296C351.276 349.49 360.113 375.335 348.659 391.06C337.205 406.785 309.829 406.39 287.489 390.221C265.149 374.052 256.336 348.157 267.79 332.457C279.244 316.732 306.645 317.103 328.961 333.296Z" fill="#D6814B"/>
<path fill-rule="evenodd" clip-rule="evenodd" d="M328.221 333.344C350.043 349.143 358.658 374.446 347.476 389.8C336.294 405.179 309.51 404.784 287.688 388.985C265.866 373.187 257.251 347.884 268.434 332.53C279.616 317.151 306.4 317.546 328.221 333.344Z" fill="#D6804B"/>
<path fill-rule="evenodd" clip-rule="evenodd" d="M327.481 333.394C348.784 348.847 357.227 373.533 346.316 388.541C335.405 403.55 309.239 403.18 287.91 387.751C266.607 372.298 258.14 347.613 269.076 332.604C280.011 317.596 306.153 317.966 327.481 333.394Z" fill="#D67F4B"/>
<path fill-rule="evenodd" clip-rule="evenodd" d="M326.744 333.444C347.553 348.502 355.823 372.619 345.134 387.258C334.495 401.921 308.945 401.55 288.136 386.492C267.326 371.434 259.056 347.317 269.72 332.678C280.384 318.015 305.909 318.386 326.744 333.444Z" fill="#D67E4A"/>
<path fill-rule="evenodd" clip-rule="evenodd" d="M325.977 333.495C346.293 348.182 354.365 371.707 343.972 386C333.58 400.293 308.648 399.948 288.356 385.26C268.04 370.572 259.968 347.047 270.361 332.754C280.753 318.461 305.661 318.807 325.977 333.495Z" fill="#D57D4A"/>
<path fill-rule="evenodd" clip-rule="evenodd" d="M325.233 333.568C345.056 347.885 352.93 370.818 342.785 384.765C332.664 398.712 308.373 398.367 288.551 384.049C268.729 369.732 260.879 346.799 271 332.852C281.121 318.905 305.436 319.226 325.233 333.568Z" fill="#D57C4A"/>
<path fill-rule="evenodd" clip-rule="evenodd" d="M324.496 333.617C343.825 347.589 351.502 369.904 341.652 383.481C331.778 397.058 308.105 396.737 288.801 382.79C269.472 368.843 261.82 346.503 271.669 332.926C281.519 319.324 305.167 319.645 324.496 333.617Z" fill="#D57C4A"/>
<path fill-rule="evenodd" clip-rule="evenodd" d="M323.753 333.667C342.563 347.268 350.068 368.991 340.465 382.223C330.863 395.454 307.807 395.133 288.996 381.556C270.186 367.979 262.682 346.231 272.284 333C281.887 319.769 304.943 320.065 323.753 333.667Z" fill="#D57B4A"/>
<path fill-rule="evenodd" clip-rule="evenodd" d="M323.014 333.716C341.33 346.947 348.637 368.078 339.306 380.964C329.975 393.825 307.536 393.528 289.219 380.322C270.903 367.09 263.596 345.935 272.927 333.074C282.258 320.188 304.697 320.509 323.014 333.716Z" fill="#D57A4A"/>
<path fill-rule="evenodd" clip-rule="evenodd" d="M322.273 333.766C340.096 346.627 347.205 367.19 338.121 379.68C329.062 392.196 307.24 391.9 289.417 379.063C271.594 366.202 264.485 345.639 273.544 333.148C282.629 320.633 304.45 320.929 322.273 333.766Z" fill="#D5794A"/>
<path fill-rule="evenodd" clip-rule="evenodd" d="M321.532 333.815C338.861 346.305 345.773 366.276 336.96 378.421C328.147 390.566 306.967 390.295 289.638 377.829C272.309 365.363 265.397 345.367 274.21 333.222C283.023 321.052 304.203 321.349 321.532 333.815Z" fill="#D57849"/>
<path fill-rule="evenodd" clip-rule="evenodd" d="M320.767 333.864C337.578 345.984 344.317 365.362 335.776 377.162C327.235 388.961 306.672 388.69 289.836 376.594C273.026 364.473 266.286 345.095 274.828 333.296C283.393 321.496 303.956 321.768 320.767 333.864Z" fill="#D57749"/>
<path fill-rule="evenodd" clip-rule="evenodd" d="M320.052 333.913C336.369 345.664 342.911 364.449 334.641 375.903C326.372 387.357 306.401 387.086 290.084 375.36C273.767 363.61 267.226 344.824 275.495 333.37C283.765 321.941 303.735 322.188 320.052 333.913Z" fill="#D47649"/>
<path fill-rule="evenodd" clip-rule="evenodd" d="M319.286 333.988C335.109 345.343 341.453 363.561 333.43 374.645C325.432 385.729 306.079 385.482 290.28 374.126C274.457 362.747 268.113 344.553 276.136 333.47C284.134 322.361 303.462 322.608 319.286 333.988Z" fill="#D47549"/>
<path fill-rule="evenodd" clip-rule="evenodd" d="M318.543 334.038C333.873 345.048 340.02 362.648 332.268 373.386C324.517 384.124 305.806 383.878 290.501 372.893C275.171 361.883 269.025 344.282 276.751 333.544C284.527 322.806 303.239 323.028 318.543 334.038Z" fill="#D47449"/>
<path fill-rule="evenodd" clip-rule="evenodd" d="M317.804 334.087C332.64 344.702 338.589 361.734 331.11 372.127C323.63 382.495 305.536 382.273 290.724 371.658C275.888 361.019 269.939 344.01 277.419 333.618C284.899 323.225 302.993 323.447 317.804 334.087Z" fill="#D47349"/>
<path fill-rule="evenodd" clip-rule="evenodd" d="M317.064 334.136C331.382 344.38 337.158 360.821 329.95 370.843C322.742 380.865 305.265 380.643 290.947 370.399C276.63 360.13 270.854 343.714 278.062 333.692C285.27 323.669 302.747 323.891 317.064 334.136Z" fill="#D47249"/>
<path fill-rule="evenodd" clip-rule="evenodd" d="M316.325 334.186C330.124 344.06 335.727 359.933 328.766 369.585C321.83 379.237 304.969 379.039 291.146 369.165C277.322 359.291 271.743 343.418 278.68 333.766C285.641 324.114 302.501 324.312 316.325 334.186Z" fill="#D47148"/>
<path fill-rule="evenodd" clip-rule="evenodd" d="M315.583 334.234C328.888 343.762 334.295 359.018 327.605 368.324C320.915 377.631 304.697 377.433 291.367 367.929C278.037 358.426 272.655 343.145 279.345 333.864C286.035 324.533 302.253 324.73 315.583 334.234Z" fill="#D47048"/>
<path fill-rule="evenodd" clip-rule="evenodd" d="M314.841 334.285C327.653 343.418 332.862 358.106 326.443 367.042C320.025 375.978 304.424 375.806 291.588 366.672C278.776 357.538 273.567 342.851 279.986 333.915C286.404 324.978 302.005 325.151 314.841 334.285Z" fill="#D46F48"/>
<path fill-rule="evenodd" clip-rule="evenodd" d="M314.079 334.333C326.397 343.121 331.408 357.191 325.237 365.782C319.09 374.372 304.106 374.199 291.788 365.436C279.47 356.673 274.459 342.578 280.605 333.987C286.777 325.421 301.761 325.569 314.079 334.333Z" fill="#D36F48"/>
<path fill-rule="evenodd" clip-rule="evenodd" d="M313.362 334.407C325.186 342.8 330 356.303 324.1 364.548C318.201 372.768 303.834 372.62 292.034 364.227C280.21 355.809 275.396 342.331 281.271 334.086C287.146 325.841 301.513 325.989 313.362 334.407Z" fill="#D36E48"/>
<path fill-rule="evenodd" clip-rule="evenodd" d="M312.596 334.456C323.926 342.503 328.542 355.389 322.914 363.264C317.286 371.138 303.536 370.99 292.23 362.968C280.9 354.92 276.284 342.034 281.912 334.16C287.515 326.285 301.265 326.409 312.596 334.456Z" fill="#D36D48"/>
<path fill-rule="evenodd" clip-rule="evenodd" d="M311.856 334.506C322.668 342.183 327.111 354.477 321.755 362.006C316.373 369.51 303.265 369.387 292.428 361.734C281.616 354.057 277.173 341.764 282.53 334.235C287.911 326.706 301.019 326.854 311.856 334.506Z" fill="#D36C47"/>
<path fill-rule="evenodd" clip-rule="evenodd" d="M311.115 334.555C321.433 341.837 325.679 353.562 320.594 360.746C315.484 367.905 302.993 367.781 292.675 360.499C282.356 353.217 278.11 341.491 283.196 334.308C288.281 327.149 300.796 327.273 311.115 334.555Z" fill="#D36B47"/>
<path fill-rule="evenodd" clip-rule="evenodd" d="M310.348 334.604C320.173 341.516 324.221 352.649 319.407 359.462C314.569 366.275 302.695 366.152 292.871 359.24C283.046 352.303 278.998 341.17 283.836 334.382C288.649 327.593 300.548 327.692 310.348 334.604Z" fill="#D36A47"/>
<path fill-rule="evenodd" clip-rule="evenodd" d="M309.636 334.654C318.967 341.196 322.842 351.761 318.251 358.204C313.684 364.647 302.428 364.573 293.097 358.006C283.766 351.44 279.915 340.899 284.481 334.456C289.048 328.014 300.305 328.112 309.636 334.654Z" fill="#D36947"/>
<path fill-rule="evenodd" clip-rule="evenodd" d="M308.869 334.703C317.706 340.874 321.36 350.847 317.064 356.92C312.769 363.017 302.13 362.918 293.293 356.747C284.455 350.551 280.802 340.603 285.097 334.505C289.417 328.457 300.056 328.532 308.869 334.703Z" fill="#D36847"/>
<path fill-rule="evenodd" clip-rule="evenodd" d="M308.127 334.777C316.471 340.578 319.927 349.959 315.903 355.686C311.854 361.413 301.832 361.364 293.513 355.538C285.17 349.737 281.689 340.356 285.737 334.629C289.786 328.878 299.808 328.952 308.127 334.777Z" fill="#D26747"/>
<path fill-rule="evenodd" clip-rule="evenodd" d="M307.386 334.827C315.212 340.283 318.519 349.046 314.743 354.427C310.966 359.809 301.561 359.76 293.735 354.304C285.91 348.873 282.627 340.085 286.404 334.704C290.156 329.322 299.561 329.372 307.386 334.827Z" fill="#D26647"/>
<path fill-rule="evenodd" clip-rule="evenodd" d="M306.647 334.877C313.979 339.937 317.089 348.133 313.559 353.169C310.054 358.18 301.266 358.155 293.934 353.07C286.603 348.009 283.517 339.814 287.022 334.778C290.527 329.742 299.315 329.792 306.647 334.877Z" fill="#D26546"/>
<path fill-rule="evenodd" clip-rule="evenodd" d="M305.905 334.925C312.718 339.616 315.631 347.219 312.397 351.884C309.139 356.55 300.993 356.525 294.155 351.81C287.317 347.12 284.404 339.517 287.663 334.851C290.921 330.186 299.092 330.235 305.905 334.925Z" fill="#D26446"/>
<path fill-rule="evenodd" clip-rule="evenodd" d="M305.165 334.976C311.484 339.296 314.224 346.306 311.238 350.626C308.251 354.921 300.722 354.921 294.402 350.577C288.083 346.257 285.343 339.246 288.329 334.926C291.292 330.631 298.845 330.656 305.165 334.976Z" fill="#D26346"/>
<path fill-rule="evenodd" clip-rule="evenodd" d="M304.425 335.026C310.251 338.975 312.768 345.394 310.078 349.368C307.362 353.318 300.426 353.318 294.625 349.343C288.799 345.369 286.281 338.951 288.972 335.001C291.662 331.051 298.599 331.076 304.425 335.026Z" fill="#D26246"/>
<path fill-rule="evenodd" clip-rule="evenodd" d="M303.66 335.074C308.992 338.653 311.338 344.503 308.894 348.083C306.45 351.687 300.155 351.687 294.823 348.083C289.491 344.479 287.146 338.653 289.614 335.074C292.034 331.494 298.353 331.494 303.66 335.074Z" fill="#D26246"/>
<path fill-rule="evenodd" clip-rule="evenodd" d="M302.945 335.147C307.783 338.356 309.931 343.614 307.734 346.848C305.537 350.082 299.884 350.106 295.045 346.873C290.207 343.664 288.06 338.406 290.257 335.172C292.429 331.913 298.106 331.913 302.945 335.147Z" fill="#D26146"/>
<path fill-rule="evenodd" clip-rule="evenodd" d="M302.204 335.197C306.524 338.036 308.474 342.702 306.574 345.59C304.648 348.478 299.588 348.503 295.268 345.639C290.948 342.776 288.998 338.135 290.898 335.247C292.799 332.358 297.86 332.334 302.204 335.197Z" fill="#D16046"/>
<path fill-rule="evenodd" clip-rule="evenodd" d="M301.439 335.246C305.265 337.714 307.017 341.787 305.364 344.305C303.71 346.823 299.266 346.872 295.44 344.379C291.614 341.911 289.836 337.837 291.49 335.32C293.169 332.802 297.612 332.752 301.439 335.246Z" fill="#D15F45"/>
<path fill-rule="evenodd" clip-rule="evenodd" d="M300.696 335.295C304.029 337.418 305.608 340.874 304.201 343.046C302.819 345.218 298.993 345.268 295.66 343.145C292.328 341.022 290.748 337.566 292.13 335.394C293.562 333.221 297.388 333.172 300.696 335.295Z" fill="#D15E45"/>
<path fill-rule="evenodd" clip-rule="evenodd" d="M299.958 335.345C302.797 337.073 304.179 339.962 303.043 341.788C301.933 343.59 298.699 343.664 295.885 341.912C293.046 340.159 291.663 337.295 292.799 335.469C293.935 333.667 297.119 333.617 299.958 335.345Z" fill="#D15D45"/>
<path fill-rule="evenodd" clip-rule="evenodd" d="M299.216 335.395C301.536 336.753 302.746 339.048 301.882 340.505C301.018 341.961 298.451 342.035 296.106 340.653C293.76 339.27 292.576 336.999 293.44 335.543C294.304 334.087 296.895 334.037 299.216 335.395Z" fill="#D15C45"/>
<path fill-rule="evenodd" clip-rule="evenodd" d="M495.885 322.04C476.803 333.321 465.251 357.414 470.138 375.854C475.026 394.294 494.453 400.07 513.535 388.765C532.617 377.483 544.145 353.391 539.282 334.951C534.394 316.535 514.967 310.759 495.885 322.04Z" fill="#D6824B"/>
<path fill-rule="evenodd" clip-rule="evenodd" d="M496.377 322.262C477.715 333.297 466.433 356.846 471.198 374.867C475.962 392.887 494.945 398.54 513.632 387.506C532.294 376.471 543.575 352.921 538.836 334.901C534.047 316.881 515.064 311.228 496.377 322.262Z" fill="#D6814B"/>
<path fill-rule="evenodd" clip-rule="evenodd" d="M496.896 322.484C478.654 333.247 467.595 356.279 472.236 373.879C476.877 391.48 495.465 397.009 513.707 386.247C531.95 375.484 543.009 352.452 538.343 334.852C533.727 317.226 515.139 311.697 496.896 322.484Z" fill="#D6804B"/>
<path fill-rule="evenodd" clip-rule="evenodd" d="M497.389 322.682C479.566 333.198 468.779 355.686 473.321 372.892C477.863 390.097 496.006 395.503 513.805 384.987C531.627 374.471 542.415 351.983 537.898 334.777C533.355 317.572 515.212 312.166 497.389 322.682Z" fill="#D67F4B"/>
<path fill-rule="evenodd" clip-rule="evenodd" d="M497.909 322.904C480.506 333.173 469.966 355.093 474.409 371.904C478.828 388.69 496.527 393.973 513.93 383.703C531.333 373.434 541.874 351.489 537.455 334.703C533.012 317.917 515.312 312.634 497.909 322.904Z" fill="#D67E4A"/>
<path fill-rule="evenodd" clip-rule="evenodd" d="M498.403 323.125C481.42 333.148 471.126 354.525 475.446 370.916C479.741 387.307 497.021 392.442 514.004 382.444C530.988 372.422 541.282 351.045 536.962 334.653C532.667 318.262 515.387 313.103 498.403 323.125Z" fill="#D57D4A"/>
<path fill-rule="evenodd" clip-rule="evenodd" d="M498.895 323.349C482.332 333.099 472.285 353.958 476.481 369.93C480.678 385.901 497.538 390.937 514.102 381.162C530.665 371.411 540.688 350.552 536.491 334.58C532.319 318.609 515.459 313.573 498.895 323.349Z" fill="#D57C4A"/>
<path fill-rule="evenodd" clip-rule="evenodd" d="M499.417 323.545C483.273 333.049 473.497 353.365 477.57 368.917C481.668 384.469 498.084 389.381 514.228 379.877C530.372 370.373 540.172 350.057 536.074 334.481C531.977 318.954 515.561 314.066 499.417 323.545Z" fill="#D57C4A"/>
<path fill-rule="evenodd" clip-rule="evenodd" d="M499.907 323.768C484.183 333.001 474.654 352.798 478.629 367.955C482.603 383.112 498.599 387.876 514.324 378.644C530.048 369.387 539.601 349.614 535.627 334.457C531.628 319.3 515.632 314.536 499.907 323.768Z" fill="#D57B4A"/>
<path fill-rule="evenodd" clip-rule="evenodd" d="M500.4 323.99C485.095 332.976 475.814 352.23 479.689 366.967C483.54 381.705 499.117 386.345 514.422 377.36C529.727 368.374 539.008 349.12 535.133 334.383C531.282 319.646 515.73 315.005 500.4 323.99Z" fill="#D57A4A"/>
<path fill-rule="evenodd" clip-rule="evenodd" d="M500.922 324.212C486.037 332.951 477.002 351.662 480.754 365.98C484.506 380.322 499.638 384.84 514.524 376.101C529.409 367.362 538.444 348.651 534.691 334.333C530.939 319.991 515.807 315.474 500.922 324.212Z" fill="#D5794A"/>
<path fill-rule="evenodd" clip-rule="evenodd" d="M501.415 324.41C486.949 332.902 478.161 351.045 481.815 364.968C485.443 378.89 500.156 383.284 514.622 374.817C529.087 366.326 537.875 348.182 534.222 334.259C530.593 320.337 515.881 315.943 501.415 324.41Z" fill="#D57849"/>
<path fill-rule="evenodd" clip-rule="evenodd" d="M501.93 324.632C487.884 332.852 479.343 350.477 482.873 364.005C486.403 377.508 500.671 381.778 514.717 373.558C528.763 365.338 537.304 347.712 533.774 334.185C530.244 320.682 515.976 316.411 501.93 324.632Z" fill="#D57749"/>
<path fill-rule="evenodd" clip-rule="evenodd" d="M502.427 324.854C488.801 332.827 480.507 349.909 483.938 363.017C487.369 376.125 501.193 380.272 514.819 372.299C528.445 364.326 536.74 347.243 533.308 334.135C529.902 321.027 516.053 316.88 502.427 324.854Z" fill="#D47649"/>
<path fill-rule="evenodd" clip-rule="evenodd" d="M502.922 325.051C489.715 332.777 481.667 349.316 484.975 362.005C488.283 374.693 501.687 378.717 514.894 370.99C528.101 363.264 536.148 346.724 532.84 334.036C529.532 321.373 516.153 317.349 502.922 325.051Z" fill="#D47549"/>
<path fill-rule="evenodd" clip-rule="evenodd" d="M503.437 325.274C490.65 332.729 482.85 348.75 486.059 361.018C489.243 373.312 502.228 377.187 515.015 369.732C527.802 362.277 535.602 346.257 532.418 333.988C529.209 321.719 516.224 317.819 503.437 325.274Z" fill="#D47449"/>
<path fill-rule="evenodd" clip-rule="evenodd" d="M503.933 325.496C491.566 332.704 484.037 348.182 487.123 360.056C490.208 371.929 502.748 375.706 515.116 368.498C527.483 361.29 535.012 345.812 531.926 333.939C528.841 322.065 516.325 318.288 503.933 325.496Z" fill="#D47349"/>
<path fill-rule="evenodd" clip-rule="evenodd" d="M504.45 325.718C492.503 332.679 485.221 347.589 488.183 359.068C491.17 370.522 503.265 374.175 515.213 367.214C527.161 360.253 534.443 345.343 531.481 333.864C528.519 322.385 516.398 318.757 504.45 325.718Z" fill="#D47249"/>
<path fill-rule="evenodd" clip-rule="evenodd" d="M504.943 325.915C493.415 332.605 486.379 346.997 489.218 358.056C492.082 369.115 503.758 372.62 515.31 365.93C526.838 359.241 533.874 344.849 531.01 333.79C528.147 322.756 516.471 319.226 504.943 325.915Z" fill="#D47148"/>
<path fill-rule="evenodd" clip-rule="evenodd" d="M505.462 326.138C494.329 332.58 487.565 346.429 490.305 357.068C493.045 367.708 504.302 371.114 515.41 364.671C526.519 358.228 533.307 344.38 530.567 333.741C527.827 323.101 516.546 319.695 505.462 326.138Z" fill="#D47048"/>
<path fill-rule="evenodd" clip-rule="evenodd" d="M505.956 326.359C495.267 332.555 488.726 345.861 491.367 356.105C494.008 366.325 504.82 369.608 515.509 363.412C526.198 357.216 532.74 343.911 530.098 333.691C527.457 323.447 516.645 320.163 505.956 326.359Z" fill="#D46F48"/>
<path fill-rule="evenodd" clip-rule="evenodd" d="M506.45 326.583C496.181 332.507 489.911 345.294 492.429 355.119C494.947 364.944 505.339 368.079 515.608 362.154C525.877 356.23 532.172 343.443 529.629 333.618C527.112 323.793 516.719 320.633 506.45 326.583Z" fill="#D36F48"/>
<path fill-rule="evenodd" clip-rule="evenodd" d="M506.971 326.779C497.121 332.457 491.073 344.701 493.492 354.106C495.912 363.511 505.86 366.547 515.709 360.869C525.559 355.192 531.607 342.948 529.187 333.543C526.768 324.138 516.82 321.101 506.971 326.779Z" fill="#D36E48"/>
<path fill-rule="evenodd" clip-rule="evenodd" d="M507.46 327.002C498.03 332.433 492.254 344.109 494.55 353.119C496.845 362.129 506.374 365.017 515.804 359.586C525.234 354.156 531.035 342.455 528.739 333.469C526.418 324.484 516.89 321.571 507.46 327.002Z" fill="#D36D48"/>
<path fill-rule="evenodd" clip-rule="evenodd" d="M507.956 327.223C498.945 332.383 493.391 343.54 495.588 352.156C497.785 360.746 506.869 363.511 515.88 358.352C524.89 353.192 530.419 342.035 528.247 333.444C526.075 324.829 516.99 322.064 507.956 327.223Z" fill="#D36C47"/>
<path fill-rule="evenodd" clip-rule="evenodd" d="M508.475 327.445C499.884 332.358 494.602 342.972 496.675 351.168C498.773 359.363 507.413 362.005 516.029 357.068C524.619 352.155 529.902 341.541 527.828 333.345C525.73 325.174 517.065 322.533 508.475 327.445Z" fill="#D36B47"/>
<path fill-rule="evenodd" clip-rule="evenodd" d="M508.968 327.644C500.797 332.309 495.761 342.381 497.736 350.157C499.711 357.933 507.956 360.451 516.102 355.785C524.273 351.12 529.333 341.048 527.358 333.272C525.384 325.521 517.139 323.003 508.968 327.644Z" fill="#D36A47"/>
<path fill-rule="evenodd" clip-rule="evenodd" d="M509.486 327.866C501.711 332.26 496.946 341.813 498.798 349.169C500.649 356.526 508.45 358.92 516.201 354.526C523.952 350.132 528.741 340.579 526.89 333.223C525.038 325.866 517.238 323.472 509.486 327.866Z" fill="#D36947"/>
<path fill-rule="evenodd" clip-rule="evenodd" d="M509.98 328.088C502.649 332.235 498.107 341.245 499.859 348.182C501.612 355.143 508.968 357.39 516.324 353.242C523.656 349.095 528.198 340.085 526.445 333.149C524.693 326.212 517.312 323.941 509.98 328.088Z" fill="#D36847"/>
<path fill-rule="evenodd" clip-rule="evenodd" d="M510.473 328.311C503.561 332.211 499.266 340.679 500.92 347.22C502.549 353.762 509.511 355.909 516.398 352.009C523.31 348.109 527.605 339.642 525.976 333.1C524.346 326.559 517.41 324.411 510.473 328.311Z" fill="#D26747"/>
<path fill-rule="evenodd" clip-rule="evenodd" d="M510.991 328.508C504.499 332.136 500.45 340.06 501.981 346.207C503.511 352.329 510.028 354.353 516.52 350.725C523.013 347.096 527.061 339.172 525.53 333.025C523.975 326.903 517.483 324.879 510.991 328.508Z" fill="#D26647"/>
<path fill-rule="evenodd" clip-rule="evenodd" d="M511.486 328.73C505.413 332.112 501.612 339.493 503.044 345.22C504.451 350.947 510.548 352.823 516.621 349.441C522.693 346.059 526.47 338.678 525.063 332.951C523.631 327.249 517.559 325.348 511.486 328.73Z" fill="#D26546"/>
<path fill-rule="evenodd" clip-rule="evenodd" d="M511.98 328.951C506.327 332.086 502.797 338.924 504.106 344.231C505.389 349.538 511.042 351.316 516.72 348.181C522.373 345.046 525.903 338.208 524.595 332.9C523.311 327.593 517.658 325.816 511.98 328.951Z" fill="#D26446"/>
<path fill-rule="evenodd" clip-rule="evenodd" d="M512.498 329.174C507.265 332.062 503.982 338.357 505.167 343.269C506.352 348.182 511.585 349.811 516.818 346.947C522.052 344.059 525.335 337.765 524.15 332.852C522.94 327.915 517.732 326.286 512.498 329.174Z" fill="#D26346"/>
<path fill-rule="evenodd" clip-rule="evenodd" d="M512.991 329.371C508.178 331.988 505.142 337.764 506.228 342.257C507.314 346.749 512.078 348.255 516.916 345.639C521.73 343.022 524.766 337.246 523.68 332.753C522.594 328.285 517.805 326.754 512.991 329.371Z" fill="#D26246"/>
<path fill-rule="evenodd" clip-rule="evenodd" d="M513.51 329.593C509.116 331.963 506.326 337.196 507.289 341.269C508.252 345.342 512.621 346.749 517.015 344.38C521.409 342.01 524.198 336.776 523.236 332.703C522.248 328.63 517.904 327.223 513.51 329.593Z" fill="#D26246"/>
<path fill-rule="evenodd" clip-rule="evenodd" d="M514.003 329.817C510.028 331.94 507.486 336.631 508.35 340.284C509.214 343.962 513.139 345.221 517.113 343.098C521.087 340.975 523.63 336.31 522.766 332.631C521.902 328.953 517.977 327.694 514.003 329.817Z" fill="#D26146"/>
<path fill-rule="evenodd" clip-rule="evenodd" d="M514.496 330.037C510.942 331.889 508.646 336.036 509.386 339.319C510.127 342.578 513.632 343.713 517.187 341.862C520.742 340.01 523.037 335.863 522.297 332.58C521.556 329.297 518.076 328.161 514.496 330.037Z" fill="#D16046"/>
<path fill-rule="evenodd" clip-rule="evenodd" d="M515.017 330.236C511.882 331.841 509.833 335.445 510.475 338.308C511.117 341.172 514.178 342.184 517.313 340.579C520.448 338.975 522.472 335.371 521.855 332.507C521.213 329.644 518.152 328.631 515.017 330.236Z" fill="#D15F45"/>
<path fill-rule="evenodd" clip-rule="evenodd" d="M515.508 330.457C512.793 331.814 511.016 334.875 511.534 337.319C512.052 339.763 514.694 340.652 517.409 339.294C520.125 337.936 521.927 334.875 521.384 332.432C520.865 329.988 518.224 329.124 515.508 330.457Z" fill="#D15E45"/>
<path fill-rule="evenodd" clip-rule="evenodd" d="M516.003 330.68C513.708 331.766 512.152 334.309 512.572 336.333C512.992 338.357 515.189 339.122 517.484 338.036C519.78 336.95 521.311 334.408 520.891 332.383C520.521 330.334 518.324 329.594 516.003 330.68Z" fill="#D15D45"/>
<path fill-rule="evenodd" clip-rule="evenodd" d="M516.522 330.902C514.622 331.741 513.363 333.741 513.659 335.37C513.98 336.999 515.733 337.641 517.609 336.802C519.485 335.962 520.768 333.963 520.497 332.358C520.176 330.68 518.399 330.063 516.522 330.902Z" fill="#D15C45"/>
<path fill-rule="evenodd" clip-rule="evenodd" d="M202.475 333.273C202.5 321.967 208.202 311.229 220.298 307.551C194.823 225.917 243.625 138.16 349.303 119.251C422.421 106.168 505.29 138.901 528.124 225.596L528.593 227.373C514.3 204.193 488.85 204.588 469.249 206.341C443.478 208.637 444.638 192.616 444.638 192.616L434.048 154.847C434.048 154.847 417.163 165.734 428.617 183.754C440.071 201.774 423.187 219.523 384.554 212.932C345.922 206.341 302.994 177.163 302.994 177.163C302.994 177.163 302.994 186.889 299.266 203.478C295.539 220.066 280.678 242.406 266.361 245.541C252.068 248.701 255.474 262.426 258.634 276.447C261.794 290.469 244.613 312.513 226.296 314.216C212.917 315.45 205.487 327.077 202.475 333.273Z" fill="#C7733B"/>
<path fill-rule="evenodd" clip-rule="evenodd" d="M235.701 366.228C226.222 368.179 218.816 362.674 213.534 358.576C224.099 361.365 230.838 363.488 241.65 355.589C272.063 452.751 445.897 466.328 507.758 405.355C440.12 474.893 272.186 458.798 235.701 366.228Z" fill="#C7733B"/>
<path fill-rule="evenodd" clip-rule="evenodd" d="M328.762 265.115C345.746 265.115 359.496 278.001 359.496 293.899C359.496 309.796 345.746 322.682 328.762 322.682C311.804 322.682 298.029 309.796 298.029 293.899C298.029 278.001 311.804 265.115 328.762 265.115Z" fill="#BA662F"/>
<path fill-rule="evenodd" clip-rule="evenodd" d="M328.766 265.115C345.75 265.115 359.499 278.001 359.499 293.899C359.499 309.796 345.75 322.682 328.766 322.682C311.807 322.682 304.402 306.365 304.402 290.467C304.402 286.37 298.946 285.901 300.575 282.371C305.315 272.225 316.152 265.115 328.766 265.115Z" fill="#E61366"/>
<path fill-rule="evenodd" clip-rule="evenodd" d="M332.074 268.029C349.057 268.029 362.807 280.915 362.807 296.812C362.807 312.709 349.057 325.595 332.074 325.595C315.09 325.595 301.34 312.709 301.34 296.812C301.34 280.939 315.09 268.029 332.074 268.029Z" fill="#FEFEFE"/>
<path fill-rule="evenodd" clip-rule="evenodd" d="M335.111 274.669C346.516 274.669 355.773 283.926 355.773 295.331C355.773 306.736 346.516 315.993 335.111 315.993C323.682 315.993 314.425 306.736 314.425 295.331C314.449 283.926 323.706 274.669 335.111 274.669Z" fill="#401B0F"/>
<path fill-rule="evenodd" clip-rule="evenodd" d="M358.017 285.851C361.646 289.134 364.164 292.961 360.658 284.148C352.981 264.893 328.345 263.585 312.67 273.78C310.251 275.335 307.807 276.94 304.425 278.051C298.92 279.877 296.205 278.297 294.551 277.113C287.096 271.583 291.144 297.651 313.756 285.308C325.21 279.063 337.824 267.559 358.017 285.851Z" fill="#401B0F"/>
<path fill-rule="evenodd" clip-rule="evenodd" d="M324.594 284.665C327.803 284.665 330.395 287.257 330.395 290.466C330.395 293.675 327.803 296.267 324.594 296.267C321.385 296.267 318.793 293.675 318.793 290.466C318.793 287.282 321.385 284.665 324.594 284.665Z" fill="#FEFEFE"/>
<path fill-rule="evenodd" clip-rule="evenodd" d="M490.603 259.859C506.475 259.859 519.336 272.745 519.336 288.642C519.336 304.539 506.451 317.425 490.603 317.425C474.73 317.425 461.869 304.539 461.869 288.642C461.869 272.745 474.31 259.81 490.603 259.859Z" fill="#BA662F"/>
<path fill-rule="evenodd" clip-rule="evenodd" d="M491.838 259.857C476.261 258.845 461.401 272.101 461.401 287.998C461.401 303.896 475.15 316.781 492.134 316.781C509.093 316.781 516.498 300.464 516.498 284.567C516.498 280.469 518.72 280 517.091 276.47C512.327 266.325 502.65 260.548 491.838 259.857Z" fill="#E61366"/>
<path fill-rule="evenodd" clip-rule="evenodd" d="M488.034 263.881C503.906 263.881 516.792 276.767 516.792 292.664C516.792 308.562 503.906 321.447 488.034 321.447C472.161 321.447 459.3 308.562 459.3 292.664C459.3 276.767 472.161 263.881 488.034 263.881Z" fill="#FEFEFE"/>
<path fill-rule="evenodd" clip-rule="evenodd" d="M484.528 271.583C495.069 271.583 503.61 280.84 503.61 292.245C503.61 303.65 495.069 312.907 484.528 312.907C473.988 312.907 465.422 303.65 465.422 292.245C465.422 280.816 473.963 271.583 484.528 271.583Z" fill="#401B0F"/>
<path fill-rule="evenodd" clip-rule="evenodd" d="M474.411 280.766C477.595 280.766 480.212 283.358 480.212 286.567C480.212 289.776 477.595 292.368 474.411 292.368C471.202 292.368 468.61 289.776 468.61 286.567C468.585 283.358 471.202 280.766 474.411 280.766Z" fill="#FEFEFE"/>
<path fill-rule="evenodd" clip-rule="evenodd" d="M442.638 332.383C441.922 355.365 405.956 354.995 403.759 338.382C407.931 339.715 412.917 341.813 420.742 341.319C427.432 340.9 436.887 338.554 442.638 332.383Z" fill="#BA662F"/>
<path fill-rule="evenodd" clip-rule="evenodd" d="M226.076 339.443C226.076 339.443 221.78 331.865 229.013 330.161C232.765 329.273 234.987 332.556 236.172 335.864C237.283 338.925 237.53 342.035 237.308 341.887C237.308 341.887 236.295 340.455 234.839 338.974C232.173 336.259 228.001 333.395 226.076 339.443Z" fill="#C7733B"/>
<path fill-rule="evenodd" clip-rule="evenodd" d="M380.159 381.186C407.633 392.121 434.763 385.284 456.436 377.755C465.126 374.743 459.374 389.53 457.646 393.356C448.833 412.907 423.654 423.99 402.647 420.312C385.022 417.226 373.123 403.995 368.803 392.615C363.866 379.557 364.014 374.743 380.159 381.186Z" fill="#8F2F23"/>
<path fill-rule="evenodd" clip-rule="evenodd" d="M439.776 412.808C428.742 419.523 414.967 422.435 402.649 420.288C386.011 417.375 374.459 405.403 369.596 394.492C384.456 388.863 437.332 388.468 439.776 412.808Z" fill="#B13B32"/>
<path fill-rule="evenodd" clip-rule="evenodd" d="M381.541 381.705C407.288 390.542 432.368 385.21 452.832 378.965C452.684 392.468 435.231 399.306 415.73 400.614C398.623 401.774 385.268 396.689 381.541 381.705Z" fill="#FEFEFE"/>
<path fill-rule="evenodd" clip-rule="evenodd" d="M381.541 381.705C407.288 390.542 432.368 385.21 452.832 378.965C452.807 380.594 452.536 382.149 452.042 383.581C422.296 393.826 397.808 390.592 383.219 386.494C382.528 385.038 381.96 383.458 381.541 381.705Z" fill="#F2F2F2"/>
<path fill-rule="evenodd" clip-rule="evenodd" d="M301.119 252.674C313.387 244.404 333.333 241.146 343.158 241.664C359.5 242.553 357.179 227.668 344.886 224.533C331.087 221.003 300.798 233.567 291.269 244.429C285.394 251.193 288.603 261.092 301.119 252.674Z" fill="#401B0F"/>
<path fill-rule="evenodd" clip-rule="evenodd" d="M463.917 282.593C460.461 285.876 458.066 289.702 461.399 280.89C468.706 261.635 491.86 259.488 506.77 269.658C509.066 271.213 511.707 273.682 514.941 274.792C520.199 276.594 522.766 275.039 524.322 273.854C531.431 268.325 527.58 294.393 506.054 282.05C495.119 275.805 483.122 264.301 463.917 282.593Z" fill="#401B0F"/>
<path fill-rule="evenodd" clip-rule="evenodd" d="M134.813 590.42C131.48 583.78 130.666 576.818 132.714 569.709C147.229 519.351 141.873 502.565 109.831 511.723C77.7896 520.881 27.4068 490.346 64.0398 402.614C99.2905 318.165 135.257 319.227 143.354 299.01C195.267 278.595 233.628 249.441 227.827 277.83C226.321 285.186 243.181 287.284 231.332 305.181C181.196 321.967 162.287 394.567 188.997 412.883C215.707 431.2 221.014 478.645 179.073 521.992C157.079 544.727 140.54 568.573 134.813 590.42Z" fill="#401B0F"/>
<path fill-rule="evenodd" clip-rule="evenodd" d="M498.995 105.007C498.995 105.007 544.787 116.461 546.317 169.855C547.403 207.846 547.724 218.041 553.032 228.73C545.478 242.825 535.48 242.998 528.149 225.57C513.239 190.097 490.43 199.231 467.522 201.526C444.638 203.822 430.913 179.408 430.913 179.408C430.913 179.408 447.699 206.883 404.944 206.883C362.214 206.883 300.427 168.719 300.427 168.719C300.427 168.719 298.896 183.975 292.799 203.822C286.702 223.669 275.248 235.098 256.931 241.986C238.615 248.848 252.364 259.537 249.303 283.185C246.242 306.834 220.323 307.55 220.323 307.55C177.987 305.131 50.0927 452.033 153.129 474.694C179.469 480.495 154.907 522.016 137.133 565.363C133.159 571.954 131.826 576.916 131.628 577.632C131.604 575.015 131.949 572.374 132.714 569.708C147.229 519.35 141.873 502.564 109.831 511.722C77.7896 520.88 27.4069 490.345 64.0399 402.613C100.673 314.857 138.047 319.448 144.168 296.54C150.266 273.657 101.438 217.177 156.388 156.895C212.843 87.4554 294.502 107.302 294.502 107.302C294.502 107.302 393.688 -17.087 498.995 105.007Z" fill="#401B0F"/>
<path fill-rule="evenodd" clip-rule="evenodd" d="M533.803 129.939C540.591 139.492 545.8 152.452 546.294 169.855L546.368 172.497C541.603 187.407 533.877 201.996 521.658 213.474C512.253 199.922 500.724 198.046 488.431 198.935C507.34 191.924 521.46 182.815 526.298 171.756C532.47 157.661 534.247 143.121 533.803 129.939ZM295.589 193.775C294.775 196.935 293.837 200.292 292.751 203.798C286.653 223.645 275.199 235.074 256.883 241.961C254.562 242.825 252.785 243.763 251.378 244.751C242.911 240.702 226.767 237.666 196.058 241.542C166.855 245.22 144.342 233.445 130.025 217.152C130.494 203.872 133.925 189.702 142.639 175.138C147.379 189.604 160.166 203.847 192.034 204.588C247.527 205.871 269.324 184.543 295.589 193.775Z" fill="#E61366"/>
<path fill-rule="evenodd" clip-rule="evenodd" d="M514.719 249.662C502.672 241.985 483.072 239.714 473.42 240.726C457.375 242.404 459.646 227.42 471.741 223.668C485.294 219.472 515.039 230.531 524.371 240.948C530.172 247.415 526.987 257.487 514.719 249.662Z" fill="#401B0F"/>
<path d="M224.274 307.748C233.803 315.252 244.615 322.263 253.403 321.201C255.205 320.979 256.834 322.238 257.056 324.016C257.279 325.768 255.995 327.397 254.193 327.595C244.294 328.805 230.174 320.14 218.745 310.784L224.274 307.748Z" fill="#20A39E"/>
<path d="M235.726 366.227C253.474 387.827 271.001 417.672 298.501 425.423C300.253 425.917 301.265 427.694 300.772 429.397C300.278 431.1 298.451 432.088 296.699 431.619C277.518 426.262 250.512 399.997 227.061 366.079C229.949 366.721 231.727 366.598 235.726 366.227Z" fill="#20A39E"/>
<path fill-rule="evenodd" clip-rule="evenodd" d="M252.737 317.572C258.735 356.55 265.598 388.295 271.596 427.298C356.687 480.964 560.81 465.56 544.789 309.573C495.221 338.505 450.688 328.803 417.264 331.025C374.485 333.864 332.692 344.849 252.737 317.572Z" fill="#20A89E"/>
<path fill-rule="evenodd" clip-rule="evenodd" d="M252.737 317.572C258.735 356.55 260.34 386.147 266.338 425.126C271.177 427.792 276.163 430.235 281.248 432.482C277.471 382.124 268.757 343.466 262.142 320.633C259.179 320.04 255.798 318.189 252.737 317.572Z" fill="#20A39E"/>
<path fill-rule="evenodd" clip-rule="evenodd" d="M338.563 450.971C388.008 459.019 441.378 460.475 490.65 427.767C481.59 389.702 456.732 366.473 423.012 361.783C389.316 357.117 345.278 433.716 338.563 450.971Z" fill="#20A39E"/>
</svg>
