<svg width="169" height="29" viewBox="0 0 169 29" fill="none" xmlns="http://www.w3.org/2000/svg">
<path d="M0.88 22H3.85V14.17H8.62C12.49 14.17 15.28 11.47 15.28 7.45C15.28 3.43 12.49 0.819999 8.62 0.819999H0.88V22ZM3.85 11.59V3.4H8.17C10.69 3.4 12.25 4.9 12.25 7.45C12.25 10 10.69 11.59 8.14 11.59H3.85ZM17.3927 14.38C17.3927 19 21.0527 22.36 25.5827 22.36C30.1127 22.36 33.7727 19 33.7727 14.38C33.7727 9.79 30.1127 6.46 25.5827 6.46C21.0527 6.46 17.3927 9.79 17.3927 14.38ZM20.3627 14.38C20.3627 11.23 22.7327 8.98 25.5827 8.98C28.4627 8.98 30.8027 11.23 30.8027 14.38C30.8027 17.56 28.4627 19.84 25.5827 19.84C22.7327 19.84 20.3627 17.56 20.3627 14.38ZM40.3434 22H43.5834L46.7034 12.25C46.9434 11.47 47.1234 10.6 47.1234 10.6H47.1834C47.1834 10.6 47.3634 11.47 47.6034 12.25L50.7534 22H53.9634L58.8534 6.82H55.7934L52.6134 17.47C52.3734 18.25 52.2534 19.09 52.2534 19.09H52.1934C52.1934 19.09 52.0134 18.25 51.7734 17.47L48.5034 6.85H45.8334L42.5334 17.47C42.2934 18.25 42.1434 19.09 42.1434 19.09H42.0834C42.0534 19.09 41.9334 18.25 41.6934 17.47L38.5434 6.82H35.4534L40.3434 22ZM60.607 14.41C60.607 18.91 63.877 22.36 68.647 22.36C72.277 22.36 74.527 20.2 74.527 20.2L73.327 18.07C73.327 18.07 71.437 19.84 68.827 19.84C66.127 19.84 63.757 18.16 63.607 14.83H74.677C74.677 14.83 74.767 13.96 74.767 13.57C74.767 9.64 72.487 6.46 68.197 6.46C63.877 6.46 60.607 9.58 60.607 14.41ZM63.697 12.64C64.117 10.15 65.917 8.77 68.137 8.77C70.087 8.77 71.707 10.03 71.797 12.64H63.697ZM78.2976 22H81.2076V15.79C81.2076 14.86 81.2976 13.93 81.5676 13.06C82.2576 10.81 83.9676 9.49 85.8276 9.49C86.2776 9.49 86.6676 9.58 86.6676 9.58V6.7C86.6676 6.7 86.3076 6.64 85.9176 6.64C83.5776 6.64 81.8076 8.38 81.1176 10.6H81.0576C81.0576 10.6 81.1176 10.09 81.1176 9.46V6.82H78.2976V22ZM88.4097 14.41C88.4097 18.91 91.6797 22.36 96.4497 22.36C100.08 22.36 102.33 20.2 102.33 20.2L101.13 18.07C101.13 18.07 99.2397 19.84 96.6297 19.84C93.9297 19.84 91.5597 18.16 91.4097 14.83H102.48C102.48 14.83 102.57 13.96 102.57 13.57C102.57 9.64 100.29 6.46 95.9997 6.46C91.6797 6.46 88.4097 9.58 88.4097 14.41ZM91.4997 12.64C91.9197 10.15 93.7197 8.77 95.9397 8.77C97.8897 8.77 99.5097 10.03 99.5997 12.64H91.4997ZM105.11 14.41C105.11 19.12 107.69 22.36 111.8 22.36C115.55 22.36 116.78 19.54 116.78 19.54H116.84C116.84 19.54 116.81 19.96 116.81 20.56V22H119.57V0.819999H116.66V7.84C116.66 8.41 116.72 8.86 116.72 8.86H116.66C116.66 8.86 115.49 6.46 111.98 6.46C107.96 6.46 105.11 9.58 105.11 14.41ZM108.08 14.41C108.08 10.96 110.06 8.98 112.46 8.98C115.34 8.98 116.75 11.68 116.75 14.38C116.75 18.25 114.62 19.84 112.37 19.84C109.85 19.84 108.08 17.71 108.08 14.41ZM131.823 22H134.583V20.89C134.583 20.23 134.523 19.75 134.523 19.75H134.583C134.583 19.75 135.963 22.36 139.353 22.36C143.343 22.36 146.253 19.24 146.253 14.41C146.253 9.7 143.673 6.46 139.593 6.46C136.023 6.46 134.733 9.04 134.733 9.04H134.673C134.673 9.04 134.733 8.5 134.733 7.75V0.819999H131.823V22ZM134.643 14.47C134.643 10.6 136.743 9.01 139.023 9.01C141.543 9.01 143.313 11.14 143.313 14.44C143.313 17.89 141.333 19.87 138.933 19.87C136.053 19.87 134.643 17.17 134.643 14.47ZM147.681 27.37C147.681 27.37 148.911 28.3 150.621 28.3C152.751 28.3 154.611 27.07 155.541 24.73L162.651 6.82H159.501L155.811 16.78C155.541 17.56 155.301 18.58 155.301 18.58H155.241C155.241 18.58 154.971 17.53 154.671 16.75L150.861 6.82H147.591L153.951 21.82L153.201 23.56C152.631 24.94 151.641 25.78 150.471 25.78C149.541 25.78 148.701 25.15 148.701 25.15L147.681 27.37ZM165.674 9.91H168.734V6.82H165.674V9.91ZM165.674 22H168.734V18.91H165.674V22Z" fill="white"/>
</svg>
