<svg width="133" height="107" viewBox="0 0 133 107" fill="none" xmlns="http://www.w3.org/2000/svg">
<path d="M35.7275 62.4858L40.0594 46.724C37.3869 42.1123 35.9828 36.8777 35.9828 31.5187C35.9881 14.7443 49.6832 1.1001 66.5108 1.1001C74.6772 1.10275 82.3411 4.27262 88.1063 10.0213C93.8716 15.77 97.044 23.4138 97.0387 31.5399C97.0307 48.3115 83.3357 61.9558 66.5108 61.9558H66.4975C61.3891 61.9531 56.3685 60.6756 51.9089 58.2532L35.7275 62.4858Z" fill="url(#paint0_linear)"/>
<path fill-rule="evenodd" clip-rule="evenodd" d="M58.613 18.3352C58.02 17.0233 57.3978 16.9968 56.834 16.9756C56.374 16.957 55.8474 16.957 55.3209 16.957C54.7944 16.957 53.9381 17.1532 53.2148 17.943C52.4915 18.7301 50.4492 20.6358 50.4492 24.5107C50.4492 28.3855 53.2813 32.1305 53.6749 32.6553C54.0711 33.1801 59.1422 41.3857 67.1731 44.5423C73.8478 47.1662 75.2066 46.6441 76.6559 46.5116C78.1052 46.379 81.3308 44.6059 81.9903 42.7692C82.6498 40.9298 82.6498 39.3555 82.4504 39.0242C82.2536 38.6956 81.727 38.4994 80.9346 38.1045C80.1448 37.7096 76.2597 35.804 75.5364 35.5416C74.8131 35.2792 74.2839 35.1467 73.7573 35.9365C73.2308 36.7237 71.7177 38.4968 71.255 39.0216C70.795 39.549 70.3323 39.6126 69.5425 39.2203C68.7527 38.8254 66.2078 37.9959 63.1896 35.311C60.8415 33.2225 59.2539 30.6463 58.7939 29.8565C58.3338 29.0693 58.7433 28.6426 59.1396 28.2504C59.4932 27.8979 59.9294 27.3307 60.3256 26.8722C60.7192 26.411 60.8521 26.085 61.1154 25.5602C61.3786 25.0354 61.2483 24.5743 61.0489 24.1794C60.8495 23.7871 59.3151 19.891 58.613 18.3352Z" fill="white"/>
<path d="M34.6267 63.5856L39.1128 47.2592C36.3446 42.4805 34.89 37.0604 34.8926 31.5079C34.898 14.1345 49.0849 0 66.5162 0C74.9752 0.00265039 82.9156 3.28384 88.8856 9.23927C94.8556 15.1947 98.1424 23.1114 98.1397 31.5317C98.1317 48.9024 83.9447 63.0396 66.5162 63.0396H66.5029C61.211 63.0369 56.0096 61.7144 51.3905 59.2045L34.6267 63.5856ZM52.167 53.5008L53.127 54.068C57.161 56.4534 61.7881 57.7176 66.5055 57.7203H66.5162C81.0036 57.7203 92.7947 45.9711 92.8 31.5317C92.8026 24.5347 90.0716 17.9538 85.1095 13.0055C80.1474 8.05454 73.5472 5.32729 66.5268 5.32464C52.0287 5.32464 40.2377 17.0712 40.2324 31.5105C40.2297 36.4588 41.6205 41.2772 44.2505 45.4463L44.8754 46.4375L42.2188 56.1009L52.167 53.5008Z" fill="url(#paint1_linear)"/>
<path d="M12.4442 87.5384H12.6467L16.6148 101.522H19.881L25.1044 81.9882H21.5007L18.1669 96.6487H17.978L14.0908 81.9882H11L7.16689 96.6487H6.96444L3.63069 81.9882H0L5.22333 101.522H8.50309L12.4442 87.5384Z" fill="white"/>
<path d="M28.1771 101.522H31.5243V92.9261C31.5243 90.7601 32.7525 89.3117 34.9525 89.3117C36.8961 89.3117 37.9219 90.4759 37.9219 92.7636V101.522H41.2691V91.9785C41.2691 88.4589 39.3526 86.4554 36.1943 86.4554C33.9943 86.4554 32.4151 87.4571 31.7133 89.1222H31.4703V81H28.1771V101.522Z" fill="white"/>
<path d="M48.9983 101.766C50.9284 101.766 52.548 100.926 53.3713 99.4915H53.6008V101.522H56.8265V91.4099C56.8265 88.2829 54.694 86.4419 50.9014 86.4419C47.3921 86.4419 44.9492 88.0934 44.6793 90.6789H47.8375C48.148 89.6637 49.2007 89.1086 50.7394 89.1086C52.548 89.1086 53.5198 89.9344 53.5198 91.4099V92.6824L49.7136 92.9125C46.1234 93.1156 44.1124 94.6723 44.1124 97.3256C44.1124 100.033 46.1504 101.766 48.9983 101.766ZM49.9836 99.1801C48.4989 99.1801 47.4326 98.4356 47.4326 97.1631C47.4326 95.9313 48.3099 95.2409 50.186 95.119L53.5198 94.8889V96.0937C53.5198 97.8535 52.0081 99.1801 49.9836 99.1801Z" fill="white"/>
<path d="M61.6268 83.0982V86.8209H59.2919V89.4335H61.6268V97.5963C61.6268 100.453 62.9765 101.59 66.3643 101.59C67.0121 101.59 67.633 101.536 68.1189 101.441V98.8688C67.714 98.9094 67.4575 98.9365 66.9851 98.9365C65.5814 98.9365 64.9606 98.2732 64.9606 96.7976V89.4335H68.1189V86.8209H64.9606V83.0982H61.6268Z" fill="white"/>
<path d="M70.6382 90.9497C70.6382 93.1697 71.9744 94.4693 74.8088 95.119L77.4272 95.7282C78.8309 96.0531 79.4652 96.5946 79.4652 97.4339C79.4652 98.5574 78.291 99.329 76.6039 99.329C74.9302 99.329 73.891 98.6522 73.567 97.5557H70.2603C70.5167 100.222 72.8382 101.82 76.5229 101.82C80.2076 101.82 82.8125 99.9382 82.8125 97.109C82.8125 94.9295 81.5033 93.7247 78.6824 93.075L76.0775 92.4929C74.5928 92.1409 73.891 91.613 73.891 90.7737C73.891 89.6772 75.0382 88.9327 76.5634 88.9327C78.129 88.9327 79.1143 89.6095 79.3572 90.6518H82.502C82.2591 87.9851 80.0591 86.4419 76.5499 86.4419C73.0677 86.4419 70.6382 88.2964 70.6382 90.9497Z" fill="white"/>
<path d="M89.9613 101.766C91.8913 101.766 93.511 100.926 94.3343 99.4915H94.5637V101.522H97.7895V91.4099C97.7895 88.2829 95.657 86.4419 91.8643 86.4419C88.3551 86.4419 85.9122 88.0934 85.6422 90.6789H88.8005C89.1109 89.6637 90.1637 89.1086 91.7024 89.1086C93.511 89.1086 94.4827 89.9344 94.4827 91.4099V92.6824L90.6766 92.9125C87.0864 93.1156 85.0754 94.6723 85.0754 97.3256C85.0754 100.033 87.1134 101.766 89.9613 101.766ZM90.9465 99.1801C89.4619 99.1801 88.3956 98.4356 88.3956 97.1631C88.3956 95.9313 89.2729 95.2409 91.149 95.119L94.4827 94.8889V96.0937C94.4827 97.8535 92.9711 99.1801 90.9465 99.1801Z" fill="white"/>
<path d="M109.568 86.4825C107.543 86.4825 105.829 87.4977 104.979 89.1763H104.749V86.7261H101.524V106.436H104.871V99.2749H105.1C105.856 100.845 107.489 101.766 109.608 101.766C113.333 101.766 115.655 98.8282 115.655 94.1308C115.655 89.3929 113.306 86.4825 109.568 86.4825ZM108.515 98.9771C106.234 98.9771 104.817 97.1225 104.803 94.1308C104.817 91.1392 106.247 89.2846 108.528 89.2846C110.823 89.2846 112.213 91.0986 112.213 94.1308C112.213 97.1631 110.836 98.9771 108.515 98.9771Z" fill="white"/>
<path d="M126.758 86.4825C124.734 86.4825 123.02 87.4977 122.169 89.1763H121.94V86.7261H118.714V106.436H122.061V99.2749H122.291C123.047 100.845 124.68 101.766 126.799 101.766C130.524 101.766 132.845 98.8282 132.845 94.1308C132.845 89.3929 130.497 86.4825 126.758 86.4825ZM125.706 98.9771C123.425 98.9771 122.007 97.1225 121.994 94.1308C122.007 91.1392 123.438 89.2846 125.719 89.2846C128.013 89.2846 129.404 91.0986 129.404 94.1308C129.404 97.1631 128.027 98.9771 125.706 98.9771Z" fill="white"/>
<defs>
<linearGradient id="paint0_linear" x1="66.3822" y1="62.4847" x2="66.3822" y2="1.10139" gradientUnits="userSpaceOnUse">
<stop stop-color="#20B038"/>
<stop offset="1" stop-color="#60D66A"/>
</linearGradient>
<linearGradient id="paint1_linear" x1="66.3825" y1="63.5848" x2="66.3825" y2="0.000181917" gradientUnits="userSpaceOnUse">
<stop stop-color="#F9F9F9"/>
<stop offset="1" stop-color="white"/>
</linearGradient>
</defs>
</svg>
